%TF.GenerationSoftware,KiCad,Pcbnew,10.0.5*%
%TF.CreationDate,2026-09-11T18:18:07-05:00*%
%TF.ProjectId,PS-HVCarrier,50532d48-5643-4617-9272-6965722e6b69,rev?*%
%TF.SameCoordinates,Original*%
%TF.FileFunction,Soldermask,Bot*%
%TF.FilePolarity,Negative*%
%FSLAX46Y46*%
G04 Gerber Fmt 4.6, Leading zero omitted, Abs format (unit mm)*
G04 Created by KiCad (PCBNEW 10.0.5) date 2026-09-11 18:18:07*
%MOMM*%
%LPD*%
G01*
G04 APERTURE LIST*
G04 Aperture macros list*
%AMRoundRect*
0 Rectangle with rounded corners*
0 $1 Rounding radius*
0 $2 $3 $4 $5 $6 $7 $8 $9 X,Y pos of 4 corners*
0 Add a 4 corners polygon primitive as box body*
4,1,4,$2,$3,$4,$5,$6,$7,$8,$9,$2,$3,0*
0 Add four circle primitives for the rounded corners*
1,1,$1+$1,$2,$3*
1,1,$1+$1,$4,$5*
1,1,$1+$1,$6,$7*
1,1,$1+$1,$8,$9*
0 Add four rect primitives between the rounded corners*
20,1,$1+$1,$2,$3,$4,$5,0*
20,1,$1+$1,$4,$5,$6,$7,0*
20,1,$1+$1,$6,$7,$8,$9,0*
20,1,$1+$1,$8,$9,$2,$3,0*%
%AMFreePoly0*
4,1,22,0.945671,0.830970,1.026777,0.776777,1.080970,0.695671,1.100000,0.600000,1.100000,-0.600000,1.080970,-0.695671,1.026777,-0.776777,0.945671,-0.830970,0.850000,-0.850000,-0.850000,-0.850000,-0.945671,-0.830970,-1.026777,-0.776777,-1.080970,-0.695671,-1.100000,-0.600000,-1.100000,0.200000,-1.080970,0.295671,-1.026777,0.376777,-0.626777,0.776777,-0.545671,0.830970,-0.450000,0.850000,
0.850000,0.850000,0.945671,0.830970,0.945671,0.830970,$1*%
%AMFreePoly1*
4,1,22,0.945671,0.830970,1.026777,0.776777,1.080970,0.695671,1.100000,0.600000,1.100000,-0.600000,1.080970,-0.695671,1.026777,-0.776777,0.945671,-0.830970,0.850000,-0.850000,-0.850000,-0.850000,-0.945671,-0.830970,-1.026777,-0.776777,-1.080970,-0.695671,-1.100000,-0.600000,-1.100000,0.346447,-1.080970,0.442118,-1.026777,0.523224,-0.773224,0.776777,-0.692118,0.830970,-0.596447,0.850000,
0.850000,0.850000,0.945671,0.830970,0.945671,0.830970,$1*%
G04 Aperture macros list end*
%ADD10C,3.000000*%
%ADD11C,0.650000*%
%ADD12O,1.000000X2.100000*%
%ADD13O,1.000000X1.800000*%
%ADD14C,2.400000*%
%ADD15C,3.200000*%
%ADD16R,1.700000X1.700000*%
%ADD17C,1.700000*%
%ADD18C,1.300000*%
%ADD19FreePoly0,0.000000*%
%ADD20O,2.200000X1.700000*%
%ADD21C,2.250000*%
%ADD22FreePoly1,0.000000*%
%ADD23RoundRect,0.250000X-0.850000X-0.600000X0.850000X-0.600000X0.850000X0.600000X-0.850000X0.600000X0*%
%ADD24RoundRect,0.250000X0.850000X0.600000X-0.850000X0.600000X-0.850000X-0.600000X0.850000X-0.600000X0*%
%ADD25C,1.752600*%
%ADD26C,1.346200*%
%ADD27RoundRect,0.250000X0.600000X-0.850000X0.600000X0.850000X-0.600000X0.850000X-0.600000X-0.850000X0*%
%ADD28O,1.700000X2.200000*%
%ADD29RoundRect,0.250000X-0.600000X0.850000X-0.600000X-0.850000X0.600000X-0.850000X0.600000X0.850000X0*%
G04 APERTURE END LIST*
D10*
%TO.C,TP41*%
X125200000Y-44900000D03*
%TD*%
D11*
%TO.C,J6*%
X137410000Y-44317500D03*
X131630000Y-44317500D03*
D12*
X138840000Y-44817500D03*
X130200000Y-44817500D03*
D13*
X130200000Y-40637500D03*
X138840000Y-40637500D03*
%TD*%
D10*
%TO.C,TP4*%
X177100000Y-63700000D03*
%TD*%
%TO.C,TP39*%
X91500000Y-85100000D03*
%TD*%
%TO.C,TP13*%
X184750000Y-77500000D03*
%TD*%
D14*
%TO.C,F1*%
X156765000Y-64500643D03*
X156765000Y-67900643D03*
X170235000Y-64500643D03*
X170235000Y-67900643D03*
%TD*%
D10*
%TO.C,TP10*%
X184750000Y-61550000D03*
%TD*%
%TO.C,TP26*%
X126440000Y-102000000D03*
%TD*%
D15*
%TO.C,H4*%
X184600000Y-151000000D03*
%TD*%
D10*
%TO.C,TP35*%
X112900000Y-96400000D03*
%TD*%
D16*
%TO.C,JP1*%
X99485000Y-66150643D03*
D17*
X102025000Y-66150643D03*
%TD*%
D10*
%TO.C,TP32*%
X168300000Y-105500000D03*
%TD*%
%TO.C,TP24*%
X151000000Y-92800000D03*
%TD*%
%TO.C,TP34*%
X155180000Y-97800000D03*
%TD*%
%TO.C,TP5*%
X83500000Y-45300000D03*
%TD*%
D18*
%TO.C,J12*%
X175390000Y-104650643D03*
D19*
X176730000Y-105900643D03*
D20*
X176730000Y-103400643D03*
%TD*%
D10*
%TO.C,TP_1*%
X83600000Y-67900000D03*
%TD*%
%TO.C,TP1*%
X120100000Y-149200000D03*
%TD*%
D18*
%TO.C,S1*%
X146000000Y-80063143D03*
X146000000Y-82063143D03*
X146000000Y-84063143D03*
D21*
X146000000Y-77963143D03*
X146000000Y-86163143D03*
%TD*%
D10*
%TO.C,TP19*%
X105200000Y-149300000D03*
%TD*%
D16*
%TO.C,J8*%
X116810000Y-76150643D03*
D17*
X114270000Y-76150643D03*
X111730000Y-76150643D03*
X109190000Y-76150643D03*
%TD*%
D18*
%TO.C,J13*%
X175590000Y-114950643D03*
D19*
X176930000Y-116200643D03*
D20*
X176930000Y-113700643D03*
%TD*%
D10*
%TO.C,TP29*%
X120750000Y-102000000D03*
%TD*%
D16*
%TO.C,JP2*%
X91625000Y-74675643D03*
D17*
X94165000Y-74675643D03*
%TD*%
D10*
%TO.C,TP9*%
X161000000Y-43500000D03*
%TD*%
%TO.C,TP40*%
X120700000Y-45000000D03*
%TD*%
%TO.C,TP25*%
X75600000Y-106000000D03*
%TD*%
D15*
%TO.C,H3*%
X78000000Y-151000000D03*
%TD*%
D10*
%TO.C,TP42*%
X89000000Y-46700000D03*
%TD*%
%TO.C,TP12*%
X184750000Y-50050000D03*
%TD*%
%TO.C,TP23*%
X145100000Y-92800000D03*
%TD*%
%TO.C,TP36*%
X75700000Y-100700000D03*
%TD*%
%TO.C,TP27*%
X132700000Y-149300000D03*
%TD*%
%TO.C,TP38*%
X184900000Y-102400000D03*
%TD*%
%TO.C,TP11*%
X184750000Y-55600000D03*
%TD*%
%TO.C,TP31*%
X184900000Y-96500000D03*
%TD*%
D18*
%TO.C,J1*%
X175185000Y-91800643D03*
D22*
X176525000Y-95550643D03*
D20*
X176525000Y-93050643D03*
X176525000Y-90550643D03*
%TD*%
D10*
%TO.C,TP21*%
X75700000Y-95200000D03*
%TD*%
%TO.C,TP3*%
X184750000Y-66750000D03*
%TD*%
%TO.C,TP33*%
X107400000Y-96400000D03*
%TD*%
%TO.C,TP22*%
X80500000Y-95200000D03*
%TD*%
D15*
%TO.C,H1*%
X78000000Y-44100000D03*
%TD*%
%TO.C,H2*%
X184600000Y-44100000D03*
%TD*%
D18*
%TO.C,J9*%
X175660000Y-51400643D03*
D23*
X177000000Y-57650643D03*
D20*
X177000000Y-55150643D03*
X177000000Y-52650643D03*
X177000000Y-50150643D03*
X177000000Y-47650643D03*
%TD*%
D10*
%TO.C,TP28*%
X112100000Y-149200000D03*
%TD*%
%TO.C,TP8*%
X171500000Y-43500000D03*
%TD*%
%TO.C,TP17*%
X185100000Y-108700000D03*
%TD*%
D18*
%TO.C,J5*%
X85140000Y-57800643D03*
D24*
X83800000Y-51550643D03*
D20*
X83800000Y-54050643D03*
X83800000Y-56550643D03*
X83800000Y-59050643D03*
X83800000Y-61550643D03*
%TD*%
D10*
%TO.C,TP16*%
X184750000Y-72000000D03*
%TD*%
%TO.C,TP30*%
X120750000Y-107020000D03*
%TD*%
%TO.C,TP20*%
X127400000Y-149300000D03*
%TD*%
%TO.C,TP15*%
X185000000Y-113900000D03*
%TD*%
D18*
%TO.C,J10*%
X174735000Y-78650643D03*
D23*
X176075000Y-82400643D03*
D20*
X176075000Y-79900643D03*
X176075000Y-77400643D03*
X176075000Y-74900643D03*
%TD*%
D10*
%TO.C,TP18*%
X184750000Y-83250000D03*
%TD*%
D25*
%TO.C,J3*%
X83460000Y-73200642D03*
X83460000Y-75700643D03*
X83460000Y-78200643D03*
X83460000Y-80700643D03*
X83460000Y-83200643D03*
X83460000Y-85700643D03*
X83460000Y-88200643D03*
X83460000Y-90700643D03*
D26*
X84800000Y-81950643D03*
%TD*%
D10*
%TO.C,TP7*%
X166400000Y-43500000D03*
%TD*%
%TO.C,TP37*%
X146500000Y-98200000D03*
%TD*%
%TO.C,TP14*%
X184750000Y-88700000D03*
%TD*%
D18*
%TO.C,J2*%
X151250000Y-46240643D03*
D27*
X155000000Y-44900643D03*
D28*
X152500000Y-44900643D03*
X150000000Y-44900643D03*
X147500000Y-44900643D03*
%TD*%
D18*
%TO.C,J4*%
X120912500Y-142210643D03*
D29*
X114662500Y-143550643D03*
D28*
X117162500Y-143550643D03*
X119662500Y-143550643D03*
X122162500Y-143550643D03*
X124662500Y-143550643D03*
%TD*%
M02*
