%TF.GenerationSoftware,KiCad,Pcbnew,10.0.5*%
%TF.CreationDate,2026-09-11T18:18:07-05:00*%
%TF.ProjectId,PS-HVCarrier,50532d48-5643-4617-9272-6965722e6b69,rev?*%
%TF.SameCoordinates,Original*%
%TF.FileFunction,Paste,Top*%
%TF.FilePolarity,Positive*%
%FSLAX46Y46*%
G04 Gerber Fmt 4.6, Leading zero omitted, Abs format (unit mm)*
G04 Created by KiCad (PCBNEW 10.0.5) date 2026-09-11 18:18:07*
%MOMM*%
%LPD*%
G01*
G04 APERTURE LIST*
G04 Aperture macros list*
%AMRoundRect*
0 Rectangle with rounded corners*
0 $1 Rounding radius*
0 $2 $3 $4 $5 $6 $7 $8 $9 X,Y pos of 4 corners*
0 Add a 4 corners polygon primitive as box body*
4,1,4,$2,$3,$4,$5,$6,$7,$8,$9,$2,$3,0*
0 Add four circle primitives for the rounded corners*
1,1,$1+$1,$2,$3*
1,1,$1+$1,$4,$5*
1,1,$1+$1,$6,$7*
1,1,$1+$1,$8,$9*
0 Add four rect primitives between the rounded corners*
20,1,$1+$1,$2,$3,$4,$5,0*
20,1,$1+$1,$4,$5,$6,$7,0*
20,1,$1+$1,$6,$7,$8,$9,0*
20,1,$1+$1,$8,$9,$2,$3,0*%
G04 Aperture macros list end*
%ADD10RoundRect,0.150000X0.150000X0.425000X-0.150000X0.425000X-0.150000X-0.425000X0.150000X-0.425000X0*%
%ADD11RoundRect,0.075000X0.075000X0.500000X-0.075000X0.500000X-0.075000X-0.500000X0.075000X-0.500000X0*%
%ADD12O,1.000000X2.100000*%
%ADD13O,1.000000X1.800000*%
%ADD14RoundRect,0.237500X-0.250000X-0.237500X0.250000X-0.237500X0.250000X0.237500X-0.250000X0.237500X0*%
%ADD15RoundRect,0.237500X-0.237500X0.300000X-0.237500X-0.300000X0.237500X-0.300000X0.237500X0.300000X0*%
%ADD16R,2.743200X0.990600*%
%ADD17RoundRect,0.250000X0.300000X-0.300000X0.300000X0.300000X-0.300000X0.300000X-0.300000X-0.300000X0*%
%ADD18RoundRect,0.237500X0.300000X0.237500X-0.300000X0.237500X-0.300000X-0.237500X0.300000X-0.237500X0*%
%ADD19RoundRect,0.225000X0.375000X-0.225000X0.375000X0.225000X-0.375000X0.225000X-0.375000X-0.225000X0*%
%ADD20RoundRect,0.200000X-0.200000X-0.275000X0.200000X-0.275000X0.200000X0.275000X-0.200000X0.275000X0*%
%ADD21RoundRect,0.250000X-0.300000X0.300000X-0.300000X-0.300000X0.300000X-0.300000X0.300000X0.300000X0*%
%ADD22RoundRect,0.237500X-0.300000X-0.237500X0.300000X-0.237500X0.300000X0.237500X-0.300000X0.237500X0*%
%ADD23R,1.528000X0.650000*%
%ADD24RoundRect,0.237500X0.237500X-0.250000X0.237500X0.250000X-0.237500X0.250000X-0.237500X-0.250000X0*%
%ADD25RoundRect,0.250000X0.450000X-0.350000X0.450000X0.350000X-0.450000X0.350000X-0.450000X-0.350000X0*%
%ADD26RoundRect,0.237500X0.250000X0.237500X-0.250000X0.237500X-0.250000X-0.237500X0.250000X-0.237500X0*%
%ADD27RoundRect,0.237500X0.237500X-0.300000X0.237500X0.300000X-0.237500X0.300000X-0.237500X-0.300000X0*%
%ADD28RoundRect,0.175000X-0.325000X-0.175000X0.325000X-0.175000X0.325000X0.175000X-0.325000X0.175000X0*%
%ADD29RoundRect,0.250000X-0.475000X0.337500X-0.475000X-0.337500X0.475000X-0.337500X0.475000X0.337500X0*%
%ADD30RoundRect,0.250000X-1.100000X0.412500X-1.100000X-0.412500X1.100000X-0.412500X1.100000X0.412500X0*%
%ADD31RoundRect,0.237500X-0.237500X0.250000X-0.237500X-0.250000X0.237500X-0.250000X0.237500X0.250000X0*%
%ADD32RoundRect,0.150000X-0.825000X-0.150000X0.825000X-0.150000X0.825000X0.150000X-0.825000X0.150000X0*%
%ADD33R,1.970000X1.670000*%
%ADD34RoundRect,0.112500X0.187500X0.112500X-0.187500X0.112500X-0.187500X-0.112500X0.187500X-0.112500X0*%
%ADD35R,0.622132X2.602784*%
%ADD36R,0.304800X1.193800*%
%ADD37R,1.193800X0.304800*%
%ADD38RoundRect,0.225000X0.225000X0.250000X-0.225000X0.250000X-0.225000X-0.250000X0.225000X-0.250000X0*%
%ADD39RoundRect,0.250000X0.475000X-0.337500X0.475000X0.337500X-0.475000X0.337500X-0.475000X-0.337500X0*%
%ADD40RoundRect,0.250000X-0.900000X1.000000X-0.900000X-1.000000X0.900000X-1.000000X0.900000X1.000000X0*%
%ADD41RoundRect,0.250000X-0.300000X-0.300000X0.300000X-0.300000X0.300000X0.300000X-0.300000X0.300000X0*%
%ADD42R,0.320000X0.660000*%
%ADD43R,0.599999X1.100000*%
%ADD44RoundRect,0.218750X0.256250X-0.218750X0.256250X0.218750X-0.256250X0.218750X-0.256250X-0.218750X0*%
%ADD45R,1.900000X2.400000*%
%ADD46RoundRect,0.250000X0.337500X0.475000X-0.337500X0.475000X-0.337500X-0.475000X0.337500X-0.475000X0*%
%ADD47RoundRect,0.237500X-0.237500X0.287500X-0.237500X-0.287500X0.237500X-0.287500X0.237500X0.287500X0*%
%ADD48RoundRect,0.237500X0.287500X0.237500X-0.287500X0.237500X-0.287500X-0.237500X0.287500X-0.237500X0*%
%ADD49RoundRect,0.150000X0.150000X0.300000X-0.150000X0.300000X-0.150000X-0.300000X0.150000X-0.300000X0*%
%ADD50RoundRect,0.150000X0.300000X-0.150000X0.300000X0.150000X-0.300000X0.150000X-0.300000X-0.150000X0*%
%ADD51RoundRect,0.125000X0.400000X-0.175000X0.400000X0.175000X-0.400000X0.175000X-0.400000X-0.175000X0*%
%ADD52RoundRect,0.150000X0.150000X-0.825000X0.150000X0.825000X-0.150000X0.825000X-0.150000X-0.825000X0*%
%ADD53RoundRect,0.375000X-0.625000X-0.375000X0.625000X-0.375000X0.625000X0.375000X-0.625000X0.375000X0*%
%ADD54RoundRect,0.500000X-0.500000X-1.400000X0.500000X-1.400000X0.500000X1.400000X-0.500000X1.400000X0*%
%ADD55RoundRect,0.150000X-0.150000X-0.300000X0.150000X-0.300000X0.150000X0.300000X-0.150000X0.300000X0*%
%ADD56RoundRect,0.150000X-0.300000X0.150000X-0.300000X-0.150000X0.300000X-0.150000X0.300000X0.150000X0*%
%ADD57RoundRect,0.125000X-0.400000X0.175000X-0.400000X-0.175000X0.400000X-0.175000X0.400000X0.175000X0*%
%ADD58RoundRect,0.237500X0.237500X-0.287500X0.237500X0.287500X-0.237500X0.287500X-0.237500X-0.287500X0*%
%ADD59R,1.200000X2.500000*%
%ADD60R,1.000000X0.750000*%
%ADD61RoundRect,0.250000X0.300000X0.300000X-0.300000X0.300000X-0.300000X-0.300000X0.300000X-0.300000X0*%
%ADD62R,0.550000X0.400000*%
%ADD63R,0.700000X0.500000*%
%ADD64RoundRect,0.250000X0.250000X-0.250000X0.250000X0.250000X-0.250000X0.250000X-0.250000X-0.250000X0*%
%ADD65R,0.330000X0.360000*%
%ADD66R,2.500000X9.000000*%
%ADD67RoundRect,0.200000X0.200000X0.275000X-0.200000X0.275000X-0.200000X-0.275000X0.200000X-0.275000X0*%
%ADD68R,1.200000X0.450000*%
G04 APERTURE END LIST*
D10*
%TO.C,J6*%
X137720000Y-45392500D03*
X136920000Y-45392500D03*
D11*
X135770000Y-45392500D03*
X134770000Y-45392500D03*
X134270000Y-45392500D03*
X133270000Y-45392500D03*
D10*
X132120000Y-45392500D03*
X131320000Y-45392500D03*
X131320000Y-45392500D03*
X132120000Y-45392500D03*
D11*
X132770000Y-45392500D03*
X133770000Y-45392500D03*
X135270000Y-45392500D03*
X136270000Y-45392500D03*
D10*
X136920000Y-45392500D03*
X137720000Y-45392500D03*
D12*
X138840000Y-44817500D03*
X130200000Y-44817500D03*
D13*
X130200000Y-40637500D03*
X138840000Y-40637500D03*
%TD*%
D14*
%TO.C,R49*%
X149687500Y-79563143D03*
X151512500Y-79563143D03*
%TD*%
D15*
%TO.C,C11*%
X112000000Y-70225643D03*
X112000000Y-71950643D03*
%TD*%
D16*
%TO.C,J7*%
X114224999Y-82690244D03*
X109975000Y-82690244D03*
X114224999Y-80690242D03*
X109975000Y-80690242D03*
%TD*%
D14*
%TO.C,R34*%
X110375000Y-61218143D03*
X112200000Y-61218143D03*
%TD*%
D17*
%TO.C,D26*%
X140162500Y-104050643D03*
X140162500Y-101250643D03*
%TD*%
%TO.C,D22*%
X98362500Y-102950643D03*
X98362500Y-100150643D03*
%TD*%
D18*
%TO.C,C87*%
X145600000Y-104740643D03*
X143875000Y-104740643D03*
%TD*%
D19*
%TO.C,D8*%
X138100000Y-54350643D03*
X138100000Y-51050643D03*
%TD*%
D20*
%TO.C,R87*%
X125262500Y-53650643D03*
X126912500Y-53650643D03*
%TD*%
D21*
%TO.C,D13*%
X166700000Y-57963143D03*
X166700000Y-60763143D03*
%TD*%
D22*
%TO.C,C19*%
X106206943Y-128413143D03*
X107931943Y-128413143D03*
%TD*%
D23*
%TO.C,IC2*%
X107922000Y-73175643D03*
X107922000Y-71905643D03*
X107922000Y-70635643D03*
X107922000Y-69365643D03*
X102500000Y-69365643D03*
X102500000Y-70635643D03*
X102500000Y-71905643D03*
X102500000Y-73175643D03*
%TD*%
D24*
%TO.C,R60*%
X89062500Y-132325643D03*
X89062500Y-130500643D03*
%TD*%
D22*
%TO.C,C73*%
X128387500Y-128800643D03*
X130112500Y-128800643D03*
%TD*%
%TO.C,C74*%
X124700000Y-109450643D03*
X126425000Y-109450643D03*
%TD*%
D24*
%TO.C,R55*%
X162200000Y-109500643D03*
X162200000Y-107675643D03*
%TD*%
D25*
%TO.C,R19*%
X113456943Y-130613143D03*
X113456943Y-128613143D03*
%TD*%
D21*
%TO.C,D17*%
X153700000Y-78163143D03*
X153700000Y-80963143D03*
%TD*%
D22*
%TO.C,C69*%
X132025000Y-126500643D03*
X133750000Y-126500643D03*
%TD*%
D24*
%TO.C,R35*%
X170600000Y-57963143D03*
X170600000Y-56138143D03*
%TD*%
D22*
%TO.C,C41*%
X130737500Y-80750643D03*
X132462500Y-80750643D03*
%TD*%
D24*
%TO.C,R36*%
X168200000Y-52050643D03*
X168200000Y-50225643D03*
%TD*%
D22*
%TO.C,C52*%
X156137500Y-128550643D03*
X157862500Y-128550643D03*
%TD*%
D26*
%TO.C,R16*%
X94200000Y-71850643D03*
X92375000Y-71850643D03*
%TD*%
D18*
%TO.C,C26*%
X114519443Y-106813143D03*
X112794443Y-106813143D03*
%TD*%
D27*
%TO.C,C82*%
X94462500Y-106650643D03*
X94462500Y-104925643D03*
%TD*%
D24*
%TO.C,R7*%
X98100000Y-55898143D03*
X98100000Y-54073143D03*
%TD*%
D23*
%TO.C,IC3*%
X99522000Y-81330643D03*
X99522000Y-80060643D03*
X99522000Y-78790643D03*
X99522000Y-77520643D03*
X94100000Y-77520643D03*
X94100000Y-78790643D03*
X94100000Y-80060643D03*
X94100000Y-81330643D03*
%TD*%
D28*
%TO.C,U3*%
X96900000Y-73675643D03*
X96900000Y-75575643D03*
X99300000Y-74625643D03*
%TD*%
D22*
%TO.C,C28*%
X122037500Y-95875643D03*
X123762500Y-95875643D03*
%TD*%
D29*
%TO.C,C30*%
X120800000Y-89675643D03*
X120800000Y-91750643D03*
%TD*%
D27*
%TO.C,C79*%
X135200000Y-61013143D03*
X135200000Y-59288143D03*
%TD*%
D18*
%TO.C,C80*%
X135932500Y-54305643D03*
X134207500Y-54305643D03*
%TD*%
D24*
%TO.C,R70*%
X133200000Y-109475643D03*
X133200000Y-107650643D03*
%TD*%
D27*
%TO.C,C57*%
X158700000Y-107475643D03*
X158700000Y-105750643D03*
%TD*%
D30*
%TO.C,C92*%
X133600000Y-68288143D03*
X133600000Y-71413143D03*
%TD*%
D15*
%TO.C,C15*%
X103800000Y-78700643D03*
X103800000Y-80425643D03*
%TD*%
D22*
%TO.C,C51*%
X163275000Y-126550643D03*
X165000000Y-126550643D03*
%TD*%
D14*
%TO.C,R8*%
X110375000Y-57500643D03*
X112200000Y-57500643D03*
%TD*%
D18*
%TO.C,C2*%
X113412500Y-42860643D03*
X111687500Y-42860643D03*
%TD*%
D31*
%TO.C,R4*%
X89300000Y-70025643D03*
X89300000Y-71850643D03*
%TD*%
D22*
%TO.C,C3*%
X111687500Y-44660643D03*
X113412500Y-44660643D03*
%TD*%
D18*
%TO.C,C59*%
X163825000Y-105650643D03*
X162100000Y-105650643D03*
%TD*%
D22*
%TO.C,C61*%
X82900000Y-126413143D03*
X84625000Y-126413143D03*
%TD*%
D24*
%TO.C,R22*%
X112831943Y-110438143D03*
X112831943Y-108613143D03*
%TD*%
D25*
%TO.C,R51*%
X163400000Y-134650643D03*
X163400000Y-132650643D03*
%TD*%
D32*
%TO.C,U11*%
X98262500Y-105510643D03*
X98262500Y-106780643D03*
X98262500Y-108050643D03*
X98262500Y-109320643D03*
X103212500Y-109320643D03*
X103212500Y-108050643D03*
X103212500Y-106780643D03*
X103212500Y-105510643D03*
%TD*%
D25*
%TO.C,R64*%
X131950000Y-138800643D03*
X131950000Y-136800643D03*
%TD*%
D22*
%TO.C,C21*%
X109787500Y-126550643D03*
X111512500Y-126550643D03*
%TD*%
D33*
%TO.C,D6*%
X108925000Y-42850643D03*
X104875000Y-42850643D03*
%TD*%
D34*
%TO.C,D11*%
X104850000Y-93750643D03*
X102750000Y-93750643D03*
%TD*%
D26*
%TO.C,R33*%
X99500000Y-95050643D03*
X97675000Y-95050643D03*
%TD*%
D35*
%TO.C,U4*%
X106631943Y-122950643D03*
X107901943Y-122950643D03*
X109171943Y-122950643D03*
X110441943Y-122950643D03*
X111711943Y-122950643D03*
X112981943Y-122950643D03*
X114251943Y-122950643D03*
X115521943Y-122950643D03*
X115521943Y-113819650D03*
X114251943Y-113819650D03*
X112981943Y-113819650D03*
X111711943Y-113819650D03*
X110441943Y-113819650D03*
X109171943Y-113819650D03*
X107901943Y-113819650D03*
X106631943Y-113819650D03*
%TD*%
D22*
%TO.C,C4*%
X110425000Y-59300643D03*
X112150000Y-59300643D03*
%TD*%
D36*
%TO.C,U5*%
X123100001Y-89275641D03*
X123600000Y-89275641D03*
X124100002Y-89275641D03*
X124600001Y-89275641D03*
X125100000Y-89275641D03*
X125600001Y-89275641D03*
X126100001Y-89275641D03*
X126600002Y-89275641D03*
X127100001Y-89275641D03*
X127600000Y-89275641D03*
X128100002Y-89275641D03*
X128600001Y-89275641D03*
D37*
X130100000Y-87775642D03*
X130100000Y-87275643D03*
X130100000Y-86775641D03*
X130100000Y-86275642D03*
X130100000Y-85775643D03*
X130100000Y-85275642D03*
X130100000Y-84775642D03*
X130100000Y-84275641D03*
X130100000Y-83775642D03*
X130100000Y-83275643D03*
X130100000Y-82775641D03*
X130100000Y-82275642D03*
D36*
X128600001Y-80775643D03*
X128100002Y-80775643D03*
X127600000Y-80775643D03*
X127100001Y-80775643D03*
X126600002Y-80775643D03*
X126100001Y-80775643D03*
X125600001Y-80775643D03*
X125100000Y-80775643D03*
X124600001Y-80775643D03*
X124100002Y-80775643D03*
X123600000Y-80775643D03*
X123100001Y-80775643D03*
D37*
X121600002Y-82275642D03*
X121600002Y-82775641D03*
X121600002Y-83275643D03*
X121600002Y-83775642D03*
X121600002Y-84275641D03*
X121600002Y-84775642D03*
X121600002Y-85275642D03*
X121600002Y-85775643D03*
X121600002Y-86275642D03*
X121600002Y-86775641D03*
X121600002Y-87275643D03*
X121600002Y-87775642D03*
%TD*%
D24*
%TO.C,R80*%
X131562500Y-103763143D03*
X131562500Y-101938143D03*
%TD*%
D31*
%TO.C,R28*%
X133300000Y-93363143D03*
X133300000Y-95188143D03*
%TD*%
%TO.C,R73*%
X140870000Y-57338143D03*
X140870000Y-59163143D03*
%TD*%
D38*
%TO.C,C90*%
X124275000Y-58050643D03*
X122725000Y-58050643D03*
%TD*%
D24*
%TO.C,R40*%
X162300000Y-53850643D03*
X162300000Y-52025643D03*
%TD*%
D15*
%TO.C,C7*%
X115600000Y-46525643D03*
X115600000Y-48250643D03*
%TD*%
D35*
%TO.C,U7*%
X156000000Y-122950643D03*
X157270000Y-122950643D03*
X158540000Y-122950643D03*
X159810000Y-122950643D03*
X161080000Y-122950643D03*
X162350000Y-122950643D03*
X163620000Y-122950643D03*
X164890000Y-122950643D03*
X164890000Y-113819650D03*
X163620000Y-113819650D03*
X162350000Y-113819650D03*
X161080000Y-113819650D03*
X159810000Y-113819650D03*
X158540000Y-113819650D03*
X157270000Y-113819650D03*
X156000000Y-113819650D03*
%TD*%
D18*
%TO.C,C66*%
X87562500Y-106450643D03*
X85837500Y-106450643D03*
%TD*%
D17*
%TO.C,D16*%
X159900000Y-60718143D03*
X159900000Y-57918143D03*
%TD*%
D22*
%TO.C,C54*%
X159575000Y-128550643D03*
X161300000Y-128550643D03*
%TD*%
D25*
%TO.C,R18*%
X113456943Y-134713143D03*
X113456943Y-132713143D03*
%TD*%
D32*
%TO.C,U12*%
X140312500Y-106640643D03*
X140312500Y-107910643D03*
X140312500Y-109180643D03*
X140312500Y-110450643D03*
X145262500Y-110450643D03*
X145262500Y-109180643D03*
X145262500Y-107910643D03*
X145262500Y-106640643D03*
%TD*%
D26*
%TO.C,R10*%
X106302500Y-47750643D03*
X104477500Y-47750643D03*
%TD*%
D15*
%TO.C,C40*%
X118700000Y-89688143D03*
X118700000Y-91413143D03*
%TD*%
D22*
%TO.C,C23*%
X106006943Y-110713143D03*
X107731943Y-110713143D03*
%TD*%
D14*
%TO.C,R43*%
X161587500Y-79850643D03*
X163412500Y-79850643D03*
%TD*%
D25*
%TO.C,R58*%
X90962500Y-134713143D03*
X90962500Y-132713143D03*
%TD*%
D39*
%TO.C,C5*%
X120075000Y-51488143D03*
X120075000Y-49413143D03*
%TD*%
D28*
%TO.C,U2*%
X104825000Y-65225643D03*
X104825000Y-67125643D03*
X107225000Y-66175643D03*
%TD*%
D27*
%TO.C,C86*%
X149362500Y-109813143D03*
X149362500Y-108088143D03*
%TD*%
D40*
%TO.C,D5*%
X96130000Y-47253143D03*
X96130000Y-51553143D03*
%TD*%
D18*
%TO.C,C38*%
X136262500Y-90175643D03*
X134537500Y-90175643D03*
%TD*%
D14*
%TO.C,R3*%
X141587500Y-74850643D03*
X143412500Y-74850643D03*
%TD*%
D18*
%TO.C,C50*%
X154162500Y-76463143D03*
X152437500Y-76463143D03*
%TD*%
%TO.C,C67*%
X87625000Y-108150643D03*
X85900000Y-108150643D03*
%TD*%
D41*
%TO.C,D19*%
X104162500Y-103550643D03*
X106962500Y-103550643D03*
%TD*%
D31*
%TO.C,R11*%
X101810000Y-54073143D03*
X101810000Y-55898143D03*
%TD*%
D17*
%TO.C,D21*%
X87500000Y-104450643D03*
X87500000Y-101650643D03*
%TD*%
D42*
%TO.C,U10*%
X139370000Y-57735643D03*
X138870000Y-57735643D03*
X138370000Y-57735643D03*
X137870000Y-57735643D03*
X137870000Y-59205643D03*
X138370000Y-59205643D03*
X138870000Y-59205643D03*
X139370000Y-59205643D03*
%TD*%
D24*
%TO.C,R76*%
X112756943Y-104850643D03*
X112756943Y-103025643D03*
%TD*%
D31*
%TO.C,R27*%
X123100000Y-76863143D03*
X123100000Y-78688143D03*
%TD*%
D18*
%TO.C,FB2*%
X136300000Y-83675643D03*
X134575000Y-83675643D03*
%TD*%
D27*
%TO.C,C44*%
X152150000Y-63863143D03*
X152150000Y-62138143D03*
%TD*%
D22*
%TO.C,C55*%
X159637500Y-126650643D03*
X161362500Y-126650643D03*
%TD*%
%TO.C,C65*%
X82462500Y-109950643D03*
X84187500Y-109950643D03*
%TD*%
D18*
%TO.C,C84*%
X102225000Y-103750643D03*
X100500000Y-103750643D03*
%TD*%
D43*
%TO.C,U13*%
X123662500Y-53650659D03*
X122712499Y-53650659D03*
X121762498Y-53650659D03*
X121762498Y-56350643D03*
X122712499Y-56350643D03*
X123662500Y-56350643D03*
%TD*%
D44*
%TO.C,D12*%
X101200000Y-95038143D03*
X101200000Y-93463143D03*
%TD*%
D31*
%TO.C,R38*%
X157800000Y-58838143D03*
X157800000Y-60663143D03*
%TD*%
D15*
%TO.C,C39*%
X115000000Y-89788143D03*
X115000000Y-91513143D03*
%TD*%
D35*
%TO.C,U9*%
X125262500Y-122950643D03*
X126532500Y-122950643D03*
X127802500Y-122950643D03*
X129072500Y-122950643D03*
X130342500Y-122950643D03*
X131612500Y-122950643D03*
X132882500Y-122950643D03*
X134152500Y-122950643D03*
X134152500Y-113819650D03*
X132882500Y-113819650D03*
X131612500Y-113819650D03*
X130342500Y-113819650D03*
X129072500Y-113819650D03*
X127802500Y-113819650D03*
X126532500Y-113819650D03*
X125262500Y-113819650D03*
%TD*%
D27*
%TO.C,C85*%
X136187500Y-107480643D03*
X136187500Y-105755643D03*
%TD*%
D25*
%TO.C,R57*%
X90962500Y-138813143D03*
X90962500Y-136813143D03*
%TD*%
D22*
%TO.C,C18*%
X113431943Y-126213143D03*
X115156943Y-126213143D03*
%TD*%
D21*
%TO.C,D14*%
X164500000Y-52133143D03*
X164500000Y-54933143D03*
%TD*%
D45*
%TO.C,Y1*%
X123700000Y-92975643D03*
X127800000Y-92975643D03*
%TD*%
D31*
%TO.C,R84*%
X137987500Y-105655643D03*
X137987500Y-107480643D03*
%TD*%
D26*
%TO.C,R54*%
X160512500Y-109463143D03*
X158687500Y-109463143D03*
%TD*%
D31*
%TO.C,R12*%
X117500000Y-46475643D03*
X117500000Y-48300643D03*
%TD*%
D39*
%TO.C,C93*%
X133000000Y-61088143D03*
X133000000Y-59013143D03*
%TD*%
D24*
%TO.C,R62*%
X89962500Y-110063143D03*
X89962500Y-108238143D03*
%TD*%
D15*
%TO.C,C12*%
X113600000Y-70225643D03*
X113600000Y-71950643D03*
%TD*%
D39*
%TO.C,C88*%
X122400000Y-51488143D03*
X122400000Y-49413143D03*
%TD*%
D22*
%TO.C,C29*%
X127737500Y-95875643D03*
X129462500Y-95875643D03*
%TD*%
D24*
%TO.C,R6*%
X87000000Y-63550643D03*
X87000000Y-61725643D03*
%TD*%
D18*
%TO.C,C36*%
X136300000Y-88575643D03*
X134575000Y-88575643D03*
%TD*%
D29*
%TO.C,C27*%
X142800000Y-55313143D03*
X142800000Y-57388143D03*
%TD*%
D27*
%TO.C,C48*%
X161500000Y-76213143D03*
X161500000Y-74488143D03*
%TD*%
D24*
%TO.C,R56*%
X163900000Y-109475643D03*
X163900000Y-107650643D03*
%TD*%
%TO.C,R74*%
X90062500Y-104750643D03*
X90062500Y-102925643D03*
%TD*%
D18*
%TO.C,C34*%
X136200000Y-85375643D03*
X134475000Y-85375643D03*
%TD*%
%TO.C,C71*%
X126637500Y-126500643D03*
X124912500Y-126500643D03*
%TD*%
D15*
%TO.C,C46*%
X166600000Y-52075643D03*
X166600000Y-53800643D03*
%TD*%
D26*
%TO.C,R14*%
X102912500Y-63360643D03*
X101087500Y-63360643D03*
%TD*%
%TO.C,R68*%
X129925000Y-109450643D03*
X128100000Y-109450643D03*
%TD*%
D27*
%TO.C,C78*%
X144800000Y-57413143D03*
X144800000Y-55688143D03*
%TD*%
D31*
%TO.C,R9*%
X99900000Y-54073143D03*
X99900000Y-55898143D03*
%TD*%
D24*
%TO.C,R24*%
X140950000Y-43375000D03*
X140950000Y-45200000D03*
%TD*%
D25*
%TO.C,R50*%
X163400000Y-138650643D03*
X163400000Y-136650643D03*
%TD*%
D46*
%TO.C,C9*%
X143767500Y-72850643D03*
X141692500Y-72850643D03*
%TD*%
D17*
%TO.C,D20*%
X109262500Y-103650643D03*
X109262500Y-100850643D03*
%TD*%
D24*
%TO.C,R5*%
X100200000Y-50763143D03*
X100200000Y-48938143D03*
%TD*%
D22*
%TO.C,C70*%
X124887500Y-128800643D03*
X126612500Y-128800643D03*
%TD*%
D47*
%TO.C,D2*%
X150500000Y-58150000D03*
X150500000Y-59900000D03*
%TD*%
D48*
%TO.C,D3*%
X145050000Y-74850643D03*
X146800000Y-74850643D03*
%TD*%
D27*
%TO.C,C1*%
X101900000Y-50713143D03*
X101900000Y-48988143D03*
%TD*%
D49*
%TO.C,Q1*%
X107165000Y-53600643D03*
X107165000Y-52450643D03*
X107165000Y-51300643D03*
X106315000Y-53600643D03*
X106315000Y-52450643D03*
X106315000Y-51300643D03*
X105465000Y-53600643D03*
X105465000Y-52450643D03*
X105465000Y-51300643D03*
D50*
X103615000Y-54330643D03*
X103615000Y-53050643D03*
X103615000Y-51850643D03*
X103615000Y-50570643D03*
D51*
X109335000Y-54360643D03*
X109335000Y-53090643D03*
X109335000Y-51810643D03*
X109335000Y-50540643D03*
%TD*%
D22*
%TO.C,C17*%
X94337500Y-69950643D03*
X96062500Y-69950643D03*
%TD*%
D26*
%TO.C,R45*%
X156012500Y-74363143D03*
X154187500Y-74363143D03*
%TD*%
%TO.C,R15*%
X97712500Y-71875643D03*
X95887500Y-71875643D03*
%TD*%
D52*
%TO.C,U6*%
X155795000Y-81738143D03*
X157065000Y-81738143D03*
X158335000Y-81738143D03*
X159605000Y-81738143D03*
X159605000Y-76788143D03*
X158335000Y-76788143D03*
X157065000Y-76788143D03*
X155795000Y-76788143D03*
%TD*%
D14*
%TO.C,R46*%
X158587500Y-84663143D03*
X160412500Y-84663143D03*
%TD*%
D24*
%TO.C,R63*%
X91862500Y-110038143D03*
X91862500Y-108213143D03*
%TD*%
%TO.C,R23*%
X114531943Y-110438143D03*
X114531943Y-108613143D03*
%TD*%
D14*
%TO.C,R41*%
X167200000Y-80063143D03*
X169025000Y-80063143D03*
%TD*%
D24*
%TO.C,R83*%
X163900000Y-103775643D03*
X163900000Y-101950643D03*
%TD*%
D53*
%TO.C,U1*%
X142100000Y-65650643D03*
X142100000Y-67950643D03*
D54*
X148400000Y-67950643D03*
D53*
X142100000Y-70250643D03*
%TD*%
D24*
%TO.C,R75*%
X92000000Y-104750643D03*
X92000000Y-102925643D03*
%TD*%
D22*
%TO.C,C72*%
X128387500Y-126500643D03*
X130112500Y-126500643D03*
%TD*%
D14*
%TO.C,R44*%
X161487500Y-78063143D03*
X163312500Y-78063143D03*
%TD*%
D24*
%TO.C,R2*%
X150500000Y-63863143D03*
X150500000Y-62038143D03*
%TD*%
D22*
%TO.C,C63*%
X86437500Y-128613143D03*
X88162500Y-128613143D03*
%TD*%
D18*
%TO.C,C68*%
X91725000Y-106450643D03*
X90000000Y-106450643D03*
%TD*%
D55*
%TO.C,Q2*%
X113970000Y-52590643D03*
X113970000Y-53740643D03*
X113970000Y-54890643D03*
X114820000Y-52590643D03*
X114820000Y-53740643D03*
X114820000Y-54890643D03*
X115670000Y-52590643D03*
X115670000Y-53740643D03*
X115670000Y-54890643D03*
D56*
X117520000Y-51860643D03*
X117520000Y-53140643D03*
X117520000Y-54340643D03*
X117520000Y-55620643D03*
D57*
X111800000Y-51830643D03*
X111800000Y-53100643D03*
X111800000Y-54380643D03*
X111800000Y-55650643D03*
%TD*%
D58*
%TO.C,D1*%
X113975000Y-66475000D03*
X113975000Y-64725000D03*
%TD*%
D59*
%TO.C,SW2*%
X104500000Y-84750643D03*
X102000000Y-90250643D03*
X99500000Y-84750643D03*
%TD*%
D25*
%TO.C,R65*%
X131950000Y-134900643D03*
X131950000Y-132900643D03*
%TD*%
D24*
%TO.C,R77*%
X114556943Y-104838143D03*
X114556943Y-103013143D03*
%TD*%
D30*
%TO.C,C91*%
X137200000Y-68288143D03*
X137200000Y-71413143D03*
%TD*%
D24*
%TO.C,R53*%
X161337500Y-132175643D03*
X161337500Y-130350643D03*
%TD*%
D60*
%TO.C,SW1*%
X128600000Y-76450643D03*
X133100000Y-76450643D03*
X128600000Y-74300643D03*
X133100000Y-74300643D03*
%TD*%
D17*
%TO.C,D15*%
X162400000Y-60718143D03*
X162400000Y-57918143D03*
%TD*%
D41*
%TO.C,D23*%
X147762500Y-105950643D03*
X150562500Y-105950643D03*
%TD*%
D22*
%TO.C,C56*%
X155075000Y-109463143D03*
X156800000Y-109463143D03*
%TD*%
%TO.C,C37*%
X130737500Y-79150643D03*
X132462500Y-79150643D03*
%TD*%
D61*
%TO.C,D25*%
X145562500Y-102450643D03*
X142762500Y-102450643D03*
%TD*%
D14*
%TO.C,R47*%
X155087500Y-84563143D03*
X156912500Y-84563143D03*
%TD*%
D18*
%TO.C,C20*%
X107956943Y-126513143D03*
X106231943Y-126513143D03*
%TD*%
D24*
%TO.C,R30*%
X117800000Y-81963143D03*
X117800000Y-80138143D03*
%TD*%
D18*
%TO.C,C77*%
X133262500Y-105750643D03*
X131537500Y-105750643D03*
%TD*%
D27*
%TO.C,C24*%
X109456943Y-108938143D03*
X109456943Y-107213143D03*
%TD*%
D31*
%TO.C,R29*%
X131600000Y-93363143D03*
X131600000Y-95188143D03*
%TD*%
D24*
%TO.C,R20*%
X111631943Y-132025643D03*
X111631943Y-130200643D03*
%TD*%
%TO.C,R25*%
X142800000Y-43375000D03*
X142800000Y-45200000D03*
%TD*%
%TO.C,R31*%
X119500000Y-81963143D03*
X119500000Y-80138143D03*
%TD*%
D25*
%TO.C,R17*%
X113456943Y-138913143D03*
X113456943Y-136913143D03*
%TD*%
D15*
%TO.C,C43*%
X152200000Y-68375643D03*
X152200000Y-70100643D03*
%TD*%
D24*
%TO.C,R48*%
X149700000Y-83063143D03*
X149700000Y-81238143D03*
%TD*%
%TO.C,R82*%
X162000000Y-103763143D03*
X162000000Y-101938143D03*
%TD*%
D15*
%TO.C,C45*%
X168800000Y-57905643D03*
X168800000Y-59630643D03*
%TD*%
D31*
%TO.C,R78*%
X96162500Y-104925643D03*
X96162500Y-106750643D03*
%TD*%
D27*
%TO.C,C58*%
X160400000Y-107475643D03*
X160400000Y-105750643D03*
%TD*%
D22*
%TO.C,C6*%
X104527500Y-46150643D03*
X106252500Y-46150643D03*
%TD*%
D18*
%TO.C,C53*%
X157825000Y-126650643D03*
X156100000Y-126650643D03*
%TD*%
D15*
%TO.C,C89*%
X120025000Y-55575000D03*
X120025000Y-57300000D03*
%TD*%
D62*
%TO.C,D10*%
X130350000Y-90125643D03*
X131700000Y-90125643D03*
D63*
X130275000Y-90850643D03*
X131775000Y-90850643D03*
D62*
X130350000Y-91575643D03*
X131700000Y-91575643D03*
%TD*%
D41*
%TO.C,D18*%
X155200000Y-89263143D03*
X158000000Y-89263143D03*
%TD*%
D27*
%TO.C,C83*%
X107062500Y-107513143D03*
X107062500Y-105788143D03*
%TD*%
D31*
%TO.C,R26*%
X135100000Y-93363143D03*
X135100000Y-95188143D03*
%TD*%
D64*
%TO.C,D7*%
X139605000Y-63800643D03*
X139605000Y-61300643D03*
%TD*%
D26*
%TO.C,R71*%
X138000000Y-56050643D03*
X136175000Y-56050643D03*
%TD*%
D65*
%TO.C,D9*%
X128650000Y-43820000D03*
X127950000Y-43820000D03*
X128300000Y-44980000D03*
%TD*%
D15*
%TO.C,C35*%
X116900000Y-89750643D03*
X116900000Y-91475643D03*
%TD*%
D18*
%TO.C,C13*%
X102862500Y-61275000D03*
X101137500Y-61275000D03*
%TD*%
D27*
%TO.C,C75*%
X129900000Y-107613143D03*
X129900000Y-105888143D03*
%TD*%
D29*
%TO.C,C14*%
X101800000Y-78388143D03*
X101800000Y-80463143D03*
%TD*%
D22*
%TO.C,C49*%
X155137500Y-86863143D03*
X156862500Y-86863143D03*
%TD*%
D46*
%TO.C,C8*%
X144137500Y-63150643D03*
X142062500Y-63150643D03*
%TD*%
D25*
%TO.C,R52*%
X163337500Y-130650643D03*
X163337500Y-128650643D03*
%TD*%
D66*
%TO.C,L1*%
X122962500Y-65050643D03*
X129362500Y-65050643D03*
%TD*%
D18*
%TO.C,C62*%
X84625000Y-128213143D03*
X82900000Y-128213143D03*
%TD*%
D27*
%TO.C,C25*%
X111156943Y-108938143D03*
X111156943Y-107213143D03*
%TD*%
%TO.C,C47*%
X165400000Y-79825643D03*
X165400000Y-78100643D03*
%TD*%
%TO.C,C76*%
X128100000Y-107675643D03*
X128100000Y-105950643D03*
%TD*%
D25*
%TO.C,R66*%
X131950000Y-130800643D03*
X131950000Y-128800643D03*
%TD*%
D27*
%TO.C,C32*%
X126100000Y-76938143D03*
X126100000Y-75213143D03*
%TD*%
D24*
%TO.C,R67*%
X130050000Y-132325643D03*
X130050000Y-130500643D03*
%TD*%
D25*
%TO.C,R59*%
X90962500Y-130613143D03*
X90962500Y-128613143D03*
%TD*%
D31*
%TO.C,R37*%
X168200000Y-46538143D03*
X168200000Y-48363143D03*
%TD*%
D47*
%TO.C,D4*%
X100200000Y-45400643D03*
X100200000Y-47150643D03*
%TD*%
D26*
%TO.C,R61*%
X87675000Y-110050643D03*
X85850000Y-110050643D03*
%TD*%
D21*
%TO.C,D24*%
X151562500Y-108250643D03*
X151562500Y-111050643D03*
%TD*%
D26*
%TO.C,R72*%
X135982500Y-52705643D03*
X134157500Y-52705643D03*
%TD*%
D22*
%TO.C,C64*%
X86437500Y-126413143D03*
X88162500Y-126413143D03*
%TD*%
D27*
%TO.C,C81*%
X142700000Y-61213143D03*
X142700000Y-59488143D03*
%TD*%
D31*
%TO.C,R85*%
X147662500Y-108013143D03*
X147662500Y-109838143D03*
%TD*%
D14*
%TO.C,R42*%
X167187500Y-77863143D03*
X169012500Y-77863143D03*
%TD*%
D24*
%TO.C,R81*%
X133362500Y-103775643D03*
X133362500Y-101950643D03*
%TD*%
D18*
%TO.C,C31*%
X136435000Y-91745643D03*
X134710000Y-91745643D03*
%TD*%
D27*
%TO.C,FB1*%
X132800000Y-84613143D03*
X132800000Y-82888143D03*
%TD*%
D31*
%TO.C,R79*%
X105462500Y-105788143D03*
X105462500Y-107613143D03*
%TD*%
%TO.C,R1*%
X114000000Y-61258143D03*
X114000000Y-63083143D03*
%TD*%
D67*
%TO.C,R86*%
X126912500Y-55450643D03*
X125262500Y-55450643D03*
%TD*%
D24*
%TO.C,R39*%
X164500000Y-59680643D03*
X164500000Y-57855643D03*
%TD*%
D31*
%TO.C,R32*%
X108400000Y-87638143D03*
X108400000Y-89463143D03*
%TD*%
D18*
%TO.C,C42*%
X136237500Y-86975643D03*
X134512500Y-86975643D03*
%TD*%
D22*
%TO.C,C22*%
X109787500Y-128250643D03*
X111512500Y-128250643D03*
%TD*%
D15*
%TO.C,C16*%
X105600000Y-78725643D03*
X105600000Y-80450643D03*
%TD*%
D27*
%TO.C,C33*%
X121500000Y-78663143D03*
X121500000Y-76938143D03*
%TD*%
D22*
%TO.C,C60*%
X90937500Y-126250643D03*
X92662500Y-126250643D03*
%TD*%
D35*
%TO.C,U8*%
X83462500Y-122950643D03*
X84732500Y-122950643D03*
X86002500Y-122950643D03*
X87272500Y-122950643D03*
X88542500Y-122950643D03*
X89812500Y-122950643D03*
X91082500Y-122950643D03*
X92352500Y-122950643D03*
X92352500Y-113819650D03*
X91082500Y-113819650D03*
X89812500Y-113819650D03*
X88542500Y-113819650D03*
X87272500Y-113819650D03*
X86002500Y-113819650D03*
X84732500Y-113819650D03*
X83462500Y-113819650D03*
%TD*%
D26*
%TO.C,R21*%
X111144443Y-110813143D03*
X109319443Y-110813143D03*
%TD*%
%TO.C,R13*%
X106600000Y-63325643D03*
X104775000Y-63325643D03*
%TD*%
D68*
%TO.C,IC1*%
X113800000Y-48363143D03*
X113800000Y-47713143D03*
X113800000Y-47063143D03*
X113800000Y-46413143D03*
X111300000Y-46413143D03*
X111300000Y-47063143D03*
X111300000Y-47713143D03*
X111300000Y-48363143D03*
%TD*%
D24*
%TO.C,R69*%
X131600000Y-107650643D03*
X131600000Y-109475643D03*
%TD*%
D29*
%TO.C,C10*%
X110100000Y-70150643D03*
X110100000Y-72225643D03*
%TD*%
M02*
