M48
; DRILL file KiCad 10.0.5 date 2026-09-12T11:44:04
; FORMAT={-:-/ absolute / metric / decimal}
; #@! TF.CreationDate,2026-09-12T11:44:04-05:00
; #@! TF.GenerationSoftware,Kicad,Pcbnew,10.0.5
; #@! TF.FileFunction,Plated,1,2,PTH
FMAT,2
METRIC
; #@! TA.AperFunction,Plated,PTH,ViaDrill
T1C0.300
; #@! TA.AperFunction,Plated,PTH,ViaDrill
T2C0.400
; #@! TA.AperFunction,Plated,PTH,ViaDrill
T3C0.500
; #@! TA.AperFunction,Plated,PTH,ComponentDrill
T4C0.600
; #@! TA.AperFunction,Plated,PTH,ComponentDrill
T5C0.800
; #@! TA.AperFunction,Plated,PTH,ComponentDrill
T6C1.000
; #@! TA.AperFunction,Plated,PTH,ComponentDrill
T7C1.200
; #@! TA.AperFunction,Plated,PTH,ComponentDrill
T8C1.245
; #@! TA.AperFunction,Plated,PTH,ComponentDrill
T9C1.500
; #@! TA.AperFunction,Plated,PTH,ComponentDrill
T10C1.600
%
G90
G05
T1
X74.1Y-47.9
X74.7Y-49.1
X75.3Y-47.9
X76.0Y-49.1
X76.6Y-47.9
X77.3Y-49.1
X77.8Y-47.9
X78.4Y-49.1
X78.9Y-47.9
X79.7Y-49.1
X80.1Y-47.9
X81.0Y-49.1
X84.55Y-108.651
X84.7Y-103.1
X84.8Y-95.7
X84.9Y-93.3
X85.4Y-96.9
X85.5Y-94.5
X86.0Y-95.7
X86.1Y-93.3
X86.451Y-103.1
X86.7Y-96.9
X86.8Y-94.5
X87.3Y-95.7
X87.4Y-93.3
X87.7Y-72.2
X88.0Y-96.9
X88.1Y-94.5
X88.1Y-103.4
X88.5Y-95.7
X88.6Y-93.3
X89.0Y-91.9
X89.0Y-102.251
X89.026Y-74.377
X89.1Y-96.9
X89.2Y-94.5
X89.254Y-90.461
X89.6Y-95.7
X89.7Y-93.3
X90.3Y-91.9
X90.4Y-96.9
X90.5Y-94.5
X90.554Y-90.461
X90.8Y-95.7
X90.9Y-93.3
X91.55Y-100.701
X91.6Y-91.9
X91.7Y-96.9
X91.8Y-94.5
X91.854Y-90.461
X92.7Y-41.8
X92.7Y-91.9
X92.89Y-99.11
X92.954Y-90.461
X93.3Y-43.0
X93.899Y-99.201
X93.9Y-41.8
X93.9Y-111.4
X94.0Y-91.9
X94.0Y-113.8
X94.254Y-90.461
X94.5Y-112.6
X94.6Y-43.0
X94.6Y-115.0
X95.1Y-111.4
X95.2Y-41.8
X95.2Y-113.8
X95.3Y-91.9
X95.492Y-77.543
X95.554Y-90.461
X95.8Y-112.6
X95.9Y-43.0
X95.9Y-115.0
X96.4Y-41.8
X96.4Y-111.4
X96.5Y-113.8
X97.0Y-43.0
X97.1Y-112.6
X97.2Y-115.0
X97.5Y-41.8
X97.6Y-111.4
X97.7Y-113.8
X98.1Y-78.851
X98.2Y-112.6
X98.3Y-43.0
X98.3Y-115.0
X98.7Y-41.8
X98.7Y-111.4
X98.8Y-113.8
X98.9Y-55.9
X99.0Y-70.6
X99.075Y-68.225
X99.5Y-112.6
X99.6Y-43.0
X99.6Y-115.0
X99.9Y-111.4
X100.0Y-113.8
X100.8Y-55.9
X100.8Y-112.6
X100.9Y-77.051
X100.9Y-115.0
X101.15Y-74.55
X101.6Y-75.45
X102.0Y-74.55
X102.55Y-75.4
X102.95Y-74.55
X103.0Y-55.9
X103.45Y-75.35
X103.85Y-74.55
X103.9Y-69.351
X104.42Y-87.17
X104.75Y-82.701
X105.2Y-88.42
X106.1Y-70.651
X106.51Y-71.88
X107.25Y-81.201
X108.0Y-106.35
X108.7Y-47.751
X109.4Y-73.451
X109.5Y-68.251
X109.935Y-47.751
X110.0Y-46.4
X110.253Y-109.726
X110.693Y-104.495
X113.55Y-79.12
X115.6Y-49.6
X116.33Y-79.12
X116.553Y-82.476
X117.0Y-113.2
X117.6Y-114.4
X117.95Y-78.351
X118.2Y-113.2
X118.6Y-84.351
X118.9Y-114.4
X119.15Y-76.05
X119.2Y-74.45
X119.5Y-113.2
X119.6Y-75.25
X119.65Y-76.9
X120.1Y-74.45
X120.2Y-76.1
X120.2Y-114.4
X120.6Y-75.25
X120.7Y-113.2
X121.05Y-74.45
X121.3Y-114.4
X121.55Y-75.25
X121.8Y-113.2
X122.0Y-74.45
X122.6Y-114.4
X122.65Y-75.25
X122.7Y-55.2
X123.0Y-113.2
X123.05Y-72.401
X123.8Y-55.2
X123.9Y-76.9
X123.9Y-114.4
X123.957Y-71.745
X124.4Y-52.5
X124.696Y-72.051
X126.042Y-78.777
X126.1Y-83.151
X126.881Y-87.368
X126.9Y-86.501
X127.029Y-78.569
X127.374Y-79.29
X127.45Y-82.051
X127.457Y-77.893
X127.5Y-85.651
X128.064Y-77.324
X128.108Y-108.713
X128.25Y-52.0
X128.424Y-85.376
X128.589Y-83.089
X128.75Y-52.8
X129.003Y-84.824
X129.2Y-51.95
X129.3Y-53.55
X129.75Y-52.8
X130.05Y-55.75
X130.149Y-54.15
X130.2Y-51.95
X130.6Y-56.6
X130.65Y-72.801
X130.75Y-52.75
X130.751Y-54.751
X131.1Y-55.8
X131.2Y-51.95
X131.8Y-55.1
X131.85Y-56.55
X132.174Y-88.35
X132.4Y-54.2
X132.4Y-55.8
X132.85Y-89.801
X132.9Y-43.938
X133.0Y-55.1
X133.09Y-46.938
X133.4Y-54.2
X133.45Y-90.451
X134.4Y-42.438
X134.4Y-105.1
X135.2Y-102.6
X135.7Y-46.938
X135.95Y-59.75
X136.0Y-112.7
X136.174Y-102.475
X136.6Y-113.9
X137.2Y-112.7
X137.9Y-113.9
X137.95Y-60.05
X138.5Y-112.7
X138.85Y-80.8
X139.017Y-58.883
X139.19Y-79.16
X139.2Y-113.9
X139.6Y-80.0
X139.7Y-112.7
X139.73Y-81.5
X140.25Y-79.15
X140.3Y-80.74
X140.3Y-113.9
X140.77Y-80.0
X140.8Y-112.7
X140.838Y-95.86
X140.838Y-96.93
X140.912Y-105.39
X141.6Y-113.9
X142.0Y-112.7
X142.33Y-83.46
X142.338Y-94.32
X142.338Y-96.0
X142.43Y-79.85
X142.54Y-79.1
X142.784Y-56.592
X142.9Y-113.9
X142.92Y-80.58
X143.0Y-87.901
X143.05Y-89.951
X143.24Y-79.82
X143.25Y-83.48
X143.361Y-101.309
X144.0Y-43.4
X144.0Y-112.6
X144.5Y-88.601
X144.6Y-113.8
X145.2Y-112.6
X145.9Y-44.025
X145.9Y-113.8
X146.3Y-111.651
X146.5Y-112.6
X147.2Y-113.8
X147.7Y-112.6
X148.3Y-113.8
X148.8Y-112.6
X149.6Y-113.8
X150.0Y-112.6
X150.9Y-113.8
X151.5Y-81.051
X151.5Y-83.051
X152.4Y-106.0
X152.5Y-103.9
X153.276Y-107.826
X156.4Y-83.4
X156.6Y-58.901
X157.65Y-108.201
X158.7Y-96.55
X159.15Y-91.951
X159.2Y-97.35
X159.7Y-96.55
X160.25Y-97.3
X160.5Y-103.6
X160.75Y-96.55
X161.35Y-97.25
X161.6Y-81.1
X161.85Y-96.55
X162.0Y-99.4
X163.1Y-84.8
X163.7Y-86.0
X164.3Y-84.8
X165.0Y-86.0
X165.4Y-87.3
X165.6Y-84.8
X166.0Y-88.5
X166.3Y-86.0
X166.3Y-109.9
X166.6Y-87.3
X166.8Y-84.8
X167.2Y-111.1
X167.3Y-88.5
X167.4Y-86.0
X167.6Y-109.9
X167.9Y-84.8
X167.9Y-87.3
X168.4Y-111.1
X168.6Y-88.5
X168.7Y-86.0
X168.9Y-109.9
X169.1Y-84.8
X169.1Y-87.3
X169.5Y-111.1
X169.7Y-88.5
X170.0Y-86.0
X170.0Y-109.9
X170.2Y-87.3
X170.7Y-111.1
X171.0Y-88.5
X171.3Y-109.9
X171.4Y-87.3
X172.0Y-111.1
X172.3Y-88.5
X172.6Y-109.9
X173.2Y-111.1
T2
X158.34Y-78.66
X158.34Y-80.29
T3
X83.3Y-111.551
X83.725Y-125.051
X86.05Y-125.051
X87.2Y-111.651
X97.95Y-80.05
X101.8Y-81.3
X103.8Y-81.3
X105.55Y-103.551
X105.65Y-81.3
X106.8Y-111.951
X107.002Y-124.901
X108.35Y-109.151
X109.2Y-124.901
X109.45Y-105.98
X110.4Y-111.951
X111.17Y-105.97
X112.1Y-63.0
X112.4Y-83.6
X112.703Y-47.707
X125.3Y-97.4
X125.5Y-111.151
X125.5Y-124.951
X127.8Y-124.951
X129.075Y-111.151
X130.02Y-110.251
X133.0Y-57.9
X138.3Y-47.05
X139.65Y-46.7
X140.18Y-100.03
X142.62Y-104.74
X143.3Y-106.651
X152.23Y-71.08
X153.6Y-53.751
X153.8Y-105.701
X156.0Y-111.651
X156.45Y-107.451
X156.6Y-55.951
X156.606Y-125.328
X156.767Y-108.651
X158.2Y-48.8
X158.725Y-125.362
X158.73Y-104.65
X158.8Y-53.751
X159.8Y-111.651
X160.4Y-104.68
X161.0Y-53.83
X162.4Y-55.951
X164.51Y-56.14
X167.86Y-53.77
T5
X146.0Y-80.063
X146.0Y-82.063
X146.0Y-84.063
T6
X91.625Y-74.676
X94.165Y-74.676
X99.485Y-66.151
X102.025Y-66.151
X109.19Y-76.151
X111.73Y-76.151
X114.27Y-76.151
X116.81Y-76.151
T7
X83.8Y-51.551
X83.8Y-54.051
X83.8Y-56.551
X83.8Y-59.051
X83.8Y-61.551
X114.662Y-143.551
X117.162Y-143.551
X119.662Y-143.551
X122.162Y-143.551
X124.662Y-143.551
X147.5Y-44.901
X150.0Y-44.901
X152.5Y-44.901
X155.0Y-44.901
X176.075Y-74.901
X176.075Y-77.401
X176.075Y-79.901
X176.075Y-82.401
X176.525Y-90.551
X176.525Y-93.051
X176.525Y-95.551
X176.73Y-103.401
X176.73Y-105.901
X176.93Y-113.701
X176.93Y-116.201
X177.0Y-47.651
X177.0Y-50.151
X177.0Y-52.651
X177.0Y-55.151
X177.0Y-57.651
T8
X83.46Y-73.201
X83.46Y-75.701
X83.46Y-78.201
X83.46Y-80.701
X83.46Y-83.201
X83.46Y-85.701
X83.46Y-88.201
X83.46Y-90.701
T9
X75.6Y-106.0
X75.7Y-95.2
X75.7Y-100.7
X80.5Y-95.2
X83.5Y-45.3
X83.6Y-67.9
X89.0Y-46.7
X91.5Y-85.1
X105.2Y-149.3
X107.4Y-96.4
X112.1Y-149.2
X112.9Y-96.4
X120.1Y-149.2
X120.7Y-45.0
X120.75Y-102.0
X120.75Y-107.02
X125.2Y-44.9
X126.44Y-102.0
X127.4Y-149.3
X132.7Y-149.3
X145.1Y-92.8
X146.0Y-77.963
X146.0Y-86.163
X146.5Y-98.2
X151.0Y-92.8
X155.18Y-97.8
X161.0Y-43.5
X166.4Y-43.5
X168.3Y-105.5
X171.5Y-43.5
X177.1Y-63.7
X184.75Y-50.05
X184.75Y-55.6
X184.75Y-61.55
X184.75Y-66.75
X184.75Y-72.0
X184.75Y-77.5
X184.75Y-83.25
X184.75Y-88.7
X184.9Y-96.5
X184.9Y-102.4
X185.0Y-113.9
X185.1Y-108.7
T10
X156.765Y-64.501
X156.765Y-67.901
X170.235Y-64.501
X170.235Y-67.901
T4
G00X130.2Y-41.038
M15
G01X130.2Y-40.237
M16
G05
G00X130.2Y-45.367
M15
G01X130.2Y-44.267
M16
G05
G00X138.84Y-41.038
M15
G01X138.84Y-40.237
M16
G05
G00X138.84Y-45.367
M15
G01X138.84Y-44.267
M16
G05
M30
