%TF.GenerationSoftware,KiCad,Pcbnew,10.0.5*%
%TF.CreationDate,2026-09-11T18:18:07-05:00*%
%TF.ProjectId,PS-HVCarrier,50532d48-5643-4617-9272-6965722e6b69,rev?*%
%TF.SameCoordinates,Original*%
%TF.FileFunction,Soldermask,Top*%
%TF.FilePolarity,Negative*%
%FSLAX46Y46*%
G04 Gerber Fmt 4.6, Leading zero omitted, Abs format (unit mm)*
G04 Created by KiCad (PCBNEW 10.0.5) date 2026-09-11 18:18:07*
%MOMM*%
%LPD*%
G01*
G04 APERTURE LIST*
G04 Aperture macros list*
%AMRoundRect*
0 Rectangle with rounded corners*
0 $1 Rounding radius*
0 $2 $3 $4 $5 $6 $7 $8 $9 X,Y pos of 4 corners*
0 Add a 4 corners polygon primitive as box body*
4,1,4,$2,$3,$4,$5,$6,$7,$8,$9,$2,$3,0*
0 Add four circle primitives for the rounded corners*
1,1,$1+$1,$2,$3*
1,1,$1+$1,$4,$5*
1,1,$1+$1,$6,$7*
1,1,$1+$1,$8,$9*
0 Add four rect primitives between the rounded corners*
20,1,$1+$1,$2,$3,$4,$5,0*
20,1,$1+$1,$4,$5,$6,$7,0*
20,1,$1+$1,$6,$7,$8,$9,0*
20,1,$1+$1,$8,$9,$2,$3,0*%
%AMFreePoly0*
4,1,22,0.945671,0.830970,1.026777,0.776777,1.080970,0.695671,1.100000,0.600000,1.100000,-0.600000,1.080970,-0.695671,1.026777,-0.776777,0.945671,-0.830970,0.850000,-0.850000,-0.850000,-0.850000,-0.945671,-0.830970,-1.026777,-0.776777,-1.080970,-0.695671,-1.100000,-0.600000,-1.100000,0.200000,-1.080970,0.295671,-1.026777,0.376777,-0.626777,0.776777,-0.545671,0.830970,-0.450000,0.850000,
0.850000,0.850000,0.945671,0.830970,0.945671,0.830970,$1*%
%AMFreePoly1*
4,1,9,2.975000,-2.350000,1.425000,-2.350000,1.425000,-2.100000,-1.650000,-2.100000,-1.650000,2.100000,1.425000,2.100000,1.425000,2.350000,2.975000,2.350000,2.975000,-2.350000,2.975000,-2.350000,$1*%
%AMFreePoly2*
4,1,22,0.945671,0.830970,1.026777,0.776777,1.080970,0.695671,1.100000,0.600000,1.100000,-0.600000,1.080970,-0.695671,1.026777,-0.776777,0.945671,-0.830970,0.850000,-0.850000,-0.850000,-0.850000,-0.945671,-0.830970,-1.026777,-0.776777,-1.080970,-0.695671,-1.100000,-0.600000,-1.100000,0.346447,-1.080970,0.442118,-1.026777,0.523224,-0.773224,0.776777,-0.692118,0.830970,-0.596447,0.850000,
0.850000,0.850000,0.945671,0.830970,0.945671,0.830970,$1*%
G04 Aperture macros list end*
%ADD10C,0.010000*%
%ADD11C,0.000000*%
%ADD12C,3.000000*%
%ADD13C,0.650000*%
%ADD14RoundRect,0.150000X0.150000X0.425000X-0.150000X0.425000X-0.150000X-0.425000X0.150000X-0.425000X0*%
%ADD15RoundRect,0.075000X0.075000X0.500000X-0.075000X0.500000X-0.075000X-0.500000X0.075000X-0.500000X0*%
%ADD16O,1.000000X2.100000*%
%ADD17O,1.000000X1.800000*%
%ADD18RoundRect,0.237500X-0.250000X-0.237500X0.250000X-0.237500X0.250000X0.237500X-0.250000X0.237500X0*%
%ADD19RoundRect,0.237500X-0.237500X0.300000X-0.237500X-0.300000X0.237500X-0.300000X0.237500X0.300000X0*%
%ADD20R,2.743200X0.990600*%
%ADD21RoundRect,0.250000X0.300000X-0.300000X0.300000X0.300000X-0.300000X0.300000X-0.300000X-0.300000X0*%
%ADD22RoundRect,0.237500X0.300000X0.237500X-0.300000X0.237500X-0.300000X-0.237500X0.300000X-0.237500X0*%
%ADD23RoundRect,0.225000X0.375000X-0.225000X0.375000X0.225000X-0.375000X0.225000X-0.375000X-0.225000X0*%
%ADD24RoundRect,0.200000X-0.200000X-0.275000X0.200000X-0.275000X0.200000X0.275000X-0.200000X0.275000X0*%
%ADD25RoundRect,0.250000X-0.300000X0.300000X-0.300000X-0.300000X0.300000X-0.300000X0.300000X0.300000X0*%
%ADD26RoundRect,0.237500X-0.300000X-0.237500X0.300000X-0.237500X0.300000X0.237500X-0.300000X0.237500X0*%
%ADD27R,1.528000X0.650000*%
%ADD28RoundRect,0.237500X0.237500X-0.250000X0.237500X0.250000X-0.237500X0.250000X-0.237500X-0.250000X0*%
%ADD29RoundRect,0.250000X0.450000X-0.350000X0.450000X0.350000X-0.450000X0.350000X-0.450000X-0.350000X0*%
%ADD30RoundRect,0.237500X0.250000X0.237500X-0.250000X0.237500X-0.250000X-0.237500X0.250000X-0.237500X0*%
%ADD31C,2.400000*%
%ADD32RoundRect,0.237500X0.237500X-0.300000X0.237500X0.300000X-0.237500X0.300000X-0.237500X-0.300000X0*%
%ADD33RoundRect,0.175000X-0.325000X-0.175000X0.325000X-0.175000X0.325000X0.175000X-0.325000X0.175000X0*%
%ADD34RoundRect,0.250000X-0.475000X0.337500X-0.475000X-0.337500X0.475000X-0.337500X0.475000X0.337500X0*%
%ADD35RoundRect,0.250000X-1.100000X0.412500X-1.100000X-0.412500X1.100000X-0.412500X1.100000X0.412500X0*%
%ADD36RoundRect,0.237500X-0.237500X0.250000X-0.237500X-0.250000X0.237500X-0.250000X0.237500X0.250000X0*%
%ADD37RoundRect,0.150000X-0.825000X-0.150000X0.825000X-0.150000X0.825000X0.150000X-0.825000X0.150000X0*%
%ADD38R,1.970000X1.670000*%
%ADD39RoundRect,0.112500X0.187500X0.112500X-0.187500X0.112500X-0.187500X-0.112500X0.187500X-0.112500X0*%
%ADD40R,0.622132X2.602784*%
%ADD41R,0.304800X1.193800*%
%ADD42R,1.193800X0.304800*%
%ADD43RoundRect,0.225000X0.225000X0.250000X-0.225000X0.250000X-0.225000X-0.250000X0.225000X-0.250000X0*%
%ADD44C,3.200000*%
%ADD45R,1.700000X1.700000*%
%ADD46C,1.700000*%
%ADD47RoundRect,0.250000X0.475000X-0.337500X0.475000X0.337500X-0.475000X0.337500X-0.475000X-0.337500X0*%
%ADD48RoundRect,0.250000X-0.900000X1.000000X-0.900000X-1.000000X0.900000X-1.000000X0.900000X1.000000X0*%
%ADD49C,1.300000*%
%ADD50FreePoly0,0.000000*%
%ADD51O,2.200000X1.700000*%
%ADD52RoundRect,0.250000X-0.300000X-0.300000X0.300000X-0.300000X0.300000X0.300000X-0.300000X0.300000X0*%
%ADD53C,2.250000*%
%ADD54R,0.599999X1.100000*%
%ADD55RoundRect,0.218750X0.256250X-0.218750X0.256250X0.218750X-0.256250X0.218750X-0.256250X-0.218750X0*%
%ADD56R,1.900000X2.400000*%
%ADD57RoundRect,0.250000X0.337500X0.475000X-0.337500X0.475000X-0.337500X-0.475000X0.337500X-0.475000X0*%
%ADD58RoundRect,0.237500X-0.237500X0.287500X-0.237500X-0.287500X0.237500X-0.287500X0.237500X0.287500X0*%
%ADD59RoundRect,0.237500X0.287500X0.237500X-0.287500X0.237500X-0.287500X-0.237500X0.287500X-0.237500X0*%
%ADD60RoundRect,0.175000X0.400000X-0.175000X0.400000X0.175000X-0.400000X0.175000X-0.400000X-0.175000X0*%
%ADD61FreePoly1,180.000000*%
%ADD62RoundRect,0.150000X0.150000X-0.825000X0.150000X0.825000X-0.150000X0.825000X-0.150000X-0.825000X0*%
%ADD63FreePoly2,0.000000*%
%ADD64RoundRect,0.375000X-0.625000X-0.375000X0.625000X-0.375000X0.625000X0.375000X-0.625000X0.375000X0*%
%ADD65RoundRect,0.500000X-0.500000X-1.400000X0.500000X-1.400000X0.500000X1.400000X-0.500000X1.400000X0*%
%ADD66RoundRect,0.175000X-0.400000X0.175000X-0.400000X-0.175000X0.400000X-0.175000X0.400000X0.175000X0*%
%ADD67FreePoly1,0.000000*%
%ADD68RoundRect,0.237500X0.237500X-0.287500X0.237500X0.287500X-0.237500X0.287500X-0.237500X-0.287500X0*%
%ADD69R,1.200000X2.500000*%
%ADD70RoundRect,0.250000X-0.850000X-0.600000X0.850000X-0.600000X0.850000X0.600000X-0.850000X0.600000X0*%
%ADD71R,1.000000X0.750000*%
%ADD72RoundRect,0.250000X0.300000X0.300000X-0.300000X0.300000X-0.300000X-0.300000X0.300000X-0.300000X0*%
%ADD73R,0.550000X0.400000*%
%ADD74R,0.700000X0.500000*%
%ADD75RoundRect,0.250000X0.250000X-0.250000X0.250000X0.250000X-0.250000X0.250000X-0.250000X-0.250000X0*%
%ADD76R,0.330000X0.360000*%
%ADD77RoundRect,0.250000X0.850000X0.600000X-0.850000X0.600000X-0.850000X-0.600000X0.850000X-0.600000X0*%
%ADD78R,2.500000X9.000000*%
%ADD79RoundRect,0.200000X0.200000X0.275000X-0.200000X0.275000X-0.200000X-0.275000X0.200000X-0.275000X0*%
%ADD80C,1.752600*%
%ADD81C,1.346200*%
%ADD82RoundRect,0.250000X0.600000X-0.850000X0.600000X0.850000X-0.600000X0.850000X-0.600000X-0.850000X0*%
%ADD83O,1.700000X2.200000*%
%ADD84R,1.200000X0.450000*%
%ADD85RoundRect,0.250000X-0.600000X0.850000X-0.600000X-0.850000X0.600000X-0.850000X0.600000X0.850000X0*%
G04 APERTURE END LIST*
D10*
%TO.C,U10*%
X138080000Y-57355643D02*
X138080000Y-58115643D01*
X137660000Y-58115643D01*
X137660000Y-57355643D01*
X138080000Y-57355643D01*
G36*
X138080000Y-58115643D02*
G01*
X137660000Y-58115643D01*
X137660000Y-57355643D01*
X138080000Y-57355643D01*
X138080000Y-58115643D01*
G37*
X138080000Y-58825643D02*
X138080000Y-59585643D01*
X137660000Y-59585643D01*
X137660000Y-58825643D01*
X138080000Y-58825643D01*
G36*
X138080000Y-59585643D02*
G01*
X137660000Y-59585643D01*
X137660000Y-58825643D01*
X138080000Y-58825643D01*
X138080000Y-59585643D01*
G37*
X138580000Y-57355643D02*
X138580000Y-58115643D01*
X138160000Y-58115643D01*
X138160000Y-57355643D01*
X138580000Y-57355643D01*
G36*
X138580000Y-58115643D02*
G01*
X138160000Y-58115643D01*
X138160000Y-57355643D01*
X138580000Y-57355643D01*
X138580000Y-58115643D01*
G37*
X138580000Y-58825643D02*
X138580000Y-59585643D01*
X138160000Y-59585643D01*
X138160000Y-58825643D01*
X138580000Y-58825643D01*
G36*
X138580000Y-59585643D02*
G01*
X138160000Y-59585643D01*
X138160000Y-58825643D01*
X138580000Y-58825643D01*
X138580000Y-59585643D01*
G37*
X139080000Y-57355643D02*
X139080000Y-58115643D01*
X138660000Y-58115643D01*
X138660000Y-57355643D01*
X139080000Y-57355643D01*
G36*
X139080000Y-58115643D02*
G01*
X138660000Y-58115643D01*
X138660000Y-57355643D01*
X139080000Y-57355643D01*
X139080000Y-58115643D01*
G37*
X139080000Y-58825643D02*
X139080000Y-59585643D01*
X138660000Y-59585643D01*
X138660000Y-58825643D01*
X139080000Y-58825643D01*
G36*
X139080000Y-59585643D02*
G01*
X138660000Y-59585643D01*
X138660000Y-58825643D01*
X139080000Y-58825643D01*
X139080000Y-59585643D01*
G37*
X139580000Y-57355643D02*
X139580000Y-58115643D01*
X139160000Y-58115643D01*
X139160000Y-57355643D01*
X139580000Y-57355643D01*
G36*
X139580000Y-58115643D02*
G01*
X139160000Y-58115643D01*
X139160000Y-57355643D01*
X139580000Y-57355643D01*
X139580000Y-58115643D01*
G37*
X139580000Y-58825643D02*
X139580000Y-59585643D01*
X139160000Y-59585643D01*
X139160000Y-58825643D01*
X139580000Y-58825643D01*
G36*
X139580000Y-59585643D02*
G01*
X139160000Y-59585643D01*
X139160000Y-58825643D01*
X139580000Y-58825643D01*
X139580000Y-59585643D01*
G37*
%TO.C,D10*%
X130724908Y-90050643D02*
X131325000Y-90050643D01*
X131325000Y-91650890D01*
X130724908Y-91650890D01*
X130724908Y-90050643D01*
G36*
X131325000Y-91650890D02*
G01*
X130724908Y-91650890D01*
X130724908Y-90050643D01*
X131325000Y-90050643D01*
X131325000Y-91650890D01*
G37*
D11*
%TO.C,G\u002A\u002A\u002A*%
G36*
X174756389Y-147942880D02*
G01*
X175079517Y-147946724D01*
X175547725Y-147955193D01*
X175925655Y-147967869D01*
X176223823Y-147988856D01*
X176452744Y-148022257D01*
X176622934Y-148072178D01*
X176744908Y-148142721D01*
X176829182Y-148237992D01*
X176886272Y-148362094D01*
X176926693Y-148519132D01*
X176955352Y-148678856D01*
X176965781Y-148881314D01*
X176942188Y-149103805D01*
X176891695Y-149312348D01*
X176821422Y-149472966D01*
X176777371Y-149528160D01*
X176713130Y-149594076D01*
X176713297Y-149646382D01*
X176780288Y-149726572D01*
X176789499Y-149736385D01*
X176845563Y-149811351D01*
X176882230Y-149908775D01*
X176905316Y-150053634D01*
X176920634Y-150270905D01*
X176922438Y-150307429D01*
X176944076Y-150760000D01*
X176610332Y-150760000D01*
X176276588Y-150760000D01*
X176276588Y-150464415D01*
X176264342Y-150257713D01*
X176221898Y-150114351D01*
X176172136Y-150036042D01*
X176067685Y-149903254D01*
X175113803Y-149903254D01*
X174159921Y-149903254D01*
X174159921Y-150331627D01*
X174159921Y-150760000D01*
X173832342Y-150760000D01*
X173504762Y-150760000D01*
X173504762Y-149375047D01*
X173504762Y-148912116D01*
X173504762Y-148492143D01*
X174159921Y-148492143D01*
X174159921Y-148912116D01*
X174164188Y-149109653D01*
X174175542Y-149267374D01*
X174191816Y-149359012D01*
X174197719Y-149370099D01*
X174257819Y-149381199D01*
X174402244Y-149389204D01*
X174614564Y-149393761D01*
X174878345Y-149394519D01*
X175177158Y-149391126D01*
X175178719Y-149391098D01*
X175515482Y-149384007D01*
X175765965Y-149375610D01*
X175944681Y-149364404D01*
X176066141Y-149348885D01*
X176144859Y-149327551D01*
X176195349Y-149298897D01*
X176211853Y-149284093D01*
X176277195Y-149165962D01*
X176301407Y-148974497D01*
X176301786Y-148939462D01*
X176291791Y-148770129D01*
X176253410Y-148663196D01*
X176182810Y-148588484D01*
X176132720Y-148554546D01*
X176068423Y-148529601D01*
X175974814Y-148512287D01*
X175836788Y-148501247D01*
X175639240Y-148495123D01*
X175367064Y-148492554D01*
X175111878Y-148492143D01*
X174159921Y-148492143D01*
X173504762Y-148492143D01*
X173504762Y-147990095D01*
X173630608Y-147958509D01*
X173713764Y-147950726D01*
X173882805Y-147945150D01*
X174122847Y-147941903D01*
X174419004Y-147941106D01*
X174756389Y-147942880D01*
G37*
G36*
X172526828Y-147946870D02*
G01*
X172723612Y-147962976D01*
X172737008Y-149361488D01*
X172750404Y-150760000D01*
X172423678Y-150760000D01*
X172096952Y-150760000D01*
X172082703Y-150193036D01*
X172068453Y-149626071D01*
X170973982Y-149612494D01*
X169879510Y-149598916D01*
X169865251Y-150166859D01*
X169850993Y-150734801D01*
X169535211Y-150749826D01*
X169219429Y-150764851D01*
X169232830Y-149363914D01*
X169246231Y-147962976D01*
X169502691Y-147948025D01*
X169701790Y-147952861D01*
X169810363Y-147995420D01*
X169815728Y-148001244D01*
X169841275Y-148078573D01*
X169864051Y-148231243D01*
X169880876Y-148433801D01*
X169886847Y-148570561D01*
X169901389Y-149071706D01*
X170984921Y-149071706D01*
X172068453Y-149071706D01*
X172082752Y-148530474D01*
X172092061Y-148272555D01*
X172111771Y-148099779D01*
X172153781Y-147996509D01*
X172229990Y-147947105D01*
X172352298Y-147935930D01*
X172526828Y-147946870D01*
G37*
G36*
X179515873Y-148610198D02*
G01*
X179515873Y-148836984D01*
X178734722Y-148836984D01*
X177953571Y-148836984D01*
X177953571Y-149088968D01*
X177953571Y-149340952D01*
X178734722Y-149340952D01*
X179515873Y-149340952D01*
X179515873Y-150046508D01*
X179515873Y-150752063D01*
X178507936Y-150752063D01*
X177500000Y-150752063D01*
X177500000Y-150525278D01*
X177500000Y-150298492D01*
X178281151Y-150298492D01*
X179062301Y-150298492D01*
X179062301Y-150046508D01*
X179062301Y-149794524D01*
X178281151Y-149794524D01*
X177500000Y-149794524D01*
X177500000Y-149088968D01*
X177500000Y-148383413D01*
X178507936Y-148383413D01*
X179515873Y-148383413D01*
X179515873Y-148610198D01*
G37*
G36*
X166650794Y-149096905D02*
G01*
X166675993Y-150230833D01*
X167696528Y-150244476D01*
X168717064Y-150258119D01*
X168717064Y-150509059D01*
X168717064Y-150760000D01*
X167380751Y-150760000D01*
X166044438Y-150760000D01*
X166057834Y-149361488D01*
X166071231Y-147962976D01*
X166348413Y-147962976D01*
X166625596Y-147962976D01*
X166650794Y-149096905D01*
G37*
%TD*%
D12*
%TO.C,TP41*%
X125200000Y-44900000D03*
%TD*%
D13*
%TO.C,J6*%
X137410000Y-44317500D03*
X131630000Y-44317500D03*
D14*
X137720000Y-45392500D03*
X136920000Y-45392500D03*
D15*
X135770000Y-45392500D03*
X134770000Y-45392500D03*
X134270000Y-45392500D03*
X133270000Y-45392500D03*
D14*
X132120000Y-45392500D03*
X131320000Y-45392500D03*
X131320000Y-45392500D03*
X132120000Y-45392500D03*
D15*
X132770000Y-45392500D03*
X133770000Y-45392500D03*
X135270000Y-45392500D03*
X136270000Y-45392500D03*
D14*
X136920000Y-45392500D03*
X137720000Y-45392500D03*
D16*
X138840000Y-44817500D03*
X130200000Y-44817500D03*
D17*
X130200000Y-40637500D03*
X138840000Y-40637500D03*
%TD*%
D18*
%TO.C,R49*%
X149687500Y-79563143D03*
X151512500Y-79563143D03*
%TD*%
D19*
%TO.C,C11*%
X112000000Y-70225643D03*
X112000000Y-71950643D03*
%TD*%
D20*
%TO.C,J7*%
X114224999Y-82690244D03*
X109975000Y-82690244D03*
X114224999Y-80690242D03*
X109975000Y-80690242D03*
%TD*%
D12*
%TO.C,TP4*%
X177100000Y-63700000D03*
%TD*%
D18*
%TO.C,R34*%
X110375000Y-61218143D03*
X112200000Y-61218143D03*
%TD*%
D21*
%TO.C,D26*%
X140162500Y-104050643D03*
X140162500Y-101250643D03*
%TD*%
D12*
%TO.C,TP39*%
X91500000Y-85100000D03*
%TD*%
D21*
%TO.C,D22*%
X98362500Y-102950643D03*
X98362500Y-100150643D03*
%TD*%
D22*
%TO.C,C87*%
X145600000Y-104740643D03*
X143875000Y-104740643D03*
%TD*%
D23*
%TO.C,D8*%
X138100000Y-54350643D03*
X138100000Y-51050643D03*
%TD*%
D24*
%TO.C,R87*%
X125262500Y-53650643D03*
X126912500Y-53650643D03*
%TD*%
D25*
%TO.C,D13*%
X166700000Y-57963143D03*
X166700000Y-60763143D03*
%TD*%
D26*
%TO.C,C19*%
X106206943Y-128413143D03*
X107931943Y-128413143D03*
%TD*%
D27*
%TO.C,IC2*%
X107922000Y-73175643D03*
X107922000Y-71905643D03*
X107922000Y-70635643D03*
X107922000Y-69365643D03*
X102500000Y-69365643D03*
X102500000Y-70635643D03*
X102500000Y-71905643D03*
X102500000Y-73175643D03*
%TD*%
D28*
%TO.C,R60*%
X89062500Y-132325643D03*
X89062500Y-130500643D03*
%TD*%
D26*
%TO.C,C73*%
X128387500Y-128800643D03*
X130112500Y-128800643D03*
%TD*%
%TO.C,C74*%
X124700000Y-109450643D03*
X126425000Y-109450643D03*
%TD*%
D28*
%TO.C,R55*%
X162200000Y-109500643D03*
X162200000Y-107675643D03*
%TD*%
D29*
%TO.C,R19*%
X113456943Y-130613143D03*
X113456943Y-128613143D03*
%TD*%
D25*
%TO.C,D17*%
X153700000Y-78163143D03*
X153700000Y-80963143D03*
%TD*%
D26*
%TO.C,C69*%
X132025000Y-126500643D03*
X133750000Y-126500643D03*
%TD*%
D28*
%TO.C,R35*%
X170600000Y-57963143D03*
X170600000Y-56138143D03*
%TD*%
D26*
%TO.C,C41*%
X130737500Y-80750643D03*
X132462500Y-80750643D03*
%TD*%
D28*
%TO.C,R36*%
X168200000Y-52050643D03*
X168200000Y-50225643D03*
%TD*%
D12*
%TO.C,TP13*%
X184750000Y-77500000D03*
%TD*%
D26*
%TO.C,C52*%
X156137500Y-128550643D03*
X157862500Y-128550643D03*
%TD*%
D30*
%TO.C,R16*%
X94200000Y-71850643D03*
X92375000Y-71850643D03*
%TD*%
D31*
%TO.C,F1*%
X156765000Y-64500643D03*
X156765000Y-67900643D03*
X170235000Y-64500643D03*
X170235000Y-67900643D03*
%TD*%
D22*
%TO.C,C26*%
X114519443Y-106813143D03*
X112794443Y-106813143D03*
%TD*%
D32*
%TO.C,C82*%
X94462500Y-106650643D03*
X94462500Y-104925643D03*
%TD*%
D28*
%TO.C,R7*%
X98100000Y-55898143D03*
X98100000Y-54073143D03*
%TD*%
D12*
%TO.C,TP10*%
X184750000Y-61550000D03*
%TD*%
D27*
%TO.C,IC3*%
X99522000Y-81330643D03*
X99522000Y-80060643D03*
X99522000Y-78790643D03*
X99522000Y-77520643D03*
X94100000Y-77520643D03*
X94100000Y-78790643D03*
X94100000Y-80060643D03*
X94100000Y-81330643D03*
%TD*%
D33*
%TO.C,U3*%
X96900000Y-73675643D03*
X96900000Y-75575643D03*
X99300000Y-74625643D03*
%TD*%
D26*
%TO.C,C28*%
X122037500Y-95875643D03*
X123762500Y-95875643D03*
%TD*%
D34*
%TO.C,C30*%
X120800000Y-89675643D03*
X120800000Y-91750643D03*
%TD*%
D32*
%TO.C,C79*%
X135200000Y-61013143D03*
X135200000Y-59288143D03*
%TD*%
D22*
%TO.C,C80*%
X135932500Y-54305643D03*
X134207500Y-54305643D03*
%TD*%
D28*
%TO.C,R70*%
X133200000Y-109475643D03*
X133200000Y-107650643D03*
%TD*%
D32*
%TO.C,C57*%
X158700000Y-107475643D03*
X158700000Y-105750643D03*
%TD*%
D12*
%TO.C,TP26*%
X126440000Y-102000000D03*
%TD*%
D35*
%TO.C,C92*%
X133600000Y-68288143D03*
X133600000Y-71413143D03*
%TD*%
D19*
%TO.C,C15*%
X103800000Y-78700643D03*
X103800000Y-80425643D03*
%TD*%
D26*
%TO.C,C51*%
X163275000Y-126550643D03*
X165000000Y-126550643D03*
%TD*%
D18*
%TO.C,R8*%
X110375000Y-57500643D03*
X112200000Y-57500643D03*
%TD*%
D22*
%TO.C,C2*%
X113412500Y-42860643D03*
X111687500Y-42860643D03*
%TD*%
D36*
%TO.C,R4*%
X89300000Y-70025643D03*
X89300000Y-71850643D03*
%TD*%
D26*
%TO.C,C3*%
X111687500Y-44660643D03*
X113412500Y-44660643D03*
%TD*%
D22*
%TO.C,C59*%
X163825000Y-105650643D03*
X162100000Y-105650643D03*
%TD*%
D26*
%TO.C,C61*%
X82900000Y-126413143D03*
X84625000Y-126413143D03*
%TD*%
D28*
%TO.C,R22*%
X112831943Y-110438143D03*
X112831943Y-108613143D03*
%TD*%
D29*
%TO.C,R51*%
X163400000Y-134650643D03*
X163400000Y-132650643D03*
%TD*%
D37*
%TO.C,U11*%
X98262500Y-105510643D03*
X98262500Y-106780643D03*
X98262500Y-108050643D03*
X98262500Y-109320643D03*
X103212500Y-109320643D03*
X103212500Y-108050643D03*
X103212500Y-106780643D03*
X103212500Y-105510643D03*
%TD*%
D29*
%TO.C,R64*%
X131950000Y-138800643D03*
X131950000Y-136800643D03*
%TD*%
D26*
%TO.C,C21*%
X109787500Y-126550643D03*
X111512500Y-126550643D03*
%TD*%
D38*
%TO.C,D6*%
X108925000Y-42850643D03*
X104875000Y-42850643D03*
%TD*%
D39*
%TO.C,D11*%
X104850000Y-93750643D03*
X102750000Y-93750643D03*
%TD*%
D30*
%TO.C,R33*%
X99500000Y-95050643D03*
X97675000Y-95050643D03*
%TD*%
D40*
%TO.C,U4*%
X106631943Y-122950643D03*
X107901943Y-122950643D03*
X109171943Y-122950643D03*
X110441943Y-122950643D03*
X111711943Y-122950643D03*
X112981943Y-122950643D03*
X114251943Y-122950643D03*
X115521943Y-122950643D03*
X115521943Y-113819650D03*
X114251943Y-113819650D03*
X112981943Y-113819650D03*
X111711943Y-113819650D03*
X110441943Y-113819650D03*
X109171943Y-113819650D03*
X107901943Y-113819650D03*
X106631943Y-113819650D03*
%TD*%
D26*
%TO.C,C4*%
X110425000Y-59300643D03*
X112150000Y-59300643D03*
%TD*%
D41*
%TO.C,U5*%
X123100001Y-89275641D03*
X123600000Y-89275641D03*
X124100002Y-89275641D03*
X124600001Y-89275641D03*
X125100000Y-89275641D03*
X125600001Y-89275641D03*
X126100001Y-89275641D03*
X126600002Y-89275641D03*
X127100001Y-89275641D03*
X127600000Y-89275641D03*
X128100002Y-89275641D03*
X128600001Y-89275641D03*
D42*
X130100000Y-87775642D03*
X130100000Y-87275643D03*
X130100000Y-86775641D03*
X130100000Y-86275642D03*
X130100000Y-85775643D03*
X130100000Y-85275642D03*
X130100000Y-84775642D03*
X130100000Y-84275641D03*
X130100000Y-83775642D03*
X130100000Y-83275643D03*
X130100000Y-82775641D03*
X130100000Y-82275642D03*
D41*
X128600001Y-80775643D03*
X128100002Y-80775643D03*
X127600000Y-80775643D03*
X127100001Y-80775643D03*
X126600002Y-80775643D03*
X126100001Y-80775643D03*
X125600001Y-80775643D03*
X125100000Y-80775643D03*
X124600001Y-80775643D03*
X124100002Y-80775643D03*
X123600000Y-80775643D03*
X123100001Y-80775643D03*
D42*
X121600002Y-82275642D03*
X121600002Y-82775641D03*
X121600002Y-83275643D03*
X121600002Y-83775642D03*
X121600002Y-84275641D03*
X121600002Y-84775642D03*
X121600002Y-85275642D03*
X121600002Y-85775643D03*
X121600002Y-86275642D03*
X121600002Y-86775641D03*
X121600002Y-87275643D03*
X121600002Y-87775642D03*
%TD*%
D28*
%TO.C,R80*%
X131562500Y-103763143D03*
X131562500Y-101938143D03*
%TD*%
D36*
%TO.C,R28*%
X133300000Y-93363143D03*
X133300000Y-95188143D03*
%TD*%
%TO.C,R73*%
X140870000Y-57338143D03*
X140870000Y-59163143D03*
%TD*%
D43*
%TO.C,C90*%
X124275000Y-58050643D03*
X122725000Y-58050643D03*
%TD*%
D28*
%TO.C,R40*%
X162300000Y-53850643D03*
X162300000Y-52025643D03*
%TD*%
D44*
%TO.C,H4*%
X184600000Y-151000000D03*
%TD*%
D19*
%TO.C,C7*%
X115600000Y-46525643D03*
X115600000Y-48250643D03*
%TD*%
D40*
%TO.C,U7*%
X156000000Y-122950643D03*
X157270000Y-122950643D03*
X158540000Y-122950643D03*
X159810000Y-122950643D03*
X161080000Y-122950643D03*
X162350000Y-122950643D03*
X163620000Y-122950643D03*
X164890000Y-122950643D03*
X164890000Y-113819650D03*
X163620000Y-113819650D03*
X162350000Y-113819650D03*
X161080000Y-113819650D03*
X159810000Y-113819650D03*
X158540000Y-113819650D03*
X157270000Y-113819650D03*
X156000000Y-113819650D03*
%TD*%
D22*
%TO.C,C66*%
X87562500Y-106450643D03*
X85837500Y-106450643D03*
%TD*%
D21*
%TO.C,D16*%
X159900000Y-60718143D03*
X159900000Y-57918143D03*
%TD*%
D26*
%TO.C,C54*%
X159575000Y-128550643D03*
X161300000Y-128550643D03*
%TD*%
D29*
%TO.C,R18*%
X113456943Y-134713143D03*
X113456943Y-132713143D03*
%TD*%
D12*
%TO.C,TP35*%
X112900000Y-96400000D03*
%TD*%
D37*
%TO.C,U12*%
X140312500Y-106640643D03*
X140312500Y-107910643D03*
X140312500Y-109180643D03*
X140312500Y-110450643D03*
X145262500Y-110450643D03*
X145262500Y-109180643D03*
X145262500Y-107910643D03*
X145262500Y-106640643D03*
%TD*%
D30*
%TO.C,R10*%
X106302500Y-47750643D03*
X104477500Y-47750643D03*
%TD*%
D19*
%TO.C,C40*%
X118700000Y-89688143D03*
X118700000Y-91413143D03*
%TD*%
D45*
%TO.C,JP1*%
X99485000Y-66150643D03*
D46*
X102025000Y-66150643D03*
%TD*%
D26*
%TO.C,C23*%
X106006943Y-110713143D03*
X107731943Y-110713143D03*
%TD*%
D12*
%TO.C,TP32*%
X168300000Y-105500000D03*
%TD*%
D18*
%TO.C,R43*%
X161587500Y-79850643D03*
X163412500Y-79850643D03*
%TD*%
D29*
%TO.C,R58*%
X90962500Y-134713143D03*
X90962500Y-132713143D03*
%TD*%
D47*
%TO.C,C5*%
X120075000Y-51488143D03*
X120075000Y-49413143D03*
%TD*%
D12*
%TO.C,TP24*%
X151000000Y-92800000D03*
%TD*%
D33*
%TO.C,U2*%
X104825000Y-65225643D03*
X104825000Y-67125643D03*
X107225000Y-66175643D03*
%TD*%
D12*
%TO.C,TP34*%
X155180000Y-97800000D03*
%TD*%
D32*
%TO.C,C86*%
X149362500Y-109813143D03*
X149362500Y-108088143D03*
%TD*%
D48*
%TO.C,D5*%
X96130000Y-47253143D03*
X96130000Y-51553143D03*
%TD*%
D12*
%TO.C,TP5*%
X83500000Y-45300000D03*
%TD*%
D22*
%TO.C,C38*%
X136262500Y-90175643D03*
X134537500Y-90175643D03*
%TD*%
D49*
%TO.C,J12*%
X175390000Y-104650643D03*
D50*
X176730000Y-105900643D03*
D51*
X176730000Y-103400643D03*
%TD*%
D18*
%TO.C,R3*%
X141587500Y-74850643D03*
X143412500Y-74850643D03*
%TD*%
D12*
%TO.C,TP_1*%
X83600000Y-67900000D03*
%TD*%
D22*
%TO.C,C50*%
X154162500Y-76463143D03*
X152437500Y-76463143D03*
%TD*%
D12*
%TO.C,TP1*%
X120100000Y-149200000D03*
%TD*%
D22*
%TO.C,C67*%
X87625000Y-108150643D03*
X85900000Y-108150643D03*
%TD*%
D52*
%TO.C,D19*%
X104162500Y-103550643D03*
X106962500Y-103550643D03*
%TD*%
D36*
%TO.C,R11*%
X101810000Y-54073143D03*
X101810000Y-55898143D03*
%TD*%
D49*
%TO.C,S1*%
X146000000Y-80063143D03*
X146000000Y-82063143D03*
X146000000Y-84063143D03*
D53*
X146000000Y-77963143D03*
X146000000Y-86163143D03*
%TD*%
D21*
%TO.C,D21*%
X87500000Y-104450643D03*
X87500000Y-101650643D03*
%TD*%
D28*
%TO.C,R76*%
X112756943Y-104850643D03*
X112756943Y-103025643D03*
%TD*%
D12*
%TO.C,TP19*%
X105200000Y-149300000D03*
%TD*%
D36*
%TO.C,R27*%
X123100000Y-76863143D03*
X123100000Y-78688143D03*
%TD*%
D45*
%TO.C,J8*%
X116810000Y-76150643D03*
D46*
X114270000Y-76150643D03*
X111730000Y-76150643D03*
X109190000Y-76150643D03*
%TD*%
D22*
%TO.C,FB2*%
X136300000Y-83675643D03*
X134575000Y-83675643D03*
%TD*%
D32*
%TO.C,C44*%
X152150000Y-63863143D03*
X152150000Y-62138143D03*
%TD*%
D26*
%TO.C,C55*%
X159637500Y-126650643D03*
X161362500Y-126650643D03*
%TD*%
%TO.C,C65*%
X82462500Y-109950643D03*
X84187500Y-109950643D03*
%TD*%
D49*
%TO.C,J13*%
X175590000Y-114950643D03*
D50*
X176930000Y-116200643D03*
D51*
X176930000Y-113700643D03*
%TD*%
D12*
%TO.C,TP29*%
X120750000Y-102000000D03*
%TD*%
D22*
%TO.C,C84*%
X102225000Y-103750643D03*
X100500000Y-103750643D03*
%TD*%
D54*
%TO.C,U13*%
X123662500Y-53650659D03*
X122712499Y-53650659D03*
X121762498Y-53650659D03*
X121762498Y-56350643D03*
X122712499Y-56350643D03*
X123662500Y-56350643D03*
%TD*%
D55*
%TO.C,D12*%
X101200000Y-95038143D03*
X101200000Y-93463143D03*
%TD*%
D36*
%TO.C,R38*%
X157800000Y-58838143D03*
X157800000Y-60663143D03*
%TD*%
D19*
%TO.C,C39*%
X115000000Y-89788143D03*
X115000000Y-91513143D03*
%TD*%
D40*
%TO.C,U9*%
X125262500Y-122950643D03*
X126532500Y-122950643D03*
X127802500Y-122950643D03*
X129072500Y-122950643D03*
X130342500Y-122950643D03*
X131612500Y-122950643D03*
X132882500Y-122950643D03*
X134152500Y-122950643D03*
X134152500Y-113819650D03*
X132882500Y-113819650D03*
X131612500Y-113819650D03*
X130342500Y-113819650D03*
X129072500Y-113819650D03*
X127802500Y-113819650D03*
X126532500Y-113819650D03*
X125262500Y-113819650D03*
%TD*%
D32*
%TO.C,C85*%
X136187500Y-107480643D03*
X136187500Y-105755643D03*
%TD*%
D29*
%TO.C,R57*%
X90962500Y-138813143D03*
X90962500Y-136813143D03*
%TD*%
D26*
%TO.C,C18*%
X113431943Y-126213143D03*
X115156943Y-126213143D03*
%TD*%
D25*
%TO.C,D14*%
X164500000Y-52133143D03*
X164500000Y-54933143D03*
%TD*%
D56*
%TO.C,Y1*%
X123700000Y-92975643D03*
X127800000Y-92975643D03*
%TD*%
D36*
%TO.C,R84*%
X137987500Y-105655643D03*
X137987500Y-107480643D03*
%TD*%
D45*
%TO.C,JP2*%
X91625000Y-74675643D03*
D46*
X94165000Y-74675643D03*
%TD*%
D30*
%TO.C,R54*%
X160512500Y-109463143D03*
X158687500Y-109463143D03*
%TD*%
D36*
%TO.C,R12*%
X117500000Y-46475643D03*
X117500000Y-48300643D03*
%TD*%
D47*
%TO.C,C93*%
X133000000Y-61088143D03*
X133000000Y-59013143D03*
%TD*%
D28*
%TO.C,R62*%
X89962500Y-110063143D03*
X89962500Y-108238143D03*
%TD*%
D19*
%TO.C,C12*%
X113600000Y-70225643D03*
X113600000Y-71950643D03*
%TD*%
D47*
%TO.C,C88*%
X122400000Y-51488143D03*
X122400000Y-49413143D03*
%TD*%
D26*
%TO.C,C29*%
X127737500Y-95875643D03*
X129462500Y-95875643D03*
%TD*%
D12*
%TO.C,TP9*%
X161000000Y-43500000D03*
%TD*%
D28*
%TO.C,R6*%
X87000000Y-63550643D03*
X87000000Y-61725643D03*
%TD*%
D22*
%TO.C,C36*%
X136300000Y-88575643D03*
X134575000Y-88575643D03*
%TD*%
D34*
%TO.C,C27*%
X142800000Y-55313143D03*
X142800000Y-57388143D03*
%TD*%
D32*
%TO.C,C48*%
X161500000Y-76213143D03*
X161500000Y-74488143D03*
%TD*%
D28*
%TO.C,R56*%
X163900000Y-109475643D03*
X163900000Y-107650643D03*
%TD*%
%TO.C,R74*%
X90062500Y-104750643D03*
X90062500Y-102925643D03*
%TD*%
D22*
%TO.C,C34*%
X136200000Y-85375643D03*
X134475000Y-85375643D03*
%TD*%
%TO.C,C71*%
X126637500Y-126500643D03*
X124912500Y-126500643D03*
%TD*%
D19*
%TO.C,C46*%
X166600000Y-52075643D03*
X166600000Y-53800643D03*
%TD*%
D30*
%TO.C,R14*%
X102912500Y-63360643D03*
X101087500Y-63360643D03*
%TD*%
%TO.C,R68*%
X129925000Y-109450643D03*
X128100000Y-109450643D03*
%TD*%
D12*
%TO.C,TP40*%
X120700000Y-45000000D03*
%TD*%
%TO.C,TP25*%
X75600000Y-106000000D03*
%TD*%
D32*
%TO.C,C78*%
X144800000Y-57413143D03*
X144800000Y-55688143D03*
%TD*%
D36*
%TO.C,R9*%
X99900000Y-54073143D03*
X99900000Y-55898143D03*
%TD*%
D28*
%TO.C,R24*%
X140950000Y-43375000D03*
X140950000Y-45200000D03*
%TD*%
D44*
%TO.C,H3*%
X78000000Y-151000000D03*
%TD*%
D12*
%TO.C,TP42*%
X89000000Y-46700000D03*
%TD*%
D29*
%TO.C,R50*%
X163400000Y-138650643D03*
X163400000Y-136650643D03*
%TD*%
D57*
%TO.C,C9*%
X143767500Y-72850643D03*
X141692500Y-72850643D03*
%TD*%
D21*
%TO.C,D20*%
X109262500Y-103650643D03*
X109262500Y-100850643D03*
%TD*%
D12*
%TO.C,TP12*%
X184750000Y-50050000D03*
%TD*%
D28*
%TO.C,R5*%
X100200000Y-50763143D03*
X100200000Y-48938143D03*
%TD*%
D26*
%TO.C,C70*%
X124887500Y-128800643D03*
X126612500Y-128800643D03*
%TD*%
D12*
%TO.C,TP23*%
X145100000Y-92800000D03*
%TD*%
%TO.C,TP36*%
X75700000Y-100700000D03*
%TD*%
D58*
%TO.C,D2*%
X150500000Y-58150000D03*
X150500000Y-59900000D03*
%TD*%
D12*
%TO.C,TP27*%
X132700000Y-149300000D03*
%TD*%
D59*
%TO.C,D3*%
X145050000Y-74850643D03*
X146800000Y-74850643D03*
%TD*%
D32*
%TO.C,C1*%
X101900000Y-50713143D03*
X101900000Y-48988143D03*
%TD*%
D60*
%TO.C,Q1*%
X109335000Y-54360643D03*
X109335000Y-53090643D03*
X109335000Y-51810643D03*
X109335000Y-50540643D03*
D61*
X106065000Y-52450643D03*
%TD*%
D26*
%TO.C,C17*%
X94337500Y-69950643D03*
X96062500Y-69950643D03*
%TD*%
D12*
%TO.C,TP38*%
X184900000Y-102400000D03*
%TD*%
%TO.C,TP11*%
X184750000Y-55600000D03*
%TD*%
D30*
%TO.C,R45*%
X156012500Y-74363143D03*
X154187500Y-74363143D03*
%TD*%
%TO.C,R15*%
X97712500Y-71875643D03*
X95887500Y-71875643D03*
%TD*%
D62*
%TO.C,U6*%
X155795000Y-81738143D03*
X157065000Y-81738143D03*
X158335000Y-81738143D03*
X159605000Y-81738143D03*
X159605000Y-76788143D03*
X158335000Y-76788143D03*
X157065000Y-76788143D03*
X155795000Y-76788143D03*
%TD*%
D18*
%TO.C,R46*%
X158587500Y-84663143D03*
X160412500Y-84663143D03*
%TD*%
D28*
%TO.C,R63*%
X91862500Y-110038143D03*
X91862500Y-108213143D03*
%TD*%
%TO.C,R23*%
X114531943Y-110438143D03*
X114531943Y-108613143D03*
%TD*%
D18*
%TO.C,R41*%
X167200000Y-80063143D03*
X169025000Y-80063143D03*
%TD*%
D12*
%TO.C,TP31*%
X184900000Y-96500000D03*
%TD*%
D49*
%TO.C,J1*%
X175185000Y-91800643D03*
D63*
X176525000Y-95550643D03*
D51*
X176525000Y-93050643D03*
X176525000Y-90550643D03*
%TD*%
D28*
%TO.C,R83*%
X163900000Y-103775643D03*
X163900000Y-101950643D03*
%TD*%
D12*
%TO.C,TP21*%
X75700000Y-95200000D03*
%TD*%
D64*
%TO.C,U1*%
X142100000Y-65650643D03*
X142100000Y-67950643D03*
D65*
X148400000Y-67950643D03*
D64*
X142100000Y-70250643D03*
%TD*%
D12*
%TO.C,TP3*%
X184750000Y-66750000D03*
%TD*%
D28*
%TO.C,R75*%
X92000000Y-104750643D03*
X92000000Y-102925643D03*
%TD*%
D26*
%TO.C,C72*%
X128387500Y-126500643D03*
X130112500Y-126500643D03*
%TD*%
D18*
%TO.C,R44*%
X161487500Y-78063143D03*
X163312500Y-78063143D03*
%TD*%
D28*
%TO.C,R2*%
X150500000Y-63863143D03*
X150500000Y-62038143D03*
%TD*%
D26*
%TO.C,C63*%
X86437500Y-128613143D03*
X88162500Y-128613143D03*
%TD*%
D22*
%TO.C,C68*%
X91725000Y-106450643D03*
X90000000Y-106450643D03*
%TD*%
D66*
%TO.C,Q2*%
X111800000Y-51830643D03*
X111800000Y-53100643D03*
X111800000Y-54380643D03*
X111800000Y-55650643D03*
D67*
X115070000Y-53740643D03*
%TD*%
D12*
%TO.C,TP33*%
X107400000Y-96400000D03*
%TD*%
%TO.C,TP22*%
X80500000Y-95200000D03*
%TD*%
D44*
%TO.C,H1*%
X78000000Y-44100000D03*
%TD*%
D68*
%TO.C,D1*%
X113975000Y-66475000D03*
X113975000Y-64725000D03*
%TD*%
D44*
%TO.C,H2*%
X184600000Y-44100000D03*
%TD*%
D69*
%TO.C,SW2*%
X104500000Y-84750643D03*
X102000000Y-90250643D03*
X99500000Y-84750643D03*
%TD*%
D29*
%TO.C,R65*%
X131950000Y-134900643D03*
X131950000Y-132900643D03*
%TD*%
D28*
%TO.C,R77*%
X114556943Y-104838143D03*
X114556943Y-103013143D03*
%TD*%
D35*
%TO.C,C91*%
X137200000Y-68288143D03*
X137200000Y-71413143D03*
%TD*%
D49*
%TO.C,J9*%
X175660000Y-51400643D03*
D70*
X177000000Y-57650643D03*
D51*
X177000000Y-55150643D03*
X177000000Y-52650643D03*
X177000000Y-50150643D03*
X177000000Y-47650643D03*
%TD*%
D28*
%TO.C,R53*%
X161337500Y-132175643D03*
X161337500Y-130350643D03*
%TD*%
D71*
%TO.C,SW1*%
X128600000Y-76450643D03*
X133100000Y-76450643D03*
X128600000Y-74300643D03*
X133100000Y-74300643D03*
%TD*%
D21*
%TO.C,D15*%
X162400000Y-60718143D03*
X162400000Y-57918143D03*
%TD*%
D52*
%TO.C,D23*%
X147762500Y-105950643D03*
X150562500Y-105950643D03*
%TD*%
D26*
%TO.C,C56*%
X155075000Y-109463143D03*
X156800000Y-109463143D03*
%TD*%
%TO.C,C37*%
X130737500Y-79150643D03*
X132462500Y-79150643D03*
%TD*%
D72*
%TO.C,D25*%
X145562500Y-102450643D03*
X142762500Y-102450643D03*
%TD*%
D18*
%TO.C,R47*%
X155087500Y-84563143D03*
X156912500Y-84563143D03*
%TD*%
D22*
%TO.C,C20*%
X107956943Y-126513143D03*
X106231943Y-126513143D03*
%TD*%
D28*
%TO.C,R30*%
X117800000Y-81963143D03*
X117800000Y-80138143D03*
%TD*%
D22*
%TO.C,C77*%
X133262500Y-105750643D03*
X131537500Y-105750643D03*
%TD*%
D32*
%TO.C,C24*%
X109456943Y-108938143D03*
X109456943Y-107213143D03*
%TD*%
D36*
%TO.C,R29*%
X131600000Y-93363143D03*
X131600000Y-95188143D03*
%TD*%
D28*
%TO.C,R20*%
X111631943Y-132025643D03*
X111631943Y-130200643D03*
%TD*%
%TO.C,R25*%
X142800000Y-43375000D03*
X142800000Y-45200000D03*
%TD*%
D12*
%TO.C,TP28*%
X112100000Y-149200000D03*
%TD*%
D28*
%TO.C,R31*%
X119500000Y-81963143D03*
X119500000Y-80138143D03*
%TD*%
D29*
%TO.C,R17*%
X113456943Y-138913143D03*
X113456943Y-136913143D03*
%TD*%
D19*
%TO.C,C43*%
X152200000Y-68375643D03*
X152200000Y-70100643D03*
%TD*%
D28*
%TO.C,R48*%
X149700000Y-83063143D03*
X149700000Y-81238143D03*
%TD*%
%TO.C,R82*%
X162000000Y-103763143D03*
X162000000Y-101938143D03*
%TD*%
D19*
%TO.C,C45*%
X168800000Y-57905643D03*
X168800000Y-59630643D03*
%TD*%
D36*
%TO.C,R78*%
X96162500Y-104925643D03*
X96162500Y-106750643D03*
%TD*%
D32*
%TO.C,C58*%
X160400000Y-107475643D03*
X160400000Y-105750643D03*
%TD*%
D26*
%TO.C,C6*%
X104527500Y-46150643D03*
X106252500Y-46150643D03*
%TD*%
D22*
%TO.C,C53*%
X157825000Y-126650643D03*
X156100000Y-126650643D03*
%TD*%
D19*
%TO.C,C89*%
X120025000Y-55575000D03*
X120025000Y-57300000D03*
%TD*%
D73*
%TO.C,D10*%
X130350000Y-90125643D03*
X131700000Y-90125643D03*
D74*
X130275000Y-90850643D03*
X131775000Y-90850643D03*
D73*
X130350000Y-91575643D03*
X131700000Y-91575643D03*
%TD*%
D52*
%TO.C,D18*%
X155200000Y-89263143D03*
X158000000Y-89263143D03*
%TD*%
D32*
%TO.C,C83*%
X107062500Y-107513143D03*
X107062500Y-105788143D03*
%TD*%
D36*
%TO.C,R26*%
X135100000Y-93363143D03*
X135100000Y-95188143D03*
%TD*%
D75*
%TO.C,D7*%
X139605000Y-63800643D03*
X139605000Y-61300643D03*
%TD*%
D30*
%TO.C,R71*%
X138000000Y-56050643D03*
X136175000Y-56050643D03*
%TD*%
D76*
%TO.C,D9*%
X128650000Y-43820000D03*
X127950000Y-43820000D03*
X128300000Y-44980000D03*
%TD*%
D19*
%TO.C,C35*%
X116900000Y-89750643D03*
X116900000Y-91475643D03*
%TD*%
D22*
%TO.C,C13*%
X102862500Y-61275000D03*
X101137500Y-61275000D03*
%TD*%
D32*
%TO.C,C75*%
X129900000Y-107613143D03*
X129900000Y-105888143D03*
%TD*%
D34*
%TO.C,C14*%
X101800000Y-78388143D03*
X101800000Y-80463143D03*
%TD*%
D26*
%TO.C,C49*%
X155137500Y-86863143D03*
X156862500Y-86863143D03*
%TD*%
D12*
%TO.C,TP8*%
X171500000Y-43500000D03*
%TD*%
%TO.C,TP17*%
X185100000Y-108700000D03*
%TD*%
D49*
%TO.C,J5*%
X85140000Y-57800643D03*
D77*
X83800000Y-51550643D03*
D51*
X83800000Y-54050643D03*
X83800000Y-56550643D03*
X83800000Y-59050643D03*
X83800000Y-61550643D03*
%TD*%
D12*
%TO.C,TP16*%
X184750000Y-72000000D03*
%TD*%
D57*
%TO.C,C8*%
X144137500Y-63150643D03*
X142062500Y-63150643D03*
%TD*%
D29*
%TO.C,R52*%
X163337500Y-130650643D03*
X163337500Y-128650643D03*
%TD*%
D78*
%TO.C,L1*%
X122962500Y-65050643D03*
X129362500Y-65050643D03*
%TD*%
D22*
%TO.C,C62*%
X84625000Y-128213143D03*
X82900000Y-128213143D03*
%TD*%
D32*
%TO.C,C25*%
X111156943Y-108938143D03*
X111156943Y-107213143D03*
%TD*%
%TO.C,C47*%
X165400000Y-79825643D03*
X165400000Y-78100643D03*
%TD*%
%TO.C,C76*%
X128100000Y-107675643D03*
X128100000Y-105950643D03*
%TD*%
D29*
%TO.C,R66*%
X131950000Y-130800643D03*
X131950000Y-128800643D03*
%TD*%
D12*
%TO.C,TP30*%
X120750000Y-107020000D03*
%TD*%
D32*
%TO.C,C32*%
X126100000Y-76938143D03*
X126100000Y-75213143D03*
%TD*%
D28*
%TO.C,R67*%
X130050000Y-132325643D03*
X130050000Y-130500643D03*
%TD*%
D29*
%TO.C,R59*%
X90962500Y-130613143D03*
X90962500Y-128613143D03*
%TD*%
D36*
%TO.C,R37*%
X168200000Y-46538143D03*
X168200000Y-48363143D03*
%TD*%
D58*
%TO.C,D4*%
X100200000Y-45400643D03*
X100200000Y-47150643D03*
%TD*%
D30*
%TO.C,R61*%
X87675000Y-110050643D03*
X85850000Y-110050643D03*
%TD*%
D12*
%TO.C,TP20*%
X127400000Y-149300000D03*
%TD*%
D25*
%TO.C,D24*%
X151562500Y-108250643D03*
X151562500Y-111050643D03*
%TD*%
D12*
%TO.C,TP15*%
X185000000Y-113900000D03*
%TD*%
D30*
%TO.C,R72*%
X135982500Y-52705643D03*
X134157500Y-52705643D03*
%TD*%
D26*
%TO.C,C64*%
X86437500Y-126413143D03*
X88162500Y-126413143D03*
%TD*%
D32*
%TO.C,C81*%
X142700000Y-61213143D03*
X142700000Y-59488143D03*
%TD*%
D36*
%TO.C,R85*%
X147662500Y-108013143D03*
X147662500Y-109838143D03*
%TD*%
D18*
%TO.C,R42*%
X167187500Y-77863143D03*
X169012500Y-77863143D03*
%TD*%
D28*
%TO.C,R81*%
X133362500Y-103775643D03*
X133362500Y-101950643D03*
%TD*%
D22*
%TO.C,C31*%
X136435000Y-91745643D03*
X134710000Y-91745643D03*
%TD*%
D32*
%TO.C,FB1*%
X132800000Y-84613143D03*
X132800000Y-82888143D03*
%TD*%
D36*
%TO.C,R79*%
X105462500Y-105788143D03*
X105462500Y-107613143D03*
%TD*%
D49*
%TO.C,J10*%
X174735000Y-78650643D03*
D70*
X176075000Y-82400643D03*
D51*
X176075000Y-79900643D03*
X176075000Y-77400643D03*
X176075000Y-74900643D03*
%TD*%
D36*
%TO.C,R1*%
X114000000Y-61258143D03*
X114000000Y-63083143D03*
%TD*%
D79*
%TO.C,R86*%
X126912500Y-55450643D03*
X125262500Y-55450643D03*
%TD*%
D12*
%TO.C,TP18*%
X184750000Y-83250000D03*
%TD*%
D80*
%TO.C,J3*%
X83460000Y-73200642D03*
X83460000Y-75700643D03*
X83460000Y-78200643D03*
X83460000Y-80700643D03*
X83460000Y-83200643D03*
X83460000Y-85700643D03*
X83460000Y-88200643D03*
X83460000Y-90700643D03*
D81*
X84800000Y-81950643D03*
%TD*%
D28*
%TO.C,R39*%
X164500000Y-59680643D03*
X164500000Y-57855643D03*
%TD*%
D36*
%TO.C,R32*%
X108400000Y-87638143D03*
X108400000Y-89463143D03*
%TD*%
D12*
%TO.C,TP7*%
X166400000Y-43500000D03*
%TD*%
%TO.C,TP37*%
X146500000Y-98200000D03*
%TD*%
D22*
%TO.C,C42*%
X136237500Y-86975643D03*
X134512500Y-86975643D03*
%TD*%
D26*
%TO.C,C22*%
X109787500Y-128250643D03*
X111512500Y-128250643D03*
%TD*%
D19*
%TO.C,C16*%
X105600000Y-78725643D03*
X105600000Y-80450643D03*
%TD*%
D32*
%TO.C,C33*%
X121500000Y-78663143D03*
X121500000Y-76938143D03*
%TD*%
D26*
%TO.C,C60*%
X90937500Y-126250643D03*
X92662500Y-126250643D03*
%TD*%
D40*
%TO.C,U8*%
X83462500Y-122950643D03*
X84732500Y-122950643D03*
X86002500Y-122950643D03*
X87272500Y-122950643D03*
X88542500Y-122950643D03*
X89812500Y-122950643D03*
X91082500Y-122950643D03*
X92352500Y-122950643D03*
X92352500Y-113819650D03*
X91082500Y-113819650D03*
X89812500Y-113819650D03*
X88542500Y-113819650D03*
X87272500Y-113819650D03*
X86002500Y-113819650D03*
X84732500Y-113819650D03*
X83462500Y-113819650D03*
%TD*%
D30*
%TO.C,R21*%
X111144443Y-110813143D03*
X109319443Y-110813143D03*
%TD*%
D12*
%TO.C,TP14*%
X184750000Y-88700000D03*
%TD*%
D49*
%TO.C,J2*%
X151250000Y-46240643D03*
D82*
X155000000Y-44900643D03*
D83*
X152500000Y-44900643D03*
X150000000Y-44900643D03*
X147500000Y-44900643D03*
%TD*%
D30*
%TO.C,R13*%
X106600000Y-63325643D03*
X104775000Y-63325643D03*
%TD*%
D84*
%TO.C,IC1*%
X113800000Y-48363143D03*
X113800000Y-47713143D03*
X113800000Y-47063143D03*
X113800000Y-46413143D03*
X111300000Y-46413143D03*
X111300000Y-47063143D03*
X111300000Y-47713143D03*
X111300000Y-48363143D03*
%TD*%
D28*
%TO.C,R69*%
X131600000Y-107650643D03*
X131600000Y-109475643D03*
%TD*%
D34*
%TO.C,C10*%
X110100000Y-70150643D03*
X110100000Y-72225643D03*
%TD*%
D49*
%TO.C,J4*%
X120912500Y-142210643D03*
D85*
X114662500Y-143550643D03*
D83*
X117162500Y-143550643D03*
X119662500Y-143550643D03*
X122162500Y-143550643D03*
X124662500Y-143550643D03*
%TD*%
M02*
