%TF.GenerationSoftware,KiCad,Pcbnew,10.0.5*%
%TF.CreationDate,2026-09-12T12:28:53-05:00*%
%TF.ProjectId,Hall Interface,48616c6c-2049-46e7-9465-72666163652e,rev?*%
%TF.SameCoordinates,Original*%
%TF.FileFunction,Legend,Top*%
%TF.FilePolarity,Positive*%
%FSLAX46Y46*%
G04 Gerber Fmt 4.6, Leading zero omitted, Abs format (unit mm)*
G04 Created by KiCad (PCBNEW 10.0.5) date 2026-09-12 12:28:53*
%MOMM*%
%LPD*%
G01*
G04 APERTURE LIST*
%ADD10C,0.150000*%
%ADD11C,0.300000*%
%ADD12C,0.254000*%
%ADD13C,0.100000*%
%ADD14C,0.200000*%
%ADD15C,0.120000*%
G04 APERTURE END LIST*
D10*
X77725125Y-57869819D02*
X77915601Y-57869819D01*
X77915601Y-57869819D02*
X78010839Y-57822200D01*
X78010839Y-57822200D02*
X78058458Y-57774580D01*
X78058458Y-57774580D02*
X78153696Y-57631723D01*
X78153696Y-57631723D02*
X78201315Y-57441247D01*
X78201315Y-57441247D02*
X78201315Y-57060295D01*
X78201315Y-57060295D02*
X78153696Y-56965057D01*
X78153696Y-56965057D02*
X78106077Y-56917438D01*
X78106077Y-56917438D02*
X78010839Y-56869819D01*
X78010839Y-56869819D02*
X77820363Y-56869819D01*
X77820363Y-56869819D02*
X77725125Y-56917438D01*
X77725125Y-56917438D02*
X77677506Y-56965057D01*
X77677506Y-56965057D02*
X77629887Y-57060295D01*
X77629887Y-57060295D02*
X77629887Y-57298390D01*
X77629887Y-57298390D02*
X77677506Y-57393628D01*
X77677506Y-57393628D02*
X77725125Y-57441247D01*
X77725125Y-57441247D02*
X77820363Y-57488866D01*
X77820363Y-57488866D02*
X78010839Y-57488866D01*
X78010839Y-57488866D02*
X78106077Y-57441247D01*
X78106077Y-57441247D02*
X78153696Y-57393628D01*
X78153696Y-57393628D02*
X78201315Y-57298390D01*
X79344172Y-56822200D02*
X78487030Y-58107914D01*
X80201315Y-57869819D02*
X79629887Y-57869819D01*
X79915601Y-57869819D02*
X79915601Y-56869819D01*
X79915601Y-56869819D02*
X79820363Y-57012676D01*
X79820363Y-57012676D02*
X79725125Y-57107914D01*
X79725125Y-57107914D02*
X79629887Y-57155533D01*
X81153696Y-57869819D02*
X80582268Y-57869819D01*
X80867982Y-57869819D02*
X80867982Y-56869819D01*
X80867982Y-56869819D02*
X80772744Y-57012676D01*
X80772744Y-57012676D02*
X80677506Y-57107914D01*
X80677506Y-57107914D02*
X80582268Y-57155533D01*
X82296553Y-56822200D02*
X81439411Y-58107914D01*
X82582268Y-56965057D02*
X82629887Y-56917438D01*
X82629887Y-56917438D02*
X82725125Y-56869819D01*
X82725125Y-56869819D02*
X82963220Y-56869819D01*
X82963220Y-56869819D02*
X83058458Y-56917438D01*
X83058458Y-56917438D02*
X83106077Y-56965057D01*
X83106077Y-56965057D02*
X83153696Y-57060295D01*
X83153696Y-57060295D02*
X83153696Y-57155533D01*
X83153696Y-57155533D02*
X83106077Y-57298390D01*
X83106077Y-57298390D02*
X82534649Y-57869819D01*
X82534649Y-57869819D02*
X83153696Y-57869819D01*
X83772744Y-56869819D02*
X83867982Y-56869819D01*
X83867982Y-56869819D02*
X83963220Y-56917438D01*
X83963220Y-56917438D02*
X84010839Y-56965057D01*
X84010839Y-56965057D02*
X84058458Y-57060295D01*
X84058458Y-57060295D02*
X84106077Y-57250771D01*
X84106077Y-57250771D02*
X84106077Y-57488866D01*
X84106077Y-57488866D02*
X84058458Y-57679342D01*
X84058458Y-57679342D02*
X84010839Y-57774580D01*
X84010839Y-57774580D02*
X83963220Y-57822200D01*
X83963220Y-57822200D02*
X83867982Y-57869819D01*
X83867982Y-57869819D02*
X83772744Y-57869819D01*
X83772744Y-57869819D02*
X83677506Y-57822200D01*
X83677506Y-57822200D02*
X83629887Y-57774580D01*
X83629887Y-57774580D02*
X83582268Y-57679342D01*
X83582268Y-57679342D02*
X83534649Y-57488866D01*
X83534649Y-57488866D02*
X83534649Y-57250771D01*
X83534649Y-57250771D02*
X83582268Y-57060295D01*
X83582268Y-57060295D02*
X83629887Y-56965057D01*
X83629887Y-56965057D02*
X83677506Y-56917438D01*
X83677506Y-56917438D02*
X83772744Y-56869819D01*
X84487030Y-56965057D02*
X84534649Y-56917438D01*
X84534649Y-56917438D02*
X84629887Y-56869819D01*
X84629887Y-56869819D02*
X84867982Y-56869819D01*
X84867982Y-56869819D02*
X84963220Y-56917438D01*
X84963220Y-56917438D02*
X85010839Y-56965057D01*
X85010839Y-56965057D02*
X85058458Y-57060295D01*
X85058458Y-57060295D02*
X85058458Y-57155533D01*
X85058458Y-57155533D02*
X85010839Y-57298390D01*
X85010839Y-57298390D02*
X84439411Y-57869819D01*
X84439411Y-57869819D02*
X85058458Y-57869819D01*
X85915601Y-56869819D02*
X85725125Y-56869819D01*
X85725125Y-56869819D02*
X85629887Y-56917438D01*
X85629887Y-56917438D02*
X85582268Y-56965057D01*
X85582268Y-56965057D02*
X85487030Y-57107914D01*
X85487030Y-57107914D02*
X85439411Y-57298390D01*
X85439411Y-57298390D02*
X85439411Y-57679342D01*
X85439411Y-57679342D02*
X85487030Y-57774580D01*
X85487030Y-57774580D02*
X85534649Y-57822200D01*
X85534649Y-57822200D02*
X85629887Y-57869819D01*
X85629887Y-57869819D02*
X85820363Y-57869819D01*
X85820363Y-57869819D02*
X85915601Y-57822200D01*
X85915601Y-57822200D02*
X85963220Y-57774580D01*
X85963220Y-57774580D02*
X86010839Y-57679342D01*
X86010839Y-57679342D02*
X86010839Y-57441247D01*
X86010839Y-57441247D02*
X85963220Y-57346009D01*
X85963220Y-57346009D02*
X85915601Y-57298390D01*
X85915601Y-57298390D02*
X85820363Y-57250771D01*
X85820363Y-57250771D02*
X85629887Y-57250771D01*
X85629887Y-57250771D02*
X85534649Y-57298390D01*
X85534649Y-57298390D02*
X85487030Y-57346009D01*
X85487030Y-57346009D02*
X85439411Y-57441247D01*
D11*
X74916918Y-54000828D02*
X74916918Y-52500828D01*
X74916918Y-53215114D02*
X75774061Y-53215114D01*
X75774061Y-54000828D02*
X75774061Y-52500828D01*
X76274062Y-52500828D02*
X76774062Y-54000828D01*
X76774062Y-54000828D02*
X77274062Y-52500828D01*
X79774061Y-53857971D02*
X79702633Y-53929400D01*
X79702633Y-53929400D02*
X79488347Y-54000828D01*
X79488347Y-54000828D02*
X79345490Y-54000828D01*
X79345490Y-54000828D02*
X79131204Y-53929400D01*
X79131204Y-53929400D02*
X78988347Y-53786542D01*
X78988347Y-53786542D02*
X78916918Y-53643685D01*
X78916918Y-53643685D02*
X78845490Y-53357971D01*
X78845490Y-53357971D02*
X78845490Y-53143685D01*
X78845490Y-53143685D02*
X78916918Y-52857971D01*
X78916918Y-52857971D02*
X78988347Y-52715114D01*
X78988347Y-52715114D02*
X79131204Y-52572257D01*
X79131204Y-52572257D02*
X79345490Y-52500828D01*
X79345490Y-52500828D02*
X79488347Y-52500828D01*
X79488347Y-52500828D02*
X79702633Y-52572257D01*
X79702633Y-52572257D02*
X79774061Y-52643685D01*
X81059776Y-54000828D02*
X81059776Y-53215114D01*
X81059776Y-53215114D02*
X80988347Y-53072257D01*
X80988347Y-53072257D02*
X80845490Y-53000828D01*
X80845490Y-53000828D02*
X80559776Y-53000828D01*
X80559776Y-53000828D02*
X80416918Y-53072257D01*
X81059776Y-53929400D02*
X80916918Y-54000828D01*
X80916918Y-54000828D02*
X80559776Y-54000828D01*
X80559776Y-54000828D02*
X80416918Y-53929400D01*
X80416918Y-53929400D02*
X80345490Y-53786542D01*
X80345490Y-53786542D02*
X80345490Y-53643685D01*
X80345490Y-53643685D02*
X80416918Y-53500828D01*
X80416918Y-53500828D02*
X80559776Y-53429400D01*
X80559776Y-53429400D02*
X80916918Y-53429400D01*
X80916918Y-53429400D02*
X81059776Y-53357971D01*
X81774061Y-54000828D02*
X81774061Y-53000828D01*
X81774061Y-53286542D02*
X81845490Y-53143685D01*
X81845490Y-53143685D02*
X81916919Y-53072257D01*
X81916919Y-53072257D02*
X82059776Y-53000828D01*
X82059776Y-53000828D02*
X82202633Y-53000828D01*
X82702632Y-54000828D02*
X82702632Y-53000828D01*
X82702632Y-53286542D02*
X82774061Y-53143685D01*
X82774061Y-53143685D02*
X82845490Y-53072257D01*
X82845490Y-53072257D02*
X82988347Y-53000828D01*
X82988347Y-53000828D02*
X83131204Y-53000828D01*
X83631203Y-54000828D02*
X83631203Y-53000828D01*
X83631203Y-52500828D02*
X83559775Y-52572257D01*
X83559775Y-52572257D02*
X83631203Y-52643685D01*
X83631203Y-52643685D02*
X83702632Y-52572257D01*
X83702632Y-52572257D02*
X83631203Y-52500828D01*
X83631203Y-52500828D02*
X83631203Y-52643685D01*
X84916918Y-53929400D02*
X84774061Y-54000828D01*
X84774061Y-54000828D02*
X84488347Y-54000828D01*
X84488347Y-54000828D02*
X84345489Y-53929400D01*
X84345489Y-53929400D02*
X84274061Y-53786542D01*
X84274061Y-53786542D02*
X84274061Y-53215114D01*
X84274061Y-53215114D02*
X84345489Y-53072257D01*
X84345489Y-53072257D02*
X84488347Y-53000828D01*
X84488347Y-53000828D02*
X84774061Y-53000828D01*
X84774061Y-53000828D02*
X84916918Y-53072257D01*
X84916918Y-53072257D02*
X84988347Y-53215114D01*
X84988347Y-53215114D02*
X84988347Y-53357971D01*
X84988347Y-53357971D02*
X84274061Y-53500828D01*
X85631203Y-54000828D02*
X85631203Y-53000828D01*
X85631203Y-53286542D02*
X85702632Y-53143685D01*
X85702632Y-53143685D02*
X85774061Y-53072257D01*
X85774061Y-53072257D02*
X85916918Y-53000828D01*
X85916918Y-53000828D02*
X86059775Y-53000828D01*
D10*
X76296553Y-55722200D02*
X76439410Y-55769819D01*
X76439410Y-55769819D02*
X76677505Y-55769819D01*
X76677505Y-55769819D02*
X76772743Y-55722200D01*
X76772743Y-55722200D02*
X76820362Y-55674580D01*
X76820362Y-55674580D02*
X76867981Y-55579342D01*
X76867981Y-55579342D02*
X76867981Y-55484104D01*
X76867981Y-55484104D02*
X76820362Y-55388866D01*
X76820362Y-55388866D02*
X76772743Y-55341247D01*
X76772743Y-55341247D02*
X76677505Y-55293628D01*
X76677505Y-55293628D02*
X76487029Y-55246009D01*
X76487029Y-55246009D02*
X76391791Y-55198390D01*
X76391791Y-55198390D02*
X76344172Y-55150771D01*
X76344172Y-55150771D02*
X76296553Y-55055533D01*
X76296553Y-55055533D02*
X76296553Y-54960295D01*
X76296553Y-54960295D02*
X76344172Y-54865057D01*
X76344172Y-54865057D02*
X76391791Y-54817438D01*
X76391791Y-54817438D02*
X76487029Y-54769819D01*
X76487029Y-54769819D02*
X76725124Y-54769819D01*
X76725124Y-54769819D02*
X76867981Y-54817438D01*
X77296553Y-55769819D02*
X77296553Y-54769819D01*
X77725124Y-55769819D02*
X77725124Y-55246009D01*
X77725124Y-55246009D02*
X77677505Y-55150771D01*
X77677505Y-55150771D02*
X77582267Y-55103152D01*
X77582267Y-55103152D02*
X77439410Y-55103152D01*
X77439410Y-55103152D02*
X77344172Y-55150771D01*
X77344172Y-55150771D02*
X77296553Y-55198390D01*
X78629886Y-55103152D02*
X78629886Y-55769819D01*
X78201315Y-55103152D02*
X78201315Y-55626961D01*
X78201315Y-55626961D02*
X78248934Y-55722200D01*
X78248934Y-55722200D02*
X78344172Y-55769819D01*
X78344172Y-55769819D02*
X78487029Y-55769819D01*
X78487029Y-55769819D02*
X78582267Y-55722200D01*
X78582267Y-55722200D02*
X78629886Y-55674580D01*
X79248934Y-55769819D02*
X79153696Y-55722200D01*
X79153696Y-55722200D02*
X79106077Y-55674580D01*
X79106077Y-55674580D02*
X79058458Y-55579342D01*
X79058458Y-55579342D02*
X79058458Y-55293628D01*
X79058458Y-55293628D02*
X79106077Y-55198390D01*
X79106077Y-55198390D02*
X79153696Y-55150771D01*
X79153696Y-55150771D02*
X79248934Y-55103152D01*
X79248934Y-55103152D02*
X79391791Y-55103152D01*
X79391791Y-55103152D02*
X79487029Y-55150771D01*
X79487029Y-55150771D02*
X79534648Y-55198390D01*
X79534648Y-55198390D02*
X79582267Y-55293628D01*
X79582267Y-55293628D02*
X79582267Y-55579342D01*
X79582267Y-55579342D02*
X79534648Y-55674580D01*
X79534648Y-55674580D02*
X79487029Y-55722200D01*
X79487029Y-55722200D02*
X79391791Y-55769819D01*
X79391791Y-55769819D02*
X79248934Y-55769819D01*
X80010839Y-55103152D02*
X80010839Y-56103152D01*
X80010839Y-55150771D02*
X80106077Y-55103152D01*
X80106077Y-55103152D02*
X80296553Y-55103152D01*
X80296553Y-55103152D02*
X80391791Y-55150771D01*
X80391791Y-55150771D02*
X80439410Y-55198390D01*
X80439410Y-55198390D02*
X80487029Y-55293628D01*
X80487029Y-55293628D02*
X80487029Y-55579342D01*
X80487029Y-55579342D02*
X80439410Y-55674580D01*
X80439410Y-55674580D02*
X80391791Y-55722200D01*
X80391791Y-55722200D02*
X80296553Y-55769819D01*
X80296553Y-55769819D02*
X80106077Y-55769819D01*
X80106077Y-55769819D02*
X80010839Y-55722200D01*
X81344172Y-55103152D02*
X81344172Y-55769819D01*
X80915601Y-55103152D02*
X80915601Y-55626961D01*
X80915601Y-55626961D02*
X80963220Y-55722200D01*
X80963220Y-55722200D02*
X81058458Y-55769819D01*
X81058458Y-55769819D02*
X81201315Y-55769819D01*
X81201315Y-55769819D02*
X81296553Y-55722200D01*
X81296553Y-55722200D02*
X81344172Y-55674580D01*
X82487030Y-54769819D02*
X82725125Y-55769819D01*
X82725125Y-55769819D02*
X82915601Y-55055533D01*
X82915601Y-55055533D02*
X83106077Y-55769819D01*
X83106077Y-55769819D02*
X83344173Y-54769819D01*
X84153696Y-55769819D02*
X84153696Y-55246009D01*
X84153696Y-55246009D02*
X84106077Y-55150771D01*
X84106077Y-55150771D02*
X84010839Y-55103152D01*
X84010839Y-55103152D02*
X83820363Y-55103152D01*
X83820363Y-55103152D02*
X83725125Y-55150771D01*
X84153696Y-55722200D02*
X84058458Y-55769819D01*
X84058458Y-55769819D02*
X83820363Y-55769819D01*
X83820363Y-55769819D02*
X83725125Y-55722200D01*
X83725125Y-55722200D02*
X83677506Y-55626961D01*
X83677506Y-55626961D02*
X83677506Y-55531723D01*
X83677506Y-55531723D02*
X83725125Y-55436485D01*
X83725125Y-55436485D02*
X83820363Y-55388866D01*
X83820363Y-55388866D02*
X84058458Y-55388866D01*
X84058458Y-55388866D02*
X84153696Y-55341247D01*
X84629887Y-55103152D02*
X84629887Y-55769819D01*
X84629887Y-55198390D02*
X84677506Y-55150771D01*
X84677506Y-55150771D02*
X84772744Y-55103152D01*
X84772744Y-55103152D02*
X84915601Y-55103152D01*
X84915601Y-55103152D02*
X85010839Y-55150771D01*
X85010839Y-55150771D02*
X85058458Y-55246009D01*
X85058458Y-55246009D02*
X85058458Y-55769819D01*
X85963220Y-55103152D02*
X85963220Y-55912676D01*
X85963220Y-55912676D02*
X85915601Y-56007914D01*
X85915601Y-56007914D02*
X85867982Y-56055533D01*
X85867982Y-56055533D02*
X85772744Y-56103152D01*
X85772744Y-56103152D02*
X85629887Y-56103152D01*
X85629887Y-56103152D02*
X85534649Y-56055533D01*
X85963220Y-55722200D02*
X85867982Y-55769819D01*
X85867982Y-55769819D02*
X85677506Y-55769819D01*
X85677506Y-55769819D02*
X85582268Y-55722200D01*
X85582268Y-55722200D02*
X85534649Y-55674580D01*
X85534649Y-55674580D02*
X85487030Y-55579342D01*
X85487030Y-55579342D02*
X85487030Y-55293628D01*
X85487030Y-55293628D02*
X85534649Y-55198390D01*
X85534649Y-55198390D02*
X85582268Y-55150771D01*
X85582268Y-55150771D02*
X85677506Y-55103152D01*
X85677506Y-55103152D02*
X85867982Y-55103152D01*
X85867982Y-55103152D02*
X85963220Y-55150771D01*
D12*
X111622380Y-64204318D02*
X111622380Y-65232413D01*
X111622380Y-65232413D02*
X111682857Y-65353365D01*
X111682857Y-65353365D02*
X111743333Y-65413842D01*
X111743333Y-65413842D02*
X111864285Y-65474318D01*
X111864285Y-65474318D02*
X112106190Y-65474318D01*
X112106190Y-65474318D02*
X112227142Y-65413842D01*
X112227142Y-65413842D02*
X112287619Y-65353365D01*
X112287619Y-65353365D02*
X112348095Y-65232413D01*
X112348095Y-65232413D02*
X112348095Y-64204318D01*
X113618095Y-65474318D02*
X112892380Y-65474318D01*
X113255237Y-65474318D02*
X113255237Y-64204318D01*
X113255237Y-64204318D02*
X113134285Y-64385746D01*
X113134285Y-64385746D02*
X113013333Y-64506699D01*
X113013333Y-64506699D02*
X112892380Y-64567175D01*
D10*
X71726666Y-72304819D02*
X71726666Y-73019104D01*
X71726666Y-73019104D02*
X71679047Y-73161961D01*
X71679047Y-73161961D02*
X71583809Y-73257200D01*
X71583809Y-73257200D02*
X71440952Y-73304819D01*
X71440952Y-73304819D02*
X71345714Y-73304819D01*
X72726666Y-73304819D02*
X72155238Y-73304819D01*
X72440952Y-73304819D02*
X72440952Y-72304819D01*
X72440952Y-72304819D02*
X72345714Y-72447676D01*
X72345714Y-72447676D02*
X72250476Y-72542914D01*
X72250476Y-72542914D02*
X72155238Y-72590533D01*
X68491009Y-71887144D02*
X68538628Y-71744287D01*
X68538628Y-71744287D02*
X68586247Y-71696668D01*
X68586247Y-71696668D02*
X68681485Y-71649049D01*
X68681485Y-71649049D02*
X68824342Y-71649049D01*
X68824342Y-71649049D02*
X68919580Y-71696668D01*
X68919580Y-71696668D02*
X68967200Y-71744287D01*
X68967200Y-71744287D02*
X69014819Y-71839525D01*
X69014819Y-71839525D02*
X69014819Y-72220477D01*
X69014819Y-72220477D02*
X68014819Y-72220477D01*
X68014819Y-72220477D02*
X68014819Y-71887144D01*
X68014819Y-71887144D02*
X68062438Y-71791906D01*
X68062438Y-71791906D02*
X68110057Y-71744287D01*
X68110057Y-71744287D02*
X68205295Y-71696668D01*
X68205295Y-71696668D02*
X68300533Y-71696668D01*
X68300533Y-71696668D02*
X68395771Y-71744287D01*
X68395771Y-71744287D02*
X68443390Y-71791906D01*
X68443390Y-71791906D02*
X68491009Y-71887144D01*
X68491009Y-71887144D02*
X68491009Y-72220477D01*
X69014819Y-71220477D02*
X68348152Y-71220477D01*
X68538628Y-71220477D02*
X68443390Y-71172858D01*
X68443390Y-71172858D02*
X68395771Y-71125239D01*
X68395771Y-71125239D02*
X68348152Y-71030001D01*
X68348152Y-71030001D02*
X68348152Y-70934763D01*
X68967200Y-70220477D02*
X69014819Y-70315715D01*
X69014819Y-70315715D02*
X69014819Y-70506191D01*
X69014819Y-70506191D02*
X68967200Y-70601429D01*
X68967200Y-70601429D02*
X68871961Y-70649048D01*
X68871961Y-70649048D02*
X68491009Y-70649048D01*
X68491009Y-70649048D02*
X68395771Y-70601429D01*
X68395771Y-70601429D02*
X68348152Y-70506191D01*
X68348152Y-70506191D02*
X68348152Y-70315715D01*
X68348152Y-70315715D02*
X68395771Y-70220477D01*
X68395771Y-70220477D02*
X68491009Y-70172858D01*
X68491009Y-70172858D02*
X68586247Y-70172858D01*
X68586247Y-70172858D02*
X68681485Y-70649048D01*
X69014819Y-69315715D02*
X68491009Y-69315715D01*
X68491009Y-69315715D02*
X68395771Y-69363334D01*
X68395771Y-69363334D02*
X68348152Y-69458572D01*
X68348152Y-69458572D02*
X68348152Y-69649048D01*
X68348152Y-69649048D02*
X68395771Y-69744286D01*
X68967200Y-69315715D02*
X69014819Y-69410953D01*
X69014819Y-69410953D02*
X69014819Y-69649048D01*
X69014819Y-69649048D02*
X68967200Y-69744286D01*
X68967200Y-69744286D02*
X68871961Y-69791905D01*
X68871961Y-69791905D02*
X68776723Y-69791905D01*
X68776723Y-69791905D02*
X68681485Y-69744286D01*
X68681485Y-69744286D02*
X68633866Y-69649048D01*
X68633866Y-69649048D02*
X68633866Y-69410953D01*
X68633866Y-69410953D02*
X68586247Y-69315715D01*
X69014819Y-68839524D02*
X68014819Y-68839524D01*
X68633866Y-68744286D02*
X69014819Y-68458572D01*
X68348152Y-68458572D02*
X68729104Y-68839524D01*
X69014819Y-67887143D02*
X68967200Y-67982381D01*
X68967200Y-67982381D02*
X68919580Y-68030000D01*
X68919580Y-68030000D02*
X68824342Y-68077619D01*
X68824342Y-68077619D02*
X68538628Y-68077619D01*
X68538628Y-68077619D02*
X68443390Y-68030000D01*
X68443390Y-68030000D02*
X68395771Y-67982381D01*
X68395771Y-67982381D02*
X68348152Y-67887143D01*
X68348152Y-67887143D02*
X68348152Y-67744286D01*
X68348152Y-67744286D02*
X68395771Y-67649048D01*
X68395771Y-67649048D02*
X68443390Y-67601429D01*
X68443390Y-67601429D02*
X68538628Y-67553810D01*
X68538628Y-67553810D02*
X68824342Y-67553810D01*
X68824342Y-67553810D02*
X68919580Y-67601429D01*
X68919580Y-67601429D02*
X68967200Y-67649048D01*
X68967200Y-67649048D02*
X69014819Y-67744286D01*
X69014819Y-67744286D02*
X69014819Y-67887143D01*
X68348152Y-66696667D02*
X69014819Y-66696667D01*
X68348152Y-67125238D02*
X68871961Y-67125238D01*
X68871961Y-67125238D02*
X68967200Y-67077619D01*
X68967200Y-67077619D02*
X69014819Y-66982381D01*
X69014819Y-66982381D02*
X69014819Y-66839524D01*
X69014819Y-66839524D02*
X68967200Y-66744286D01*
X68967200Y-66744286D02*
X68919580Y-66696667D01*
X68348152Y-66363333D02*
X68348152Y-65982381D01*
X68014819Y-66220476D02*
X68871961Y-66220476D01*
X68871961Y-66220476D02*
X68967200Y-66172857D01*
X68967200Y-66172857D02*
X69014819Y-66077619D01*
X69014819Y-66077619D02*
X69014819Y-65982381D01*
X68919580Y-64315714D02*
X68967200Y-64363333D01*
X68967200Y-64363333D02*
X69014819Y-64506190D01*
X69014819Y-64506190D02*
X69014819Y-64601428D01*
X69014819Y-64601428D02*
X68967200Y-64744285D01*
X68967200Y-64744285D02*
X68871961Y-64839523D01*
X68871961Y-64839523D02*
X68776723Y-64887142D01*
X68776723Y-64887142D02*
X68586247Y-64934761D01*
X68586247Y-64934761D02*
X68443390Y-64934761D01*
X68443390Y-64934761D02*
X68252914Y-64887142D01*
X68252914Y-64887142D02*
X68157676Y-64839523D01*
X68157676Y-64839523D02*
X68062438Y-64744285D01*
X68062438Y-64744285D02*
X68014819Y-64601428D01*
X68014819Y-64601428D02*
X68014819Y-64506190D01*
X68014819Y-64506190D02*
X68062438Y-64363333D01*
X68062438Y-64363333D02*
X68110057Y-64315714D01*
X69014819Y-63744285D02*
X68967200Y-63839523D01*
X68967200Y-63839523D02*
X68919580Y-63887142D01*
X68919580Y-63887142D02*
X68824342Y-63934761D01*
X68824342Y-63934761D02*
X68538628Y-63934761D01*
X68538628Y-63934761D02*
X68443390Y-63887142D01*
X68443390Y-63887142D02*
X68395771Y-63839523D01*
X68395771Y-63839523D02*
X68348152Y-63744285D01*
X68348152Y-63744285D02*
X68348152Y-63601428D01*
X68348152Y-63601428D02*
X68395771Y-63506190D01*
X68395771Y-63506190D02*
X68443390Y-63458571D01*
X68443390Y-63458571D02*
X68538628Y-63410952D01*
X68538628Y-63410952D02*
X68824342Y-63410952D01*
X68824342Y-63410952D02*
X68919580Y-63458571D01*
X68919580Y-63458571D02*
X68967200Y-63506190D01*
X68967200Y-63506190D02*
X69014819Y-63601428D01*
X69014819Y-63601428D02*
X69014819Y-63744285D01*
X68348152Y-62982380D02*
X69014819Y-62982380D01*
X68443390Y-62982380D02*
X68395771Y-62934761D01*
X68395771Y-62934761D02*
X68348152Y-62839523D01*
X68348152Y-62839523D02*
X68348152Y-62696666D01*
X68348152Y-62696666D02*
X68395771Y-62601428D01*
X68395771Y-62601428D02*
X68491009Y-62553809D01*
X68491009Y-62553809D02*
X69014819Y-62553809D01*
X68348152Y-62077618D02*
X69014819Y-62077618D01*
X68443390Y-62077618D02*
X68395771Y-62029999D01*
X68395771Y-62029999D02*
X68348152Y-61934761D01*
X68348152Y-61934761D02*
X68348152Y-61791904D01*
X68348152Y-61791904D02*
X68395771Y-61696666D01*
X68395771Y-61696666D02*
X68491009Y-61649047D01*
X68491009Y-61649047D02*
X69014819Y-61649047D01*
X68967200Y-60791904D02*
X69014819Y-60887142D01*
X69014819Y-60887142D02*
X69014819Y-61077618D01*
X69014819Y-61077618D02*
X68967200Y-61172856D01*
X68967200Y-61172856D02*
X68871961Y-61220475D01*
X68871961Y-61220475D02*
X68491009Y-61220475D01*
X68491009Y-61220475D02*
X68395771Y-61172856D01*
X68395771Y-61172856D02*
X68348152Y-61077618D01*
X68348152Y-61077618D02*
X68348152Y-60887142D01*
X68348152Y-60887142D02*
X68395771Y-60791904D01*
X68395771Y-60791904D02*
X68491009Y-60744285D01*
X68491009Y-60744285D02*
X68586247Y-60744285D01*
X68586247Y-60744285D02*
X68681485Y-61220475D01*
X68967200Y-59887142D02*
X69014819Y-59982380D01*
X69014819Y-59982380D02*
X69014819Y-60172856D01*
X69014819Y-60172856D02*
X68967200Y-60268094D01*
X68967200Y-60268094D02*
X68919580Y-60315713D01*
X68919580Y-60315713D02*
X68824342Y-60363332D01*
X68824342Y-60363332D02*
X68538628Y-60363332D01*
X68538628Y-60363332D02*
X68443390Y-60315713D01*
X68443390Y-60315713D02*
X68395771Y-60268094D01*
X68395771Y-60268094D02*
X68348152Y-60172856D01*
X68348152Y-60172856D02*
X68348152Y-59982380D01*
X68348152Y-59982380D02*
X68395771Y-59887142D01*
X68348152Y-59601427D02*
X68348152Y-59220475D01*
X68014819Y-59458570D02*
X68871961Y-59458570D01*
X68871961Y-59458570D02*
X68967200Y-59410951D01*
X68967200Y-59410951D02*
X69014819Y-59315713D01*
X69014819Y-59315713D02*
X69014819Y-59220475D01*
X69014819Y-58744284D02*
X68967200Y-58839522D01*
X68967200Y-58839522D02*
X68919580Y-58887141D01*
X68919580Y-58887141D02*
X68824342Y-58934760D01*
X68824342Y-58934760D02*
X68538628Y-58934760D01*
X68538628Y-58934760D02*
X68443390Y-58887141D01*
X68443390Y-58887141D02*
X68395771Y-58839522D01*
X68395771Y-58839522D02*
X68348152Y-58744284D01*
X68348152Y-58744284D02*
X68348152Y-58601427D01*
X68348152Y-58601427D02*
X68395771Y-58506189D01*
X68395771Y-58506189D02*
X68443390Y-58458570D01*
X68443390Y-58458570D02*
X68538628Y-58410951D01*
X68538628Y-58410951D02*
X68824342Y-58410951D01*
X68824342Y-58410951D02*
X68919580Y-58458570D01*
X68919580Y-58458570D02*
X68967200Y-58506189D01*
X68967200Y-58506189D02*
X69014819Y-58601427D01*
X69014819Y-58601427D02*
X69014819Y-58744284D01*
X69014819Y-57982379D02*
X68348152Y-57982379D01*
X68538628Y-57982379D02*
X68443390Y-57934760D01*
X68443390Y-57934760D02*
X68395771Y-57887141D01*
X68395771Y-57887141D02*
X68348152Y-57791903D01*
X68348152Y-57791903D02*
X68348152Y-57696665D01*
%TO.C,U1*%
D13*
X87840000Y-59820000D02*
X87840000Y-59820000D01*
X87940000Y-59820000D02*
X87940000Y-59820000D01*
D14*
X88390000Y-55200000D02*
X88390000Y-74600000D01*
X88390000Y-74600000D02*
X99890000Y-74600000D01*
X99890000Y-55200000D02*
X88390000Y-55200000D01*
X101590000Y-55200000D02*
X125390000Y-55200000D01*
X101590000Y-74600000D02*
X125390000Y-74600000D01*
X127390000Y-55200000D02*
X130390000Y-55200000D01*
X130390000Y-55200000D02*
X130390000Y-57000000D01*
X130390000Y-57000000D02*
X136790000Y-57000000D01*
X130390000Y-72800000D02*
X130390000Y-74600000D01*
X130390000Y-74600000D02*
X127390000Y-74600000D01*
X136790000Y-57000000D02*
X136790000Y-72800000D01*
X136790000Y-72800000D02*
X130390000Y-72800000D01*
D13*
X87840000Y-59820000D02*
G75*
G02*
X87940000Y-59820000I50000J0D01*
G01*
X87940000Y-59820000D02*
G75*
G02*
X87840000Y-59820000I-50000J0D01*
G01*
%TO.C,J1*%
D15*
X70210000Y-58100000D02*
X73910000Y-58100000D01*
X70210000Y-64930000D02*
X70210000Y-58100000D01*
X70210000Y-64930000D02*
X70210000Y-71760000D01*
X70210000Y-71760000D02*
X73910000Y-71760000D01*
X72060000Y-57830000D02*
X74210000Y-57830000D01*
X73910000Y-58100000D02*
X73910000Y-62220000D01*
X73910000Y-62220000D02*
X76770000Y-62220000D01*
X73910000Y-67640000D02*
X76770000Y-67640000D01*
X73910000Y-71760000D02*
X73910000Y-67640000D01*
X74210000Y-59995000D02*
X74210000Y-57865000D01*
X76770000Y-62220000D02*
X76770000Y-64930000D01*
X76770000Y-67640000D02*
X76770000Y-64930000D01*
%TD*%
M02*
