%TF.GenerationSoftware,KiCad,Pcbnew,7.0.5*%
%TF.CreationDate,2023-11-11T10:47:35-06:00*%
%TF.ProjectId,BPS-Amperes,4250532d-416d-4706-9572-65732e6b6963,rev?*%
%TF.SameCoordinates,Original*%
%TF.FileFunction,Soldermask,Top*%
%TF.FilePolarity,Negative*%
%FSLAX46Y46*%
G04 Gerber Fmt 4.6, Leading zero omitted, Abs format (unit mm)*
G04 Created by KiCad (PCBNEW 7.0.5) date 2023-11-11 10:47:35*
%MOMM*%
%LPD*%
G01*
G04 APERTURE LIST*
%ADD10R,1.800000X0.550000*%
%ADD11C,3.000000*%
%ADD12R,1.700000X1.700000*%
%ADD13O,1.700000X1.700000*%
G04 APERTURE END LIST*
D10*
%TO.C,J1*%
X164350000Y-87400000D03*
X168650000Y-87400000D03*
X164350000Y-88200000D03*
X168650000Y-88200000D03*
X164350000Y-89000000D03*
X168650000Y-89000000D03*
X164350000Y-89800000D03*
X168650000Y-89800000D03*
X164350000Y-90600000D03*
X168650000Y-90600000D03*
X164350000Y-91400000D03*
X168650000Y-91400000D03*
X164350000Y-92200000D03*
X168650000Y-92200000D03*
X164350000Y-93000000D03*
X168650000Y-93000000D03*
X164350000Y-93800000D03*
X168650000Y-93800000D03*
X164350000Y-94600000D03*
X168650000Y-94600000D03*
%TD*%
D11*
%TO.C,MH2*%
X150000000Y-112000000D03*
%TD*%
%TO.C,MH1*%
X150000000Y-70000000D03*
%TD*%
D12*
%TO.C,J4*%
X165600000Y-76200000D03*
D13*
X163060000Y-76200000D03*
X160520000Y-76200000D03*
X157980000Y-76200000D03*
X155440000Y-76200000D03*
%TD*%
D12*
%TO.C,J2*%
X132537179Y-99138763D03*
D13*
X132537179Y-101678763D03*
X132537179Y-104218763D03*
X132537179Y-106758763D03*
X132537179Y-109298763D03*
%TD*%
D12*
%TO.C,J5*%
X139500000Y-76200000D03*
D13*
X136960000Y-76200000D03*
%TD*%
D12*
%TO.C,TP1*%
X143375000Y-76200000D03*
%TD*%
%TO.C,J3*%
X167512179Y-99138763D03*
D13*
X167512179Y-101678763D03*
X167512179Y-104218763D03*
X167512179Y-106758763D03*
X167512179Y-109298763D03*
%TD*%
M02*
