M48
; DRILL file {KiCad 7.0.5} date Sat Nov 11 10:52:27 2023
; FORMAT={-:-/ absolute / metric / decimal}
; #@! TF.CreationDate,2023-11-11T10:52:27-06:00
; #@! TF.GenerationSoftware,Kicad,Pcbnew,7.0.5
; #@! TF.FileFunction,MixedPlating,1,2
FMAT,2
METRIC
; #@! TA.AperFunction,Plated,PTH,ViaDrill
T1C0.400
; #@! TA.AperFunction,Plated,PTH,ComponentDrill
T2C1.000
; #@! TA.AperFunction,NonPlated,NPTH,ComponentDrill
T3C3.000
%
G90
G05
T1
X130.75Y-71.0
X130.75Y-73.5
X130.75Y-76.0
X130.75Y-78.5
X130.75Y-81.0
X130.75Y-83.5
X130.75Y-86.0
X130.75Y-88.5
X130.75Y-91.0
X130.75Y-93.5
X130.75Y-96.0
X130.75Y-98.5
X130.75Y-101.0
X130.75Y-103.5
X130.75Y-106.0
X130.75Y-108.5
X130.75Y-111.0
X131.25Y-69.0
X131.25Y-113.0
X133.0Y-67.25
X133.0Y-114.75
X135.0Y-66.75
X135.0Y-115.25
X135.925Y-91.45
X136.225Y-103.6
X137.5Y-66.75
X137.5Y-115.25
X137.925Y-94.45
X137.925Y-97.45
X138.125Y-91.45
X138.125Y-103.65
X138.125Y-106.65
X139.75Y-103.25
X139.75Y-105.25
X139.75Y-107.0
X140.0Y-66.75
X140.0Y-115.25
X140.725Y-91.45
X141.725Y-104.2
X141.725Y-106.1
X142.5Y-66.75
X142.5Y-115.25
X142.725Y-94.45
X142.762Y-97.45
X142.925Y-91.45
X145.0Y-66.75
X145.0Y-115.25
X145.675Y-100.45
X145.725Y-92.25
X145.725Y-94.45
X146.575Y-102.5
X147.5Y-66.75
X147.5Y-115.25
X147.525Y-97.45
X147.675Y-89.45
X149.0Y-105.25
X149.0Y-107.25
X149.25Y-95.5
X149.5Y-102.0
X150.0Y-66.75
X150.0Y-115.25
X150.475Y-94.025
X150.525Y-92.25
X150.945Y-96.7
X150.945Y-100.7
X151.0Y-98.0
X151.25Y-102.0
X152.25Y-92.25
X152.5Y-66.75
X152.5Y-115.25
X153.5Y-105.0
X153.607Y-90.9
X154.745Y-103.5
X155.0Y-66.75
X155.0Y-115.25
X155.507Y-93.7
X155.945Y-98.1
X155.945Y-99.3
X156.0Y-95.5
X156.537Y-106.45
X157.0Y-94.0
X157.5Y-66.75
X157.5Y-115.25
X160.0Y-66.75
X160.0Y-115.25
X162.5Y-66.75
X162.5Y-94.5
X162.5Y-96.5
X162.5Y-115.25
X165.0Y-66.75
X165.0Y-115.25
X166.0Y-91.4
X167.0Y-67.25
X167.0Y-88.2
X167.0Y-94.5
X167.0Y-96.5
X167.0Y-114.75
X168.75Y-69.0
X168.75Y-113.0
X169.25Y-71.0
X169.25Y-73.5
X169.25Y-76.0
X169.25Y-78.5
X169.25Y-81.0
X169.25Y-83.5
X169.25Y-86.0
X169.25Y-96.0
X169.25Y-98.5
X169.25Y-101.0
X169.25Y-103.5
X169.25Y-106.0
X169.25Y-108.5
X169.25Y-111.0
T2
X132.537Y-99.139
X132.537Y-101.679
X132.537Y-104.219
X132.537Y-106.759
X132.537Y-109.299
X136.96Y-76.2
X139.5Y-76.2
X143.375Y-76.2
X155.44Y-76.2
X157.98Y-76.2
X160.52Y-76.2
X163.06Y-76.2
X165.6Y-76.2
X167.512Y-99.139
X167.512Y-101.679
X167.512Y-104.219
X167.512Y-106.759
X167.512Y-109.299
T3
X150.0Y-70.0
X150.0Y-112.0
T0
M30
