%TF.GenerationSoftware,KiCad,Pcbnew,7.0.5*%
%TF.CreationDate,2023-11-11T10:47:35-06:00*%
%TF.ProjectId,BPS-Amperes,4250532d-416d-4706-9572-65732e6b6963,rev?*%
%TF.SameCoordinates,Original*%
%TF.FileFunction,Copper,L2,Bot*%
%TF.FilePolarity,Positive*%
%FSLAX46Y46*%
G04 Gerber Fmt 4.6, Leading zero omitted, Abs format (unit mm)*
G04 Created by KiCad (PCBNEW 7.0.5) date 2023-11-11 10:47:35*
%MOMM*%
%LPD*%
G01*
G04 APERTURE LIST*
G04 Aperture macros list*
%AMRoundRect*
0 Rectangle with rounded corners*
0 $1 Rounding radius*
0 $2 $3 $4 $5 $6 $7 $8 $9 X,Y pos of 4 corners*
0 Add a 4 corners polygon primitive as box body*
4,1,4,$2,$3,$4,$5,$6,$7,$8,$9,$2,$3,0*
0 Add four circle primitives for the rounded corners*
1,1,$1+$1,$2,$3*
1,1,$1+$1,$4,$5*
1,1,$1+$1,$6,$7*
1,1,$1+$1,$8,$9*
0 Add four rect primitives between the rounded corners*
20,1,$1+$1,$2,$3,$4,$5,0*
20,1,$1+$1,$4,$5,$6,$7,0*
20,1,$1+$1,$6,$7,$8,$9,0*
20,1,$1+$1,$8,$9,$2,$3,0*%
G04 Aperture macros list end*
%TA.AperFunction,SMDPad,CuDef*%
%ADD10RoundRect,0.243750X-0.243750X-0.456250X0.243750X-0.456250X0.243750X0.456250X-0.243750X0.456250X0*%
%TD*%
%TA.AperFunction,SMDPad,CuDef*%
%ADD11RoundRect,0.250000X0.250000X0.475000X-0.250000X0.475000X-0.250000X-0.475000X0.250000X-0.475000X0*%
%TD*%
%TA.AperFunction,ComponentPad*%
%ADD12R,1.700000X1.700000*%
%TD*%
%TA.AperFunction,ComponentPad*%
%ADD13O,1.700000X1.700000*%
%TD*%
%TA.AperFunction,SMDPad,CuDef*%
%ADD14RoundRect,0.150000X-0.150000X0.512500X-0.150000X-0.512500X0.150000X-0.512500X0.150000X0.512500X0*%
%TD*%
%TA.AperFunction,SMDPad,CuDef*%
%ADD15RoundRect,0.250000X0.262500X0.450000X-0.262500X0.450000X-0.262500X-0.450000X0.262500X-0.450000X0*%
%TD*%
%TA.AperFunction,SMDPad,CuDef*%
%ADD16RoundRect,0.250000X0.450000X-0.262500X0.450000X0.262500X-0.450000X0.262500X-0.450000X-0.262500X0*%
%TD*%
%TA.AperFunction,SMDPad,CuDef*%
%ADD17RoundRect,0.250000X-0.250000X-0.475000X0.250000X-0.475000X0.250000X0.475000X-0.250000X0.475000X0*%
%TD*%
%TA.AperFunction,SMDPad,CuDef*%
%ADD18RoundRect,0.218750X0.218750X0.381250X-0.218750X0.381250X-0.218750X-0.381250X0.218750X-0.381250X0*%
%TD*%
%TA.AperFunction,SMDPad,CuDef*%
%ADD19RoundRect,0.243750X-0.456250X0.243750X-0.456250X-0.243750X0.456250X-0.243750X0.456250X0.243750X0*%
%TD*%
%TA.AperFunction,SMDPad,CuDef*%
%ADD20RoundRect,0.250000X-0.262500X-0.450000X0.262500X-0.450000X0.262500X0.450000X-0.262500X0.450000X0*%
%TD*%
%TA.AperFunction,SMDPad,CuDef*%
%ADD21RoundRect,0.150000X0.825000X0.150000X-0.825000X0.150000X-0.825000X-0.150000X0.825000X-0.150000X0*%
%TD*%
%TA.AperFunction,SMDPad,CuDef*%
%ADD22RoundRect,0.125000X-0.125000X0.537500X-0.125000X-0.537500X0.125000X-0.537500X0.125000X0.537500X0*%
%TD*%
%TA.AperFunction,SMDPad,CuDef*%
%ADD23RoundRect,0.250000X-0.475000X0.250000X-0.475000X-0.250000X0.475000X-0.250000X0.475000X0.250000X0*%
%TD*%
%TA.AperFunction,ViaPad*%
%ADD24C,0.800000*%
%TD*%
%TA.AperFunction,Conductor*%
%ADD25C,0.400000*%
%TD*%
%TA.AperFunction,Conductor*%
%ADD26C,0.200000*%
%TD*%
G04 APERTURE END LIST*
D10*
%TO.P,D1,1,K*%
%TO.N,/PA1*%
X153607500Y-90900000D03*
%TO.P,D1,2,A*%
%TO.N,GND*%
X155482500Y-90900000D03*
%TD*%
D11*
%TO.P,C12,1*%
%TO.N,+3V0*%
X142762500Y-97450000D03*
%TO.P,C12,2*%
%TO.N,GND*%
X140862500Y-97450000D03*
%TD*%
%TO.P,C9,1*%
%TO.N,+1V5*%
X137937500Y-94450000D03*
%TO.P,C9,2*%
%TO.N,GND*%
X136037500Y-94450000D03*
%TD*%
%TO.P,C5,1*%
%TO.N,+3V0*%
X147575000Y-97450000D03*
%TO.P,C5,2*%
%TO.N,GND*%
X145675000Y-97450000D03*
%TD*%
%TO.P,C11,1*%
%TO.N,+3V0*%
X142762500Y-94450000D03*
%TO.P,C11,2*%
%TO.N,GND*%
X140862500Y-94450000D03*
%TD*%
D12*
%TO.P,J4,1,Pin_1*%
%TO.N,unconnected-(J4-Pin_1-Pad1)*%
X165600000Y-76200000D03*
D13*
%TO.P,J4,2,Pin_2*%
%TO.N,/SHUNT*%
X163060000Y-76200000D03*
%TO.P,J4,3,Pin_3*%
%TO.N,/TEST*%
X160520000Y-76200000D03*
%TO.P,J4,4,Pin_4*%
%TO.N,/V+*%
X157980000Y-76200000D03*
%TO.P,J4,5,Pin_5*%
%TO.N,/V-*%
X155440000Y-76200000D03*
%TD*%
D11*
%TO.P,C10,1*%
%TO.N,+1V5*%
X137937500Y-97450000D03*
%TO.P,C10,2*%
%TO.N,GND*%
X136037500Y-97450000D03*
%TD*%
D12*
%TO.P,J2,1,Pin_1*%
%TO.N,/ETS*%
X132537179Y-99138763D03*
D13*
%TO.P,J2,2,Pin_2*%
%TO.N,Net-(J2-Pin_2)*%
X132537179Y-101678763D03*
%TO.P,J2,3,Pin_3*%
%TO.N,GND*%
X132537179Y-104218763D03*
%TO.P,J2,4,Pin_4*%
X132537179Y-106758763D03*
%TO.P,J2,5,Pin_5*%
%TO.N,+3.3V*%
X132537179Y-109298763D03*
%TD*%
D14*
%TO.P,U4,1,VBIAS*%
%TO.N,Net-(U4-VBIAS)*%
X145775000Y-92250000D03*
%TO.P,U4,2,GND*%
%TO.N,GND*%
X146725000Y-92250000D03*
%TO.P,U4,3,EN*%
%TO.N,+3.3V*%
X147675000Y-92250000D03*
%TO.P,U4,4,VIN*%
X147675000Y-94525000D03*
%TO.P,U4,5,VREF*%
%TO.N,Net-(U4-VREF)*%
X145775000Y-94525000D03*
%TD*%
D11*
%TO.P,C3,1*%
%TO.N,Net-(C3-Pad1)*%
X152350000Y-103450000D03*
%TO.P,C3,2*%
%TO.N,Net-(U2A--)*%
X150450000Y-103450000D03*
%TD*%
D15*
%TO.P,R3,1*%
%TO.N,Net-(C3-Pad1)*%
X152345000Y-106450000D03*
%TO.P,R3,2*%
%TO.N,Net-(U1-OUT)*%
X150520000Y-106450000D03*
%TD*%
D16*
%TO.P,R6,1*%
%TO.N,+3.3V*%
X132500000Y-94325000D03*
%TO.P,R6,2*%
%TO.N,Net-(D2-A)*%
X132500000Y-92500000D03*
%TD*%
D17*
%TO.P,C7,1*%
%TO.N,+3V0*%
X145675000Y-100450000D03*
%TO.P,C7,2*%
%TO.N,GND*%
X147575000Y-100450000D03*
%TD*%
D18*
%TO.P,FB2,1*%
%TO.N,Net-(U4-VREF)*%
X142925000Y-91450000D03*
%TO.P,FB2,2*%
%TO.N,+3V0*%
X140800000Y-91450000D03*
%TD*%
D15*
%TO.P,R1,1*%
%TO.N,/RSHH*%
X138050000Y-103600000D03*
%TO.P,R1,2*%
%TO.N,Net-(J2-Pin_2)*%
X136225000Y-103600000D03*
%TD*%
D12*
%TO.P,J5,1,Pin_1*%
%TO.N,+1V5*%
X139500000Y-76200000D03*
D13*
%TO.P,J5,2,Pin_2*%
%TO.N,+3V0*%
X136960000Y-76200000D03*
%TD*%
D15*
%TO.P,R2,1*%
%TO.N,/RSHL*%
X138050000Y-106650000D03*
%TO.P,R2,2*%
%TO.N,GND*%
X136225000Y-106650000D03*
%TD*%
D18*
%TO.P,FB1,1*%
%TO.N,Net-(U4-VBIAS)*%
X138050000Y-91450000D03*
%TO.P,FB1,2*%
%TO.N,+1V5*%
X135925000Y-91450000D03*
%TD*%
D16*
%TO.P,R5,1*%
%TO.N,Net-(U2B--)*%
X150475000Y-94025000D03*
%TO.P,R5,2*%
%TO.N,/PA1*%
X150475000Y-92200000D03*
%TD*%
D12*
%TO.P,TP1,1,1*%
%TO.N,/PA1*%
X143375000Y-76200000D03*
%TD*%
D11*
%TO.P,C13,1*%
%TO.N,+3.3V*%
X147675000Y-89450000D03*
%TO.P,C13,2*%
%TO.N,GND*%
X145775000Y-89450000D03*
%TD*%
D19*
%TO.P,D2,1,K*%
%TO.N,GND*%
X132500000Y-88025000D03*
%TO.P,D2,2,A*%
%TO.N,Net-(D2-A)*%
X132500000Y-89900000D03*
%TD*%
D20*
%TO.P,R4,1*%
%TO.N,Net-(C3-Pad1)*%
X154712500Y-106450000D03*
%TO.P,R4,2*%
%TO.N,Net-(U2A-+)*%
X156537500Y-106450000D03*
%TD*%
D21*
%TO.P,U2,1*%
%TO.N,Net-(U2A--)*%
X155950000Y-96795000D03*
%TO.P,U2,2,-*%
X155950000Y-98065000D03*
%TO.P,U2,3,+*%
%TO.N,Net-(U2A-+)*%
X155950000Y-99335000D03*
%TO.P,U2,4,V-*%
%TO.N,GND*%
X155950000Y-100605000D03*
%TO.P,U2,5,+*%
%TO.N,Net-(U2A--)*%
X151000000Y-100605000D03*
%TO.P,U2,6,-*%
%TO.N,Net-(U2B--)*%
X151000000Y-99335000D03*
%TO.P,U2,7*%
X151000000Y-98065000D03*
%TO.P,U2,8,V+*%
%TO.N,+3V0*%
X151000000Y-96795000D03*
%TD*%
D11*
%TO.P,C6,1*%
%TO.N,/PA1*%
X155507500Y-93700000D03*
%TO.P,C6,2*%
%TO.N,GND*%
X153607500Y-93700000D03*
%TD*%
%TO.P,C1,1*%
%TO.N,+3V0*%
X142762500Y-100450000D03*
%TO.P,C1,2*%
%TO.N,GND*%
X140862500Y-100450000D03*
%TD*%
D12*
%TO.P,J3,1,Pin_1*%
%TO.N,unconnected-(J3-Pin_1-Pad1)*%
X167512179Y-99138763D03*
D13*
%TO.P,J3,2,Pin_2*%
%TO.N,/SHUNT*%
X167512179Y-101678763D03*
%TO.P,J3,3,Pin_3*%
%TO.N,/TEST*%
X167512179Y-104218763D03*
%TO.P,J3,4,Pin_4*%
%TO.N,/V+*%
X167512179Y-106758763D03*
%TO.P,J3,5,Pin_5*%
%TO.N,/V-*%
X167512179Y-109298763D03*
%TD*%
D22*
%TO.P,U1,1,VS*%
%TO.N,+3V0*%
X145625000Y-103975000D03*
%TO.P,U1,2,EN*%
X146275000Y-103975000D03*
%TO.P,U1,3,REF*%
%TO.N,+1V5*%
X146925000Y-103975000D03*
%TO.P,U1,4,GND*%
%TO.N,GND*%
X147575000Y-103975000D03*
%TO.P,U1,5,OUT*%
%TO.N,Net-(U1-OUT)*%
X147575000Y-106250000D03*
%TO.P,U1,6,NC*%
%TO.N,unconnected-(U1-NC-Pad6)*%
X146925000Y-106250000D03*
%TO.P,U1,7,IN+*%
%TO.N,/RSHH*%
X146275000Y-106250000D03*
%TO.P,U1,8,IN-*%
%TO.N,/RSHL*%
X145625000Y-106250000D03*
%TD*%
D23*
%TO.P,C2,1*%
%TO.N,/RSHH*%
X141725000Y-104200000D03*
%TO.P,C2,2*%
%TO.N,/RSHL*%
X141725000Y-106100000D03*
%TD*%
D17*
%TO.P,C4,1*%
%TO.N,Net-(U2A-+)*%
X154725000Y-103450000D03*
%TO.P,C4,2*%
%TO.N,GND*%
X156625000Y-103450000D03*
%TD*%
D24*
%TO.N,+3.3V*%
X147675000Y-89450000D03*
%TO.N,GND*%
X130750000Y-86000000D03*
X169250000Y-81000000D03*
X165000000Y-66750000D03*
X130750000Y-88500000D03*
X155000000Y-66750000D03*
X135000000Y-115250000D03*
X160000000Y-66750000D03*
X130750000Y-101000000D03*
X139750000Y-103250000D03*
X168750000Y-69000000D03*
X152500000Y-66750000D03*
X162500000Y-96500000D03*
X169250000Y-73500000D03*
X130750000Y-108500000D03*
X160000000Y-115250000D03*
X130750000Y-73500000D03*
X145000000Y-115250000D03*
X131250000Y-113000000D03*
X167000000Y-94500000D03*
X130750000Y-103500000D03*
X169250000Y-83500000D03*
X162500000Y-66750000D03*
X130750000Y-96000000D03*
X130750000Y-81000000D03*
X169250000Y-78500000D03*
X157500000Y-66750000D03*
X169250000Y-101000000D03*
X167000000Y-96500000D03*
X145000000Y-66750000D03*
X139750000Y-105250000D03*
X130750000Y-98500000D03*
X169250000Y-98500000D03*
X147500000Y-66750000D03*
X156000000Y-95500000D03*
X140000000Y-66750000D03*
X167000000Y-88200000D03*
X137500000Y-115250000D03*
X140000000Y-115250000D03*
X149250000Y-95500000D03*
X133000000Y-67250000D03*
X169250000Y-96000000D03*
X149000000Y-107250000D03*
X168750000Y-113000000D03*
X142500000Y-115250000D03*
X142500000Y-66750000D03*
X131250000Y-69000000D03*
X167000000Y-67250000D03*
X135000000Y-66750000D03*
X150000000Y-115250000D03*
X130750000Y-106000000D03*
X130750000Y-71000000D03*
X169250000Y-108500000D03*
X169250000Y-103500000D03*
X169250000Y-76000000D03*
X130750000Y-111000000D03*
X151250000Y-102000000D03*
X167000000Y-114750000D03*
X139750000Y-107000000D03*
X130750000Y-91000000D03*
X153500000Y-105000000D03*
X165000000Y-115250000D03*
X169250000Y-71000000D03*
X162500000Y-94500000D03*
X130750000Y-78500000D03*
X130750000Y-76000000D03*
X133000000Y-114750000D03*
X147500000Y-115250000D03*
X169250000Y-106000000D03*
X162500000Y-115250000D03*
X157000000Y-94000000D03*
X150000000Y-66750000D03*
X166000000Y-91400000D03*
X149500000Y-102000000D03*
X149000000Y-105250000D03*
X130750000Y-93500000D03*
X152500000Y-115250000D03*
X152250000Y-92250000D03*
X137500000Y-66750000D03*
X169250000Y-86000000D03*
X157500000Y-115250000D03*
X169250000Y-111000000D03*
X155000000Y-115250000D03*
X130750000Y-83500000D03*
%TO.N,/PA1*%
X155507500Y-93700000D03*
X150525000Y-92250000D03*
X153607500Y-90900000D03*
%TO.N,+3V0*%
X142762500Y-97450000D03*
X140725000Y-91450000D03*
X147525000Y-97450000D03*
X145675000Y-100450000D03*
X150945000Y-96700000D03*
X142725000Y-94450000D03*
%TO.N,/RSHH*%
X141725000Y-104200000D03*
X138125000Y-103650000D03*
%TO.N,/RSHL*%
X141725000Y-106100000D03*
X138125000Y-106650000D03*
%TO.N,Net-(U2A--)*%
X155945000Y-98100000D03*
X150945000Y-100700000D03*
%TO.N,Net-(U2A-+)*%
X156537500Y-106450000D03*
X154745000Y-103500000D03*
X155945000Y-99300000D03*
%TO.N,+1V5*%
X135925000Y-91450000D03*
X137925000Y-94450000D03*
X137925000Y-97450000D03*
X146575000Y-102500000D03*
%TO.N,Net-(U4-VBIAS)*%
X145725000Y-92250000D03*
X138125000Y-91450000D03*
%TO.N,Net-(U4-VREF)*%
X145725000Y-94450000D03*
X142925000Y-91450000D03*
%TO.N,Net-(J2-Pin_2)*%
X136225000Y-103600000D03*
%TO.N,Net-(U2B--)*%
X151000000Y-98000000D03*
X150475000Y-94025000D03*
%TD*%
D25*
%TO.N,+3.3V*%
X134200000Y-107635942D02*
X134200000Y-98371499D01*
X147675000Y-92250000D02*
X147675000Y-94525000D01*
X134200000Y-97200000D02*
X132500000Y-95500000D01*
X135550000Y-95850000D02*
X146350000Y-95850000D01*
X147675000Y-89450000D02*
X147675000Y-92250000D01*
X132500000Y-95500000D02*
X132500000Y-94325000D01*
X146350000Y-95850000D02*
X147675000Y-94525000D01*
X134200000Y-97200000D02*
X135550000Y-95850000D01*
X134200000Y-97200000D02*
X134200000Y-98171499D01*
X134200000Y-98171499D02*
X134200000Y-98371499D01*
X132537179Y-109298763D02*
X134200000Y-107635942D01*
D26*
%TO.N,/PA1*%
X150475000Y-89675000D02*
X150475000Y-92200000D01*
X143375000Y-76200000D02*
X143375000Y-86375000D01*
X143375000Y-86375000D02*
X144500000Y-87500000D01*
X144500000Y-87500000D02*
X148300000Y-87500000D01*
X148300000Y-87500000D02*
X150475000Y-89675000D01*
X150525000Y-92250000D02*
X150475000Y-92200000D01*
D25*
%TO.N,+3V0*%
X145625000Y-100500000D02*
X145675000Y-100450000D01*
X136960000Y-76200000D02*
X136960000Y-87685000D01*
X145625000Y-103975000D02*
X145625000Y-100500000D01*
X142762500Y-100450000D02*
X145675000Y-100450000D01*
X142762500Y-97450000D02*
X142762500Y-100450000D01*
X136960000Y-87685000D02*
X140725000Y-91450000D01*
X146275000Y-103975000D02*
X145625000Y-103975000D01*
D26*
%TO.N,/RSHH*%
X143500000Y-104900000D02*
X142800000Y-104200000D01*
X145435303Y-104900000D02*
X143500000Y-104900000D01*
X146275000Y-105739697D02*
X145435303Y-104900000D01*
X146275000Y-106250000D02*
X146275000Y-105739697D01*
X142800000Y-104200000D02*
X141725000Y-104200000D01*
%TO.N,/RSHL*%
X141725000Y-106100000D02*
X145475000Y-106100000D01*
X145475000Y-106100000D02*
X145625000Y-106250000D01*
%TO.N,Net-(C3-Pad1)*%
X152345000Y-106450000D02*
X152345000Y-103455000D01*
X152345000Y-103455000D02*
X152350000Y-103450000D01*
X152345000Y-106450000D02*
X154712500Y-106450000D01*
%TO.N,Net-(U2A--)*%
X150450000Y-101195000D02*
X150945000Y-100700000D01*
X150450000Y-103450000D02*
X150450000Y-101195000D01*
X155950000Y-96795000D02*
X155950000Y-98065000D01*
D25*
%TO.N,+1V5*%
X146575000Y-102500000D02*
X146925000Y-102850000D01*
X146925000Y-102850000D02*
X146925000Y-103975000D01*
%TO.N,Net-(D2-A)*%
X132500000Y-92500000D02*
X132500000Y-89900000D01*
D26*
%TO.N,Net-(U1-OUT)*%
X147575000Y-106250000D02*
X150320000Y-106250000D01*
X150320000Y-106250000D02*
X150520000Y-106450000D01*
%TO.N,Net-(U2B--)*%
X151000000Y-98000000D02*
X151000000Y-99335000D01*
X151000000Y-98065000D02*
X151000000Y-98000000D01*
%TO.N,/SHUNT*%
X161400000Y-78000000D02*
X161400000Y-98200000D01*
X163060000Y-76340000D02*
X161400000Y-78000000D01*
X164878763Y-101678763D02*
X167512179Y-101678763D01*
X163060000Y-76200000D02*
X163060000Y-76340000D01*
X161400000Y-98200000D02*
X164878763Y-101678763D01*
%TO.N,/TEST*%
X160400000Y-76320000D02*
X160200000Y-76520000D01*
X160400000Y-76320000D02*
X160520000Y-76200000D01*
X160400000Y-76520000D02*
X160400000Y-76320000D01*
X160520000Y-76200000D02*
X160200000Y-76520000D01*
X160400000Y-76720000D02*
X160400000Y-99800000D01*
X160400000Y-99800000D02*
X164818763Y-104218763D01*
X164818763Y-104218763D02*
X167512179Y-104218763D01*
X160200000Y-76520000D02*
X160400000Y-76720000D01*
D25*
%TO.N,/V+*%
X157980000Y-76200000D02*
X159200000Y-77420000D01*
X164758763Y-106758763D02*
X167512179Y-106758763D01*
X159200000Y-101200000D02*
X164758763Y-106758763D01*
X159200000Y-77420000D02*
X159200000Y-101200000D01*
%TO.N,/V-*%
X158000000Y-102400000D02*
X164898763Y-109298763D01*
X155440000Y-76200000D02*
X158000000Y-78760000D01*
X164898763Y-109298763D02*
X167512179Y-109298763D01*
X158000000Y-78760000D02*
X158000000Y-102400000D01*
%TD*%
%TA.AperFunction,Conductor*%
%TO.N,GND*%
G36*
X132787179Y-106323261D02*
G01*
X132679494Y-106274083D01*
X132572942Y-106258763D01*
X132501416Y-106258763D01*
X132394864Y-106274083D01*
X132287179Y-106323261D01*
X132287179Y-104654264D01*
X132394864Y-104703443D01*
X132501416Y-104718763D01*
X132572942Y-104718763D01*
X132679494Y-104703443D01*
X132787179Y-104654264D01*
X132787179Y-106323261D01*
G37*
%TD.AperFunction*%
%TA.AperFunction,Conductor*%
G36*
X166001424Y-66100566D02*
G01*
X166356938Y-66117003D01*
X166362630Y-66117529D01*
X166713699Y-66166501D01*
X166719318Y-66167551D01*
X167064366Y-66248706D01*
X167069858Y-66250269D01*
X167405954Y-66362917D01*
X167411264Y-66364974D01*
X167735548Y-66508159D01*
X167740648Y-66510698D01*
X167925184Y-66613484D01*
X168050312Y-66683180D01*
X168055183Y-66686196D01*
X168347612Y-66886514D01*
X168352171Y-66889957D01*
X168602000Y-67097412D01*
X168624869Y-67116402D01*
X168629103Y-67120262D01*
X168879737Y-67370896D01*
X168883595Y-67375128D01*
X169110040Y-67647824D01*
X169113485Y-67652387D01*
X169313803Y-67944816D01*
X169316819Y-67949687D01*
X169489295Y-68259340D01*
X169491844Y-68264459D01*
X169635020Y-68588724D01*
X169637084Y-68594051D01*
X169749728Y-68930134D01*
X169751296Y-68935645D01*
X169832446Y-69280673D01*
X169833499Y-69286305D01*
X169882468Y-69637356D01*
X169882996Y-69643061D01*
X169899434Y-69998575D01*
X169899500Y-70001439D01*
X169899500Y-111998560D01*
X169899434Y-112001424D01*
X169882996Y-112356938D01*
X169882468Y-112362643D01*
X169833499Y-112713694D01*
X169832446Y-112719326D01*
X169751296Y-113064354D01*
X169749728Y-113069865D01*
X169637084Y-113405948D01*
X169635017Y-113411283D01*
X169515814Y-113681254D01*
X169491849Y-113735530D01*
X169489295Y-113740659D01*
X169316819Y-114050312D01*
X169313803Y-114055183D01*
X169113485Y-114347612D01*
X169110032Y-114352185D01*
X168883597Y-114624869D01*
X168879737Y-114629103D01*
X168629103Y-114879737D01*
X168624869Y-114883597D01*
X168352185Y-115110032D01*
X168347612Y-115113485D01*
X168055183Y-115313803D01*
X168050312Y-115316819D01*
X167740659Y-115489295D01*
X167735531Y-115491848D01*
X167411283Y-115635017D01*
X167405948Y-115637084D01*
X167069865Y-115749728D01*
X167064354Y-115751296D01*
X166719326Y-115832446D01*
X166713694Y-115833499D01*
X166362643Y-115882468D01*
X166356938Y-115882996D01*
X166001424Y-115899434D01*
X165998560Y-115899500D01*
X134001440Y-115899500D01*
X133998576Y-115899434D01*
X133643061Y-115882996D01*
X133637356Y-115882468D01*
X133286305Y-115833499D01*
X133280673Y-115832446D01*
X132935645Y-115751296D01*
X132930134Y-115749728D01*
X132594051Y-115637084D01*
X132588724Y-115635020D01*
X132264459Y-115491844D01*
X132259340Y-115489295D01*
X131949687Y-115316819D01*
X131944816Y-115313803D01*
X131652387Y-115113485D01*
X131647824Y-115110040D01*
X131375128Y-114883595D01*
X131370896Y-114879737D01*
X131120262Y-114629103D01*
X131116402Y-114624869D01*
X131114343Y-114622389D01*
X130889957Y-114352171D01*
X130886514Y-114347612D01*
X130686196Y-114055183D01*
X130683180Y-114050312D01*
X130653738Y-113997453D01*
X130510698Y-113740648D01*
X130508159Y-113735548D01*
X130364974Y-113411264D01*
X130362915Y-113405948D01*
X130250271Y-113069865D01*
X130248706Y-113064366D01*
X130167551Y-112719318D01*
X130166500Y-112713694D01*
X130156609Y-112642788D01*
X130117529Y-112362630D01*
X130117003Y-112356938D01*
X130106579Y-112131489D01*
X148245500Y-112131489D01*
X148284690Y-112391503D01*
X148284692Y-112391509D01*
X148362202Y-112642788D01*
X148476295Y-112879705D01*
X148476297Y-112879707D01*
X148476298Y-112879710D01*
X148624430Y-113096980D01*
X148803290Y-113289746D01*
X149008883Y-113453701D01*
X149236616Y-113585183D01*
X149481402Y-113681254D01*
X149737772Y-113739769D01*
X149737778Y-113739769D01*
X149737781Y-113739770D01*
X149934324Y-113754499D01*
X149934343Y-113754499D01*
X149934346Y-113754500D01*
X149934348Y-113754500D01*
X150065652Y-113754500D01*
X150065654Y-113754500D01*
X150065656Y-113754499D01*
X150065675Y-113754499D01*
X150262218Y-113739770D01*
X150262220Y-113739769D01*
X150262228Y-113739769D01*
X150518598Y-113681254D01*
X150763384Y-113585183D01*
X150991117Y-113453701D01*
X151196710Y-113289746D01*
X151375570Y-113096980D01*
X151523702Y-112879710D01*
X151637798Y-112642788D01*
X151715308Y-112391508D01*
X151754500Y-112131482D01*
X151754500Y-111868518D01*
X151715308Y-111608492D01*
X151637798Y-111357212D01*
X151523702Y-111120290D01*
X151375570Y-110903020D01*
X151196710Y-110710254D01*
X150991117Y-110546299D01*
X150763384Y-110414817D01*
X150518598Y-110318746D01*
X150518593Y-110318744D01*
X150518584Y-110318742D01*
X150300501Y-110268966D01*
X150262228Y-110260231D01*
X150262227Y-110260230D01*
X150262223Y-110260230D01*
X150262218Y-110260229D01*
X150065675Y-110245500D01*
X150065654Y-110245500D01*
X149934346Y-110245500D01*
X149934324Y-110245500D01*
X149737781Y-110260229D01*
X149737776Y-110260230D01*
X149481415Y-110318742D01*
X149481396Y-110318748D01*
X149236615Y-110414817D01*
X149008883Y-110546299D01*
X148803290Y-110710254D01*
X148803288Y-110710256D01*
X148624430Y-110903019D01*
X148476295Y-111120294D01*
X148362202Y-111357211D01*
X148284692Y-111608490D01*
X148284690Y-111608496D01*
X148245500Y-111868510D01*
X148245500Y-112131489D01*
X130106579Y-112131489D01*
X130100566Y-112001424D01*
X130100500Y-111998560D01*
X130100500Y-107008763D01*
X131206543Y-107008763D01*
X131263746Y-107222249D01*
X131263749Y-107222255D01*
X131363578Y-107436341D01*
X131499073Y-107629845D01*
X131666096Y-107796868D01*
X131859600Y-107932363D01*
X132073686Y-108032192D01*
X132073695Y-108032196D01*
X132112762Y-108042664D01*
X132172423Y-108079029D01*
X132202952Y-108141876D01*
X132194658Y-108211251D01*
X132150172Y-108265129D01*
X132125463Y-108278065D01*
X132044552Y-108309410D01*
X132044536Y-108309418D01*
X131871139Y-108416780D01*
X131871137Y-108416782D01*
X131720416Y-108554181D01*
X131597506Y-108716941D01*
X131506601Y-108899502D01*
X131506596Y-108899515D01*
X131450781Y-109095680D01*
X131431964Y-109298762D01*
X131431964Y-109298763D01*
X131450781Y-109501845D01*
X131506596Y-109698010D01*
X131506601Y-109698023D01*
X131597506Y-109880584D01*
X131720416Y-110043344D01*
X131871137Y-110180743D01*
X131871139Y-110180745D01*
X131970320Y-110242155D01*
X132044542Y-110288111D01*
X132234723Y-110361787D01*
X132435203Y-110399263D01*
X132435205Y-110399263D01*
X132639153Y-110399263D01*
X132639155Y-110399263D01*
X132839635Y-110361787D01*
X133029816Y-110288111D01*
X133203220Y-110180744D01*
X133353943Y-110043342D01*
X133476852Y-109880584D01*
X133567761Y-109698013D01*
X133623576Y-109501846D01*
X133642394Y-109298763D01*
X133623576Y-109095680D01*
X133588981Y-108974093D01*
X133589567Y-108904227D01*
X133620564Y-108852480D01*
X134498205Y-107974838D01*
X134503373Y-107970219D01*
X134533970Y-107945821D01*
X134566865Y-107897571D01*
X134568131Y-107895787D01*
X134602793Y-107848824D01*
X134602793Y-107848821D01*
X134602795Y-107848820D01*
X134606787Y-107841266D01*
X134610471Y-107833617D01*
X134614120Y-107821787D01*
X134627673Y-107777844D01*
X134628382Y-107775691D01*
X134647646Y-107720641D01*
X134647646Y-107720638D01*
X134649232Y-107712253D01*
X134650500Y-107703846D01*
X134650500Y-107645520D01*
X134650542Y-107643236D01*
X134652724Y-107584932D01*
X134652723Y-107584931D01*
X134651684Y-107575703D01*
X134652513Y-107575609D01*
X134650500Y-107560308D01*
X134650500Y-106900000D01*
X135212501Y-106900000D01*
X135212501Y-107149986D01*
X135222994Y-107252697D01*
X135278141Y-107419119D01*
X135278143Y-107419124D01*
X135370184Y-107568345D01*
X135494154Y-107692315D01*
X135643375Y-107784356D01*
X135643380Y-107784358D01*
X135809802Y-107839505D01*
X135809809Y-107839506D01*
X135912519Y-107849999D01*
X135974999Y-107849998D01*
X135975000Y-107849998D01*
X135975000Y-106900000D01*
X135212501Y-106900000D01*
X134650500Y-106900000D01*
X134650500Y-106400000D01*
X135212500Y-106400000D01*
X135975000Y-106400000D01*
X135975000Y-105450000D01*
X136475000Y-105450000D01*
X136475000Y-107849999D01*
X136537472Y-107849999D01*
X136537486Y-107849998D01*
X136640197Y-107839505D01*
X136806619Y-107784358D01*
X136806624Y-107784356D01*
X136955845Y-107692315D01*
X137079815Y-107568345D01*
X137171854Y-107419126D01*
X137172342Y-107418081D01*
X137172868Y-107417482D01*
X137175649Y-107412975D01*
X137176418Y-107413449D01*
X137218507Y-107365635D01*
X137285698Y-107346473D01*
X137352582Y-107366679D01*
X137383998Y-107396157D01*
X137387249Y-107400500D01*
X137423809Y-107449338D01*
X137429955Y-107457547D01*
X137545164Y-107543793D01*
X137545171Y-107543797D01*
X137589440Y-107560308D01*
X137680017Y-107594091D01*
X137739627Y-107600500D01*
X138360372Y-107600499D01*
X138419983Y-107594091D01*
X138554831Y-107543796D01*
X138670046Y-107457546D01*
X138756296Y-107342331D01*
X138806591Y-107207483D01*
X138813000Y-107147873D01*
X138812999Y-106152128D01*
X138806591Y-106092517D01*
X138802364Y-106081185D01*
X138756297Y-105957671D01*
X138756293Y-105957664D01*
X138670047Y-105842455D01*
X138670044Y-105842452D01*
X138554835Y-105756206D01*
X138554828Y-105756202D01*
X138419986Y-105705910D01*
X138419985Y-105705909D01*
X138419983Y-105705909D01*
X138360373Y-105699500D01*
X138360363Y-105699500D01*
X137739629Y-105699500D01*
X137739623Y-105699501D01*
X137680016Y-105705908D01*
X137545171Y-105756202D01*
X137545164Y-105756206D01*
X137429955Y-105842452D01*
X137383998Y-105903842D01*
X137328063Y-105945713D01*
X137258372Y-105950696D01*
X137197049Y-105917210D01*
X137175835Y-105886909D01*
X137175649Y-105887025D01*
X137173670Y-105883816D01*
X137172345Y-105881924D01*
X137171856Y-105880877D01*
X137079815Y-105731654D01*
X136955845Y-105607684D01*
X136806624Y-105515643D01*
X136806619Y-105515641D01*
X136640197Y-105460494D01*
X136640190Y-105460493D01*
X136537486Y-105450000D01*
X136475000Y-105450000D01*
X135975000Y-105450000D01*
X135974999Y-105449999D01*
X135912528Y-105450000D01*
X135912511Y-105450001D01*
X135809802Y-105460494D01*
X135643380Y-105515641D01*
X135643375Y-105515643D01*
X135494154Y-105607684D01*
X135370184Y-105731654D01*
X135278143Y-105880875D01*
X135278141Y-105880880D01*
X135222994Y-106047302D01*
X135222993Y-106047309D01*
X135212500Y-106150013D01*
X135212500Y-106400000D01*
X134650500Y-106400000D01*
X134650500Y-104097870D01*
X135462000Y-104097870D01*
X135462001Y-104097876D01*
X135468408Y-104157483D01*
X135518702Y-104292328D01*
X135518706Y-104292335D01*
X135604952Y-104407544D01*
X135604955Y-104407547D01*
X135720164Y-104493793D01*
X135720171Y-104493797D01*
X135736293Y-104499810D01*
X135855017Y-104544091D01*
X135914627Y-104550500D01*
X136535372Y-104550499D01*
X136594983Y-104544091D01*
X136729831Y-104493796D01*
X136845046Y-104407546D01*
X136931296Y-104292331D01*
X136981591Y-104157483D01*
X136988000Y-104097873D01*
X136988000Y-104097870D01*
X137287000Y-104097870D01*
X137287001Y-104097876D01*
X137293408Y-104157483D01*
X137343702Y-104292328D01*
X137343706Y-104292335D01*
X137429952Y-104407544D01*
X137429955Y-104407547D01*
X137545164Y-104493793D01*
X137545171Y-104493797D01*
X137561293Y-104499810D01*
X137680017Y-104544091D01*
X137739627Y-104550500D01*
X138360372Y-104550499D01*
X138419983Y-104544091D01*
X138554831Y-104493796D01*
X138670046Y-104407546D01*
X138756296Y-104292331D01*
X138806591Y-104157483D01*
X138813000Y-104097873D01*
X138812999Y-103102128D01*
X138807544Y-103051383D01*
X138806591Y-103042516D01*
X138756297Y-102907671D01*
X138756293Y-102907664D01*
X138670047Y-102792455D01*
X138670044Y-102792452D01*
X138554835Y-102706206D01*
X138554828Y-102706202D01*
X138419986Y-102655910D01*
X138419985Y-102655909D01*
X138419983Y-102655909D01*
X138360373Y-102649500D01*
X138360363Y-102649500D01*
X137739629Y-102649500D01*
X137739623Y-102649501D01*
X137680016Y-102655908D01*
X137545171Y-102706202D01*
X137545164Y-102706206D01*
X137429955Y-102792452D01*
X137429952Y-102792455D01*
X137343706Y-102907664D01*
X137343702Y-102907671D01*
X137293408Y-103042517D01*
X137287001Y-103102116D01*
X137287001Y-103102123D01*
X137287000Y-103102135D01*
X137287000Y-104097870D01*
X136988000Y-104097870D01*
X136987999Y-103102128D01*
X136982544Y-103051383D01*
X136981591Y-103042516D01*
X136931297Y-102907671D01*
X136931293Y-102907664D01*
X136845047Y-102792455D01*
X136845044Y-102792452D01*
X136729835Y-102706206D01*
X136729828Y-102706202D01*
X136594986Y-102655910D01*
X136594985Y-102655909D01*
X136594983Y-102655909D01*
X136535373Y-102649500D01*
X136535363Y-102649500D01*
X135914629Y-102649500D01*
X135914623Y-102649501D01*
X135855016Y-102655908D01*
X135720171Y-102706202D01*
X135720164Y-102706206D01*
X135604955Y-102792452D01*
X135604952Y-102792455D01*
X135518706Y-102907664D01*
X135518702Y-102907671D01*
X135468408Y-103042517D01*
X135462001Y-103102116D01*
X135462001Y-103102123D01*
X135462000Y-103102135D01*
X135462000Y-104097870D01*
X134650500Y-104097870D01*
X134650500Y-100700000D01*
X139862501Y-100700000D01*
X139862501Y-100974986D01*
X139872994Y-101077697D01*
X139928141Y-101244119D01*
X139928143Y-101244124D01*
X140020184Y-101393345D01*
X140144154Y-101517315D01*
X140293375Y-101609356D01*
X140293380Y-101609358D01*
X140459802Y-101664505D01*
X140459809Y-101664506D01*
X140562519Y-101674999D01*
X140612499Y-101674998D01*
X140612500Y-101674998D01*
X140612500Y-100700000D01*
X139862501Y-100700000D01*
X134650500Y-100700000D01*
X134650500Y-100200000D01*
X139862500Y-100200000D01*
X140612500Y-100200000D01*
X140612500Y-99225000D01*
X140612499Y-99224999D01*
X140562529Y-99225000D01*
X140562511Y-99225001D01*
X140459802Y-99235494D01*
X140293380Y-99290641D01*
X140293375Y-99290643D01*
X140144154Y-99382684D01*
X140020184Y-99506654D01*
X139928143Y-99655875D01*
X139928141Y-99655880D01*
X139872994Y-99822302D01*
X139872993Y-99822309D01*
X139862500Y-99925013D01*
X139862500Y-100200000D01*
X134650500Y-100200000D01*
X134650500Y-97700000D01*
X135037501Y-97700000D01*
X135037501Y-97974986D01*
X135047994Y-98077697D01*
X135103141Y-98244119D01*
X135103143Y-98244124D01*
X135195184Y-98393345D01*
X135319154Y-98517315D01*
X135468375Y-98609356D01*
X135468380Y-98609358D01*
X135634802Y-98664505D01*
X135634809Y-98664506D01*
X135737519Y-98674999D01*
X135787499Y-98674998D01*
X135787500Y-98674998D01*
X135787500Y-97700000D01*
X135037501Y-97700000D01*
X134650500Y-97700000D01*
X134650500Y-97437964D01*
X134670185Y-97370925D01*
X134686814Y-97350288D01*
X134849622Y-97187480D01*
X134910943Y-97153997D01*
X134980635Y-97158981D01*
X135024982Y-97187482D01*
X135037500Y-97200000D01*
X136163500Y-97200000D01*
X136230539Y-97219685D01*
X136276294Y-97272489D01*
X136287500Y-97324000D01*
X136287500Y-98674999D01*
X136337472Y-98674999D01*
X136337486Y-98674998D01*
X136440197Y-98664505D01*
X136606619Y-98609358D01*
X136606624Y-98609356D01*
X136755845Y-98517315D01*
X136879815Y-98393345D01*
X136971856Y-98244124D01*
X136971859Y-98244117D01*
X137002430Y-98151860D01*
X137042202Y-98094415D01*
X137106718Y-98067591D01*
X137175494Y-98079906D01*
X137226694Y-98127448D01*
X137236318Y-98147529D01*
X137243703Y-98167329D01*
X137243706Y-98167335D01*
X137329952Y-98282544D01*
X137329955Y-98282547D01*
X137445164Y-98368793D01*
X137445171Y-98368797D01*
X137486997Y-98384397D01*
X137580017Y-98419091D01*
X137639627Y-98425500D01*
X138235372Y-98425499D01*
X138294983Y-98419091D01*
X138429831Y-98368796D01*
X138545046Y-98282546D01*
X138631296Y-98167331D01*
X138681591Y-98032483D01*
X138688000Y-97972873D01*
X138688000Y-97700000D01*
X139862501Y-97700000D01*
X139862501Y-97974986D01*
X139872994Y-98077697D01*
X139928141Y-98244119D01*
X139928143Y-98244124D01*
X140020184Y-98393345D01*
X140144154Y-98517315D01*
X140293375Y-98609356D01*
X140293380Y-98609358D01*
X140459802Y-98664505D01*
X140459809Y-98664506D01*
X140562519Y-98674999D01*
X140612499Y-98674998D01*
X140612500Y-98674998D01*
X140612500Y-97700000D01*
X139862501Y-97700000D01*
X138688000Y-97700000D01*
X138687999Y-96927128D01*
X138681591Y-96867517D01*
X138659543Y-96808404D01*
X138631297Y-96732671D01*
X138631293Y-96732664D01*
X138545047Y-96617455D01*
X138545044Y-96617452D01*
X138422731Y-96525888D01*
X138424252Y-96523855D01*
X138384323Y-96483925D01*
X138369472Y-96415652D01*
X138393890Y-96350188D01*
X138449824Y-96308318D01*
X138493156Y-96300500D01*
X139927064Y-96300500D01*
X139994103Y-96320185D01*
X140039858Y-96372989D01*
X140049802Y-96442147D01*
X140024332Y-96501409D01*
X140020184Y-96506654D01*
X139928143Y-96655875D01*
X139928141Y-96655880D01*
X139872994Y-96822302D01*
X139872993Y-96822309D01*
X139862500Y-96925013D01*
X139862500Y-97200000D01*
X140988500Y-97200000D01*
X141055539Y-97219685D01*
X141101294Y-97272489D01*
X141112500Y-97324000D01*
X141112500Y-98674999D01*
X141162472Y-98674999D01*
X141162486Y-98674998D01*
X141265197Y-98664505D01*
X141431619Y-98609358D01*
X141431624Y-98609356D01*
X141580845Y-98517315D01*
X141704815Y-98393345D01*
X141796856Y-98244124D01*
X141796859Y-98244117D01*
X141827430Y-98151860D01*
X141867202Y-98094415D01*
X141931718Y-98067591D01*
X142000494Y-98079906D01*
X142051694Y-98127448D01*
X142061318Y-98147529D01*
X142068703Y-98167329D01*
X142068706Y-98167335D01*
X142137858Y-98259709D01*
X142154954Y-98282546D01*
X142262311Y-98362914D01*
X142304182Y-98418847D01*
X142312000Y-98462180D01*
X142312000Y-99437819D01*
X142292315Y-99504858D01*
X142262312Y-99537085D01*
X142154952Y-99617455D01*
X142068706Y-99732664D01*
X142068701Y-99732674D01*
X142061317Y-99752471D01*
X142019445Y-99808404D01*
X141953980Y-99832820D01*
X141885707Y-99817967D01*
X141836303Y-99768561D01*
X141827430Y-99748140D01*
X141796858Y-99655880D01*
X141796856Y-99655875D01*
X141704815Y-99506654D01*
X141580845Y-99382684D01*
X141431624Y-99290643D01*
X141431619Y-99290641D01*
X141265197Y-99235494D01*
X141265190Y-99235493D01*
X141162486Y-99225000D01*
X141112500Y-99225000D01*
X141112500Y-101674999D01*
X141162472Y-101674999D01*
X141162486Y-101674998D01*
X141265197Y-101664505D01*
X141431619Y-101609358D01*
X141431624Y-101609356D01*
X141580845Y-101517315D01*
X141704815Y-101393345D01*
X141796856Y-101244124D01*
X141796859Y-101244117D01*
X141827430Y-101151860D01*
X141867202Y-101094415D01*
X141931718Y-101067591D01*
X142000494Y-101079906D01*
X142051694Y-101127448D01*
X142061318Y-101147529D01*
X142068703Y-101167329D01*
X142068706Y-101167335D01*
X142154952Y-101282544D01*
X142154955Y-101282547D01*
X142270164Y-101368793D01*
X142270171Y-101368797D01*
X142281325Y-101372957D01*
X142405017Y-101419091D01*
X142464627Y-101425500D01*
X143060372Y-101425499D01*
X143119983Y-101419091D01*
X143254831Y-101368796D01*
X143370046Y-101282546D01*
X143456296Y-101167331D01*
X143506591Y-101032483D01*
X143508875Y-101011243D01*
X143535614Y-100946692D01*
X143593007Y-100906845D01*
X143632164Y-100900500D01*
X144805336Y-100900500D01*
X144872375Y-100920185D01*
X144918130Y-100972989D01*
X144928626Y-101011246D01*
X144930909Y-101032483D01*
X144981202Y-101167328D01*
X144981203Y-101167329D01*
X144981204Y-101167331D01*
X145067454Y-101282546D01*
X145107729Y-101312696D01*
X145124810Y-101325482D01*
X145166682Y-101381415D01*
X145174500Y-101424749D01*
X145174500Y-103219662D01*
X145161901Y-103274121D01*
X145135134Y-103328875D01*
X145124500Y-103401864D01*
X145124500Y-103401869D01*
X145124500Y-104425500D01*
X145104815Y-104492539D01*
X145052011Y-104538294D01*
X145000500Y-104549500D01*
X143696544Y-104549500D01*
X143629505Y-104529815D01*
X143608863Y-104513181D01*
X143082637Y-103986955D01*
X143066511Y-103967098D01*
X143061437Y-103959331D01*
X143035487Y-103939133D01*
X143029741Y-103934059D01*
X143027307Y-103931625D01*
X143010609Y-103919703D01*
X143008555Y-103918171D01*
X142969745Y-103887965D01*
X142969126Y-103887483D01*
X142969124Y-103887482D01*
X142962648Y-103883977D01*
X142956066Y-103880759D01*
X142908182Y-103866503D01*
X142905743Y-103865722D01*
X142858484Y-103849498D01*
X142851269Y-103848294D01*
X142843953Y-103847382D01*
X142795139Y-103849401D01*
X142794049Y-103849447D01*
X142791489Y-103849500D01*
X142782791Y-103849500D01*
X142715752Y-103829815D01*
X142669997Y-103777011D01*
X142666609Y-103768833D01*
X142643797Y-103707671D01*
X142643793Y-103707664D01*
X142557547Y-103592455D01*
X142557544Y-103592452D01*
X142442335Y-103506206D01*
X142442328Y-103506202D01*
X142307482Y-103455908D01*
X142307483Y-103455908D01*
X142247883Y-103449501D01*
X142247881Y-103449500D01*
X142247873Y-103449500D01*
X142247864Y-103449500D01*
X141202129Y-103449500D01*
X141202123Y-103449501D01*
X141142516Y-103455908D01*
X141007671Y-103506202D01*
X141007664Y-103506206D01*
X140892455Y-103592452D01*
X140892452Y-103592455D01*
X140806206Y-103707664D01*
X140806202Y-103707671D01*
X140759852Y-103831944D01*
X140755909Y-103842517D01*
X140749500Y-103902127D01*
X140749500Y-103902134D01*
X140749500Y-103902135D01*
X140749500Y-104497870D01*
X140749501Y-104497876D01*
X140755908Y-104557483D01*
X140806202Y-104692328D01*
X140806206Y-104692335D01*
X140892452Y-104807544D01*
X140892455Y-104807547D01*
X141007664Y-104893793D01*
X141007671Y-104893797D01*
X141142517Y-104944091D01*
X141142516Y-104944091D01*
X141149444Y-104944835D01*
X141202127Y-104950500D01*
X142247872Y-104950499D01*
X142307483Y-104944091D01*
X142442331Y-104893796D01*
X142557546Y-104807546D01*
X142623477Y-104719473D01*
X142679409Y-104677604D01*
X142749101Y-104672620D01*
X142810423Y-104706105D01*
X143217362Y-105113044D01*
X143233489Y-105132902D01*
X143238563Y-105140669D01*
X143238565Y-105140671D01*
X143264505Y-105160860D01*
X143270268Y-105165950D01*
X143272693Y-105168375D01*
X143272695Y-105168377D01*
X143289390Y-105180297D01*
X143291445Y-105181829D01*
X143311339Y-105197313D01*
X143330874Y-105212517D01*
X143330878Y-105212518D01*
X143337346Y-105216018D01*
X143343930Y-105219237D01*
X143343933Y-105219239D01*
X143391842Y-105233502D01*
X143394244Y-105234272D01*
X143441512Y-105250500D01*
X143441514Y-105250500D01*
X143448754Y-105251708D01*
X143456046Y-105252617D01*
X143505950Y-105250552D01*
X143508511Y-105250500D01*
X145131600Y-105250500D01*
X145198639Y-105270185D01*
X145244394Y-105322989D01*
X145254338Y-105392147D01*
X145225313Y-105455703D01*
X145219281Y-105462181D01*
X145190174Y-105491287D01*
X145190172Y-105491289D01*
X145135135Y-105603871D01*
X145135134Y-105603873D01*
X145135134Y-105603875D01*
X145129378Y-105643379D01*
X145100236Y-105706877D01*
X145041388Y-105744542D01*
X145006675Y-105749500D01*
X142782791Y-105749500D01*
X142715752Y-105729815D01*
X142669997Y-105677011D01*
X142666609Y-105668833D01*
X142643797Y-105607671D01*
X142643793Y-105607664D01*
X142557547Y-105492455D01*
X142557544Y-105492452D01*
X142442335Y-105406206D01*
X142442328Y-105406202D01*
X142307482Y-105355908D01*
X142307483Y-105355908D01*
X142247883Y-105349501D01*
X142247881Y-105349500D01*
X142247873Y-105349500D01*
X142247864Y-105349500D01*
X141202129Y-105349500D01*
X141202123Y-105349501D01*
X141142516Y-105355908D01*
X141007671Y-105406202D01*
X141007664Y-105406206D01*
X140892455Y-105492452D01*
X140892452Y-105492455D01*
X140806206Y-105607664D01*
X140806202Y-105607671D01*
X140755910Y-105742513D01*
X140755909Y-105742517D01*
X140749500Y-105802127D01*
X140749500Y-105802134D01*
X140749500Y-105802135D01*
X140749500Y-106397870D01*
X140749501Y-106397876D01*
X140755908Y-106457483D01*
X140806202Y-106592328D01*
X140806206Y-106592335D01*
X140892452Y-106707544D01*
X140892455Y-106707547D01*
X141007664Y-106793793D01*
X141007671Y-106793797D01*
X141142517Y-106844091D01*
X141142516Y-106844091D01*
X141149444Y-106844835D01*
X141202127Y-106850500D01*
X142247872Y-106850499D01*
X142307483Y-106844091D01*
X142442331Y-106793796D01*
X142557546Y-106707546D01*
X142643796Y-106592331D01*
X142666608Y-106531167D01*
X142708480Y-106475233D01*
X142773944Y-106450816D01*
X142782791Y-106450500D01*
X145000500Y-106450500D01*
X145067539Y-106470185D01*
X145113294Y-106522989D01*
X145124500Y-106574500D01*
X145124500Y-106823136D01*
X145135134Y-106896125D01*
X145135134Y-106896126D01*
X145135135Y-106896128D01*
X145190172Y-107008710D01*
X145278789Y-107097327D01*
X145354461Y-107134320D01*
X145391375Y-107152366D01*
X145464364Y-107163000D01*
X145464370Y-107163000D01*
X145785630Y-107163000D01*
X145785636Y-107163000D01*
X145858625Y-107152366D01*
X145895538Y-107134319D01*
X145964410Y-107122559D01*
X146004459Y-107134319D01*
X146041375Y-107152366D01*
X146114364Y-107163000D01*
X146114370Y-107163000D01*
X146435630Y-107163000D01*
X146435636Y-107163000D01*
X146508625Y-107152366D01*
X146545538Y-107134319D01*
X146614410Y-107122559D01*
X146654459Y-107134319D01*
X146691375Y-107152366D01*
X146764364Y-107163000D01*
X146764370Y-107163000D01*
X147085630Y-107163000D01*
X147085636Y-107163000D01*
X147158625Y-107152366D01*
X147195538Y-107134319D01*
X147264410Y-107122559D01*
X147304459Y-107134319D01*
X147341375Y-107152366D01*
X147414364Y-107163000D01*
X147414370Y-107163000D01*
X147735630Y-107163000D01*
X147735636Y-107163000D01*
X147808625Y-107152366D01*
X147869596Y-107122559D01*
X147921210Y-107097327D01*
X148009827Y-107008710D01*
X148050994Y-106924500D01*
X148064866Y-106896125D01*
X148075500Y-106823136D01*
X148075500Y-106724499D01*
X148095185Y-106657461D01*
X148147989Y-106611706D01*
X148199500Y-106600500D01*
X149633001Y-106600500D01*
X149700040Y-106620185D01*
X149745795Y-106672989D01*
X149757001Y-106724500D01*
X149757001Y-106947876D01*
X149763408Y-107007483D01*
X149813702Y-107142328D01*
X149813706Y-107142335D01*
X149899952Y-107257544D01*
X149899955Y-107257547D01*
X150015164Y-107343793D01*
X150015171Y-107343797D01*
X150022346Y-107346473D01*
X150150017Y-107394091D01*
X150209627Y-107400500D01*
X150830372Y-107400499D01*
X150889983Y-107394091D01*
X151024831Y-107343796D01*
X151140046Y-107257546D01*
X151226296Y-107142331D01*
X151276591Y-107007483D01*
X151283000Y-106947873D01*
X151283000Y-106947870D01*
X151582000Y-106947870D01*
X151582001Y-106947876D01*
X151588408Y-107007483D01*
X151638702Y-107142328D01*
X151638706Y-107142335D01*
X151724952Y-107257544D01*
X151724955Y-107257547D01*
X151840164Y-107343793D01*
X151840171Y-107343797D01*
X151847346Y-107346473D01*
X151975017Y-107394091D01*
X152034627Y-107400500D01*
X152655372Y-107400499D01*
X152714983Y-107394091D01*
X152849831Y-107343796D01*
X152965046Y-107257546D01*
X153051296Y-107142331D01*
X153101591Y-107007483D01*
X153108000Y-106947873D01*
X153108000Y-106924500D01*
X153127685Y-106857461D01*
X153180489Y-106811706D01*
X153232000Y-106800500D01*
X153825501Y-106800500D01*
X153892540Y-106820185D01*
X153938295Y-106872989D01*
X153949501Y-106924500D01*
X153949501Y-106947876D01*
X153955908Y-107007483D01*
X154006202Y-107142328D01*
X154006206Y-107142335D01*
X154092452Y-107257544D01*
X154092455Y-107257547D01*
X154207664Y-107343793D01*
X154207671Y-107343797D01*
X154214846Y-107346473D01*
X154342517Y-107394091D01*
X154402127Y-107400500D01*
X155022872Y-107400499D01*
X155082483Y-107394091D01*
X155217331Y-107343796D01*
X155332546Y-107257546D01*
X155418796Y-107142331D01*
X155469091Y-107007483D01*
X155475500Y-106947873D01*
X155475500Y-106947870D01*
X155774500Y-106947870D01*
X155774501Y-106947876D01*
X155780908Y-107007483D01*
X155831202Y-107142328D01*
X155831206Y-107142335D01*
X155917452Y-107257544D01*
X155917455Y-107257547D01*
X156032664Y-107343793D01*
X156032671Y-107343797D01*
X156039846Y-107346473D01*
X156167517Y-107394091D01*
X156227127Y-107400500D01*
X156847872Y-107400499D01*
X156907483Y-107394091D01*
X157042331Y-107343796D01*
X157157546Y-107257546D01*
X157243796Y-107142331D01*
X157294091Y-107007483D01*
X157300500Y-106947873D01*
X157300499Y-105952128D01*
X157294091Y-105892517D01*
X157292290Y-105887689D01*
X157243797Y-105757671D01*
X157243793Y-105757664D01*
X157157547Y-105642455D01*
X157157544Y-105642452D01*
X157042335Y-105556206D01*
X157042328Y-105556202D01*
X156907486Y-105505910D01*
X156907485Y-105505909D01*
X156907483Y-105505909D01*
X156847873Y-105499500D01*
X156847863Y-105499500D01*
X156227129Y-105499500D01*
X156227123Y-105499501D01*
X156167516Y-105505908D01*
X156032671Y-105556202D01*
X156032664Y-105556206D01*
X155917455Y-105642452D01*
X155917452Y-105642455D01*
X155831206Y-105757664D01*
X155831202Y-105757671D01*
X155780908Y-105892517D01*
X155774654Y-105950696D01*
X155774501Y-105952123D01*
X155774500Y-105952135D01*
X155774500Y-106947870D01*
X155475500Y-106947870D01*
X155475499Y-105952128D01*
X155469091Y-105892517D01*
X155467290Y-105887689D01*
X155418797Y-105757671D01*
X155418793Y-105757664D01*
X155332547Y-105642455D01*
X155332544Y-105642452D01*
X155217335Y-105556206D01*
X155217328Y-105556202D01*
X155082486Y-105505910D01*
X155082485Y-105505909D01*
X155082483Y-105505909D01*
X155022873Y-105499500D01*
X155022863Y-105499500D01*
X154402129Y-105499500D01*
X154402123Y-105499501D01*
X154342516Y-105505908D01*
X154207671Y-105556202D01*
X154207664Y-105556206D01*
X154092455Y-105642452D01*
X154092452Y-105642455D01*
X154006206Y-105757664D01*
X154006202Y-105757671D01*
X153955908Y-105892517D01*
X153949654Y-105950696D01*
X153949501Y-105952123D01*
X153949500Y-105952135D01*
X153949500Y-105975500D01*
X153929815Y-106042539D01*
X153877011Y-106088294D01*
X153825500Y-106099500D01*
X153231999Y-106099500D01*
X153164960Y-106079815D01*
X153119205Y-106027011D01*
X153107999Y-105975500D01*
X153107999Y-105952129D01*
X153107998Y-105952123D01*
X153107997Y-105952116D01*
X153101591Y-105892517D01*
X153099790Y-105887689D01*
X153051297Y-105757671D01*
X153051293Y-105757664D01*
X152965047Y-105642455D01*
X152965044Y-105642452D01*
X152849835Y-105556206D01*
X152849828Y-105556202D01*
X152776167Y-105528729D01*
X152720233Y-105486858D01*
X152695816Y-105421394D01*
X152695500Y-105412547D01*
X152695500Y-104509655D01*
X152715185Y-104442616D01*
X152767989Y-104396861D01*
X152776168Y-104393473D01*
X152776512Y-104393345D01*
X152842331Y-104368796D01*
X152957546Y-104282546D01*
X153043796Y-104167331D01*
X153094091Y-104032483D01*
X153100500Y-103972873D01*
X153100500Y-103972870D01*
X153974500Y-103972870D01*
X153974501Y-103972876D01*
X153980908Y-104032483D01*
X154031202Y-104167328D01*
X154031206Y-104167335D01*
X154117452Y-104282544D01*
X154117455Y-104282547D01*
X154232664Y-104368793D01*
X154232671Y-104368797D01*
X154232674Y-104368798D01*
X154367517Y-104419091D01*
X154427127Y-104425500D01*
X155022872Y-104425499D01*
X155082483Y-104419091D01*
X155217331Y-104368796D01*
X155332546Y-104282546D01*
X155418796Y-104167331D01*
X155426180Y-104147532D01*
X155468050Y-104091598D01*
X155533514Y-104067179D01*
X155601787Y-104082029D01*
X155651194Y-104131433D01*
X155660069Y-104151859D01*
X155690641Y-104244119D01*
X155690643Y-104244124D01*
X155782684Y-104393345D01*
X155906654Y-104517315D01*
X156055875Y-104609356D01*
X156055880Y-104609358D01*
X156222302Y-104664505D01*
X156222309Y-104664506D01*
X156325019Y-104674999D01*
X156374999Y-104674998D01*
X156375000Y-104674998D01*
X156375000Y-103700000D01*
X156875000Y-103700000D01*
X156875000Y-104674999D01*
X156924972Y-104674999D01*
X156924986Y-104674998D01*
X157027697Y-104664505D01*
X157194119Y-104609358D01*
X157194124Y-104609356D01*
X157343345Y-104517315D01*
X157467315Y-104393345D01*
X157559356Y-104244124D01*
X157559358Y-104244119D01*
X157614505Y-104077697D01*
X157614506Y-104077690D01*
X157624999Y-103974986D01*
X157625000Y-103974973D01*
X157625000Y-103700000D01*
X156875000Y-103700000D01*
X156375000Y-103700000D01*
X156375000Y-102225000D01*
X156374999Y-102224999D01*
X156325029Y-102225000D01*
X156325011Y-102225001D01*
X156222302Y-102235494D01*
X156055880Y-102290641D01*
X156055875Y-102290643D01*
X155906654Y-102382684D01*
X155782684Y-102506654D01*
X155690643Y-102655875D01*
X155690642Y-102655878D01*
X155660069Y-102748141D01*
X155620296Y-102805585D01*
X155555780Y-102832408D01*
X155487004Y-102820093D01*
X155435804Y-102772549D01*
X155426181Y-102752468D01*
X155418798Y-102732673D01*
X155418793Y-102732664D01*
X155332547Y-102617455D01*
X155332544Y-102617452D01*
X155217335Y-102531206D01*
X155217328Y-102531202D01*
X155082486Y-102480910D01*
X155082485Y-102480909D01*
X155082483Y-102480909D01*
X155022873Y-102474500D01*
X155022863Y-102474500D01*
X154427129Y-102474500D01*
X154427123Y-102474501D01*
X154367516Y-102480908D01*
X154232671Y-102531202D01*
X154232664Y-102531206D01*
X154117455Y-102617452D01*
X154117452Y-102617455D01*
X154031206Y-102732664D01*
X154031202Y-102732671D01*
X153980908Y-102867517D01*
X153974765Y-102924658D01*
X153974501Y-102927123D01*
X153974500Y-102927135D01*
X153974500Y-103972870D01*
X153100500Y-103972870D01*
X153100499Y-102927128D01*
X153094091Y-102867517D01*
X153091042Y-102859343D01*
X153043797Y-102732671D01*
X153043793Y-102732664D01*
X152957547Y-102617455D01*
X152957544Y-102617452D01*
X152842335Y-102531206D01*
X152842328Y-102531202D01*
X152707486Y-102480910D01*
X152707485Y-102480909D01*
X152707483Y-102480909D01*
X152647873Y-102474500D01*
X152647863Y-102474500D01*
X152052129Y-102474500D01*
X152052123Y-102474501D01*
X151992516Y-102480908D01*
X151857671Y-102531202D01*
X151857664Y-102531206D01*
X151742455Y-102617452D01*
X151742452Y-102617455D01*
X151656206Y-102732664D01*
X151656202Y-102732671D01*
X151605908Y-102867517D01*
X151599765Y-102924658D01*
X151599501Y-102927123D01*
X151599500Y-102927135D01*
X151599500Y-103972870D01*
X151599501Y-103972876D01*
X151605908Y-104032483D01*
X151656202Y-104167328D01*
X151656206Y-104167335D01*
X151742452Y-104282544D01*
X151742455Y-104282547D01*
X151857664Y-104368793D01*
X151857671Y-104368797D01*
X151913833Y-104389744D01*
X151969767Y-104431615D01*
X151994184Y-104497079D01*
X151994500Y-104505926D01*
X151994500Y-105412547D01*
X151974815Y-105479586D01*
X151922011Y-105525341D01*
X151913833Y-105528729D01*
X151840171Y-105556202D01*
X151840164Y-105556206D01*
X151724955Y-105642452D01*
X151724952Y-105642455D01*
X151638706Y-105757664D01*
X151638702Y-105757671D01*
X151588408Y-105892517D01*
X151582154Y-105950696D01*
X151582001Y-105952123D01*
X151582000Y-105952135D01*
X151582000Y-106947870D01*
X151283000Y-106947870D01*
X151282999Y-105952128D01*
X151276591Y-105892517D01*
X151274790Y-105887689D01*
X151226297Y-105757671D01*
X151226293Y-105757664D01*
X151140047Y-105642455D01*
X151140044Y-105642452D01*
X151024835Y-105556206D01*
X151024828Y-105556202D01*
X150889986Y-105505910D01*
X150889985Y-105505909D01*
X150889983Y-105505909D01*
X150830373Y-105499500D01*
X150830363Y-105499500D01*
X150209629Y-105499500D01*
X150209623Y-105499501D01*
X150150016Y-105505908D01*
X150015171Y-105556202D01*
X150015164Y-105556206D01*
X149899955Y-105642452D01*
X149899952Y-105642455D01*
X149813706Y-105757664D01*
X149813702Y-105757671D01*
X149790891Y-105818833D01*
X149749020Y-105874767D01*
X149683556Y-105899184D01*
X149674709Y-105899500D01*
X148199500Y-105899500D01*
X148132461Y-105879815D01*
X148086706Y-105827011D01*
X148075500Y-105775500D01*
X148075500Y-105676869D01*
X148075500Y-105676864D01*
X148064866Y-105603875D01*
X148041560Y-105556202D01*
X148009827Y-105491289D01*
X147921212Y-105402674D01*
X147819986Y-105353187D01*
X147768404Y-105306059D01*
X147750490Y-105238525D01*
X147771931Y-105172026D01*
X147825921Y-105127676D01*
X147839853Y-105122710D01*
X147950189Y-105090654D01*
X148086108Y-105010273D01*
X148086116Y-105010267D01*
X148197767Y-104898616D01*
X148197773Y-104898608D01*
X148278155Y-104762688D01*
X148278156Y-104762685D01*
X148322210Y-104611053D01*
X148322211Y-104611047D01*
X148324999Y-104575618D01*
X148325000Y-104575605D01*
X148325000Y-104225000D01*
X147549500Y-104225000D01*
X147482461Y-104205315D01*
X147436706Y-104152511D01*
X147425500Y-104101000D01*
X147425500Y-103972870D01*
X149699500Y-103972870D01*
X149699501Y-103972876D01*
X149705908Y-104032483D01*
X149756202Y-104167328D01*
X149756206Y-104167335D01*
X149842452Y-104282544D01*
X149842455Y-104282547D01*
X149957664Y-104368793D01*
X149957671Y-104368797D01*
X149957674Y-104368798D01*
X150092517Y-104419091D01*
X150152127Y-104425500D01*
X150747872Y-104425499D01*
X150807483Y-104419091D01*
X150942331Y-104368796D01*
X151057546Y-104282546D01*
X151143796Y-104167331D01*
X151194091Y-104032483D01*
X151200500Y-103972873D01*
X151200499Y-102927128D01*
X151194091Y-102867517D01*
X151191042Y-102859343D01*
X151143797Y-102732671D01*
X151143793Y-102732664D01*
X151057547Y-102617455D01*
X151057544Y-102617452D01*
X150942335Y-102531206D01*
X150942328Y-102531202D01*
X150881167Y-102508391D01*
X150825233Y-102466520D01*
X150800816Y-102401056D01*
X150800500Y-102392209D01*
X150800500Y-101474500D01*
X150820185Y-101407461D01*
X150872989Y-101361706D01*
X150924500Y-101350500D01*
X151023985Y-101350500D01*
X151177365Y-101312696D01*
X151317237Y-101239285D01*
X151317238Y-101239283D01*
X151317240Y-101239283D01*
X151376613Y-101186682D01*
X151439846Y-101156962D01*
X151458840Y-101155499D01*
X151856517Y-101155499D01*
X151856518Y-101155499D01*
X151950304Y-101140646D01*
X152063342Y-101083050D01*
X152153050Y-100993342D01*
X152210646Y-100880304D01*
X152210646Y-100880302D01*
X152210647Y-100880301D01*
X152214654Y-100855001D01*
X154477704Y-100855001D01*
X154477899Y-100857486D01*
X154523718Y-101015198D01*
X154607314Y-101156552D01*
X154607321Y-101156561D01*
X154723438Y-101272678D01*
X154723447Y-101272685D01*
X154864803Y-101356282D01*
X154864806Y-101356283D01*
X155022504Y-101402099D01*
X155022510Y-101402100D01*
X155059350Y-101404999D01*
X155059366Y-101405000D01*
X155700000Y-101405000D01*
X155700000Y-100855000D01*
X154477705Y-100855000D01*
X154477704Y-100855001D01*
X152214654Y-100855001D01*
X152221282Y-100813147D01*
X152225500Y-100786519D01*
X152225499Y-100423482D01*
X152210646Y-100329696D01*
X152153050Y-100216658D01*
X152153046Y-100216654D01*
X152153045Y-100216652D01*
X152063347Y-100126954D01*
X152063343Y-100126951D01*
X152063342Y-100126950D01*
X152060599Y-100125552D01*
X151972147Y-100080483D01*
X151921352Y-100032509D01*
X151904557Y-99964687D01*
X151927095Y-99898553D01*
X151972145Y-99859517D01*
X152063342Y-99813050D01*
X152153050Y-99723342D01*
X152210646Y-99610304D01*
X152210646Y-99610302D01*
X152210647Y-99610301D01*
X152225499Y-99516524D01*
X152225500Y-99516519D01*
X152225499Y-99153482D01*
X152210646Y-99059696D01*
X152153050Y-98946658D01*
X152153046Y-98946654D01*
X152153045Y-98946652D01*
X152063347Y-98856954D01*
X152063343Y-98856951D01*
X152063342Y-98856950D01*
X152060599Y-98855552D01*
X151972147Y-98810483D01*
X151921352Y-98762509D01*
X151904557Y-98694687D01*
X151927095Y-98628553D01*
X151972145Y-98589517D01*
X152063342Y-98543050D01*
X152153050Y-98453342D01*
X152210646Y-98340304D01*
X152210646Y-98340302D01*
X152210647Y-98340301D01*
X152225499Y-98246524D01*
X152225500Y-98246519D01*
X152225499Y-97883482D01*
X152210646Y-97789696D01*
X152153050Y-97676658D01*
X152153046Y-97676654D01*
X152153045Y-97676652D01*
X152063347Y-97586954D01*
X152063343Y-97586951D01*
X152063342Y-97586950D01*
X152060599Y-97585552D01*
X151972147Y-97540483D01*
X151921352Y-97492509D01*
X151904557Y-97424687D01*
X151927095Y-97358553D01*
X151972145Y-97319517D01*
X152063342Y-97273050D01*
X152153050Y-97183342D01*
X152210646Y-97070304D01*
X152210646Y-97070302D01*
X152210647Y-97070301D01*
X152225499Y-96976524D01*
X152225500Y-96976519D01*
X152225499Y-96613482D01*
X152210646Y-96519696D01*
X152153050Y-96406658D01*
X152153046Y-96406654D01*
X152153045Y-96406652D01*
X152063347Y-96316954D01*
X152063344Y-96316952D01*
X152063342Y-96316950D01*
X151979158Y-96274056D01*
X151950301Y-96259352D01*
X151856524Y-96244500D01*
X151856519Y-96244500D01*
X151458839Y-96244500D01*
X151391800Y-96224815D01*
X151376612Y-96213316D01*
X151317237Y-96160714D01*
X151177365Y-96087303D01*
X151023986Y-96049500D01*
X151023985Y-96049500D01*
X150866015Y-96049500D01*
X150866014Y-96049500D01*
X150712634Y-96087303D01*
X150572764Y-96160714D01*
X150572756Y-96160719D01*
X150513386Y-96213316D01*
X150450153Y-96243037D01*
X150431160Y-96244500D01*
X150143482Y-96244500D01*
X150062519Y-96257323D01*
X150049696Y-96259354D01*
X149936658Y-96316950D01*
X149936657Y-96316951D01*
X149936652Y-96316954D01*
X149846954Y-96406652D01*
X149846951Y-96406657D01*
X149846950Y-96406658D01*
X149831687Y-96436613D01*
X149789352Y-96519698D01*
X149774500Y-96613475D01*
X149774500Y-96976517D01*
X149785292Y-97044657D01*
X149789354Y-97070304D01*
X149846950Y-97183342D01*
X149846952Y-97183344D01*
X149846954Y-97183347D01*
X149936652Y-97273045D01*
X149936654Y-97273046D01*
X149936658Y-97273050D01*
X150027851Y-97319515D01*
X150078647Y-97367490D01*
X150095442Y-97435311D01*
X150072904Y-97501446D01*
X150027852Y-97540484D01*
X149936658Y-97586950D01*
X149936656Y-97586951D01*
X149936657Y-97586951D01*
X149936652Y-97586954D01*
X149846954Y-97676652D01*
X149846951Y-97676657D01*
X149789352Y-97789698D01*
X149774500Y-97883475D01*
X149774500Y-98246517D01*
X149783541Y-98303597D01*
X149789354Y-98340304D01*
X149846950Y-98453342D01*
X149846952Y-98453344D01*
X149846954Y-98453347D01*
X149936652Y-98543045D01*
X149936654Y-98543046D01*
X149936658Y-98543050D01*
X150027851Y-98589515D01*
X150078647Y-98637490D01*
X150095442Y-98705311D01*
X150072904Y-98771446D01*
X150027852Y-98810484D01*
X149936658Y-98856950D01*
X149936657Y-98856950D01*
X149936657Y-98856951D01*
X149936652Y-98856954D01*
X149846954Y-98946652D01*
X149846951Y-98946657D01*
X149789352Y-99059698D01*
X149774500Y-99153475D01*
X149774500Y-99516517D01*
X149777758Y-99537085D01*
X149789354Y-99610304D01*
X149846950Y-99723342D01*
X149846952Y-99723344D01*
X149846954Y-99723347D01*
X149936652Y-99813045D01*
X149936654Y-99813046D01*
X149936658Y-99813050D01*
X150027851Y-99859515D01*
X150078647Y-99907490D01*
X150095442Y-99975311D01*
X150072904Y-100041446D01*
X150027852Y-100080484D01*
X149936658Y-100126950D01*
X149936656Y-100126951D01*
X149936657Y-100126951D01*
X149936652Y-100126954D01*
X149846954Y-100216652D01*
X149846951Y-100216657D01*
X149789352Y-100329698D01*
X149774500Y-100423475D01*
X149774500Y-100786517D01*
X149785292Y-100854657D01*
X149789354Y-100880304D01*
X149846950Y-100993342D01*
X149846952Y-100993344D01*
X149846954Y-100993347D01*
X149936652Y-101083045D01*
X149936656Y-101083048D01*
X149936658Y-101083050D01*
X150031797Y-101131526D01*
X150082591Y-101179499D01*
X150099500Y-101242009D01*
X150099500Y-102392209D01*
X150079815Y-102459248D01*
X150027011Y-102505003D01*
X150018833Y-102508391D01*
X149957671Y-102531202D01*
X149957664Y-102531206D01*
X149842455Y-102617452D01*
X149842452Y-102617455D01*
X149756206Y-102732664D01*
X149756202Y-102732671D01*
X149705908Y-102867517D01*
X149699765Y-102924658D01*
X149699501Y-102927123D01*
X149699500Y-102927135D01*
X149699500Y-103972870D01*
X147425500Y-103972870D01*
X147425500Y-103401869D01*
X147425500Y-103401868D01*
X147425500Y-103401864D01*
X147414866Y-103328875D01*
X147388099Y-103274121D01*
X147375500Y-103219662D01*
X147375500Y-102878781D01*
X147375889Y-102871844D01*
X147380270Y-102832965D01*
X147378379Y-102822972D01*
X147825000Y-102822972D01*
X147825000Y-103725000D01*
X148325000Y-103725000D01*
X148325000Y-103374394D01*
X148324999Y-103374381D01*
X148322211Y-103338952D01*
X148322210Y-103338946D01*
X148278156Y-103187314D01*
X148278155Y-103187311D01*
X148197773Y-103051391D01*
X148197767Y-103051383D01*
X148086116Y-102939732D01*
X148086108Y-102939726D01*
X147950188Y-102859344D01*
X147950187Y-102859343D01*
X147825000Y-102822972D01*
X147378379Y-102822972D01*
X147369418Y-102775615D01*
X147369037Y-102773364D01*
X147366449Y-102756194D01*
X147360348Y-102715713D01*
X147360347Y-102715711D01*
X147360347Y-102715709D01*
X147357831Y-102707552D01*
X147355024Y-102699528D01*
X147327764Y-102647951D01*
X147326718Y-102645880D01*
X147313029Y-102617455D01*
X147301425Y-102593358D01*
X147301424Y-102593357D01*
X147301424Y-102593356D01*
X147296642Y-102586342D01*
X147291567Y-102579466D01*
X147291566Y-102579463D01*
X147263047Y-102550944D01*
X147229562Y-102489621D01*
X147227632Y-102478209D01*
X147220204Y-102417035D01*
X147211237Y-102343182D01*
X147155220Y-102195477D01*
X147065483Y-102065470D01*
X146947240Y-101960717D01*
X146947238Y-101960716D01*
X146947237Y-101960715D01*
X146807365Y-101887303D01*
X146653986Y-101849500D01*
X146653985Y-101849500D01*
X146496015Y-101849500D01*
X146496014Y-101849500D01*
X146342637Y-101887303D01*
X146257126Y-101932183D01*
X146188617Y-101945908D01*
X146123564Y-101920415D01*
X146082620Y-101863799D01*
X146075500Y-101822386D01*
X146075500Y-101489141D01*
X146095185Y-101422102D01*
X146147989Y-101376347D01*
X146156149Y-101372966D01*
X146167331Y-101368796D01*
X146282546Y-101282546D01*
X146368796Y-101167331D01*
X146376180Y-101147532D01*
X146418050Y-101091598D01*
X146483514Y-101067179D01*
X146551787Y-101082029D01*
X146601194Y-101131433D01*
X146610069Y-101151859D01*
X146640641Y-101244119D01*
X146640643Y-101244124D01*
X146732684Y-101393345D01*
X146856654Y-101517315D01*
X147005875Y-101609356D01*
X147005880Y-101609358D01*
X147172302Y-101664505D01*
X147172309Y-101664506D01*
X147275019Y-101674999D01*
X147324999Y-101674998D01*
X147325000Y-101674998D01*
X147325000Y-100700000D01*
X147825000Y-100700000D01*
X147825000Y-101674999D01*
X147874972Y-101674999D01*
X147874986Y-101674998D01*
X147977697Y-101664505D01*
X148144119Y-101609358D01*
X148144124Y-101609356D01*
X148293345Y-101517315D01*
X148417315Y-101393345D01*
X148509356Y-101244124D01*
X148509358Y-101244119D01*
X148564505Y-101077697D01*
X148564506Y-101077690D01*
X148574999Y-100974986D01*
X148575000Y-100974973D01*
X148575000Y-100700000D01*
X147825000Y-100700000D01*
X147325000Y-100700000D01*
X147325000Y-99225000D01*
X147825000Y-99225000D01*
X147825000Y-100200000D01*
X148574999Y-100200000D01*
X148574999Y-99925028D01*
X148574998Y-99925013D01*
X148564505Y-99822302D01*
X148509358Y-99655880D01*
X148509356Y-99655875D01*
X148417315Y-99506654D01*
X148293345Y-99382684D01*
X148144124Y-99290643D01*
X148144119Y-99290641D01*
X147977697Y-99235494D01*
X147977690Y-99235493D01*
X147874986Y-99225000D01*
X147825000Y-99225000D01*
X147325000Y-99225000D01*
X147324999Y-99224999D01*
X147275029Y-99225000D01*
X147275011Y-99225001D01*
X147172302Y-99235494D01*
X147005880Y-99290641D01*
X147005875Y-99290643D01*
X146856654Y-99382684D01*
X146732684Y-99506654D01*
X146640643Y-99655875D01*
X146640642Y-99655878D01*
X146610069Y-99748141D01*
X146570296Y-99805585D01*
X146505780Y-99832408D01*
X146437004Y-99820093D01*
X146385804Y-99772549D01*
X146376181Y-99752468D01*
X146368798Y-99732673D01*
X146368793Y-99732664D01*
X146282547Y-99617455D01*
X146282544Y-99617452D01*
X146167335Y-99531206D01*
X146167328Y-99531202D01*
X146032486Y-99480910D01*
X146032485Y-99480909D01*
X146032483Y-99480909D01*
X145972873Y-99474500D01*
X145972863Y-99474500D01*
X145377129Y-99474500D01*
X145377123Y-99474501D01*
X145317516Y-99480908D01*
X145182671Y-99531202D01*
X145182664Y-99531206D01*
X145067455Y-99617452D01*
X145067452Y-99617455D01*
X144981206Y-99732664D01*
X144981202Y-99732671D01*
X144930908Y-99867516D01*
X144928625Y-99888757D01*
X144901886Y-99953308D01*
X144844493Y-99993155D01*
X144805336Y-99999500D01*
X143632164Y-99999500D01*
X143565125Y-99979815D01*
X143519370Y-99927011D01*
X143508874Y-99888754D01*
X143506927Y-99870646D01*
X143506591Y-99867517D01*
X143462066Y-99748140D01*
X143456297Y-99732671D01*
X143456293Y-99732664D01*
X143370047Y-99617455D01*
X143262688Y-99537085D01*
X143220818Y-99481151D01*
X143213000Y-99437819D01*
X143213000Y-98462180D01*
X143232685Y-98395141D01*
X143262687Y-98362914D01*
X143370046Y-98282546D01*
X143456296Y-98167331D01*
X143506591Y-98032483D01*
X143513000Y-97972873D01*
X143513000Y-97700000D01*
X144675001Y-97700000D01*
X144675001Y-97974986D01*
X144685494Y-98077697D01*
X144740641Y-98244119D01*
X144740643Y-98244124D01*
X144832684Y-98393345D01*
X144956654Y-98517315D01*
X145105875Y-98609356D01*
X145105880Y-98609358D01*
X145272302Y-98664505D01*
X145272309Y-98664506D01*
X145375019Y-98674999D01*
X145424999Y-98674998D01*
X145425000Y-98674998D01*
X145425000Y-97700000D01*
X144675001Y-97700000D01*
X143513000Y-97700000D01*
X143512999Y-96927128D01*
X143506591Y-96867517D01*
X143484543Y-96808404D01*
X143456297Y-96732671D01*
X143456293Y-96732664D01*
X143370047Y-96617455D01*
X143370044Y-96617452D01*
X143247731Y-96525888D01*
X143249252Y-96523855D01*
X143209323Y-96483925D01*
X143194472Y-96415652D01*
X143218890Y-96350188D01*
X143274824Y-96308318D01*
X143318156Y-96300500D01*
X144739564Y-96300500D01*
X144806603Y-96320185D01*
X144852358Y-96372989D01*
X144862302Y-96442147D01*
X144836832Y-96501409D01*
X144832684Y-96506654D01*
X144740643Y-96655875D01*
X144740641Y-96655880D01*
X144685494Y-96822302D01*
X144685493Y-96822309D01*
X144675000Y-96925013D01*
X144675000Y-97200000D01*
X145801000Y-97200000D01*
X145868039Y-97219685D01*
X145913794Y-97272489D01*
X145925000Y-97324000D01*
X145925000Y-98674999D01*
X145974972Y-98674999D01*
X145974986Y-98674998D01*
X146077697Y-98664505D01*
X146244119Y-98609358D01*
X146244124Y-98609356D01*
X146393345Y-98517315D01*
X146517315Y-98393345D01*
X146609356Y-98244124D01*
X146609359Y-98244117D01*
X146639930Y-98151860D01*
X146679702Y-98094415D01*
X146744218Y-98067591D01*
X146812994Y-98079906D01*
X146864194Y-98127448D01*
X146873818Y-98147529D01*
X146881203Y-98167329D01*
X146881206Y-98167335D01*
X146967452Y-98282544D01*
X146967455Y-98282547D01*
X147082664Y-98368793D01*
X147082671Y-98368797D01*
X147124497Y-98384397D01*
X147217517Y-98419091D01*
X147277127Y-98425500D01*
X147872872Y-98425499D01*
X147932483Y-98419091D01*
X148067331Y-98368796D01*
X148182546Y-98282546D01*
X148268796Y-98167331D01*
X148319091Y-98032483D01*
X148325500Y-97972873D01*
X148325499Y-96927128D01*
X148319091Y-96867517D01*
X148297043Y-96808404D01*
X148268797Y-96732671D01*
X148268793Y-96732664D01*
X148182547Y-96617455D01*
X148182544Y-96617452D01*
X148067335Y-96531206D01*
X148067328Y-96531202D01*
X147932486Y-96480910D01*
X147932485Y-96480909D01*
X147932483Y-96480909D01*
X147872873Y-96474500D01*
X147872863Y-96474500D01*
X147277129Y-96474500D01*
X147277123Y-96474501D01*
X147217516Y-96480908D01*
X147082671Y-96531202D01*
X147082664Y-96531206D01*
X146967455Y-96617452D01*
X146967452Y-96617455D01*
X146881206Y-96732664D01*
X146881201Y-96732674D01*
X146873817Y-96752471D01*
X146831945Y-96808404D01*
X146766480Y-96832820D01*
X146698207Y-96817967D01*
X146648803Y-96768561D01*
X146639930Y-96748140D01*
X146609358Y-96655880D01*
X146609356Y-96655875D01*
X146517315Y-96506654D01*
X146482026Y-96471365D01*
X146448541Y-96410042D01*
X146453525Y-96340350D01*
X146495397Y-96284417D01*
X146511751Y-96274061D01*
X146552123Y-96252723D01*
X146554038Y-96251756D01*
X146606642Y-96226425D01*
X146606643Y-96226423D01*
X146606645Y-96226423D01*
X146613695Y-96221616D01*
X146620537Y-96216567D01*
X146623788Y-96213316D01*
X146661821Y-96175281D01*
X146663420Y-96173741D01*
X146706194Y-96134055D01*
X146706196Y-96134050D01*
X146711987Y-96126790D01*
X146712643Y-96127313D01*
X146722032Y-96115070D01*
X147367332Y-95469769D01*
X147428653Y-95436286D01*
X147474408Y-95434979D01*
X147493481Y-95438000D01*
X147856518Y-95437999D01*
X147950304Y-95423146D01*
X148063342Y-95365550D01*
X148153050Y-95275842D01*
X148210646Y-95162804D01*
X148210646Y-95162802D01*
X148210647Y-95162801D01*
X148223509Y-95081591D01*
X148225500Y-95069019D01*
X148225499Y-94335370D01*
X149524500Y-94335370D01*
X149524501Y-94335376D01*
X149530908Y-94394983D01*
X149581202Y-94529828D01*
X149581206Y-94529835D01*
X149667452Y-94645044D01*
X149667455Y-94645047D01*
X149782664Y-94731293D01*
X149782671Y-94731297D01*
X149917517Y-94781591D01*
X149917516Y-94781591D01*
X149924444Y-94782335D01*
X149977127Y-94788000D01*
X150972872Y-94787999D01*
X151032483Y-94781591D01*
X151167331Y-94731296D01*
X151282546Y-94645046D01*
X151368796Y-94529831D01*
X151419091Y-94394983D01*
X151425500Y-94335373D01*
X151425499Y-93950000D01*
X152607501Y-93950000D01*
X152607501Y-94224986D01*
X152617994Y-94327697D01*
X152673141Y-94494119D01*
X152673143Y-94494124D01*
X152765184Y-94643345D01*
X152889154Y-94767315D01*
X153038375Y-94859356D01*
X153038380Y-94859358D01*
X153204802Y-94914505D01*
X153204809Y-94914506D01*
X153307519Y-94924999D01*
X153357499Y-94924998D01*
X153357500Y-94924998D01*
X153357500Y-93950000D01*
X152607501Y-93950000D01*
X151425499Y-93950000D01*
X151425499Y-93714628D01*
X151419091Y-93655017D01*
X151405546Y-93618702D01*
X151368797Y-93520171D01*
X151368793Y-93520164D01*
X151316268Y-93450000D01*
X152607500Y-93450000D01*
X153357500Y-93450000D01*
X153357500Y-92475000D01*
X153857500Y-92475000D01*
X153857500Y-94924999D01*
X153907472Y-94924999D01*
X153907486Y-94924998D01*
X154010197Y-94914505D01*
X154176619Y-94859358D01*
X154176624Y-94859356D01*
X154325845Y-94767315D01*
X154449815Y-94643345D01*
X154541856Y-94494124D01*
X154541859Y-94494117D01*
X154572430Y-94401860D01*
X154612202Y-94344415D01*
X154676718Y-94317591D01*
X154745494Y-94329906D01*
X154796694Y-94377448D01*
X154806318Y-94397529D01*
X154813703Y-94417329D01*
X154813706Y-94417335D01*
X154899952Y-94532544D01*
X154899955Y-94532547D01*
X155015164Y-94618793D01*
X155015171Y-94618797D01*
X155059590Y-94635364D01*
X155150017Y-94669091D01*
X155209627Y-94675500D01*
X155805372Y-94675499D01*
X155864983Y-94669091D01*
X155999831Y-94618796D01*
X156115046Y-94532546D01*
X156201296Y-94417331D01*
X156251591Y-94282483D01*
X156258000Y-94222873D01*
X156257999Y-93177128D01*
X156251591Y-93117517D01*
X156241532Y-93090548D01*
X156201297Y-92982671D01*
X156201293Y-92982664D01*
X156115047Y-92867455D01*
X156115044Y-92867452D01*
X155999835Y-92781206D01*
X155999828Y-92781202D01*
X155864986Y-92730910D01*
X155864985Y-92730909D01*
X155864983Y-92730909D01*
X155805373Y-92724500D01*
X155805363Y-92724500D01*
X155209629Y-92724500D01*
X155209623Y-92724501D01*
X155150016Y-92730908D01*
X155015171Y-92781202D01*
X155015164Y-92781206D01*
X154899955Y-92867452D01*
X154899952Y-92867455D01*
X154813706Y-92982664D01*
X154813701Y-92982674D01*
X154806317Y-93002471D01*
X154764445Y-93058404D01*
X154698980Y-93082820D01*
X154630707Y-93067967D01*
X154581303Y-93018561D01*
X154572430Y-92998140D01*
X154541858Y-92905880D01*
X154541856Y-92905875D01*
X154449815Y-92756654D01*
X154325845Y-92632684D01*
X154176624Y-92540643D01*
X154176619Y-92540641D01*
X154010197Y-92485494D01*
X154010190Y-92485493D01*
X153907486Y-92475000D01*
X153857500Y-92475000D01*
X153357500Y-92475000D01*
X153357499Y-92474999D01*
X153307529Y-92475000D01*
X153307511Y-92475001D01*
X153204802Y-92485494D01*
X153038380Y-92540641D01*
X153038375Y-92540643D01*
X152889154Y-92632684D01*
X152765184Y-92756654D01*
X152673143Y-92905875D01*
X152673141Y-92905880D01*
X152617994Y-93072302D01*
X152617993Y-93072309D01*
X152607500Y-93175013D01*
X152607500Y-93450000D01*
X151316268Y-93450000D01*
X151282547Y-93404955D01*
X151282544Y-93404952D01*
X151167335Y-93318706D01*
X151167328Y-93318702D01*
X151032482Y-93268408D01*
X151032483Y-93268408D01*
X150972883Y-93262001D01*
X150972881Y-93262000D01*
X150972873Y-93262000D01*
X150972864Y-93262000D01*
X149977129Y-93262000D01*
X149977123Y-93262001D01*
X149917516Y-93268408D01*
X149782671Y-93318702D01*
X149782664Y-93318706D01*
X149667455Y-93404952D01*
X149667452Y-93404955D01*
X149581206Y-93520164D01*
X149581202Y-93520171D01*
X149530910Y-93655013D01*
X149530909Y-93655017D01*
X149524500Y-93714627D01*
X149524500Y-93714634D01*
X149524500Y-93714635D01*
X149524500Y-94335370D01*
X148225499Y-94335370D01*
X148225499Y-93980982D01*
X148210646Y-93887196D01*
X148153050Y-93774158D01*
X148153047Y-93774155D01*
X148153046Y-93774153D01*
X148149179Y-93768829D01*
X148125702Y-93703022D01*
X148125500Y-93695948D01*
X148125500Y-93079051D01*
X148145185Y-93012012D01*
X148149184Y-93006163D01*
X148153049Y-93000843D01*
X148153050Y-93000842D01*
X148210646Y-92887804D01*
X148210646Y-92887802D01*
X148210647Y-92887801D01*
X148225499Y-92794024D01*
X148225500Y-92794019D01*
X148225499Y-91705982D01*
X148210646Y-91612196D01*
X148153050Y-91499158D01*
X148153047Y-91499155D01*
X148153046Y-91499153D01*
X148149179Y-91493829D01*
X148125702Y-91428022D01*
X148125500Y-91420948D01*
X148125500Y-90462180D01*
X148145185Y-90395141D01*
X148175187Y-90362914D01*
X148282546Y-90282546D01*
X148368796Y-90167331D01*
X148419091Y-90032483D01*
X148425500Y-89972873D01*
X148425499Y-88927128D01*
X148419091Y-88867517D01*
X148397043Y-88808404D01*
X148368797Y-88732671D01*
X148368793Y-88732664D01*
X148282547Y-88617455D01*
X148282544Y-88617452D01*
X148167335Y-88531206D01*
X148167328Y-88531202D01*
X148032486Y-88480910D01*
X148032485Y-88480909D01*
X148032483Y-88480909D01*
X147972873Y-88474500D01*
X147972863Y-88474500D01*
X147377129Y-88474500D01*
X147377123Y-88474501D01*
X147317516Y-88480908D01*
X147182671Y-88531202D01*
X147182664Y-88531206D01*
X147067455Y-88617452D01*
X147067452Y-88617455D01*
X146981206Y-88732664D01*
X146981201Y-88732674D01*
X146973817Y-88752471D01*
X146931945Y-88808404D01*
X146866480Y-88832820D01*
X146798207Y-88817967D01*
X146748803Y-88768561D01*
X146739930Y-88748140D01*
X146709358Y-88655880D01*
X146709356Y-88655875D01*
X146617315Y-88506654D01*
X146493345Y-88382684D01*
X146344124Y-88290643D01*
X146344119Y-88290641D01*
X146177697Y-88235494D01*
X146177690Y-88235493D01*
X146074986Y-88225000D01*
X146025000Y-88225000D01*
X146025000Y-90674999D01*
X146074972Y-90674999D01*
X146074986Y-90674998D01*
X146177697Y-90664505D01*
X146344119Y-90609358D01*
X146344124Y-90609356D01*
X146493345Y-90517315D01*
X146617315Y-90393345D01*
X146709356Y-90244124D01*
X146709359Y-90244117D01*
X146739930Y-90151860D01*
X146779702Y-90094415D01*
X146844218Y-90067591D01*
X146912994Y-90079906D01*
X146964194Y-90127448D01*
X146973818Y-90147529D01*
X146981203Y-90167329D01*
X146981206Y-90167335D01*
X147038691Y-90244124D01*
X147067454Y-90282546D01*
X147174811Y-90362914D01*
X147216682Y-90418847D01*
X147224500Y-90462180D01*
X147224500Y-90997010D01*
X147204815Y-91064049D01*
X147152011Y-91109804D01*
X147082853Y-91119748D01*
X147065905Y-91116086D01*
X146977494Y-91090400D01*
X146977497Y-91090400D01*
X146975000Y-91090203D01*
X146975000Y-93409794D01*
X146975001Y-93409795D01*
X146977488Y-93409600D01*
X146977494Y-93409599D01*
X147065905Y-93383913D01*
X147135774Y-93384112D01*
X147194444Y-93422054D01*
X147223288Y-93485692D01*
X147224500Y-93502989D01*
X147224500Y-93695948D01*
X147204815Y-93762987D01*
X147200821Y-93768829D01*
X147196953Y-93774153D01*
X147139352Y-93887198D01*
X147124500Y-93980975D01*
X147124500Y-94387033D01*
X147104815Y-94454072D01*
X147088181Y-94474714D01*
X146537180Y-95025715D01*
X146475857Y-95059200D01*
X146406165Y-95054216D01*
X146350232Y-95012344D01*
X146325815Y-94946880D01*
X146325499Y-94938052D01*
X146325499Y-94723773D01*
X146333558Y-94679802D01*
X146361236Y-94606823D01*
X146361236Y-94606820D01*
X146361235Y-94606820D01*
X146361237Y-94606818D01*
X146380278Y-94450000D01*
X146361237Y-94293182D01*
X146334576Y-94222883D01*
X146333557Y-94220195D01*
X146325499Y-94176224D01*
X146325499Y-93980982D01*
X146321387Y-93955017D01*
X146310646Y-93887196D01*
X146253050Y-93774158D01*
X146253046Y-93774154D01*
X146253045Y-93774152D01*
X146163347Y-93684454D01*
X146163344Y-93684452D01*
X146163342Y-93684450D01*
X146086517Y-93645305D01*
X146050301Y-93626852D01*
X145956524Y-93612000D01*
X145593482Y-93612000D01*
X145512519Y-93624823D01*
X145499696Y-93626854D01*
X145386658Y-93684450D01*
X145386657Y-93684450D01*
X145386657Y-93684451D01*
X145386652Y-93684454D01*
X145296954Y-93774152D01*
X145296951Y-93774157D01*
X145239352Y-93887198D01*
X145224500Y-93980975D01*
X145224500Y-93991342D01*
X145204815Y-94058381D01*
X145202550Y-94061782D01*
X145144781Y-94145475D01*
X145144780Y-94145476D01*
X145088762Y-94293181D01*
X145069722Y-94449999D01*
X145069722Y-94450000D01*
X145088762Y-94606818D01*
X145144780Y-94754523D01*
X145144781Y-94754524D01*
X145202550Y-94838218D01*
X145224433Y-94904573D01*
X145224500Y-94908657D01*
X145224500Y-95069017D01*
X145227507Y-95088000D01*
X145239354Y-95162804D01*
X145268093Y-95219208D01*
X145280989Y-95287874D01*
X145254713Y-95352614D01*
X145197607Y-95392872D01*
X145157608Y-95399500D01*
X143530217Y-95399500D01*
X143463178Y-95379815D01*
X143417423Y-95327011D01*
X143407479Y-95257853D01*
X143430950Y-95201189D01*
X143433539Y-95197729D01*
X143456296Y-95167331D01*
X143506591Y-95032483D01*
X143513000Y-94972873D01*
X143512999Y-93927128D01*
X143506591Y-93867517D01*
X143488931Y-93820169D01*
X143456297Y-93732671D01*
X143456293Y-93732664D01*
X143370047Y-93617455D01*
X143370044Y-93617452D01*
X143254835Y-93531206D01*
X143254828Y-93531202D01*
X143119986Y-93480910D01*
X143119985Y-93480909D01*
X143119983Y-93480909D01*
X143060373Y-93474500D01*
X143060363Y-93474500D01*
X142464629Y-93474500D01*
X142464623Y-93474501D01*
X142405016Y-93480908D01*
X142270171Y-93531202D01*
X142270164Y-93531206D01*
X142154955Y-93617452D01*
X142154952Y-93617455D01*
X142068706Y-93732664D01*
X142068701Y-93732674D01*
X142061317Y-93752471D01*
X142019445Y-93808404D01*
X141953980Y-93832820D01*
X141885707Y-93817967D01*
X141836303Y-93768561D01*
X141827430Y-93748140D01*
X141796858Y-93655880D01*
X141796856Y-93655875D01*
X141704815Y-93506654D01*
X141580845Y-93382684D01*
X141431624Y-93290643D01*
X141431619Y-93290641D01*
X141265197Y-93235494D01*
X141265190Y-93235493D01*
X141162486Y-93225000D01*
X141112500Y-93225000D01*
X141112500Y-94576000D01*
X141092815Y-94643039D01*
X141040011Y-94688794D01*
X140988500Y-94700000D01*
X139862501Y-94700000D01*
X139862501Y-94974986D01*
X139872994Y-95077697D01*
X139925615Y-95236496D01*
X139928017Y-95306324D01*
X139892285Y-95366366D01*
X139829765Y-95397559D01*
X139807909Y-95399500D01*
X138705217Y-95399500D01*
X138638178Y-95379815D01*
X138592423Y-95327011D01*
X138582479Y-95257853D01*
X138605950Y-95201189D01*
X138608539Y-95197729D01*
X138631296Y-95167331D01*
X138681591Y-95032483D01*
X138688000Y-94972873D01*
X138687999Y-94200000D01*
X139862500Y-94200000D01*
X140612500Y-94200000D01*
X140612500Y-93225000D01*
X140612499Y-93224999D01*
X140562529Y-93225000D01*
X140562511Y-93225001D01*
X140459802Y-93235494D01*
X140293380Y-93290641D01*
X140293375Y-93290643D01*
X140144154Y-93382684D01*
X140020184Y-93506654D01*
X139928143Y-93655875D01*
X139928141Y-93655880D01*
X139872994Y-93822302D01*
X139872993Y-93822309D01*
X139862500Y-93925013D01*
X139862500Y-94200000D01*
X138687999Y-94200000D01*
X138687999Y-93927128D01*
X138681591Y-93867517D01*
X138663931Y-93820169D01*
X138631297Y-93732671D01*
X138631293Y-93732664D01*
X138545047Y-93617455D01*
X138545044Y-93617452D01*
X138429835Y-93531206D01*
X138429828Y-93531202D01*
X138294986Y-93480910D01*
X138294985Y-93480909D01*
X138294983Y-93480909D01*
X138235373Y-93474500D01*
X138235363Y-93474500D01*
X137639629Y-93474500D01*
X137639623Y-93474501D01*
X137580016Y-93480908D01*
X137445171Y-93531202D01*
X137445164Y-93531206D01*
X137329955Y-93617452D01*
X137329952Y-93617455D01*
X137243706Y-93732664D01*
X137243701Y-93732674D01*
X137236317Y-93752471D01*
X137194445Y-93808404D01*
X137128980Y-93832820D01*
X137060707Y-93817967D01*
X137011303Y-93768561D01*
X137002430Y-93748140D01*
X136971858Y-93655880D01*
X136971856Y-93655875D01*
X136879815Y-93506654D01*
X136755845Y-93382684D01*
X136606624Y-93290643D01*
X136606619Y-93290641D01*
X136440197Y-93235494D01*
X136440190Y-93235493D01*
X136337486Y-93225000D01*
X136287500Y-93225000D01*
X136287500Y-94576000D01*
X136267815Y-94643039D01*
X136215011Y-94688794D01*
X136163500Y-94700000D01*
X135037501Y-94700000D01*
X135037501Y-94974986D01*
X135047994Y-95077697D01*
X135103141Y-95244119D01*
X135103143Y-95244124D01*
X135195184Y-95393346D01*
X135199661Y-95399007D01*
X135198009Y-95400313D01*
X135226511Y-95452510D01*
X135221527Y-95522202D01*
X135197977Y-95557389D01*
X135199598Y-95558682D01*
X135188013Y-95573208D01*
X135187362Y-95572688D01*
X135177967Y-95584928D01*
X134287680Y-96475215D01*
X134226357Y-96508700D01*
X134156665Y-96503716D01*
X134112320Y-96475216D01*
X132986818Y-95349713D01*
X132953333Y-95288391D01*
X132950499Y-95262040D01*
X132950499Y-95204474D01*
X132970184Y-95137437D01*
X133022988Y-95091682D01*
X133050135Y-95084236D01*
X133049932Y-95083376D01*
X133057479Y-95081592D01*
X133057481Y-95081591D01*
X133057483Y-95081591D01*
X133192331Y-95031296D01*
X133307546Y-94945046D01*
X133393796Y-94829831D01*
X133444091Y-94694983D01*
X133450500Y-94635373D01*
X133450499Y-94200000D01*
X135037500Y-94200000D01*
X135787500Y-94200000D01*
X135787500Y-93225000D01*
X135787499Y-93224999D01*
X135737529Y-93225000D01*
X135737511Y-93225001D01*
X135634802Y-93235494D01*
X135468380Y-93290641D01*
X135468375Y-93290643D01*
X135319154Y-93382684D01*
X135195184Y-93506654D01*
X135103143Y-93655875D01*
X135103141Y-93655880D01*
X135047994Y-93822302D01*
X135047993Y-93822309D01*
X135037500Y-93925013D01*
X135037500Y-94200000D01*
X133450499Y-94200000D01*
X133450499Y-94014628D01*
X133444091Y-93955017D01*
X133433689Y-93927129D01*
X133393797Y-93820171D01*
X133393793Y-93820164D01*
X133307547Y-93704955D01*
X133307544Y-93704952D01*
X133192335Y-93618706D01*
X133192328Y-93618702D01*
X133057482Y-93568408D01*
X133057483Y-93568408D01*
X132997883Y-93562001D01*
X132997881Y-93562000D01*
X132997873Y-93562000D01*
X132997864Y-93562000D01*
X132002129Y-93562000D01*
X132002123Y-93562001D01*
X131942516Y-93568408D01*
X131807671Y-93618702D01*
X131807664Y-93618706D01*
X131692455Y-93704952D01*
X131692452Y-93704955D01*
X131606206Y-93820164D01*
X131606202Y-93820171D01*
X131557780Y-93950000D01*
X131555909Y-93955017D01*
X131549500Y-94014627D01*
X131549500Y-94014634D01*
X131549500Y-94014635D01*
X131549500Y-94635370D01*
X131549501Y-94635376D01*
X131555908Y-94694983D01*
X131606202Y-94829828D01*
X131606206Y-94829835D01*
X131692452Y-94945044D01*
X131692455Y-94945047D01*
X131807664Y-95031293D01*
X131807671Y-95031297D01*
X131942517Y-95081591D01*
X131950062Y-95083374D01*
X131949524Y-95085650D01*
X132003289Y-95107910D01*
X132043147Y-95165296D01*
X132049499Y-95204475D01*
X132049499Y-95471217D01*
X132049109Y-95478163D01*
X132044729Y-95517037D01*
X132055571Y-95574335D01*
X132055959Y-95576619D01*
X132064652Y-95634291D01*
X132067162Y-95642427D01*
X132069976Y-95650470D01*
X132097229Y-95702036D01*
X132098274Y-95704105D01*
X132123574Y-95756642D01*
X132128362Y-95763665D01*
X132133431Y-95770532D01*
X132133434Y-95770538D01*
X132133438Y-95770542D01*
X132174666Y-95811770D01*
X132176275Y-95813440D01*
X132215947Y-95856196D01*
X132223210Y-95861988D01*
X132222689Y-95862641D01*
X132234930Y-95872034D01*
X132980351Y-96617455D01*
X133713181Y-97350284D01*
X133746666Y-97411607D01*
X133749500Y-97437965D01*
X133749500Y-97997596D01*
X133729815Y-98064635D01*
X133677011Y-98110390D01*
X133607853Y-98120334D01*
X133556611Y-98100699D01*
X133484919Y-98052797D01*
X133484918Y-98052796D01*
X133484914Y-98052795D01*
X133411856Y-98038263D01*
X133411853Y-98038263D01*
X131662505Y-98038263D01*
X131662502Y-98038263D01*
X131589443Y-98052795D01*
X131589439Y-98052796D01*
X131506578Y-98108162D01*
X131451212Y-98191023D01*
X131451211Y-98191027D01*
X131436679Y-98264084D01*
X131436679Y-100013441D01*
X131451211Y-100086498D01*
X131451212Y-100086502D01*
X131461212Y-100101468D01*
X131506578Y-100169364D01*
X131552429Y-100200000D01*
X131589439Y-100224729D01*
X131589443Y-100224730D01*
X131662500Y-100239262D01*
X131662503Y-100239263D01*
X131662505Y-100239263D01*
X133411855Y-100239263D01*
X133411856Y-100239262D01*
X133484919Y-100224729D01*
X133556612Y-100176826D01*
X133623286Y-100155949D01*
X133690667Y-100174433D01*
X133737357Y-100226412D01*
X133749500Y-100279929D01*
X133749500Y-101117277D01*
X133729815Y-101184316D01*
X133677011Y-101230071D01*
X133607853Y-101240015D01*
X133544297Y-101210990D01*
X133514500Y-101172549D01*
X133492042Y-101127448D01*
X133476852Y-101096942D01*
X133384755Y-100974986D01*
X133353941Y-100934181D01*
X133203220Y-100796782D01*
X133203218Y-100796780D01*
X133029821Y-100689418D01*
X133029814Y-100689414D01*
X132934725Y-100652577D01*
X132839635Y-100615739D01*
X132639155Y-100578263D01*
X132435203Y-100578263D01*
X132234723Y-100615739D01*
X132234720Y-100615739D01*
X132234720Y-100615740D01*
X132044543Y-100689414D01*
X132044536Y-100689418D01*
X131871139Y-100796780D01*
X131871137Y-100796782D01*
X131720416Y-100934181D01*
X131597506Y-101096941D01*
X131506603Y-101279499D01*
X131506596Y-101279515D01*
X131450781Y-101475680D01*
X131431964Y-101678762D01*
X131431964Y-101678763D01*
X131450781Y-101881845D01*
X131506596Y-102078010D01*
X131506601Y-102078023D01*
X131597506Y-102260584D01*
X131720416Y-102423344D01*
X131871137Y-102560743D01*
X131871139Y-102560745D01*
X131939500Y-102603072D01*
X132044542Y-102668111D01*
X132125462Y-102699459D01*
X132180864Y-102742032D01*
X132204455Y-102807798D01*
X132188744Y-102875879D01*
X132138721Y-102924658D01*
X132112765Y-102934860D01*
X132073698Y-102945328D01*
X132073686Y-102945333D01*
X131859601Y-103045162D01*
X131859599Y-103045163D01*
X131666105Y-103180649D01*
X131666099Y-103180654D01*
X131499070Y-103347683D01*
X131499065Y-103347689D01*
X131363579Y-103541183D01*
X131363578Y-103541185D01*
X131263749Y-103755270D01*
X131263746Y-103755276D01*
X131206543Y-103968762D01*
X131206543Y-103968763D01*
X132103493Y-103968763D01*
X132077686Y-104008919D01*
X132037179Y-104146874D01*
X132037179Y-104290652D01*
X132077686Y-104428607D01*
X132103493Y-104468763D01*
X131206543Y-104468763D01*
X131263746Y-104682249D01*
X131263749Y-104682255D01*
X131363578Y-104896341D01*
X131499073Y-105089845D01*
X131666096Y-105256868D01*
X131852210Y-105387188D01*
X131895835Y-105441766D01*
X131903027Y-105511264D01*
X131871505Y-105573619D01*
X131852210Y-105590338D01*
X131666101Y-105720653D01*
X131666099Y-105720654D01*
X131499070Y-105887683D01*
X131499065Y-105887689D01*
X131363579Y-106081183D01*
X131363578Y-106081185D01*
X131263749Y-106295270D01*
X131263746Y-106295276D01*
X131206543Y-106508762D01*
X131206543Y-106508763D01*
X132103493Y-106508763D01*
X132077686Y-106548919D01*
X132037179Y-106686874D01*
X132037179Y-106830652D01*
X132077686Y-106968607D01*
X132103493Y-107008763D01*
X131206543Y-107008763D01*
X130100500Y-107008763D01*
X130100500Y-88275000D01*
X131300000Y-88275000D01*
X131300000Y-88318315D01*
X131310407Y-88420173D01*
X131365094Y-88585209D01*
X131365096Y-88585214D01*
X131456370Y-88733191D01*
X131579308Y-88856129D01*
X131727285Y-88947403D01*
X131727290Y-88947405D01*
X131817965Y-88977452D01*
X131875410Y-89017225D01*
X131902233Y-89081740D01*
X131889918Y-89150516D01*
X131842375Y-89201716D01*
X131822297Y-89211339D01*
X131804444Y-89217997D01*
X131690669Y-89303169D01*
X131605498Y-89416943D01*
X131555828Y-89550112D01*
X131549500Y-89608962D01*
X131549500Y-90191017D01*
X131549501Y-90191026D01*
X131555828Y-90249891D01*
X131597985Y-90362913D01*
X131605497Y-90383054D01*
X131690669Y-90496831D01*
X131804446Y-90582003D01*
X131937609Y-90631671D01*
X131938752Y-90631793D01*
X131939579Y-90632136D01*
X131945159Y-90633455D01*
X131944945Y-90634358D01*
X132003303Y-90658529D01*
X132043153Y-90715919D01*
X132049500Y-90755083D01*
X132049500Y-91620523D01*
X132029815Y-91687562D01*
X131977011Y-91733317D01*
X131949865Y-91740766D01*
X131950068Y-91741624D01*
X131942520Y-91743407D01*
X131807671Y-91793702D01*
X131807664Y-91793706D01*
X131692455Y-91879952D01*
X131692452Y-91879955D01*
X131606206Y-91995164D01*
X131606202Y-91995171D01*
X131555910Y-92130013D01*
X131555909Y-92130017D01*
X131549500Y-92189627D01*
X131549500Y-92189634D01*
X131549500Y-92189635D01*
X131549500Y-92810370D01*
X131549501Y-92810376D01*
X131555908Y-92869983D01*
X131606202Y-93004828D01*
X131606206Y-93004835D01*
X131692452Y-93120044D01*
X131692455Y-93120047D01*
X131807664Y-93206293D01*
X131807671Y-93206297D01*
X131942517Y-93256591D01*
X131942516Y-93256591D01*
X131949444Y-93257335D01*
X132002127Y-93263000D01*
X132997872Y-93262999D01*
X133057483Y-93256591D01*
X133192331Y-93206296D01*
X133307546Y-93120046D01*
X133393796Y-93004831D01*
X133444091Y-92869983D01*
X133450500Y-92810373D01*
X133450499Y-92189628D01*
X133444091Y-92130017D01*
X133432895Y-92100000D01*
X133393797Y-91995171D01*
X133393793Y-91995164D01*
X133307547Y-91879955D01*
X133307544Y-91879952D01*
X133302457Y-91876144D01*
X135237000Y-91876144D01*
X135243009Y-91932024D01*
X135290162Y-92058447D01*
X135290164Y-92058450D01*
X135371028Y-92166472D01*
X135479049Y-92247335D01*
X135479052Y-92247337D01*
X135486192Y-92250000D01*
X135605478Y-92294491D01*
X135634818Y-92297645D01*
X135661355Y-92300499D01*
X135661370Y-92300500D01*
X136188630Y-92300500D01*
X136188644Y-92300499D01*
X136210523Y-92298146D01*
X136244522Y-92294491D01*
X136370950Y-92247336D01*
X136478972Y-92166472D01*
X136559836Y-92058450D01*
X136606991Y-91932022D01*
X136611549Y-91889627D01*
X136612999Y-91876144D01*
X137362000Y-91876144D01*
X137368009Y-91932024D01*
X137415162Y-92058447D01*
X137415164Y-92058450D01*
X137496028Y-92166472D01*
X137604049Y-92247335D01*
X137604052Y-92247337D01*
X137611192Y-92250000D01*
X137730478Y-92294491D01*
X137759818Y-92297645D01*
X137786355Y-92300499D01*
X137786370Y-92300500D01*
X138313630Y-92300500D01*
X138313644Y-92300499D01*
X138335523Y-92298146D01*
X138369522Y-92294491D01*
X138495950Y-92247336D01*
X138603972Y-92166472D01*
X138684836Y-92058450D01*
X138731991Y-91932022D01*
X138736549Y-91889627D01*
X138737999Y-91876144D01*
X138738000Y-91876129D01*
X138738000Y-91690813D01*
X138746058Y-91646842D01*
X138761237Y-91606818D01*
X138780278Y-91450000D01*
X138780278Y-91449999D01*
X138766854Y-91339445D01*
X138761237Y-91293182D01*
X138746057Y-91253157D01*
X138738000Y-91209187D01*
X138738000Y-91023870D01*
X138737999Y-91023855D01*
X138735112Y-90997010D01*
X138731991Y-90967978D01*
X138684836Y-90841550D01*
X138603972Y-90733528D01*
X138495950Y-90652664D01*
X138495947Y-90652662D01*
X138369524Y-90605509D01*
X138313644Y-90599500D01*
X138313630Y-90599500D01*
X137786370Y-90599500D01*
X137786355Y-90599500D01*
X137730475Y-90605509D01*
X137604052Y-90652662D01*
X137604049Y-90652664D01*
X137496028Y-90733528D01*
X137415164Y-90841549D01*
X137415162Y-90841552D01*
X137368009Y-90967975D01*
X137362000Y-91023855D01*
X137362000Y-91876144D01*
X136612999Y-91876144D01*
X136613000Y-91876129D01*
X136613000Y-91023870D01*
X136612999Y-91023855D01*
X136610112Y-90997010D01*
X136606991Y-90967978D01*
X136559836Y-90841550D01*
X136478972Y-90733528D01*
X136370950Y-90652664D01*
X136370947Y-90652662D01*
X136244524Y-90605509D01*
X136188644Y-90599500D01*
X136188630Y-90599500D01*
X135661370Y-90599500D01*
X135661355Y-90599500D01*
X135605475Y-90605509D01*
X135479052Y-90652662D01*
X135479049Y-90652664D01*
X135371028Y-90733528D01*
X135290164Y-90841549D01*
X135290162Y-90841552D01*
X135243009Y-90967975D01*
X135237000Y-91023855D01*
X135237000Y-91876144D01*
X133302457Y-91876144D01*
X133192335Y-91793706D01*
X133192328Y-91793702D01*
X133057482Y-91743408D01*
X133049938Y-91741626D01*
X133050474Y-91739353D01*
X132996690Y-91717073D01*
X132956843Y-91659680D01*
X132950500Y-91620530D01*
X132950500Y-90755080D01*
X132970184Y-90688045D01*
X133022988Y-90642290D01*
X133054861Y-90633546D01*
X133054840Y-90633456D01*
X133057369Y-90632858D01*
X133061249Y-90631794D01*
X133062391Y-90631671D01*
X133062394Y-90631670D01*
X133195554Y-90582003D01*
X133309331Y-90496831D01*
X133394503Y-90383054D01*
X133444171Y-90249891D01*
X133449057Y-90204443D01*
X133450499Y-90191037D01*
X133450499Y-90191026D01*
X133450500Y-90191021D01*
X133450499Y-89608980D01*
X133444171Y-89550109D01*
X133431332Y-89515688D01*
X133409346Y-89456742D01*
X133394503Y-89416946D01*
X133309331Y-89303169D01*
X133195554Y-89217997D01*
X133195553Y-89217996D01*
X133195554Y-89217996D01*
X133177704Y-89211339D01*
X133121770Y-89169468D01*
X133097354Y-89104003D01*
X133112206Y-89035730D01*
X133161612Y-88986325D01*
X133182034Y-88977452D01*
X133272709Y-88947405D01*
X133272714Y-88947403D01*
X133420691Y-88856129D01*
X133543629Y-88733191D01*
X133634903Y-88585214D01*
X133634905Y-88585209D01*
X133689592Y-88420173D01*
X133699999Y-88318315D01*
X133700000Y-88318302D01*
X133700000Y-88275000D01*
X131300000Y-88275000D01*
X130100500Y-88275000D01*
X130100500Y-87774999D01*
X131299999Y-87774999D01*
X131300000Y-87775000D01*
X132250000Y-87775000D01*
X132250000Y-87037500D01*
X132750000Y-87037500D01*
X132750000Y-87775000D01*
X133699999Y-87775000D01*
X133700000Y-87731697D01*
X133699999Y-87731684D01*
X133689592Y-87629826D01*
X133634905Y-87464790D01*
X133634903Y-87464785D01*
X133543629Y-87316808D01*
X133420691Y-87193870D01*
X133272714Y-87102596D01*
X133272709Y-87102594D01*
X133107673Y-87047907D01*
X133005815Y-87037500D01*
X132750000Y-87037500D01*
X132250000Y-87037500D01*
X131994184Y-87037500D01*
X131892326Y-87047907D01*
X131727290Y-87102594D01*
X131727285Y-87102596D01*
X131579308Y-87193870D01*
X131456370Y-87316808D01*
X131365096Y-87464785D01*
X131365094Y-87464790D01*
X131310407Y-87629826D01*
X131300000Y-87731684D01*
X131300000Y-87731697D01*
X131299999Y-87774999D01*
X130100500Y-87774999D01*
X130100500Y-76200000D01*
X135854785Y-76200000D01*
X135873602Y-76403082D01*
X135929417Y-76599247D01*
X135929422Y-76599260D01*
X136020327Y-76781821D01*
X136143237Y-76944581D01*
X136293958Y-77081980D01*
X136293960Y-77081982D01*
X136304158Y-77088296D01*
X136450777Y-77179078D01*
X136497413Y-77231105D01*
X136509500Y-77284505D01*
X136509500Y-87656217D01*
X136509110Y-87663155D01*
X136507502Y-87677430D01*
X136504729Y-87702036D01*
X136515571Y-87759335D01*
X136515959Y-87761619D01*
X136524652Y-87819291D01*
X136527162Y-87827427D01*
X136529976Y-87835470D01*
X136557229Y-87887036D01*
X136558274Y-87889105D01*
X136583574Y-87941642D01*
X136588383Y-87948696D01*
X136593432Y-87955536D01*
X136593433Y-87955537D01*
X136593434Y-87955538D01*
X136634691Y-87996794D01*
X136636275Y-87998439D01*
X136675944Y-88041193D01*
X136683207Y-88046985D01*
X136682685Y-88047638D01*
X136694930Y-88057034D01*
X140036952Y-91399055D01*
X140070437Y-91460378D01*
X140072367Y-91471789D01*
X140088763Y-91606819D01*
X140103942Y-91646842D01*
X140112000Y-91690813D01*
X140112000Y-91876144D01*
X140118009Y-91932024D01*
X140165162Y-92058447D01*
X140165164Y-92058450D01*
X140246028Y-92166472D01*
X140354049Y-92247335D01*
X140354052Y-92247337D01*
X140361192Y-92250000D01*
X140480478Y-92294491D01*
X140509818Y-92297645D01*
X140536355Y-92300499D01*
X140536370Y-92300500D01*
X141063630Y-92300500D01*
X141063644Y-92300499D01*
X141085523Y-92298146D01*
X141119522Y-92294491D01*
X141245950Y-92247336D01*
X141353972Y-92166472D01*
X141434836Y-92058450D01*
X141481991Y-91932022D01*
X141486549Y-91889627D01*
X141487999Y-91876144D01*
X142237000Y-91876144D01*
X142243009Y-91932024D01*
X142290162Y-92058447D01*
X142290164Y-92058450D01*
X142371028Y-92166472D01*
X142479049Y-92247335D01*
X142479052Y-92247337D01*
X142486192Y-92250000D01*
X142605478Y-92294491D01*
X142634818Y-92297645D01*
X142661355Y-92300499D01*
X142661370Y-92300500D01*
X143188630Y-92300500D01*
X143188644Y-92300499D01*
X143210523Y-92298146D01*
X143244522Y-92294491D01*
X143363808Y-92250000D01*
X145069722Y-92250000D01*
X145088762Y-92406818D01*
X145128036Y-92510373D01*
X145144780Y-92554523D01*
X145155453Y-92569986D01*
X145202550Y-92638218D01*
X145224433Y-92704573D01*
X145224500Y-92708657D01*
X145224500Y-92794017D01*
X145228623Y-92820046D01*
X145239354Y-92887804D01*
X145296950Y-93000842D01*
X145296952Y-93000844D01*
X145296954Y-93000847D01*
X145386652Y-93090545D01*
X145386654Y-93090546D01*
X145386658Y-93090550D01*
X145499696Y-93148146D01*
X145499698Y-93148147D01*
X145593475Y-93162999D01*
X145593481Y-93163000D01*
X145956518Y-93162999D01*
X145980218Y-93159245D01*
X146049509Y-93168198D01*
X146087299Y-93194037D01*
X146173442Y-93280181D01*
X146173447Y-93280185D01*
X146314801Y-93363781D01*
X146472514Y-93409600D01*
X146472511Y-93409600D01*
X146474998Y-93409795D01*
X146475000Y-93409794D01*
X146475000Y-91090203D01*
X146472503Y-91090400D01*
X146314806Y-91136216D01*
X146314803Y-91136217D01*
X146173447Y-91219814D01*
X146173442Y-91219818D01*
X146087299Y-91305961D01*
X146025975Y-91339445D01*
X145980225Y-91340753D01*
X145956523Y-91337000D01*
X145593482Y-91337000D01*
X145512519Y-91349823D01*
X145499696Y-91351854D01*
X145386658Y-91409450D01*
X145386656Y-91409450D01*
X145386657Y-91409451D01*
X145386652Y-91409454D01*
X145296954Y-91499152D01*
X145296951Y-91499157D01*
X145296950Y-91499158D01*
X145290303Y-91512204D01*
X145239352Y-91612198D01*
X145224500Y-91705975D01*
X145224500Y-91791342D01*
X145204815Y-91858381D01*
X145202550Y-91861782D01*
X145144781Y-91945475D01*
X145144780Y-91945476D01*
X145088762Y-92093181D01*
X145069722Y-92249999D01*
X145069722Y-92250000D01*
X143363808Y-92250000D01*
X143370950Y-92247336D01*
X143478972Y-92166472D01*
X143559836Y-92058450D01*
X143606991Y-91932022D01*
X143611549Y-91889627D01*
X143612999Y-91876144D01*
X143613000Y-91876129D01*
X143613000Y-91023870D01*
X143612999Y-91023855D01*
X143610112Y-90997010D01*
X143606991Y-90967978D01*
X143559836Y-90841550D01*
X143478972Y-90733528D01*
X143370950Y-90652664D01*
X143370947Y-90652662D01*
X143244524Y-90605509D01*
X143188644Y-90599500D01*
X143188630Y-90599500D01*
X142661370Y-90599500D01*
X142661355Y-90599500D01*
X142605475Y-90605509D01*
X142479052Y-90652662D01*
X142479049Y-90652664D01*
X142371028Y-90733528D01*
X142290164Y-90841549D01*
X142290162Y-90841552D01*
X142243009Y-90967975D01*
X142237000Y-91023855D01*
X142237000Y-91876144D01*
X141487999Y-91876144D01*
X141488000Y-91876129D01*
X141488000Y-91023870D01*
X141487999Y-91023855D01*
X141485112Y-90997010D01*
X141481991Y-90967978D01*
X141434836Y-90841550D01*
X141353972Y-90733528D01*
X141245950Y-90652664D01*
X141245947Y-90652662D01*
X141119524Y-90605509D01*
X141063644Y-90599500D01*
X141063630Y-90599500D01*
X140562966Y-90599500D01*
X140495927Y-90579815D01*
X140475285Y-90563181D01*
X139612104Y-89700000D01*
X144775001Y-89700000D01*
X144775001Y-89974986D01*
X144785494Y-90077697D01*
X144840641Y-90244119D01*
X144840643Y-90244124D01*
X144932684Y-90393345D01*
X145056654Y-90517315D01*
X145205875Y-90609356D01*
X145205880Y-90609358D01*
X145372302Y-90664505D01*
X145372309Y-90664506D01*
X145475019Y-90674999D01*
X145524999Y-90674998D01*
X145525000Y-90674998D01*
X145525000Y-89700000D01*
X144775001Y-89700000D01*
X139612104Y-89700000D01*
X139112104Y-89200000D01*
X144775000Y-89200000D01*
X145525000Y-89200000D01*
X145525000Y-88225000D01*
X145524999Y-88224999D01*
X145475029Y-88225000D01*
X145475011Y-88225001D01*
X145372302Y-88235494D01*
X145205880Y-88290641D01*
X145205875Y-88290643D01*
X145056654Y-88382684D01*
X144932684Y-88506654D01*
X144840643Y-88655875D01*
X144840641Y-88655880D01*
X144785494Y-88822302D01*
X144785493Y-88822309D01*
X144775000Y-88925013D01*
X144775000Y-89200000D01*
X139112104Y-89200000D01*
X137446819Y-87534715D01*
X137413334Y-87473392D01*
X137410500Y-87447034D01*
X137410500Y-77284505D01*
X137430185Y-77217466D01*
X137469221Y-77179079D01*
X137626041Y-77081981D01*
X137634054Y-77074676D01*
X138399499Y-77074676D01*
X138399500Y-77074678D01*
X138414032Y-77147735D01*
X138414033Y-77147739D01*
X138424468Y-77163356D01*
X138469399Y-77230601D01*
X138540302Y-77277976D01*
X138552260Y-77285966D01*
X138552264Y-77285967D01*
X138625321Y-77300499D01*
X138625324Y-77300500D01*
X138625326Y-77300500D01*
X140374676Y-77300500D01*
X140374677Y-77300499D01*
X140447740Y-77285966D01*
X140530601Y-77230601D01*
X140585966Y-77147740D01*
X140600499Y-77074678D01*
X142274500Y-77074678D01*
X142289032Y-77147735D01*
X142289033Y-77147739D01*
X142299468Y-77163356D01*
X142344399Y-77230601D01*
X142415302Y-77277976D01*
X142427260Y-77285966D01*
X142427264Y-77285967D01*
X142500321Y-77300499D01*
X142500324Y-77300500D01*
X142500326Y-77300500D01*
X142900500Y-77300500D01*
X142967539Y-77320185D01*
X143013294Y-77372989D01*
X143024500Y-77424500D01*
X143024500Y-86325788D01*
X143021861Y-86351232D01*
X143019957Y-86360311D01*
X143019957Y-86360317D01*
X143024023Y-86392937D01*
X143024500Y-86400614D01*
X143024500Y-86404040D01*
X143027232Y-86420420D01*
X143027876Y-86424276D01*
X143028245Y-86426808D01*
X143034427Y-86476393D01*
X143036520Y-86483426D01*
X143038907Y-86490379D01*
X143038908Y-86490381D01*
X143046608Y-86504609D01*
X143062691Y-86534330D01*
X143063864Y-86536608D01*
X143085802Y-86581484D01*
X143085804Y-86581486D01*
X143090071Y-86587464D01*
X143094582Y-86593259D01*
X143131341Y-86627098D01*
X143133190Y-86628872D01*
X144217362Y-87713044D01*
X144233486Y-87732899D01*
X144238563Y-87740669D01*
X144264508Y-87760862D01*
X144270260Y-87765942D01*
X144272693Y-87768375D01*
X144289435Y-87780328D01*
X144291434Y-87781819D01*
X144330875Y-87812518D01*
X144337321Y-87816006D01*
X144343931Y-87819237D01*
X144343934Y-87819239D01*
X144391820Y-87833494D01*
X144394202Y-87834257D01*
X144441512Y-87850500D01*
X144441516Y-87850500D01*
X144448760Y-87851709D01*
X144456046Y-87852617D01*
X144505950Y-87850552D01*
X144508511Y-87850500D01*
X148103456Y-87850500D01*
X148170495Y-87870185D01*
X148191137Y-87886819D01*
X150088181Y-89783863D01*
X150121666Y-89845186D01*
X150124500Y-89871544D01*
X150124500Y-91313000D01*
X150104815Y-91380039D01*
X150052011Y-91425794D01*
X150000505Y-91437000D01*
X149977132Y-91437000D01*
X149977123Y-91437001D01*
X149917516Y-91443408D01*
X149782671Y-91493702D01*
X149782664Y-91493706D01*
X149667455Y-91579952D01*
X149667452Y-91579955D01*
X149581206Y-91695164D01*
X149581202Y-91695171D01*
X149534387Y-91820691D01*
X149530909Y-91830017D01*
X149524500Y-91889627D01*
X149524500Y-91889634D01*
X149524500Y-91889635D01*
X149524500Y-92510370D01*
X149524501Y-92510376D01*
X149530908Y-92569983D01*
X149581202Y-92704828D01*
X149581206Y-92704835D01*
X149667452Y-92820044D01*
X149667455Y-92820047D01*
X149782664Y-92906293D01*
X149782671Y-92906297D01*
X149917517Y-92956591D01*
X149917516Y-92956591D01*
X149924444Y-92957335D01*
X149977127Y-92963000D01*
X150972872Y-92962999D01*
X151032483Y-92956591D01*
X151167331Y-92906296D01*
X151282546Y-92820046D01*
X151368796Y-92704831D01*
X151419091Y-92569983D01*
X151425500Y-92510373D01*
X151425499Y-91889628D01*
X151419091Y-91830017D01*
X151405844Y-91794501D01*
X151368797Y-91695171D01*
X151368793Y-91695164D01*
X151282547Y-91579955D01*
X151282544Y-91579952D01*
X151167335Y-91493706D01*
X151167328Y-91493702D01*
X151032482Y-91443408D01*
X151032483Y-91443408D01*
X150972883Y-91437001D01*
X150972881Y-91437000D01*
X150972873Y-91437000D01*
X150972865Y-91437000D01*
X150949500Y-91437000D01*
X150882461Y-91417315D01*
X150870505Y-91403517D01*
X152869500Y-91403517D01*
X152869501Y-91403526D01*
X152875828Y-91462391D01*
X152918841Y-91577708D01*
X152925497Y-91595554D01*
X153010669Y-91709331D01*
X153101997Y-91777698D01*
X153123378Y-91793704D01*
X153124446Y-91794503D01*
X153257609Y-91844171D01*
X153316479Y-91850500D01*
X153898520Y-91850499D01*
X153957391Y-91844171D01*
X154090554Y-91794503D01*
X154204331Y-91709331D01*
X154289503Y-91595554D01*
X154296160Y-91577704D01*
X154338028Y-91521773D01*
X154403492Y-91497354D01*
X154471765Y-91512204D01*
X154521172Y-91561608D01*
X154530047Y-91582033D01*
X154560095Y-91672711D01*
X154560096Y-91672714D01*
X154651370Y-91820691D01*
X154774308Y-91943629D01*
X154922285Y-92034903D01*
X154922290Y-92034905D01*
X155087326Y-92089592D01*
X155189184Y-92099999D01*
X155189197Y-92100000D01*
X155232500Y-92100000D01*
X155232500Y-91150000D01*
X155732500Y-91150000D01*
X155732500Y-92100000D01*
X155775803Y-92100000D01*
X155775815Y-92099999D01*
X155877673Y-92089592D01*
X156042709Y-92034905D01*
X156042714Y-92034903D01*
X156190691Y-91943629D01*
X156313629Y-91820691D01*
X156404903Y-91672714D01*
X156404905Y-91672709D01*
X156459592Y-91507673D01*
X156469999Y-91405815D01*
X156470000Y-91405802D01*
X156470000Y-91150000D01*
X155732500Y-91150000D01*
X155232500Y-91150000D01*
X155232500Y-89700000D01*
X155732500Y-89700000D01*
X155732500Y-90650000D01*
X156470000Y-90650000D01*
X156470000Y-90394197D01*
X156469999Y-90394184D01*
X156459592Y-90292326D01*
X156404905Y-90127290D01*
X156404903Y-90127285D01*
X156313629Y-89979308D01*
X156190691Y-89856370D01*
X156042714Y-89765096D01*
X156042709Y-89765094D01*
X155877673Y-89710407D01*
X155775815Y-89700000D01*
X155732500Y-89700000D01*
X155232500Y-89700000D01*
X155189184Y-89700000D01*
X155087326Y-89710407D01*
X154922290Y-89765094D01*
X154922285Y-89765096D01*
X154774308Y-89856370D01*
X154651370Y-89979308D01*
X154560096Y-90127285D01*
X154560095Y-90127288D01*
X154530047Y-90217966D01*
X154490273Y-90275411D01*
X154425757Y-90302233D01*
X154356982Y-90289918D01*
X154305782Y-90242374D01*
X154296162Y-90222299D01*
X154289503Y-90204446D01*
X154204331Y-90090669D01*
X154126602Y-90032482D01*
X154090556Y-90005498D01*
X154090554Y-90005497D01*
X153957391Y-89955829D01*
X153957389Y-89955828D01*
X153957387Y-89955828D01*
X153898529Y-89949500D01*
X153316482Y-89949500D01*
X153316473Y-89949501D01*
X153257608Y-89955828D01*
X153124445Y-90005497D01*
X153010669Y-90090669D01*
X152925498Y-90204443D01*
X152875828Y-90337612D01*
X152869500Y-90396462D01*
X152869500Y-91403517D01*
X150870505Y-91403517D01*
X150836706Y-91364511D01*
X150825500Y-91313000D01*
X150825500Y-89724206D01*
X150828139Y-89698760D01*
X150830042Y-89689685D01*
X150827782Y-89671561D01*
X150825977Y-89657068D01*
X150825500Y-89649391D01*
X150825500Y-89645963D01*
X150825499Y-89645957D01*
X150822123Y-89625728D01*
X150821753Y-89623188D01*
X150819980Y-89608962D01*
X150815573Y-89573607D01*
X150815572Y-89573604D01*
X150813481Y-89566579D01*
X150811091Y-89559616D01*
X150787317Y-89515688D01*
X150786157Y-89513437D01*
X150772949Y-89486418D01*
X150764200Y-89468519D01*
X150759919Y-89462524D01*
X150755420Y-89456744D01*
X150755418Y-89456742D01*
X150718642Y-89422887D01*
X150716820Y-89421138D01*
X148582637Y-87286955D01*
X148566511Y-87267098D01*
X148561437Y-87259331D01*
X148535487Y-87239133D01*
X148529741Y-87234059D01*
X148527307Y-87231625D01*
X148510609Y-87219703D01*
X148508555Y-87218171D01*
X148477332Y-87193870D01*
X148469126Y-87187483D01*
X148469124Y-87187482D01*
X148462648Y-87183977D01*
X148456066Y-87180759D01*
X148408182Y-87166503D01*
X148405743Y-87165722D01*
X148358484Y-87149498D01*
X148351269Y-87148294D01*
X148343953Y-87147382D01*
X148295139Y-87149401D01*
X148294049Y-87149447D01*
X148291489Y-87149500D01*
X144696544Y-87149500D01*
X144629505Y-87129815D01*
X144608863Y-87113181D01*
X143761819Y-86266137D01*
X143728334Y-86204814D01*
X143725500Y-86178456D01*
X143725500Y-77424500D01*
X143745185Y-77357461D01*
X143797989Y-77311706D01*
X143849500Y-77300500D01*
X144249676Y-77300500D01*
X144249677Y-77300499D01*
X144322740Y-77285966D01*
X144405601Y-77230601D01*
X144460966Y-77147740D01*
X144475500Y-77074674D01*
X144475500Y-76200000D01*
X154334785Y-76200000D01*
X154353602Y-76403082D01*
X154409417Y-76599247D01*
X154409422Y-76599260D01*
X154500327Y-76781821D01*
X154623237Y-76944581D01*
X154773958Y-77081980D01*
X154773960Y-77081982D01*
X154784158Y-77088296D01*
X154947363Y-77189348D01*
X155137544Y-77263024D01*
X155338024Y-77300500D01*
X155338026Y-77300500D01*
X155541974Y-77300500D01*
X155541976Y-77300500D01*
X155742456Y-77263024D01*
X155756103Y-77257736D01*
X155825724Y-77251874D01*
X155887465Y-77284582D01*
X155888578Y-77285682D01*
X157513180Y-78910284D01*
X157546665Y-78971607D01*
X157549499Y-78997965D01*
X157549499Y-100034429D01*
X157529814Y-100101468D01*
X157477010Y-100147223D01*
X157407852Y-100157167D01*
X157344296Y-100128142D01*
X157318767Y-100097549D01*
X157292687Y-100053450D01*
X157292678Y-100053438D01*
X157176561Y-99937321D01*
X157176553Y-99937315D01*
X157133507Y-99911858D01*
X157085824Y-99860789D01*
X157073320Y-99792048D01*
X157098152Y-99731852D01*
X157097311Y-99731241D01*
X157099841Y-99727758D01*
X157099965Y-99727458D01*
X157100460Y-99726906D01*
X157103042Y-99723349D01*
X157103050Y-99723342D01*
X157160646Y-99610304D01*
X157160646Y-99610302D01*
X157160647Y-99610301D01*
X157175499Y-99516524D01*
X157175500Y-99516519D01*
X157175499Y-99153482D01*
X157160646Y-99059696D01*
X157103050Y-98946658D01*
X157103046Y-98946654D01*
X157103045Y-98946652D01*
X157013347Y-98856954D01*
X157013343Y-98856951D01*
X157013342Y-98856950D01*
X157010599Y-98855552D01*
X156922147Y-98810483D01*
X156871352Y-98762509D01*
X156854557Y-98694687D01*
X156877095Y-98628553D01*
X156922145Y-98589517D01*
X157013342Y-98543050D01*
X157103050Y-98453342D01*
X157160646Y-98340304D01*
X157160646Y-98340302D01*
X157160647Y-98340301D01*
X157175499Y-98246524D01*
X157175500Y-98246519D01*
X157175499Y-97883482D01*
X157160646Y-97789696D01*
X157103050Y-97676658D01*
X157103046Y-97676654D01*
X157103045Y-97676652D01*
X157013347Y-97586954D01*
X157013343Y-97586951D01*
X157013342Y-97586950D01*
X157010599Y-97585552D01*
X156922147Y-97540483D01*
X156871352Y-97492509D01*
X156854557Y-97424687D01*
X156877095Y-97358553D01*
X156922145Y-97319517D01*
X157013342Y-97273050D01*
X157103050Y-97183342D01*
X157160646Y-97070304D01*
X157160646Y-97070302D01*
X157160647Y-97070301D01*
X157175499Y-96976524D01*
X157175500Y-96976519D01*
X157175499Y-96613482D01*
X157160646Y-96519696D01*
X157103050Y-96406658D01*
X157103046Y-96406654D01*
X157103045Y-96406652D01*
X157013347Y-96316954D01*
X157013344Y-96316952D01*
X157013342Y-96316950D01*
X156929158Y-96274056D01*
X156900301Y-96259352D01*
X156806524Y-96244500D01*
X155093482Y-96244500D01*
X155012519Y-96257323D01*
X154999696Y-96259354D01*
X154886658Y-96316950D01*
X154886657Y-96316950D01*
X154886657Y-96316951D01*
X154886652Y-96316954D01*
X154796954Y-96406652D01*
X154796951Y-96406657D01*
X154796950Y-96406658D01*
X154781687Y-96436613D01*
X154739352Y-96519698D01*
X154724500Y-96613475D01*
X154724500Y-96976517D01*
X154735292Y-97044657D01*
X154739354Y-97070304D01*
X154796950Y-97183342D01*
X154796952Y-97183344D01*
X154796954Y-97183347D01*
X154886652Y-97273045D01*
X154886654Y-97273046D01*
X154886658Y-97273050D01*
X154977851Y-97319515D01*
X155028647Y-97367490D01*
X155045442Y-97435311D01*
X155022904Y-97501446D01*
X154977852Y-97540484D01*
X154886658Y-97586950D01*
X154886657Y-97586950D01*
X154886657Y-97586951D01*
X154886652Y-97586954D01*
X154796954Y-97676652D01*
X154796951Y-97676657D01*
X154739352Y-97789698D01*
X154724500Y-97883475D01*
X154724500Y-98246517D01*
X154733541Y-98303597D01*
X154739354Y-98340304D01*
X154796950Y-98453342D01*
X154796952Y-98453344D01*
X154796954Y-98453347D01*
X154886652Y-98543045D01*
X154886654Y-98543046D01*
X154886658Y-98543050D01*
X154977851Y-98589515D01*
X155028647Y-98637490D01*
X155045442Y-98705311D01*
X155022904Y-98771446D01*
X154977852Y-98810484D01*
X154886658Y-98856950D01*
X154886656Y-98856951D01*
X154886657Y-98856951D01*
X154886652Y-98856954D01*
X154796954Y-98946652D01*
X154796951Y-98946657D01*
X154739352Y-99059698D01*
X154724500Y-99153475D01*
X154724500Y-99516517D01*
X154727758Y-99537085D01*
X154739354Y-99610304D01*
X154796950Y-99723342D01*
X154796953Y-99723345D01*
X154802689Y-99731241D01*
X154799750Y-99733375D01*
X154824537Y-99778768D01*
X154819553Y-99848460D01*
X154777681Y-99904393D01*
X154766493Y-99911858D01*
X154723444Y-99937317D01*
X154723438Y-99937321D01*
X154607321Y-100053438D01*
X154607314Y-100053447D01*
X154523718Y-100194801D01*
X154477899Y-100352513D01*
X154477704Y-100354998D01*
X154477705Y-100355000D01*
X156076000Y-100355000D01*
X156143039Y-100374685D01*
X156188794Y-100427489D01*
X156200000Y-100479000D01*
X156200000Y-101405000D01*
X156840634Y-101405000D01*
X156840649Y-101404999D01*
X156877489Y-101402100D01*
X156877495Y-101402099D01*
X157035193Y-101356283D01*
X157035196Y-101356282D01*
X157176552Y-101272685D01*
X157176561Y-101272678D01*
X157292678Y-101156561D01*
X157292680Y-101156558D01*
X157318765Y-101112450D01*
X157369834Y-101064766D01*
X157438575Y-101052260D01*
X157503165Y-101078905D01*
X157543096Y-101136239D01*
X157549499Y-101175569D01*
X157549499Y-102289564D01*
X157529814Y-102356603D01*
X157477010Y-102402358D01*
X157407852Y-102412302D01*
X157348586Y-102386829D01*
X157343342Y-102382682D01*
X157194124Y-102290643D01*
X157194119Y-102290641D01*
X157027697Y-102235494D01*
X157027690Y-102235493D01*
X156924986Y-102225000D01*
X156875000Y-102225000D01*
X156875000Y-103200000D01*
X157624999Y-103200000D01*
X157624999Y-102961464D01*
X157644684Y-102894425D01*
X157697488Y-102848670D01*
X157766646Y-102838726D01*
X157830202Y-102867751D01*
X157836665Y-102873769D01*
X161202431Y-106239534D01*
X164559853Y-109596956D01*
X164564489Y-109602143D01*
X164588884Y-109632733D01*
X164588886Y-109632735D01*
X164637084Y-109665596D01*
X164638975Y-109666938D01*
X164685881Y-109701556D01*
X164693428Y-109705544D01*
X164701085Y-109709231D01*
X164701090Y-109709235D01*
X164756842Y-109726432D01*
X164759009Y-109727145D01*
X164771553Y-109731534D01*
X164814063Y-109746409D01*
X164814068Y-109746409D01*
X164822461Y-109747997D01*
X164830858Y-109749263D01*
X164830861Y-109749263D01*
X164889184Y-109749263D01*
X164891467Y-109749305D01*
X164949773Y-109751487D01*
X164959006Y-109750447D01*
X164959099Y-109751276D01*
X164974399Y-109749263D01*
X166430339Y-109749263D01*
X166497378Y-109768948D01*
X166541337Y-109817989D01*
X166572506Y-109880584D01*
X166572508Y-109880586D01*
X166695416Y-110043344D01*
X166846137Y-110180743D01*
X166846139Y-110180745D01*
X166945320Y-110242155D01*
X167019542Y-110288111D01*
X167209723Y-110361787D01*
X167410203Y-110399263D01*
X167410205Y-110399263D01*
X167614153Y-110399263D01*
X167614155Y-110399263D01*
X167814635Y-110361787D01*
X168004816Y-110288111D01*
X168178220Y-110180744D01*
X168328943Y-110043342D01*
X168451852Y-109880584D01*
X168542761Y-109698013D01*
X168598576Y-109501846D01*
X168617394Y-109298763D01*
X168598576Y-109095680D01*
X168542761Y-108899513D01*
X168519340Y-108852478D01*
X168483019Y-108779534D01*
X168451852Y-108716942D01*
X168328943Y-108554184D01*
X168328941Y-108554181D01*
X168178220Y-108416782D01*
X168178218Y-108416780D01*
X168004821Y-108309418D01*
X168004814Y-108309414D01*
X167890500Y-108265129D01*
X167814635Y-108235739D01*
X167614155Y-108198263D01*
X167410203Y-108198263D01*
X167209723Y-108235739D01*
X167209720Y-108235739D01*
X167209720Y-108235740D01*
X167019543Y-108309414D01*
X167019536Y-108309418D01*
X166846139Y-108416780D01*
X166846137Y-108416782D01*
X166695416Y-108554181D01*
X166572508Y-108716939D01*
X166572506Y-108716942D01*
X166541337Y-108779536D01*
X166493837Y-108830771D01*
X166430339Y-108848263D01*
X165136728Y-108848263D01*
X165069689Y-108828578D01*
X165049047Y-108811944D01*
X158486819Y-102249716D01*
X158453334Y-102188393D01*
X158450500Y-102162035D01*
X158450500Y-78788781D01*
X158450889Y-78781844D01*
X158455270Y-78742965D01*
X158444418Y-78685615D01*
X158444037Y-78683364D01*
X158435347Y-78625709D01*
X158432831Y-78617552D01*
X158430024Y-78609528D01*
X158402764Y-78557951D01*
X158401718Y-78555880D01*
X158376424Y-78503356D01*
X158371642Y-78496342D01*
X158366567Y-78489466D01*
X158366566Y-78489463D01*
X158325345Y-78448242D01*
X158323752Y-78446590D01*
X158309597Y-78431334D01*
X158284059Y-78403809D01*
X158276792Y-78398014D01*
X158277312Y-78397361D01*
X158265067Y-78387964D01*
X157093661Y-77216558D01*
X157060176Y-77155235D01*
X157063726Y-77105586D01*
X157032856Y-77112438D01*
X156967290Y-77088296D01*
X156953502Y-77076399D01*
X156523387Y-76646284D01*
X156489902Y-76584961D01*
X156491802Y-76524668D01*
X156526397Y-76403083D01*
X156545215Y-76200000D01*
X156874785Y-76200000D01*
X156893602Y-76403082D01*
X156949417Y-76599247D01*
X156949422Y-76599260D01*
X157040327Y-76781821D01*
X157140137Y-76913991D01*
X157164829Y-76979353D01*
X157158183Y-77010531D01*
X157172496Y-77005193D01*
X157240769Y-77020045D01*
X157264880Y-77037240D01*
X157313958Y-77081980D01*
X157313960Y-77081982D01*
X157324158Y-77088296D01*
X157487363Y-77189348D01*
X157677544Y-77263024D01*
X157878024Y-77300500D01*
X157878026Y-77300500D01*
X158081974Y-77300500D01*
X158081976Y-77300500D01*
X158282456Y-77263024D01*
X158296103Y-77257736D01*
X158365724Y-77251874D01*
X158427465Y-77284582D01*
X158428578Y-77285682D01*
X158713181Y-77570284D01*
X158746666Y-77631607D01*
X158749500Y-77657965D01*
X158749500Y-101171217D01*
X158749110Y-101178155D01*
X158748150Y-101186683D01*
X158744729Y-101217036D01*
X158755571Y-101274335D01*
X158755959Y-101276619D01*
X158764652Y-101334291D01*
X158767162Y-101342427D01*
X158769976Y-101350470D01*
X158797229Y-101402036D01*
X158798274Y-101404105D01*
X158823574Y-101456642D01*
X158828362Y-101463665D01*
X158833431Y-101470532D01*
X158833434Y-101470538D01*
X158833438Y-101470542D01*
X158874667Y-101511771D01*
X158876276Y-101513441D01*
X158915947Y-101556196D01*
X158923210Y-101561988D01*
X158922689Y-101562641D01*
X158934930Y-101572034D01*
X164419853Y-107056956D01*
X164424489Y-107062143D01*
X164448884Y-107092733D01*
X164448886Y-107092735D01*
X164497084Y-107125596D01*
X164498975Y-107126938D01*
X164545881Y-107161556D01*
X164553417Y-107165539D01*
X164561082Y-107169230D01*
X164561090Y-107169235D01*
X164587884Y-107177499D01*
X164616852Y-107186435D01*
X164619047Y-107187157D01*
X164674064Y-107206409D01*
X164674068Y-107206409D01*
X164682442Y-107207993D01*
X164690859Y-107209262D01*
X164690861Y-107209263D01*
X164749185Y-107209263D01*
X164751468Y-107209305D01*
X164809773Y-107211487D01*
X164819007Y-107210447D01*
X164819100Y-107211276D01*
X164834399Y-107209263D01*
X166430339Y-107209263D01*
X166497378Y-107228948D01*
X166541337Y-107277989D01*
X166572506Y-107340584D01*
X166627173Y-107412975D01*
X166695416Y-107503344D01*
X166846137Y-107640743D01*
X166846139Y-107640745D01*
X166929428Y-107692315D01*
X167019542Y-107748111D01*
X167209723Y-107821787D01*
X167410203Y-107859263D01*
X167410205Y-107859263D01*
X167614153Y-107859263D01*
X167614155Y-107859263D01*
X167814635Y-107821787D01*
X168004816Y-107748111D01*
X168178220Y-107640744D01*
X168328943Y-107503342D01*
X168451852Y-107340584D01*
X168542761Y-107158013D01*
X168598576Y-106961846D01*
X168617394Y-106758763D01*
X168598576Y-106555680D01*
X168542761Y-106359513D01*
X168451852Y-106176942D01*
X168350356Y-106042539D01*
X168328941Y-106014181D01*
X168178220Y-105876782D01*
X168178218Y-105876780D01*
X168004821Y-105769418D01*
X168004814Y-105769414D01*
X167878946Y-105720653D01*
X167814635Y-105695739D01*
X167614155Y-105658263D01*
X167410203Y-105658263D01*
X167209723Y-105695739D01*
X167209720Y-105695739D01*
X167209720Y-105695740D01*
X167019543Y-105769414D01*
X167019536Y-105769418D01*
X166846139Y-105876780D01*
X166846137Y-105876782D01*
X166695416Y-106014181D01*
X166572508Y-106176939D01*
X166572506Y-106176942D01*
X166541337Y-106239536D01*
X166493837Y-106290771D01*
X166430339Y-106308263D01*
X164996729Y-106308263D01*
X164929690Y-106288578D01*
X164909048Y-106271944D01*
X159686819Y-101049715D01*
X159653334Y-100988392D01*
X159650500Y-100962034D01*
X159650500Y-77448781D01*
X159650889Y-77441844D01*
X159655270Y-77402965D01*
X159644418Y-77345615D01*
X159644037Y-77343364D01*
X159635348Y-77285713D01*
X159635347Y-77285711D01*
X159635347Y-77285709D01*
X159632831Y-77277552D01*
X159630024Y-77269528D01*
X159602764Y-77217951D01*
X159601718Y-77215880D01*
X159593070Y-77197923D01*
X159576425Y-77163358D01*
X159576424Y-77163357D01*
X159576424Y-77163356D01*
X159571190Y-77155678D01*
X159571875Y-77155210D01*
X159562982Y-77142682D01*
X159562719Y-77142185D01*
X159553167Y-77095335D01*
X159496983Y-77074648D01*
X159491334Y-77069585D01*
X159491322Y-77069601D01*
X159476792Y-77058014D01*
X159477312Y-77057361D01*
X159465067Y-77047964D01*
X159063387Y-76646284D01*
X159029902Y-76584961D01*
X159031802Y-76524668D01*
X159066397Y-76403083D01*
X159085215Y-76200000D01*
X159414785Y-76200000D01*
X159433602Y-76403082D01*
X159489417Y-76599247D01*
X159489422Y-76599260D01*
X159580328Y-76781824D01*
X159669830Y-76900344D01*
X159693784Y-76963754D01*
X159700260Y-76963376D01*
X159755857Y-76992550D01*
X159853958Y-77081980D01*
X159853960Y-77081982D01*
X159990777Y-77166695D01*
X160037413Y-77218723D01*
X160049500Y-77272122D01*
X160049500Y-99750788D01*
X160046861Y-99776232D01*
X160044957Y-99785311D01*
X160044957Y-99785317D01*
X160049023Y-99817937D01*
X160049500Y-99825614D01*
X160049500Y-99829040D01*
X160050062Y-99832408D01*
X160052876Y-99849276D01*
X160053245Y-99851808D01*
X160059427Y-99901393D01*
X160061520Y-99908426D01*
X160063907Y-99915379D01*
X160063908Y-99915381D01*
X160069121Y-99925013D01*
X160087691Y-99959330D01*
X160088864Y-99961608D01*
X160110802Y-100006484D01*
X160110804Y-100006486D01*
X160115071Y-100012464D01*
X160119582Y-100018259D01*
X160156341Y-100052098D01*
X160158190Y-100053872D01*
X164536125Y-104431807D01*
X164552252Y-104451665D01*
X164557326Y-104459432D01*
X164557328Y-104459434D01*
X164583268Y-104479623D01*
X164589031Y-104484713D01*
X164591457Y-104487139D01*
X164605379Y-104497079D01*
X164608162Y-104499066D01*
X164610195Y-104500581D01*
X164649637Y-104531280D01*
X164649638Y-104531280D01*
X164649639Y-104531281D01*
X164656095Y-104534775D01*
X164662694Y-104538001D01*
X164662697Y-104538003D01*
X164710615Y-104552268D01*
X164713010Y-104553036D01*
X164760275Y-104569263D01*
X164760277Y-104569263D01*
X164767517Y-104570471D01*
X164774810Y-104571380D01*
X164824725Y-104569315D01*
X164827284Y-104569263D01*
X166380544Y-104569263D01*
X166447583Y-104588948D01*
X166491544Y-104637991D01*
X166572506Y-104800584D01*
X166695416Y-104963344D01*
X166846137Y-105100743D01*
X166846139Y-105100745D01*
X166898075Y-105132902D01*
X167019542Y-105208111D01*
X167209723Y-105281787D01*
X167410203Y-105319263D01*
X167410205Y-105319263D01*
X167614153Y-105319263D01*
X167614155Y-105319263D01*
X167814635Y-105281787D01*
X168004816Y-105208111D01*
X168178220Y-105100744D01*
X168328943Y-104963342D01*
X168451852Y-104800584D01*
X168542761Y-104618013D01*
X168598576Y-104421846D01*
X168617394Y-104218763D01*
X168598576Y-104015680D01*
X168542761Y-103819513D01*
X168532813Y-103799535D01*
X168483251Y-103700000D01*
X168451852Y-103636942D01*
X168353125Y-103506206D01*
X168328941Y-103474181D01*
X168178220Y-103336782D01*
X168178218Y-103336780D01*
X168004821Y-103229418D01*
X168004814Y-103229414D01*
X167878948Y-103180654D01*
X167814635Y-103155739D01*
X167614155Y-103118263D01*
X167410203Y-103118263D01*
X167209723Y-103155739D01*
X167209720Y-103155739D01*
X167209720Y-103155740D01*
X167019543Y-103229414D01*
X167019536Y-103229418D01*
X166846139Y-103336780D01*
X166846137Y-103336782D01*
X166695416Y-103474181D01*
X166572506Y-103636941D01*
X166491544Y-103799535D01*
X166444041Y-103850772D01*
X166380544Y-103868263D01*
X165015306Y-103868263D01*
X164948267Y-103848578D01*
X164927625Y-103831944D01*
X160786819Y-99691137D01*
X160753334Y-99629814D01*
X160750500Y-99603456D01*
X160750500Y-98185317D01*
X161044957Y-98185317D01*
X161049023Y-98217937D01*
X161049500Y-98225614D01*
X161049500Y-98229040D01*
X161052015Y-98244117D01*
X161052876Y-98249276D01*
X161053245Y-98251808D01*
X161059427Y-98301393D01*
X161061520Y-98308426D01*
X161063907Y-98315379D01*
X161063908Y-98315381D01*
X161071608Y-98329609D01*
X161087691Y-98359330D01*
X161088864Y-98361608D01*
X161110802Y-98406484D01*
X161110804Y-98406486D01*
X161115071Y-98412464D01*
X161119582Y-98418259D01*
X161156341Y-98452098D01*
X161158190Y-98453872D01*
X162881145Y-100176827D01*
X164596123Y-101891804D01*
X164612247Y-101911659D01*
X164617326Y-101919432D01*
X164633709Y-101932183D01*
X164643272Y-101939626D01*
X164649035Y-101944716D01*
X164651457Y-101947138D01*
X164668154Y-101959059D01*
X164670192Y-101960579D01*
X164709637Y-101991280D01*
X164709638Y-101991280D01*
X164709639Y-101991281D01*
X164716105Y-101994780D01*
X164722696Y-101998003D01*
X164770585Y-102012260D01*
X164773005Y-102013035D01*
X164820275Y-102029263D01*
X164820280Y-102029263D01*
X164827531Y-102030473D01*
X164834809Y-102031380D01*
X164884725Y-102029315D01*
X164887284Y-102029263D01*
X166380544Y-102029263D01*
X166447583Y-102048948D01*
X166491544Y-102097991D01*
X166572506Y-102260584D01*
X166695416Y-102423344D01*
X166846137Y-102560743D01*
X166846139Y-102560745D01*
X166914500Y-102603072D01*
X167019542Y-102668111D01*
X167209723Y-102741787D01*
X167410203Y-102779263D01*
X167410205Y-102779263D01*
X167614153Y-102779263D01*
X167614155Y-102779263D01*
X167814635Y-102741787D01*
X168004816Y-102668111D01*
X168178220Y-102560744D01*
X168328943Y-102423342D01*
X168451852Y-102260584D01*
X168542761Y-102078013D01*
X168598576Y-101881846D01*
X168617394Y-101678763D01*
X168598576Y-101475680D01*
X168542761Y-101279513D01*
X168542757Y-101279506D01*
X168542755Y-101279499D01*
X168478792Y-101151046D01*
X168451852Y-101096942D01*
X168359755Y-100974986D01*
X168328941Y-100934181D01*
X168178220Y-100796782D01*
X168178218Y-100796780D01*
X168004821Y-100689418D01*
X168004814Y-100689414D01*
X167909725Y-100652577D01*
X167814635Y-100615739D01*
X167614155Y-100578263D01*
X167410203Y-100578263D01*
X167209723Y-100615739D01*
X167209720Y-100615739D01*
X167209720Y-100615740D01*
X167019543Y-100689414D01*
X167019536Y-100689418D01*
X166846139Y-100796780D01*
X166846137Y-100796782D01*
X166695416Y-100934181D01*
X166572506Y-101096941D01*
X166491544Y-101259535D01*
X166444041Y-101310772D01*
X166380544Y-101328263D01*
X165075307Y-101328263D01*
X165008268Y-101308578D01*
X164987626Y-101291944D01*
X163709123Y-100013441D01*
X166411679Y-100013441D01*
X166426211Y-100086498D01*
X166426212Y-100086502D01*
X166436212Y-100101468D01*
X166481578Y-100169364D01*
X166527429Y-100200000D01*
X166564439Y-100224729D01*
X166564443Y-100224730D01*
X166637500Y-100239262D01*
X166637503Y-100239263D01*
X166637505Y-100239263D01*
X168386855Y-100239263D01*
X168386856Y-100239262D01*
X168459919Y-100224729D01*
X168542780Y-100169364D01*
X168598145Y-100086503D01*
X168612679Y-100013437D01*
X168612679Y-98264089D01*
X168612679Y-98264088D01*
X168612679Y-98264086D01*
X168612678Y-98264084D01*
X168598146Y-98191027D01*
X168598145Y-98191023D01*
X168582317Y-98167335D01*
X168542780Y-98108162D01*
X168459919Y-98052797D01*
X168459918Y-98052796D01*
X168459914Y-98052795D01*
X168386856Y-98038263D01*
X168386853Y-98038263D01*
X166637505Y-98038263D01*
X166637502Y-98038263D01*
X166564443Y-98052795D01*
X166564439Y-98052796D01*
X166481578Y-98108162D01*
X166426212Y-98191023D01*
X166426211Y-98191027D01*
X166411679Y-98264084D01*
X166411679Y-100013441D01*
X163709123Y-100013441D01*
X161786819Y-98091137D01*
X161753334Y-98029814D01*
X161750500Y-98003456D01*
X161750500Y-78196543D01*
X161770185Y-78129504D01*
X161786819Y-78108862D01*
X162178320Y-77717361D01*
X162610397Y-77285283D01*
X162671718Y-77251800D01*
X162741409Y-77256784D01*
X162742871Y-77257340D01*
X162757538Y-77263022D01*
X162757539Y-77263022D01*
X162757544Y-77263024D01*
X162958024Y-77300500D01*
X162958026Y-77300500D01*
X163161974Y-77300500D01*
X163161976Y-77300500D01*
X163362456Y-77263024D01*
X163552637Y-77189348D01*
X163726041Y-77081981D01*
X163734054Y-77074676D01*
X164499499Y-77074676D01*
X164499500Y-77074678D01*
X164514032Y-77147735D01*
X164514033Y-77147739D01*
X164524468Y-77163356D01*
X164569399Y-77230601D01*
X164640302Y-77277976D01*
X164652260Y-77285966D01*
X164652264Y-77285967D01*
X164725321Y-77300499D01*
X164725324Y-77300500D01*
X164725326Y-77300500D01*
X166474676Y-77300500D01*
X166474677Y-77300499D01*
X166547740Y-77285966D01*
X166630601Y-77230601D01*
X166685966Y-77147740D01*
X166700500Y-77074674D01*
X166700500Y-75325326D01*
X166700500Y-75325323D01*
X166700499Y-75325321D01*
X166685967Y-75252264D01*
X166685966Y-75252260D01*
X166685966Y-75252259D01*
X166630601Y-75169399D01*
X166547740Y-75114034D01*
X166547739Y-75114033D01*
X166547735Y-75114032D01*
X166474677Y-75099500D01*
X166474674Y-75099500D01*
X164725326Y-75099500D01*
X164725323Y-75099500D01*
X164652264Y-75114032D01*
X164652260Y-75114033D01*
X164569399Y-75169399D01*
X164514033Y-75252260D01*
X164514032Y-75252264D01*
X164499500Y-75325321D01*
X164499499Y-75325323D01*
X164499499Y-77074676D01*
X163734054Y-77074676D01*
X163876764Y-76944579D01*
X163999673Y-76781821D01*
X164090582Y-76599250D01*
X164146397Y-76403083D01*
X164165215Y-76200000D01*
X164146397Y-75996917D01*
X164090582Y-75800750D01*
X163999673Y-75618179D01*
X163876764Y-75455421D01*
X163876762Y-75455418D01*
X163726041Y-75318019D01*
X163726039Y-75318017D01*
X163552642Y-75210655D01*
X163552635Y-75210651D01*
X163446150Y-75169399D01*
X163362456Y-75136976D01*
X163161976Y-75099500D01*
X162958024Y-75099500D01*
X162757544Y-75136976D01*
X162757541Y-75136976D01*
X162757541Y-75136977D01*
X162567364Y-75210651D01*
X162567357Y-75210655D01*
X162393960Y-75318017D01*
X162393958Y-75318019D01*
X162243237Y-75455418D01*
X162120327Y-75618178D01*
X162029422Y-75800739D01*
X162029417Y-75800752D01*
X161973602Y-75996917D01*
X161954785Y-76199999D01*
X161954785Y-76200000D01*
X161973602Y-76403082D01*
X162029417Y-76599247D01*
X162029424Y-76599265D01*
X162081279Y-76703404D01*
X162093540Y-76772189D01*
X162066667Y-76836684D01*
X162057960Y-76846356D01*
X161186955Y-77717361D01*
X161167106Y-77733482D01*
X161159331Y-77738562D01*
X161139143Y-77764498D01*
X161134067Y-77770248D01*
X161131634Y-77772681D01*
X161131624Y-77772694D01*
X161119695Y-77789401D01*
X161118164Y-77791453D01*
X161087483Y-77830872D01*
X161083975Y-77837353D01*
X161080761Y-77843931D01*
X161066506Y-77891809D01*
X161065725Y-77894246D01*
X161049499Y-77941512D01*
X161048294Y-77948733D01*
X161047382Y-77956046D01*
X161049447Y-78005948D01*
X161049500Y-78008510D01*
X161049500Y-98150788D01*
X161046861Y-98176232D01*
X161044957Y-98185311D01*
X161044957Y-98185317D01*
X160750500Y-98185317D01*
X160750500Y-77375842D01*
X160770185Y-77308803D01*
X160822989Y-77263048D01*
X160829695Y-77260219D01*
X161012637Y-77189348D01*
X161186041Y-77081981D01*
X161336764Y-76944579D01*
X161459673Y-76781821D01*
X161550582Y-76599250D01*
X161606397Y-76403083D01*
X161625215Y-76200000D01*
X161606397Y-75996917D01*
X161550582Y-75800750D01*
X161459673Y-75618179D01*
X161336764Y-75455421D01*
X161336762Y-75455418D01*
X161186041Y-75318019D01*
X161186039Y-75318017D01*
X161012642Y-75210655D01*
X161012635Y-75210651D01*
X160906150Y-75169399D01*
X160822456Y-75136976D01*
X160621976Y-75099500D01*
X160418024Y-75099500D01*
X160217544Y-75136976D01*
X160217541Y-75136976D01*
X160217541Y-75136977D01*
X160027364Y-75210651D01*
X160027357Y-75210655D01*
X159853960Y-75318017D01*
X159853958Y-75318019D01*
X159703237Y-75455418D01*
X159580327Y-75618178D01*
X159489422Y-75800739D01*
X159489417Y-75800752D01*
X159433602Y-75996917D01*
X159414785Y-76199999D01*
X159414785Y-76200000D01*
X159085215Y-76200000D01*
X159066397Y-75996917D01*
X159010582Y-75800750D01*
X158919673Y-75618179D01*
X158796764Y-75455421D01*
X158796762Y-75455418D01*
X158646041Y-75318019D01*
X158646039Y-75318017D01*
X158472642Y-75210655D01*
X158472635Y-75210651D01*
X158366150Y-75169399D01*
X158282456Y-75136976D01*
X158081976Y-75099500D01*
X157878024Y-75099500D01*
X157677544Y-75136976D01*
X157677541Y-75136976D01*
X157677541Y-75136977D01*
X157487364Y-75210651D01*
X157487357Y-75210655D01*
X157313960Y-75318017D01*
X157313958Y-75318019D01*
X157163237Y-75455418D01*
X157040327Y-75618178D01*
X156949422Y-75800739D01*
X156949417Y-75800752D01*
X156893602Y-75996917D01*
X156874785Y-76199999D01*
X156874785Y-76200000D01*
X156545215Y-76200000D01*
X156526397Y-75996917D01*
X156470582Y-75800750D01*
X156379673Y-75618179D01*
X156256764Y-75455421D01*
X156256762Y-75455418D01*
X156106041Y-75318019D01*
X156106039Y-75318017D01*
X155932642Y-75210655D01*
X155932635Y-75210651D01*
X155826150Y-75169399D01*
X155742456Y-75136976D01*
X155541976Y-75099500D01*
X155338024Y-75099500D01*
X155137544Y-75136976D01*
X155137541Y-75136976D01*
X155137541Y-75136977D01*
X154947364Y-75210651D01*
X154947357Y-75210655D01*
X154773960Y-75318017D01*
X154773958Y-75318019D01*
X154623237Y-75455418D01*
X154500327Y-75618178D01*
X154409422Y-75800739D01*
X154409417Y-75800752D01*
X154353602Y-75996917D01*
X154334785Y-76199999D01*
X154334785Y-76200000D01*
X144475500Y-76200000D01*
X144475500Y-75325326D01*
X144460966Y-75252260D01*
X144405601Y-75169399D01*
X144322740Y-75114034D01*
X144322739Y-75114033D01*
X144322735Y-75114032D01*
X144249677Y-75099500D01*
X144249674Y-75099500D01*
X142500326Y-75099500D01*
X142500323Y-75099500D01*
X142427264Y-75114032D01*
X142427260Y-75114033D01*
X142344399Y-75169399D01*
X142289033Y-75252260D01*
X142289032Y-75252264D01*
X142274500Y-75325321D01*
X142274500Y-77074678D01*
X140600499Y-77074678D01*
X140600500Y-77074674D01*
X140600500Y-75325326D01*
X140600500Y-75325323D01*
X140600499Y-75325321D01*
X140585967Y-75252264D01*
X140585966Y-75252260D01*
X140585965Y-75252260D01*
X140530601Y-75169399D01*
X140447740Y-75114034D01*
X140447739Y-75114033D01*
X140447735Y-75114032D01*
X140374677Y-75099500D01*
X140374674Y-75099500D01*
X138625326Y-75099500D01*
X138625323Y-75099500D01*
X138552264Y-75114032D01*
X138552260Y-75114033D01*
X138469399Y-75169399D01*
X138414033Y-75252260D01*
X138414032Y-75252264D01*
X138399500Y-75325321D01*
X138399499Y-75325323D01*
X138399499Y-77074676D01*
X137634054Y-77074676D01*
X137776764Y-76944579D01*
X137899673Y-76781821D01*
X137990582Y-76599250D01*
X138046397Y-76403083D01*
X138065215Y-76200000D01*
X138046397Y-75996917D01*
X137990582Y-75800750D01*
X137899673Y-75618179D01*
X137776764Y-75455421D01*
X137776762Y-75455418D01*
X137626041Y-75318019D01*
X137626039Y-75318017D01*
X137452642Y-75210655D01*
X137452635Y-75210651D01*
X137346150Y-75169399D01*
X137262456Y-75136976D01*
X137061976Y-75099500D01*
X136858024Y-75099500D01*
X136657544Y-75136976D01*
X136657541Y-75136976D01*
X136657541Y-75136977D01*
X136467364Y-75210651D01*
X136467357Y-75210655D01*
X136293960Y-75318017D01*
X136293958Y-75318019D01*
X136143237Y-75455418D01*
X136020327Y-75618178D01*
X135929422Y-75800739D01*
X135929417Y-75800752D01*
X135873602Y-75996917D01*
X135854785Y-76199999D01*
X135854785Y-76200000D01*
X130100500Y-76200000D01*
X130100500Y-70131489D01*
X148245500Y-70131489D01*
X148284690Y-70391503D01*
X148284692Y-70391509D01*
X148362202Y-70642788D01*
X148476295Y-70879705D01*
X148476297Y-70879707D01*
X148476298Y-70879710D01*
X148624430Y-71096980D01*
X148803290Y-71289746D01*
X149008883Y-71453701D01*
X149236616Y-71585183D01*
X149481402Y-71681254D01*
X149737772Y-71739769D01*
X149737778Y-71739769D01*
X149737781Y-71739770D01*
X149934324Y-71754499D01*
X149934343Y-71754499D01*
X149934346Y-71754500D01*
X149934348Y-71754500D01*
X150065652Y-71754500D01*
X150065654Y-71754500D01*
X150065656Y-71754499D01*
X150065675Y-71754499D01*
X150262218Y-71739770D01*
X150262220Y-71739769D01*
X150262228Y-71739769D01*
X150518598Y-71681254D01*
X150763384Y-71585183D01*
X150991117Y-71453701D01*
X151196710Y-71289746D01*
X151375570Y-71096980D01*
X151523702Y-70879710D01*
X151637798Y-70642788D01*
X151715308Y-70391508D01*
X151754500Y-70131482D01*
X151754500Y-69868518D01*
X151745744Y-69810422D01*
X151715309Y-69608496D01*
X151715307Y-69608490D01*
X151661140Y-69432885D01*
X151637798Y-69357212D01*
X151523702Y-69120290D01*
X151375570Y-68903020D01*
X151196710Y-68710254D01*
X150991117Y-68546299D01*
X150763384Y-68414817D01*
X150518598Y-68318746D01*
X150518593Y-68318744D01*
X150518584Y-68318742D01*
X150280796Y-68264469D01*
X150262228Y-68260231D01*
X150262227Y-68260230D01*
X150262223Y-68260230D01*
X150262218Y-68260229D01*
X150065675Y-68245500D01*
X150065654Y-68245500D01*
X149934346Y-68245500D01*
X149934324Y-68245500D01*
X149737781Y-68260229D01*
X149737776Y-68260230D01*
X149481415Y-68318742D01*
X149481396Y-68318748D01*
X149236615Y-68414817D01*
X149008883Y-68546299D01*
X148803290Y-68710254D01*
X148803288Y-68710256D01*
X148624430Y-68903019D01*
X148476295Y-69120294D01*
X148362202Y-69357211D01*
X148284692Y-69608490D01*
X148284690Y-69608496D01*
X148245500Y-69868510D01*
X148245500Y-70131489D01*
X130100500Y-70131489D01*
X130100500Y-70001439D01*
X130100566Y-69998575D01*
X130117003Y-69643061D01*
X130117529Y-69637371D01*
X130166501Y-69286296D01*
X130167550Y-69280685D01*
X130248707Y-68935627D01*
X130250267Y-68930146D01*
X130362920Y-68594037D01*
X130364971Y-68588742D01*
X130508163Y-68264442D01*
X130510694Y-68259359D01*
X130683184Y-67949678D01*
X130686196Y-67944816D01*
X130886521Y-67652377D01*
X130889948Y-67647838D01*
X131116414Y-67375115D01*
X131120251Y-67370907D01*
X131370907Y-67120251D01*
X131375115Y-67116414D01*
X131647838Y-66889948D01*
X131652377Y-66886521D01*
X131944816Y-66686195D01*
X131949678Y-66683184D01*
X132259359Y-66510694D01*
X132264442Y-66508163D01*
X132588742Y-66364971D01*
X132594037Y-66362920D01*
X132930146Y-66250267D01*
X132935627Y-66248707D01*
X133280685Y-66167550D01*
X133286296Y-66166501D01*
X133637371Y-66117529D01*
X133643061Y-66117003D01*
X133998576Y-66100566D01*
X134001440Y-66100500D01*
X134026929Y-66100500D01*
X165973071Y-66100500D01*
X165998560Y-66100500D01*
X166001424Y-66100566D01*
G37*
%TD.AperFunction*%
%TD*%
M02*
