%TF.GenerationSoftware,KiCad,Pcbnew,7.0.5*%
%TF.CreationDate,2023-11-11T10:47:34-06:00*%
%TF.ProjectId,BPS-Amperes,4250532d-416d-4706-9572-65732e6b6963,rev?*%
%TF.SameCoordinates,Original*%
%TF.FileFunction,Copper,L1,Top*%
%TF.FilePolarity,Positive*%
%FSLAX46Y46*%
G04 Gerber Fmt 4.6, Leading zero omitted, Abs format (unit mm)*
G04 Created by KiCad (PCBNEW 7.0.5) date 2023-11-11 10:47:34*
%MOMM*%
%LPD*%
G01*
G04 APERTURE LIST*
%TA.AperFunction,SMDPad,CuDef*%
%ADD10R,1.800000X0.550000*%
%TD*%
%TA.AperFunction,ComponentPad*%
%ADD11R,1.700000X1.700000*%
%TD*%
%TA.AperFunction,ComponentPad*%
%ADD12O,1.700000X1.700000*%
%TD*%
%TA.AperFunction,ViaPad*%
%ADD13C,0.800000*%
%TD*%
%TA.AperFunction,Conductor*%
%ADD14C,0.400000*%
%TD*%
%TA.AperFunction,Conductor*%
%ADD15C,0.200000*%
%TD*%
G04 APERTURE END LIST*
D10*
%TO.P,J1,1,Pin_1*%
%TO.N,/SPI2_MOSI*%
X164350000Y-87400000D03*
%TO.P,J1,2,Pin_2*%
%TO.N,+3.3V*%
X168650000Y-87400000D03*
%TO.P,J1,3,Pin_3*%
%TO.N,/SPI2_MISO*%
X164350000Y-88200000D03*
%TO.P,J1,4,Pin_4*%
%TO.N,GND*%
X168650000Y-88200000D03*
%TO.P,J1,5,Pin_5*%
%TO.N,/SPI2_SCK*%
X164350000Y-89000000D03*
%TO.P,J1,6,Pin_6*%
%TO.N,/I2C2_SDA*%
X168650000Y-89000000D03*
%TO.P,J1,7,Pin_7*%
%TO.N,/SPI2_NSS*%
X164350000Y-89800000D03*
%TO.P,J1,8,Pin_8*%
%TO.N,/I2C2_SCL*%
X168650000Y-89800000D03*
%TO.P,J1,9,Pin_9*%
%TO.N,+3.3V*%
X164350000Y-90600000D03*
%TO.P,J1,10,Pin_10*%
%TO.N,VDDA*%
X168650000Y-90600000D03*
%TO.P,J1,11,Pin_11*%
%TO.N,GND*%
X164350000Y-91400000D03*
%TO.P,J1,12,Pin_12*%
%TO.N,GNDA*%
X168650000Y-91400000D03*
%TO.P,J1,13,Pin_13*%
%TO.N,/SPI1_SCK*%
X164350000Y-92200000D03*
%TO.P,J1,14,Pin_14*%
%TO.N,/I2C1_SCL*%
X168650000Y-92200000D03*
%TO.P,J1,15,Pin_15*%
%TO.N,/SPI1_MISO*%
X164350000Y-93000000D03*
%TO.P,J1,16,Pin_16*%
%TO.N,/I2C1_SDA*%
X168650000Y-93000000D03*
%TO.P,J1,17,Pin_17*%
%TO.N,/SPI1_MOSI*%
X164350000Y-93800000D03*
%TO.P,J1,18,Pin_18*%
%TO.N,/PA2*%
X168650000Y-93800000D03*
%TO.P,J1,19,Pin_19*%
%TO.N,/SPI1_NSS*%
X164350000Y-94600000D03*
%TO.P,J1,20,Pin_20*%
%TO.N,/PA1*%
X168650000Y-94600000D03*
%TD*%
D11*
%TO.P,J4,1,Pin_1*%
%TO.N,unconnected-(J4-Pin_1-Pad1)*%
X165600000Y-76200000D03*
D12*
%TO.P,J4,2,Pin_2*%
%TO.N,/SHUNT*%
X163060000Y-76200000D03*
%TO.P,J4,3,Pin_3*%
%TO.N,/TEST*%
X160520000Y-76200000D03*
%TO.P,J4,4,Pin_4*%
%TO.N,/V+*%
X157980000Y-76200000D03*
%TO.P,J4,5,Pin_5*%
%TO.N,/V-*%
X155440000Y-76200000D03*
%TD*%
D11*
%TO.P,J2,1,Pin_1*%
%TO.N,/ETS*%
X132537179Y-99138763D03*
D12*
%TO.P,J2,2,Pin_2*%
%TO.N,Net-(J2-Pin_2)*%
X132537179Y-101678763D03*
%TO.P,J2,3,Pin_3*%
%TO.N,GND*%
X132537179Y-104218763D03*
%TO.P,J2,4,Pin_4*%
X132537179Y-106758763D03*
%TO.P,J2,5,Pin_5*%
%TO.N,+3.3V*%
X132537179Y-109298763D03*
%TD*%
D11*
%TO.P,J5,1,Pin_1*%
%TO.N,+1V5*%
X139500000Y-76200000D03*
D12*
%TO.P,J5,2,Pin_2*%
%TO.N,+3V0*%
X136960000Y-76200000D03*
%TD*%
D11*
%TO.P,TP1,1,1*%
%TO.N,/PA1*%
X143375000Y-76200000D03*
%TD*%
%TO.P,J3,1,Pin_1*%
%TO.N,unconnected-(J3-Pin_1-Pad1)*%
X167512179Y-99138763D03*
D12*
%TO.P,J3,2,Pin_2*%
%TO.N,/SHUNT*%
X167512179Y-101678763D03*
%TO.P,J3,3,Pin_3*%
%TO.N,/TEST*%
X167512179Y-104218763D03*
%TO.P,J3,4,Pin_4*%
%TO.N,/V+*%
X167512179Y-106758763D03*
%TO.P,J3,5,Pin_5*%
%TO.N,/V-*%
X167512179Y-109298763D03*
%TD*%
D13*
%TO.N,+3.3V*%
X147675000Y-89450000D03*
%TO.N,GND*%
X130750000Y-86000000D03*
X169250000Y-81000000D03*
X165000000Y-66750000D03*
X130750000Y-88500000D03*
X155000000Y-66750000D03*
X135000000Y-115250000D03*
X160000000Y-66750000D03*
X130750000Y-101000000D03*
X139750000Y-103250000D03*
X168750000Y-69000000D03*
X152500000Y-66750000D03*
X162500000Y-96500000D03*
X169250000Y-73500000D03*
X130750000Y-108500000D03*
X160000000Y-115250000D03*
X130750000Y-73500000D03*
X145000000Y-115250000D03*
X131250000Y-113000000D03*
X167000000Y-94500000D03*
X130750000Y-103500000D03*
X169250000Y-83500000D03*
X162500000Y-66750000D03*
X130750000Y-96000000D03*
X130750000Y-81000000D03*
X169250000Y-78500000D03*
X157500000Y-66750000D03*
X169250000Y-101000000D03*
X167000000Y-96500000D03*
X145000000Y-66750000D03*
X139750000Y-105250000D03*
X130750000Y-98500000D03*
X169250000Y-98500000D03*
X147500000Y-66750000D03*
X156000000Y-95500000D03*
X140000000Y-66750000D03*
X167000000Y-88200000D03*
X137500000Y-115250000D03*
X140000000Y-115250000D03*
X149250000Y-95500000D03*
X133000000Y-67250000D03*
X169250000Y-96000000D03*
X149000000Y-107250000D03*
X168750000Y-113000000D03*
X142500000Y-115250000D03*
X142500000Y-66750000D03*
X131250000Y-69000000D03*
X167000000Y-67250000D03*
X135000000Y-66750000D03*
X150000000Y-115250000D03*
X130750000Y-106000000D03*
X130750000Y-71000000D03*
X169250000Y-108500000D03*
X169250000Y-103500000D03*
X169250000Y-76000000D03*
X130750000Y-111000000D03*
X151250000Y-102000000D03*
X167000000Y-114750000D03*
X139750000Y-107000000D03*
X130750000Y-91000000D03*
X153500000Y-105000000D03*
X165000000Y-115250000D03*
X169250000Y-71000000D03*
X162500000Y-94500000D03*
X130750000Y-78500000D03*
X130750000Y-76000000D03*
X133000000Y-114750000D03*
X147500000Y-115250000D03*
X169250000Y-106000000D03*
X162500000Y-115250000D03*
X157000000Y-94000000D03*
X150000000Y-66750000D03*
X166000000Y-91400000D03*
X149500000Y-102000000D03*
X149000000Y-105250000D03*
X130750000Y-93500000D03*
X152500000Y-115250000D03*
X152250000Y-92250000D03*
X137500000Y-66750000D03*
X169250000Y-86000000D03*
X157500000Y-115250000D03*
X169250000Y-111000000D03*
X155000000Y-115250000D03*
X130750000Y-83500000D03*
%TO.N,/PA1*%
X155507500Y-93700000D03*
X150525000Y-92250000D03*
X153607500Y-90900000D03*
%TO.N,+3V0*%
X142762500Y-97450000D03*
X140725000Y-91450000D03*
X147525000Y-97450000D03*
X145675000Y-100450000D03*
X150945000Y-96700000D03*
X142725000Y-94450000D03*
%TO.N,/RSHH*%
X141725000Y-104200000D03*
X138125000Y-103650000D03*
%TO.N,/RSHL*%
X141725000Y-106100000D03*
X138125000Y-106650000D03*
%TO.N,Net-(U2A--)*%
X155945000Y-98100000D03*
X150945000Y-100700000D03*
%TO.N,Net-(U2A-+)*%
X156537500Y-106450000D03*
X154745000Y-103500000D03*
X155945000Y-99300000D03*
%TO.N,+1V5*%
X135925000Y-91450000D03*
X137925000Y-94450000D03*
X137925000Y-97450000D03*
X146575000Y-102500000D03*
%TO.N,Net-(U4-VBIAS)*%
X145725000Y-92250000D03*
X138125000Y-91450000D03*
%TO.N,Net-(U4-VREF)*%
X145725000Y-94450000D03*
X142925000Y-91450000D03*
%TO.N,Net-(J2-Pin_2)*%
X136225000Y-103600000D03*
%TO.N,Net-(U2B--)*%
X151000000Y-98000000D03*
X150475000Y-94025000D03*
%TD*%
D14*
%TO.N,+3.3V*%
X147675000Y-89450000D02*
X148925000Y-88200000D01*
X148925000Y-88200000D02*
X160921000Y-88200000D01*
X166600000Y-87400000D02*
X168650000Y-87400000D01*
X163321000Y-90600000D02*
X164350000Y-90600000D01*
X166000000Y-88000000D02*
X166600000Y-87400000D01*
X166000000Y-90000000D02*
X166000000Y-88000000D01*
X164350000Y-90600000D02*
X165400000Y-90600000D01*
X160921000Y-88200000D02*
X163321000Y-90600000D01*
X165400000Y-90600000D02*
X166000000Y-90000000D01*
%TO.N,GND*%
X164350000Y-91400000D02*
X166000000Y-91400000D01*
X168650000Y-88200000D02*
X167000000Y-88200000D01*
D15*
%TO.N,/PA1*%
X167800000Y-95450000D02*
X168650000Y-94600000D01*
X157257500Y-95450000D02*
X167800000Y-95450000D01*
X155507500Y-92800000D02*
X155507500Y-93700000D01*
X153607500Y-90900000D02*
X151875000Y-90900000D01*
X151875000Y-90900000D02*
X150525000Y-92250000D01*
X155507500Y-93700000D02*
X157257500Y-95450000D01*
X153607500Y-90900000D02*
X155507500Y-92800000D01*
D14*
%TO.N,+3V0*%
X148275000Y-96700000D02*
X147525000Y-97450000D01*
X150945000Y-96700000D02*
X148275000Y-96700000D01*
X142725000Y-93450000D02*
X140725000Y-91450000D01*
X142725000Y-94450000D02*
X142725000Y-93450000D01*
X142725000Y-94450000D02*
X142725000Y-97412500D01*
X142725000Y-97412500D02*
X142762500Y-97450000D01*
X145675000Y-100450000D02*
X145675000Y-99300000D01*
X145675000Y-99300000D02*
X147525000Y-97450000D01*
D15*
%TO.N,/RSHH*%
X138125000Y-103650000D02*
X138675000Y-104200000D01*
X138675000Y-104200000D02*
X141725000Y-104200000D01*
%TO.N,/RSHL*%
X138125000Y-106650000D02*
X138675000Y-106100000D01*
X138675000Y-106100000D02*
X141725000Y-106100000D01*
%TO.N,Net-(U2A--)*%
X153545000Y-98100000D02*
X155945000Y-98100000D01*
X150945000Y-100700000D02*
X153545000Y-98100000D01*
%TO.N,Net-(U2A-+)*%
X155945000Y-99300000D02*
X154745000Y-100500000D01*
X154745000Y-103500000D02*
X154745000Y-104657500D01*
X154745000Y-100500000D02*
X154745000Y-103500000D01*
X154745000Y-104657500D02*
X156537500Y-106450000D01*
D14*
%TO.N,+1V5*%
X142775000Y-102500000D02*
X146575000Y-102500000D01*
X137925000Y-93450000D02*
X135925000Y-91450000D01*
X137925000Y-94450000D02*
X137925000Y-93450000D01*
X137925000Y-97450000D02*
X137925000Y-97650000D01*
X135925000Y-79775000D02*
X139500000Y-76200000D01*
X135925000Y-91450000D02*
X135925000Y-79775000D01*
X137925000Y-97650000D02*
X142775000Y-102500000D01*
X137925000Y-94450000D02*
X137925000Y-97450000D01*
%TO.N,Net-(U4-VBIAS)*%
X139525000Y-90050000D02*
X138125000Y-91450000D01*
X143525000Y-90050000D02*
X145725000Y-92250000D01*
X143525000Y-90050000D02*
X139525000Y-90050000D01*
%TO.N,Net-(U4-VREF)*%
X145725000Y-94250000D02*
X142925000Y-91450000D01*
X145725000Y-94450000D02*
X145725000Y-94250000D01*
D15*
%TO.N,Net-(J2-Pin_2)*%
X136225000Y-103600000D02*
X134458416Y-103600000D01*
X134458416Y-103600000D02*
X132537179Y-101678763D01*
%TO.N,Net-(U2B--)*%
X152250000Y-96750000D02*
X151000000Y-98000000D01*
X151025000Y-94025000D02*
X152250000Y-95250000D01*
X152250000Y-95250000D02*
X152250000Y-96750000D01*
X150475000Y-94025000D02*
X151025000Y-94025000D01*
%TD*%
%TA.AperFunction,Conductor*%
%TO.N,GND*%
G36*
X132787179Y-106323261D02*
G01*
X132679494Y-106274083D01*
X132572942Y-106258763D01*
X132501416Y-106258763D01*
X132394864Y-106274083D01*
X132287179Y-106323261D01*
X132287179Y-104654264D01*
X132394864Y-104703443D01*
X132501416Y-104718763D01*
X132572942Y-104718763D01*
X132679494Y-104703443D01*
X132787179Y-104654264D01*
X132787179Y-106323261D01*
G37*
%TD.AperFunction*%
%TA.AperFunction,Conductor*%
G36*
X166001424Y-66100566D02*
G01*
X166356938Y-66117003D01*
X166362630Y-66117529D01*
X166713699Y-66166501D01*
X166719318Y-66167551D01*
X167064366Y-66248706D01*
X167069858Y-66250269D01*
X167405954Y-66362917D01*
X167411264Y-66364974D01*
X167735548Y-66508159D01*
X167740648Y-66510698D01*
X167925184Y-66613484D01*
X168050312Y-66683180D01*
X168055183Y-66686196D01*
X168347612Y-66886514D01*
X168352171Y-66889957D01*
X168602000Y-67097412D01*
X168624869Y-67116402D01*
X168629103Y-67120262D01*
X168879737Y-67370896D01*
X168883595Y-67375128D01*
X169110040Y-67647824D01*
X169113485Y-67652387D01*
X169313803Y-67944816D01*
X169316819Y-67949687D01*
X169489295Y-68259340D01*
X169491844Y-68264459D01*
X169635020Y-68588724D01*
X169637084Y-68594051D01*
X169749728Y-68930134D01*
X169751296Y-68935645D01*
X169832446Y-69280673D01*
X169833499Y-69286305D01*
X169882468Y-69637356D01*
X169882996Y-69643061D01*
X169899434Y-69998575D01*
X169899500Y-70001439D01*
X169899500Y-86825266D01*
X169879815Y-86892305D01*
X169827011Y-86938060D01*
X169757853Y-86948004D01*
X169706610Y-86928369D01*
X169647739Y-86889033D01*
X169647735Y-86889032D01*
X169574677Y-86874500D01*
X169574674Y-86874500D01*
X167725326Y-86874500D01*
X167725323Y-86874500D01*
X167652264Y-86889032D01*
X167652260Y-86889033D01*
X167593040Y-86928603D01*
X167526362Y-86949480D01*
X167524150Y-86949500D01*
X166628783Y-86949500D01*
X166621844Y-86949110D01*
X166606322Y-86947361D01*
X166582963Y-86944729D01*
X166525672Y-86955570D01*
X166523387Y-86955958D01*
X166465715Y-86964651D01*
X166457532Y-86967175D01*
X166449529Y-86969976D01*
X166397961Y-86997230D01*
X166395892Y-86998275D01*
X166343357Y-87023574D01*
X166336338Y-87028359D01*
X166329460Y-87033435D01*
X166288239Y-87074656D01*
X166286571Y-87076263D01*
X166243804Y-87115946D01*
X166238013Y-87123208D01*
X166237362Y-87122688D01*
X166227967Y-87134928D01*
X165712181Y-87650715D01*
X165650858Y-87684200D01*
X165581167Y-87679216D01*
X165525233Y-87637345D01*
X165500816Y-87571880D01*
X165500500Y-87563034D01*
X165500500Y-87100323D01*
X165500499Y-87100321D01*
X165485967Y-87027264D01*
X165485966Y-87027260D01*
X165466599Y-86998275D01*
X165430601Y-86944399D01*
X165375234Y-86907405D01*
X165347739Y-86889033D01*
X165347735Y-86889032D01*
X165274677Y-86874500D01*
X165274674Y-86874500D01*
X163425326Y-86874500D01*
X163425323Y-86874500D01*
X163352264Y-86889032D01*
X163352260Y-86889033D01*
X163269399Y-86944399D01*
X163214033Y-87027260D01*
X163214032Y-87027264D01*
X163199500Y-87100321D01*
X163199500Y-87699673D01*
X163214644Y-87775810D01*
X163214644Y-87824190D01*
X163199500Y-87900326D01*
X163199500Y-88499673D01*
X163214644Y-88575810D01*
X163214644Y-88624190D01*
X163199500Y-88700326D01*
X163199500Y-89299673D01*
X163214644Y-89375810D01*
X163214644Y-89424190D01*
X163199500Y-89500326D01*
X163199500Y-89542035D01*
X163179815Y-89609074D01*
X163127011Y-89654829D01*
X163057853Y-89664773D01*
X162994297Y-89635748D01*
X162987819Y-89629716D01*
X161259908Y-87901805D01*
X161255271Y-87896617D01*
X161230879Y-87866030D01*
X161230878Y-87866029D01*
X161230877Y-87866028D01*
X161207973Y-87850412D01*
X161182669Y-87833161D01*
X161180803Y-87831836D01*
X161133886Y-87797210D01*
X161133882Y-87797207D01*
X161133877Y-87797205D01*
X161126297Y-87793198D01*
X161118675Y-87789528D01*
X161062941Y-87772337D01*
X161060752Y-87771617D01*
X161040842Y-87764651D01*
X161005695Y-87752352D01*
X160997326Y-87750768D01*
X160988904Y-87749500D01*
X160988902Y-87749500D01*
X160930578Y-87749500D01*
X160928294Y-87749457D01*
X160904402Y-87748563D01*
X160869989Y-87747275D01*
X160860756Y-87748316D01*
X160860662Y-87747486D01*
X160845364Y-87749500D01*
X148953783Y-87749500D01*
X148946844Y-87749110D01*
X148930553Y-87747275D01*
X148907963Y-87744729D01*
X148850672Y-87755570D01*
X148848387Y-87755958D01*
X148790715Y-87764651D01*
X148782558Y-87767167D01*
X148774529Y-87769976D01*
X148774528Y-87769977D01*
X148774526Y-87769977D01*
X148774523Y-87769979D01*
X148722940Y-87797240D01*
X148720873Y-87798284D01*
X148668358Y-87823574D01*
X148661310Y-87828379D01*
X148654458Y-87833436D01*
X148613227Y-87874667D01*
X148611558Y-87876275D01*
X148568808Y-87915942D01*
X148563015Y-87923207D01*
X148562363Y-87922687D01*
X148552969Y-87934925D01*
X147724716Y-88763181D01*
X147663393Y-88796666D01*
X147637035Y-88799500D01*
X147596014Y-88799500D01*
X147442634Y-88837303D01*
X147302762Y-88910715D01*
X147184516Y-89015471D01*
X147094781Y-89145475D01*
X147094780Y-89145476D01*
X147038762Y-89293181D01*
X147019722Y-89449999D01*
X147019722Y-89450000D01*
X147038762Y-89606818D01*
X147083457Y-89724667D01*
X147094780Y-89754523D01*
X147184517Y-89884530D01*
X147302760Y-89989283D01*
X147302762Y-89989284D01*
X147442634Y-90062696D01*
X147596014Y-90100500D01*
X147596015Y-90100500D01*
X147753985Y-90100500D01*
X147907365Y-90062696D01*
X148047240Y-89989283D01*
X148165483Y-89884530D01*
X148255220Y-89754523D01*
X148311237Y-89606818D01*
X148327632Y-89471789D01*
X148355254Y-89407612D01*
X148363036Y-89399066D01*
X149075284Y-88686819D01*
X149136607Y-88653334D01*
X149162965Y-88650500D01*
X160683034Y-88650500D01*
X160750073Y-88670185D01*
X160770715Y-88686819D01*
X162939474Y-90855578D01*
X162972959Y-90916901D01*
X162967976Y-90986589D01*
X162956403Y-91017617D01*
X162956401Y-91017627D01*
X162950000Y-91077155D01*
X162950000Y-91150000D01*
X165750000Y-91150000D01*
X165750000Y-91077172D01*
X165749999Y-91077155D01*
X165743598Y-91017627D01*
X165743595Y-91017616D01*
X165738199Y-91003147D01*
X165733214Y-90933456D01*
X165752558Y-90892759D01*
X165751516Y-90892158D01*
X165752295Y-90890807D01*
X165755428Y-90886720D01*
X165757437Y-90882496D01*
X165761995Y-90876781D01*
X165762650Y-90877303D01*
X165772032Y-90865070D01*
X166298205Y-90338896D01*
X166303373Y-90334277D01*
X166333970Y-90309879D01*
X166366865Y-90261629D01*
X166368131Y-90259845D01*
X166402793Y-90212882D01*
X166402793Y-90212879D01*
X166402795Y-90212878D01*
X166406787Y-90205324D01*
X166410471Y-90197675D01*
X166427666Y-90141926D01*
X166428382Y-90139749D01*
X166447646Y-90084699D01*
X166447646Y-90084696D01*
X166449232Y-90076311D01*
X166450500Y-90067904D01*
X166450500Y-90009578D01*
X166450542Y-90007294D01*
X166452724Y-89948990D01*
X166452723Y-89948989D01*
X166451684Y-89939761D01*
X166452513Y-89939667D01*
X166450500Y-89924366D01*
X166450500Y-88237964D01*
X166470185Y-88170925D01*
X166486814Y-88150288D01*
X166750284Y-87886819D01*
X166811607Y-87853334D01*
X166837965Y-87850500D01*
X167126000Y-87850500D01*
X167193039Y-87870185D01*
X167238794Y-87922989D01*
X167243188Y-87943188D01*
X167250000Y-87950000D01*
X168776000Y-87950000D01*
X168843039Y-87969685D01*
X168888794Y-88022489D01*
X168900000Y-88074000D01*
X168900000Y-88326000D01*
X168880315Y-88393039D01*
X168827511Y-88438794D01*
X168776000Y-88450000D01*
X167250000Y-88450000D01*
X167250000Y-88522844D01*
X167256401Y-88582372D01*
X167256403Y-88582379D01*
X167306645Y-88717086D01*
X167306647Y-88717088D01*
X167392809Y-88832186D01*
X167392810Y-88832187D01*
X167449811Y-88874858D01*
X167491682Y-88930792D01*
X167499500Y-88974125D01*
X167499500Y-89299673D01*
X167514644Y-89375810D01*
X167514644Y-89424190D01*
X167499500Y-89500326D01*
X167499500Y-90099673D01*
X167514644Y-90175810D01*
X167514644Y-90224190D01*
X167499500Y-90300326D01*
X167499500Y-90899673D01*
X167514644Y-90975810D01*
X167514644Y-91024190D01*
X167499500Y-91100326D01*
X167499500Y-91699673D01*
X167514644Y-91775810D01*
X167514644Y-91824190D01*
X167502642Y-91884528D01*
X167499500Y-91900326D01*
X167499500Y-92499674D01*
X167502957Y-92517057D01*
X167514644Y-92575810D01*
X167514644Y-92624190D01*
X167502642Y-92684528D01*
X167499500Y-92700326D01*
X167499500Y-93299674D01*
X167501071Y-93307571D01*
X167514644Y-93375810D01*
X167514644Y-93424190D01*
X167504478Y-93475300D01*
X167499500Y-93500326D01*
X167499500Y-94099674D01*
X167502957Y-94117057D01*
X167514644Y-94175810D01*
X167514644Y-94224190D01*
X167499500Y-94300326D01*
X167499500Y-94899678D01*
X167509770Y-94951309D01*
X167503543Y-95020901D01*
X167460680Y-95076078D01*
X167394790Y-95099322D01*
X167388153Y-95099500D01*
X165611847Y-95099500D01*
X165544808Y-95079815D01*
X165499053Y-95027011D01*
X165489109Y-94957853D01*
X165490230Y-94951309D01*
X165500499Y-94899678D01*
X165500500Y-94899676D01*
X165500500Y-94300323D01*
X165485356Y-94224191D01*
X165485356Y-94175807D01*
X165500500Y-94099676D01*
X165500500Y-93500323D01*
X165485356Y-93424191D01*
X165485356Y-93375807D01*
X165500500Y-93299676D01*
X165500500Y-92700323D01*
X165485356Y-92624191D01*
X165485356Y-92575807D01*
X165500500Y-92499676D01*
X165500500Y-92174125D01*
X165520185Y-92107086D01*
X165550189Y-92074858D01*
X165607189Y-92032187D01*
X165607190Y-92032186D01*
X165693352Y-91917088D01*
X165693354Y-91917086D01*
X165743596Y-91782379D01*
X165743598Y-91782372D01*
X165749999Y-91722844D01*
X165750000Y-91722827D01*
X165750000Y-91650000D01*
X162950000Y-91650000D01*
X162950000Y-91722844D01*
X162956401Y-91782372D01*
X162956403Y-91782379D01*
X163006645Y-91917086D01*
X163006647Y-91917088D01*
X163092809Y-92032186D01*
X163092810Y-92032187D01*
X163149811Y-92074858D01*
X163191682Y-92130792D01*
X163199500Y-92174125D01*
X163199500Y-92499674D01*
X163202957Y-92517057D01*
X163214644Y-92575810D01*
X163214644Y-92624190D01*
X163202642Y-92684528D01*
X163199500Y-92700326D01*
X163199500Y-93299674D01*
X163201071Y-93307571D01*
X163214644Y-93375810D01*
X163214644Y-93424190D01*
X163204478Y-93475300D01*
X163199500Y-93500326D01*
X163199500Y-94099674D01*
X163202957Y-94117057D01*
X163214644Y-94175810D01*
X163214644Y-94224190D01*
X163199500Y-94300326D01*
X163199500Y-94899678D01*
X163209770Y-94951309D01*
X163203543Y-95020901D01*
X163160680Y-95076078D01*
X163094790Y-95099322D01*
X163088153Y-95099500D01*
X157454043Y-95099500D01*
X157387004Y-95079815D01*
X157366362Y-95063181D01*
X156188189Y-93885008D01*
X156154704Y-93823685D01*
X156152774Y-93782384D01*
X156162778Y-93700000D01*
X156143737Y-93543182D01*
X156087720Y-93395477D01*
X155997983Y-93265470D01*
X155899772Y-93178463D01*
X155862647Y-93119276D01*
X155858000Y-93085649D01*
X155858000Y-92849211D01*
X155860639Y-92823764D01*
X155862543Y-92814685D01*
X155859377Y-92789284D01*
X155858477Y-92782061D01*
X155858000Y-92774385D01*
X155858000Y-92770962D01*
X155858000Y-92770960D01*
X155854618Y-92750699D01*
X155854254Y-92748190D01*
X155848073Y-92698607D01*
X155845977Y-92691568D01*
X155843591Y-92684616D01*
X155819817Y-92640688D01*
X155818657Y-92638437D01*
X155799868Y-92600000D01*
X155796700Y-92593519D01*
X155792419Y-92587524D01*
X155787920Y-92581744D01*
X155778139Y-92572740D01*
X155751142Y-92547887D01*
X155749320Y-92546138D01*
X154288189Y-91085007D01*
X154254704Y-91023684D01*
X154252774Y-90982384D01*
X154262778Y-90900000D01*
X154243737Y-90743182D01*
X154187720Y-90595477D01*
X154097983Y-90465470D01*
X153979740Y-90360717D01*
X153979738Y-90360716D01*
X153979737Y-90360715D01*
X153839865Y-90287303D01*
X153686486Y-90249500D01*
X153686485Y-90249500D01*
X153528515Y-90249500D01*
X153528514Y-90249500D01*
X153375134Y-90287303D01*
X153235262Y-90360715D01*
X153117015Y-90465471D01*
X153095987Y-90495938D01*
X153041705Y-90539930D01*
X152993936Y-90549500D01*
X151924206Y-90549500D01*
X151898761Y-90546861D01*
X151889685Y-90544958D01*
X151889682Y-90544958D01*
X151857068Y-90549023D01*
X151849392Y-90549500D01*
X151845960Y-90549500D01*
X151825716Y-90552877D01*
X151823193Y-90553245D01*
X151773606Y-90559426D01*
X151766575Y-90561519D01*
X151759618Y-90563907D01*
X151715687Y-90587682D01*
X151713411Y-90588853D01*
X151668513Y-90610803D01*
X151662566Y-90615048D01*
X151656739Y-90619584D01*
X151622913Y-90656329D01*
X151621139Y-90658177D01*
X150714274Y-91565042D01*
X150652951Y-91598527D01*
X150611721Y-91598004D01*
X150611430Y-91600404D01*
X150603985Y-91599500D01*
X150446015Y-91599500D01*
X150446014Y-91599500D01*
X150292634Y-91637303D01*
X150152762Y-91710715D01*
X150034516Y-91815471D01*
X149944781Y-91945475D01*
X149944780Y-91945476D01*
X149888762Y-92093181D01*
X149869722Y-92249999D01*
X149869722Y-92250000D01*
X149888762Y-92406818D01*
X149923979Y-92499676D01*
X149944780Y-92554523D01*
X150034517Y-92684530D01*
X150152760Y-92789283D01*
X150152762Y-92789284D01*
X150292634Y-92862696D01*
X150446014Y-92900500D01*
X150446015Y-92900500D01*
X150603985Y-92900500D01*
X150757365Y-92862696D01*
X150807562Y-92836350D01*
X150897240Y-92789283D01*
X151015483Y-92684530D01*
X151105220Y-92554523D01*
X151161237Y-92406818D01*
X151180278Y-92250000D01*
X151170274Y-92167617D01*
X151181734Y-92098696D01*
X151205686Y-92064994D01*
X151983862Y-91286819D01*
X152045186Y-91253334D01*
X152071544Y-91250500D01*
X152993936Y-91250500D01*
X153060975Y-91270185D01*
X153095987Y-91304062D01*
X153117015Y-91334528D01*
X153117016Y-91334529D01*
X153117017Y-91334530D01*
X153235260Y-91439283D01*
X153235262Y-91439284D01*
X153375134Y-91512696D01*
X153528514Y-91550500D01*
X153528515Y-91550500D01*
X153686486Y-91550500D01*
X153693931Y-91549596D01*
X153694337Y-91552941D01*
X153748959Y-91555221D01*
X153796775Y-91584957D01*
X155120681Y-92908862D01*
X155154166Y-92970185D01*
X155157000Y-92996543D01*
X155157000Y-93085649D01*
X155137315Y-93152688D01*
X155115228Y-93178462D01*
X155017017Y-93265470D01*
X155017016Y-93265471D01*
X154927281Y-93395475D01*
X154927280Y-93395476D01*
X154871262Y-93543181D01*
X154852222Y-93699999D01*
X154852222Y-93700000D01*
X154871262Y-93856818D01*
X154909583Y-93957860D01*
X154927280Y-94004523D01*
X155017017Y-94134530D01*
X155135260Y-94239283D01*
X155135262Y-94239284D01*
X155275134Y-94312696D01*
X155428514Y-94350500D01*
X155428515Y-94350500D01*
X155586486Y-94350500D01*
X155593931Y-94349596D01*
X155594337Y-94352941D01*
X155648959Y-94355221D01*
X155696775Y-94384957D01*
X156974860Y-95663041D01*
X156990984Y-95682896D01*
X156996063Y-95690669D01*
X157022009Y-95710863D01*
X157027772Y-95715953D01*
X157030194Y-95718375D01*
X157046891Y-95730296D01*
X157048929Y-95731816D01*
X157088374Y-95762517D01*
X157088375Y-95762517D01*
X157088376Y-95762518D01*
X157094842Y-95766017D01*
X157101433Y-95769240D01*
X157149322Y-95783497D01*
X157151742Y-95784272D01*
X157199012Y-95800500D01*
X157199017Y-95800500D01*
X157206268Y-95801710D01*
X157213546Y-95802617D01*
X157263462Y-95800552D01*
X157266021Y-95800500D01*
X167750789Y-95800500D01*
X167776234Y-95803138D01*
X167785315Y-95805043D01*
X167801005Y-95803087D01*
X167817939Y-95800977D01*
X167825615Y-95800500D01*
X167829035Y-95800500D01*
X167829040Y-95800500D01*
X167838303Y-95798954D01*
X167849278Y-95797123D01*
X167851811Y-95796753D01*
X167901393Y-95790573D01*
X167901399Y-95790569D01*
X167908451Y-95788470D01*
X167915377Y-95786092D01*
X167915381Y-95786092D01*
X167954491Y-95764926D01*
X167959329Y-95762308D01*
X167961590Y-95761143D01*
X168006484Y-95739198D01*
X168006487Y-95739194D01*
X168012453Y-95734935D01*
X168018254Y-95730419D01*
X168018258Y-95730418D01*
X168052101Y-95693653D01*
X168053826Y-95691854D01*
X168583862Y-95161819D01*
X168645186Y-95128334D01*
X168671544Y-95125500D01*
X169574676Y-95125500D01*
X169574677Y-95125499D01*
X169647740Y-95110966D01*
X169706610Y-95071630D01*
X169773287Y-95050753D01*
X169840667Y-95069238D01*
X169887357Y-95121217D01*
X169899500Y-95174733D01*
X169899500Y-111998560D01*
X169899434Y-112001424D01*
X169882996Y-112356938D01*
X169882468Y-112362643D01*
X169833499Y-112713694D01*
X169832446Y-112719326D01*
X169751296Y-113064354D01*
X169749728Y-113069865D01*
X169637084Y-113405948D01*
X169635017Y-113411283D01*
X169515814Y-113681254D01*
X169491849Y-113735530D01*
X169489295Y-113740659D01*
X169316819Y-114050312D01*
X169313803Y-114055183D01*
X169113485Y-114347612D01*
X169110032Y-114352185D01*
X168883597Y-114624869D01*
X168879737Y-114629103D01*
X168629103Y-114879737D01*
X168624869Y-114883597D01*
X168352185Y-115110032D01*
X168347612Y-115113485D01*
X168055183Y-115313803D01*
X168050312Y-115316819D01*
X167740659Y-115489295D01*
X167735531Y-115491848D01*
X167411283Y-115635017D01*
X167405948Y-115637084D01*
X167069865Y-115749728D01*
X167064354Y-115751296D01*
X166719326Y-115832446D01*
X166713694Y-115833499D01*
X166362643Y-115882468D01*
X166356938Y-115882996D01*
X166001424Y-115899434D01*
X165998560Y-115899500D01*
X134001440Y-115899500D01*
X133998576Y-115899434D01*
X133643061Y-115882996D01*
X133637356Y-115882468D01*
X133286305Y-115833499D01*
X133280673Y-115832446D01*
X132935645Y-115751296D01*
X132930134Y-115749728D01*
X132594051Y-115637084D01*
X132588724Y-115635020D01*
X132264459Y-115491844D01*
X132259340Y-115489295D01*
X131949687Y-115316819D01*
X131944816Y-115313803D01*
X131652387Y-115113485D01*
X131647824Y-115110040D01*
X131375128Y-114883595D01*
X131370896Y-114879737D01*
X131120262Y-114629103D01*
X131116402Y-114624869D01*
X131114343Y-114622389D01*
X130889957Y-114352171D01*
X130886514Y-114347612D01*
X130686196Y-114055183D01*
X130683180Y-114050312D01*
X130653738Y-113997453D01*
X130510698Y-113740648D01*
X130508159Y-113735548D01*
X130364974Y-113411264D01*
X130362915Y-113405948D01*
X130250271Y-113069865D01*
X130248706Y-113064366D01*
X130167551Y-112719318D01*
X130166500Y-112713694D01*
X130156609Y-112642788D01*
X130117529Y-112362630D01*
X130117003Y-112356938D01*
X130106579Y-112131489D01*
X148245500Y-112131489D01*
X148284690Y-112391503D01*
X148284692Y-112391509D01*
X148362202Y-112642788D01*
X148476295Y-112879705D01*
X148476297Y-112879707D01*
X148476298Y-112879710D01*
X148624430Y-113096980D01*
X148803290Y-113289746D01*
X149008883Y-113453701D01*
X149236616Y-113585183D01*
X149481402Y-113681254D01*
X149737772Y-113739769D01*
X149737778Y-113739769D01*
X149737781Y-113739770D01*
X149934324Y-113754499D01*
X149934343Y-113754499D01*
X149934346Y-113754500D01*
X149934348Y-113754500D01*
X150065652Y-113754500D01*
X150065654Y-113754500D01*
X150065656Y-113754499D01*
X150065675Y-113754499D01*
X150262218Y-113739770D01*
X150262220Y-113739769D01*
X150262228Y-113739769D01*
X150518598Y-113681254D01*
X150763384Y-113585183D01*
X150991117Y-113453701D01*
X151196710Y-113289746D01*
X151375570Y-113096980D01*
X151523702Y-112879710D01*
X151637798Y-112642788D01*
X151715308Y-112391508D01*
X151754500Y-112131482D01*
X151754500Y-111868518D01*
X151715308Y-111608492D01*
X151637798Y-111357212D01*
X151523702Y-111120290D01*
X151375570Y-110903020D01*
X151196710Y-110710254D01*
X150991117Y-110546299D01*
X150763384Y-110414817D01*
X150518598Y-110318746D01*
X150518593Y-110318744D01*
X150518584Y-110318742D01*
X150300501Y-110268966D01*
X150262228Y-110260231D01*
X150262227Y-110260230D01*
X150262223Y-110260230D01*
X150262218Y-110260229D01*
X150065675Y-110245500D01*
X150065654Y-110245500D01*
X149934346Y-110245500D01*
X149934324Y-110245500D01*
X149737781Y-110260229D01*
X149737776Y-110260230D01*
X149481415Y-110318742D01*
X149481396Y-110318748D01*
X149236615Y-110414817D01*
X149008883Y-110546299D01*
X148803290Y-110710254D01*
X148803288Y-110710256D01*
X148624430Y-110903019D01*
X148476295Y-111120294D01*
X148362202Y-111357211D01*
X148284692Y-111608490D01*
X148284690Y-111608496D01*
X148245500Y-111868510D01*
X148245500Y-112131489D01*
X130106579Y-112131489D01*
X130100566Y-112001424D01*
X130100500Y-111998560D01*
X130100500Y-107008763D01*
X131206543Y-107008763D01*
X131263746Y-107222249D01*
X131263749Y-107222255D01*
X131363578Y-107436341D01*
X131499073Y-107629845D01*
X131666096Y-107796868D01*
X131859600Y-107932363D01*
X132073686Y-108032192D01*
X132073695Y-108032196D01*
X132112762Y-108042664D01*
X132172423Y-108079029D01*
X132202952Y-108141876D01*
X132194658Y-108211251D01*
X132150172Y-108265129D01*
X132125463Y-108278065D01*
X132044552Y-108309410D01*
X132044536Y-108309418D01*
X131871139Y-108416780D01*
X131871137Y-108416782D01*
X131720416Y-108554181D01*
X131597506Y-108716941D01*
X131506601Y-108899502D01*
X131506596Y-108899515D01*
X131450781Y-109095680D01*
X131431964Y-109298762D01*
X131431964Y-109298763D01*
X131450781Y-109501845D01*
X131506596Y-109698010D01*
X131506601Y-109698023D01*
X131597506Y-109880584D01*
X131720416Y-110043344D01*
X131871137Y-110180743D01*
X131871139Y-110180745D01*
X131970320Y-110242155D01*
X132044542Y-110288111D01*
X132234723Y-110361787D01*
X132435203Y-110399263D01*
X132435205Y-110399263D01*
X132639153Y-110399263D01*
X132639155Y-110399263D01*
X132839635Y-110361787D01*
X133029816Y-110288111D01*
X133203220Y-110180744D01*
X133353943Y-110043342D01*
X133476852Y-109880584D01*
X133567761Y-109698013D01*
X133623576Y-109501846D01*
X133642394Y-109298763D01*
X166406964Y-109298763D01*
X166425781Y-109501845D01*
X166481596Y-109698010D01*
X166481601Y-109698023D01*
X166572506Y-109880584D01*
X166695416Y-110043344D01*
X166846137Y-110180743D01*
X166846139Y-110180745D01*
X166945320Y-110242155D01*
X167019542Y-110288111D01*
X167209723Y-110361787D01*
X167410203Y-110399263D01*
X167410205Y-110399263D01*
X167614153Y-110399263D01*
X167614155Y-110399263D01*
X167814635Y-110361787D01*
X168004816Y-110288111D01*
X168178220Y-110180744D01*
X168328943Y-110043342D01*
X168451852Y-109880584D01*
X168542761Y-109698013D01*
X168598576Y-109501846D01*
X168617394Y-109298763D01*
X168598576Y-109095680D01*
X168542761Y-108899513D01*
X168451852Y-108716942D01*
X168328943Y-108554184D01*
X168328941Y-108554181D01*
X168178220Y-108416782D01*
X168178218Y-108416780D01*
X168004821Y-108309418D01*
X168004814Y-108309414D01*
X167890500Y-108265129D01*
X167814635Y-108235739D01*
X167614155Y-108198263D01*
X167410203Y-108198263D01*
X167209723Y-108235739D01*
X167209720Y-108235739D01*
X167209720Y-108235740D01*
X167019543Y-108309414D01*
X167019536Y-108309418D01*
X166846139Y-108416780D01*
X166846137Y-108416782D01*
X166695416Y-108554181D01*
X166572506Y-108716941D01*
X166481601Y-108899502D01*
X166481596Y-108899515D01*
X166425781Y-109095680D01*
X166406964Y-109298762D01*
X166406964Y-109298763D01*
X133642394Y-109298763D01*
X133623576Y-109095680D01*
X133567761Y-108899513D01*
X133476852Y-108716942D01*
X133353943Y-108554184D01*
X133353941Y-108554181D01*
X133203220Y-108416782D01*
X133203218Y-108416780D01*
X133029821Y-108309418D01*
X133029814Y-108309414D01*
X132948894Y-108278066D01*
X132893492Y-108235493D01*
X132869902Y-108169726D01*
X132885613Y-108101646D01*
X132935637Y-108052867D01*
X132961596Y-108042664D01*
X133000660Y-108032197D01*
X133000671Y-108032192D01*
X133214757Y-107932363D01*
X133408261Y-107796868D01*
X133575284Y-107629845D01*
X133710779Y-107436341D01*
X133810608Y-107222255D01*
X133810611Y-107222249D01*
X133867815Y-107008763D01*
X132970865Y-107008763D01*
X132996672Y-106968607D01*
X133037179Y-106830652D01*
X133037179Y-106686874D01*
X133026352Y-106650000D01*
X137469722Y-106650000D01*
X137488762Y-106806818D01*
X137518234Y-106884528D01*
X137544780Y-106954523D01*
X137634517Y-107084530D01*
X137752760Y-107189283D01*
X137752762Y-107189284D01*
X137892634Y-107262696D01*
X138046014Y-107300500D01*
X138046015Y-107300500D01*
X138203985Y-107300500D01*
X138357365Y-107262696D01*
X138394048Y-107243443D01*
X138497240Y-107189283D01*
X138615483Y-107084530D01*
X138705220Y-106954523D01*
X138761237Y-106806818D01*
X138780278Y-106650000D01*
X138772925Y-106589446D01*
X138784385Y-106520524D01*
X138831289Y-106468737D01*
X138896021Y-106450500D01*
X141111436Y-106450500D01*
X141178475Y-106470185D01*
X141213487Y-106504062D01*
X141234515Y-106534528D01*
X141234516Y-106534529D01*
X141234517Y-106534530D01*
X141352760Y-106639283D01*
X141352762Y-106639284D01*
X141492634Y-106712696D01*
X141646014Y-106750500D01*
X141646015Y-106750500D01*
X141803985Y-106750500D01*
X141957365Y-106712696D01*
X142006564Y-106686874D01*
X142097240Y-106639283D01*
X142215483Y-106534530D01*
X142305220Y-106404523D01*
X142361237Y-106256818D01*
X142380278Y-106100000D01*
X142377994Y-106081185D01*
X142361237Y-105943181D01*
X142321082Y-105837303D01*
X142305220Y-105795477D01*
X142215483Y-105665470D01*
X142097240Y-105560717D01*
X142097238Y-105560716D01*
X142097237Y-105560715D01*
X141957365Y-105487303D01*
X141803986Y-105449500D01*
X141803985Y-105449500D01*
X141646015Y-105449500D01*
X141646014Y-105449500D01*
X141492634Y-105487303D01*
X141352762Y-105560715D01*
X141234515Y-105665471D01*
X141217195Y-105690564D01*
X141213624Y-105695740D01*
X141213487Y-105695938D01*
X141159205Y-105739930D01*
X141111436Y-105749500D01*
X138724206Y-105749500D01*
X138698761Y-105746861D01*
X138689685Y-105744958D01*
X138689682Y-105744958D01*
X138657068Y-105749023D01*
X138649392Y-105749500D01*
X138645960Y-105749500D01*
X138625716Y-105752877D01*
X138623193Y-105753245D01*
X138573606Y-105759426D01*
X138566575Y-105761519D01*
X138559618Y-105763907D01*
X138515687Y-105787682D01*
X138513411Y-105788853D01*
X138468513Y-105810803D01*
X138462566Y-105815048D01*
X138456739Y-105819584D01*
X138422913Y-105856329D01*
X138421139Y-105858177D01*
X138314274Y-105965042D01*
X138252951Y-105998527D01*
X138211721Y-105998004D01*
X138211430Y-106000404D01*
X138203985Y-105999500D01*
X138046015Y-105999500D01*
X138046014Y-105999500D01*
X137892634Y-106037303D01*
X137752762Y-106110715D01*
X137634516Y-106215471D01*
X137544781Y-106345475D01*
X137544780Y-106345476D01*
X137488762Y-106493181D01*
X137469722Y-106649999D01*
X137469722Y-106650000D01*
X133026352Y-106650000D01*
X132996672Y-106548919D01*
X132970865Y-106508763D01*
X133867815Y-106508763D01*
X133867814Y-106508762D01*
X133810611Y-106295276D01*
X133810608Y-106295270D01*
X133710779Y-106081185D01*
X133710778Y-106081183D01*
X133575292Y-105887689D01*
X133575287Y-105887683D01*
X133408261Y-105720657D01*
X133222147Y-105590338D01*
X133178523Y-105535761D01*
X133171330Y-105466262D01*
X133202852Y-105403908D01*
X133222147Y-105387188D01*
X133408261Y-105256868D01*
X133575284Y-105089845D01*
X133710779Y-104896341D01*
X133810608Y-104682255D01*
X133810611Y-104682249D01*
X133867815Y-104468763D01*
X132970865Y-104468763D01*
X132996672Y-104428607D01*
X133037179Y-104290652D01*
X133037179Y-104146874D01*
X132996672Y-104008919D01*
X132970865Y-103968763D01*
X133867815Y-103968763D01*
X133867814Y-103968762D01*
X133817870Y-103782367D01*
X133819533Y-103712517D01*
X133858695Y-103654654D01*
X133922924Y-103627150D01*
X133991826Y-103638736D01*
X134025326Y-103662592D01*
X134175778Y-103813044D01*
X134191905Y-103832902D01*
X134196979Y-103840669D01*
X134196981Y-103840671D01*
X134222921Y-103860860D01*
X134228684Y-103865950D01*
X134231109Y-103868375D01*
X134231111Y-103868377D01*
X134247806Y-103880297D01*
X134249861Y-103881829D01*
X134257745Y-103887965D01*
X134289290Y-103912517D01*
X134289294Y-103912518D01*
X134295762Y-103916018D01*
X134302346Y-103919237D01*
X134302349Y-103919239D01*
X134350258Y-103933502D01*
X134352660Y-103934272D01*
X134399928Y-103950500D01*
X134399930Y-103950500D01*
X134407170Y-103951708D01*
X134414462Y-103952617D01*
X134464366Y-103950552D01*
X134466927Y-103950500D01*
X135611436Y-103950500D01*
X135678475Y-103970185D01*
X135713487Y-104004062D01*
X135734515Y-104034528D01*
X135734516Y-104034529D01*
X135734517Y-104034530D01*
X135852760Y-104139283D01*
X135852762Y-104139284D01*
X135992634Y-104212696D01*
X136146014Y-104250500D01*
X136146015Y-104250500D01*
X136303985Y-104250500D01*
X136457365Y-104212696D01*
X136501974Y-104189283D01*
X136597240Y-104139283D01*
X136715483Y-104034530D01*
X136805220Y-103904523D01*
X136861237Y-103756818D01*
X136874207Y-103650000D01*
X137469722Y-103650000D01*
X137488762Y-103806818D01*
X137537198Y-103934530D01*
X137544780Y-103954523D01*
X137634517Y-104084530D01*
X137752760Y-104189283D01*
X137752762Y-104189284D01*
X137892634Y-104262696D01*
X138046014Y-104300500D01*
X138046015Y-104300500D01*
X138203986Y-104300500D01*
X138211431Y-104299596D01*
X138211837Y-104302941D01*
X138266459Y-104305221D01*
X138314275Y-104334957D01*
X138392362Y-104413044D01*
X138408489Y-104432902D01*
X138413563Y-104440669D01*
X138413565Y-104440671D01*
X138439505Y-104460860D01*
X138445268Y-104465950D01*
X138447693Y-104468375D01*
X138447695Y-104468377D01*
X138464390Y-104480297D01*
X138466445Y-104481829D01*
X138486339Y-104497313D01*
X138505874Y-104512517D01*
X138505878Y-104512518D01*
X138512346Y-104516018D01*
X138518930Y-104519237D01*
X138518933Y-104519239D01*
X138566842Y-104533502D01*
X138569244Y-104534272D01*
X138616512Y-104550500D01*
X138616514Y-104550500D01*
X138623754Y-104551708D01*
X138631046Y-104552617D01*
X138680950Y-104550552D01*
X138683511Y-104550500D01*
X141111436Y-104550500D01*
X141178475Y-104570185D01*
X141213487Y-104604062D01*
X141234515Y-104634528D01*
X141234516Y-104634529D01*
X141234517Y-104634530D01*
X141352760Y-104739283D01*
X141352762Y-104739284D01*
X141492634Y-104812696D01*
X141646014Y-104850500D01*
X141646015Y-104850500D01*
X141803985Y-104850500D01*
X141957365Y-104812696D01*
X142033225Y-104772881D01*
X142097240Y-104739283D01*
X142215483Y-104634530D01*
X142305220Y-104504523D01*
X142361237Y-104356818D01*
X142380278Y-104200000D01*
X142373828Y-104146874D01*
X142361237Y-104043181D01*
X142333013Y-103968762D01*
X142305220Y-103895477D01*
X142215483Y-103765470D01*
X142097240Y-103660717D01*
X142097238Y-103660716D01*
X142097237Y-103660715D01*
X141957365Y-103587303D01*
X141803986Y-103549500D01*
X141803985Y-103549500D01*
X141646015Y-103549500D01*
X141646014Y-103549500D01*
X141492634Y-103587303D01*
X141352762Y-103660715D01*
X141234515Y-103765471D01*
X141222854Y-103782367D01*
X141215988Y-103792315D01*
X141213487Y-103795938D01*
X141159205Y-103839930D01*
X141111436Y-103849500D01*
X138896021Y-103849500D01*
X138828982Y-103829815D01*
X138783227Y-103777011D01*
X138772925Y-103710553D01*
X138780278Y-103650000D01*
X138761237Y-103493182D01*
X138705220Y-103345477D01*
X138615483Y-103215470D01*
X138497240Y-103110717D01*
X138497238Y-103110716D01*
X138497237Y-103110715D01*
X138357365Y-103037303D01*
X138203986Y-102999500D01*
X138203985Y-102999500D01*
X138046015Y-102999500D01*
X138046014Y-102999500D01*
X137892634Y-103037303D01*
X137752762Y-103110715D01*
X137634516Y-103215471D01*
X137544781Y-103345475D01*
X137544780Y-103345476D01*
X137488762Y-103493181D01*
X137469722Y-103649999D01*
X137469722Y-103650000D01*
X136874207Y-103650000D01*
X136880278Y-103600000D01*
X136878737Y-103587304D01*
X136861237Y-103443181D01*
X136824182Y-103345476D01*
X136805220Y-103295477D01*
X136715483Y-103165470D01*
X136597240Y-103060717D01*
X136597238Y-103060716D01*
X136597237Y-103060715D01*
X136457365Y-102987303D01*
X136303986Y-102949500D01*
X136303985Y-102949500D01*
X136146015Y-102949500D01*
X136146014Y-102949500D01*
X135992634Y-102987303D01*
X135852762Y-103060715D01*
X135734515Y-103165471D01*
X135724036Y-103180654D01*
X135713807Y-103195475D01*
X135713487Y-103195938D01*
X135659205Y-103239930D01*
X135611436Y-103249500D01*
X134654960Y-103249500D01*
X134587921Y-103229815D01*
X134567279Y-103213181D01*
X133585755Y-102231657D01*
X133552270Y-102170334D01*
X133557254Y-102100642D01*
X133562430Y-102088717D01*
X133567761Y-102078013D01*
X133623576Y-101881846D01*
X133642394Y-101678763D01*
X133623576Y-101475680D01*
X133567761Y-101279513D01*
X133547729Y-101239284D01*
X133495567Y-101134528D01*
X133476852Y-101096942D01*
X133407061Y-101004524D01*
X133353941Y-100934181D01*
X133203220Y-100796782D01*
X133203218Y-100796780D01*
X133029821Y-100689418D01*
X133029814Y-100689414D01*
X132915637Y-100645182D01*
X132839635Y-100615739D01*
X132639155Y-100578263D01*
X132435203Y-100578263D01*
X132234723Y-100615739D01*
X132234720Y-100615739D01*
X132234720Y-100615740D01*
X132044543Y-100689414D01*
X132044536Y-100689418D01*
X131871139Y-100796780D01*
X131871137Y-100796782D01*
X131720416Y-100934181D01*
X131597506Y-101096941D01*
X131506601Y-101279502D01*
X131506596Y-101279515D01*
X131450781Y-101475680D01*
X131431964Y-101678762D01*
X131431964Y-101678763D01*
X131450781Y-101881845D01*
X131506596Y-102078010D01*
X131506601Y-102078023D01*
X131597506Y-102260584D01*
X131720416Y-102423344D01*
X131871137Y-102560743D01*
X131871139Y-102560745D01*
X131970320Y-102622155D01*
X132044542Y-102668111D01*
X132125462Y-102699459D01*
X132180864Y-102742032D01*
X132204455Y-102807798D01*
X132188744Y-102875879D01*
X132138721Y-102924658D01*
X132112765Y-102934860D01*
X132073698Y-102945328D01*
X132073686Y-102945333D01*
X131859601Y-103045162D01*
X131859599Y-103045163D01*
X131666105Y-103180649D01*
X131666099Y-103180654D01*
X131499070Y-103347683D01*
X131499065Y-103347689D01*
X131363579Y-103541183D01*
X131363578Y-103541185D01*
X131263749Y-103755270D01*
X131263746Y-103755276D01*
X131206543Y-103968762D01*
X131206543Y-103968763D01*
X132103493Y-103968763D01*
X132077686Y-104008919D01*
X132037179Y-104146874D01*
X132037179Y-104290652D01*
X132077686Y-104428607D01*
X132103493Y-104468763D01*
X131206543Y-104468763D01*
X131263746Y-104682249D01*
X131263749Y-104682255D01*
X131363578Y-104896341D01*
X131499073Y-105089845D01*
X131666096Y-105256868D01*
X131852210Y-105387188D01*
X131895835Y-105441766D01*
X131903027Y-105511264D01*
X131871505Y-105573619D01*
X131852210Y-105590338D01*
X131666101Y-105720653D01*
X131666099Y-105720654D01*
X131499070Y-105887683D01*
X131499065Y-105887689D01*
X131363579Y-106081183D01*
X131363578Y-106081185D01*
X131263749Y-106295270D01*
X131263746Y-106295276D01*
X131206543Y-106508762D01*
X131206543Y-106508763D01*
X132103493Y-106508763D01*
X132077686Y-106548919D01*
X132037179Y-106686874D01*
X132037179Y-106830652D01*
X132077686Y-106968607D01*
X132103493Y-107008763D01*
X131206543Y-107008763D01*
X130100500Y-107008763D01*
X130100500Y-100013441D01*
X131436679Y-100013441D01*
X131451211Y-100086498D01*
X131451212Y-100086502D01*
X131451748Y-100087304D01*
X131506578Y-100169364D01*
X131578412Y-100217361D01*
X131589439Y-100224729D01*
X131589443Y-100224730D01*
X131662500Y-100239262D01*
X131662503Y-100239263D01*
X131662505Y-100239263D01*
X133411855Y-100239263D01*
X133411856Y-100239262D01*
X133484919Y-100224729D01*
X133567780Y-100169364D01*
X133623145Y-100086503D01*
X133637679Y-100013437D01*
X133637679Y-98264089D01*
X133637678Y-98264088D01*
X133637679Y-98264086D01*
X133637678Y-98264084D01*
X133623146Y-98191027D01*
X133623145Y-98191023D01*
X133600290Y-98156818D01*
X133567780Y-98108162D01*
X133512414Y-98071168D01*
X133484918Y-98052796D01*
X133484914Y-98052795D01*
X133411856Y-98038263D01*
X133411853Y-98038263D01*
X131662505Y-98038263D01*
X131662502Y-98038263D01*
X131589443Y-98052795D01*
X131589439Y-98052796D01*
X131506578Y-98108162D01*
X131451212Y-98191023D01*
X131451211Y-98191027D01*
X131436679Y-98264084D01*
X131436679Y-100013441D01*
X130100500Y-100013441D01*
X130100500Y-91450000D01*
X135269722Y-91450000D01*
X135288762Y-91606818D01*
X135332759Y-91722827D01*
X135344780Y-91754523D01*
X135434517Y-91884530D01*
X135552760Y-91989283D01*
X135552762Y-91989284D01*
X135692634Y-92062696D01*
X135846014Y-92100500D01*
X135846015Y-92100500D01*
X135887034Y-92100500D01*
X135954073Y-92120185D01*
X135974715Y-92136819D01*
X137438181Y-93600284D01*
X137471666Y-93661607D01*
X137474500Y-93687965D01*
X137474500Y-93924240D01*
X137454815Y-93991279D01*
X137439153Y-94009556D01*
X137439491Y-94009856D01*
X137434515Y-94015472D01*
X137344781Y-94145475D01*
X137344780Y-94145476D01*
X137288762Y-94293181D01*
X137269722Y-94449999D01*
X137269722Y-94450000D01*
X137288762Y-94606818D01*
X137344780Y-94754523D01*
X137344781Y-94754524D01*
X137434518Y-94884532D01*
X137439491Y-94890145D01*
X137438044Y-94891426D01*
X137469850Y-94942120D01*
X137474500Y-94975759D01*
X137474500Y-96924240D01*
X137454815Y-96991279D01*
X137439153Y-97009556D01*
X137439491Y-97009856D01*
X137434515Y-97015472D01*
X137344781Y-97145475D01*
X137344780Y-97145476D01*
X137288762Y-97293181D01*
X137269722Y-97449999D01*
X137269722Y-97450000D01*
X137288762Y-97606818D01*
X137339246Y-97739930D01*
X137344780Y-97754523D01*
X137434517Y-97884530D01*
X137552760Y-97989283D01*
X137552762Y-97989284D01*
X137692671Y-98062715D01*
X137722726Y-98084830D01*
X142436090Y-102798193D01*
X142440726Y-102803380D01*
X142465121Y-102833970D01*
X142465123Y-102833972D01*
X142513321Y-102866833D01*
X142515212Y-102868175D01*
X142562118Y-102902793D01*
X142569654Y-102906776D01*
X142577319Y-102910467D01*
X142577327Y-102910472D01*
X142604121Y-102918736D01*
X142633089Y-102927672D01*
X142635284Y-102928394D01*
X142690301Y-102947646D01*
X142690305Y-102947646D01*
X142698698Y-102949234D01*
X142707095Y-102950500D01*
X142707098Y-102950500D01*
X142765405Y-102950500D01*
X142767692Y-102950542D01*
X142822592Y-102952597D01*
X142826009Y-102952725D01*
X142826009Y-102952724D01*
X142826010Y-102952725D01*
X142826010Y-102952724D01*
X142835242Y-102951685D01*
X142835335Y-102952513D01*
X142850639Y-102950500D01*
X146055517Y-102950500D01*
X146122556Y-102970185D01*
X146137741Y-102981682D01*
X146202760Y-103039283D01*
X146202762Y-103039284D01*
X146342634Y-103112696D01*
X146496014Y-103150500D01*
X146496015Y-103150500D01*
X146653985Y-103150500D01*
X146807365Y-103112696D01*
X146811139Y-103110715D01*
X146947240Y-103039283D01*
X147065483Y-102934530D01*
X147155220Y-102804523D01*
X147211237Y-102656818D01*
X147230278Y-102500000D01*
X147211237Y-102343182D01*
X147155220Y-102195477D01*
X147065483Y-102065470D01*
X146947240Y-101960717D01*
X146947238Y-101960716D01*
X146947237Y-101960715D01*
X146807365Y-101887303D01*
X146653986Y-101849500D01*
X146653985Y-101849500D01*
X146496015Y-101849500D01*
X146496014Y-101849500D01*
X146342634Y-101887303D01*
X146202762Y-101960715D01*
X146137744Y-102018316D01*
X146074510Y-102048037D01*
X146055517Y-102049500D01*
X143012965Y-102049500D01*
X142945926Y-102029815D01*
X142925284Y-102013181D01*
X141362103Y-100450000D01*
X145019722Y-100450000D01*
X145038762Y-100606818D01*
X145074102Y-100700000D01*
X145094780Y-100754523D01*
X145184517Y-100884530D01*
X145302760Y-100989283D01*
X145302762Y-100989284D01*
X145442634Y-101062696D01*
X145596014Y-101100500D01*
X145596015Y-101100500D01*
X145753985Y-101100500D01*
X145907365Y-101062696D01*
X146047240Y-100989283D01*
X146165483Y-100884530D01*
X146255220Y-100754523D01*
X146275898Y-100700000D01*
X150289722Y-100700000D01*
X150308762Y-100856818D01*
X150338104Y-100934184D01*
X150364780Y-101004523D01*
X150454517Y-101134530D01*
X150572760Y-101239283D01*
X150572762Y-101239284D01*
X150712634Y-101312696D01*
X150866014Y-101350500D01*
X150866015Y-101350500D01*
X151023985Y-101350500D01*
X151177365Y-101312696D01*
X151240610Y-101279502D01*
X151317240Y-101239283D01*
X151435483Y-101134530D01*
X151525220Y-101004523D01*
X151581237Y-100856818D01*
X151600278Y-100700000D01*
X151590274Y-100617617D01*
X151601734Y-100548696D01*
X151625686Y-100514994D01*
X153653862Y-98486819D01*
X153715186Y-98453334D01*
X153741544Y-98450500D01*
X155331436Y-98450500D01*
X155398475Y-98470185D01*
X155433487Y-98504062D01*
X155454517Y-98534531D01*
X155536527Y-98607185D01*
X155573654Y-98666374D01*
X155572886Y-98736240D01*
X155536527Y-98792815D01*
X155454518Y-98865468D01*
X155364781Y-98995475D01*
X155364780Y-98995476D01*
X155308763Y-99143181D01*
X155289722Y-99300000D01*
X155299724Y-99382381D01*
X155288263Y-99451304D01*
X155264309Y-99485007D01*
X154531955Y-100217361D01*
X154512106Y-100233482D01*
X154504331Y-100238562D01*
X154484143Y-100264498D01*
X154479067Y-100270248D01*
X154476634Y-100272681D01*
X154476624Y-100272694D01*
X154464695Y-100289401D01*
X154463164Y-100291453D01*
X154432483Y-100330872D01*
X154428975Y-100337353D01*
X154425761Y-100343931D01*
X154411506Y-100391809D01*
X154410725Y-100394246D01*
X154394499Y-100441512D01*
X154393294Y-100448733D01*
X154392382Y-100456046D01*
X154394447Y-100505948D01*
X154394500Y-100508510D01*
X154394500Y-102885649D01*
X154374815Y-102952688D01*
X154352728Y-102978462D01*
X154284075Y-103039284D01*
X154254516Y-103065471D01*
X154164781Y-103195475D01*
X154164780Y-103195476D01*
X154108762Y-103343181D01*
X154089722Y-103499999D01*
X154089722Y-103500000D01*
X154108762Y-103656818D01*
X154164780Y-103804523D01*
X154164781Y-103804524D01*
X154254517Y-103934531D01*
X154315109Y-103988210D01*
X154352726Y-104021535D01*
X154389853Y-104080723D01*
X154394500Y-104114350D01*
X154394500Y-104608288D01*
X154391861Y-104633732D01*
X154389957Y-104642811D01*
X154389957Y-104642817D01*
X154394023Y-104675437D01*
X154394500Y-104683114D01*
X154394500Y-104686540D01*
X154397232Y-104702920D01*
X154397876Y-104706776D01*
X154398245Y-104709308D01*
X154404427Y-104758893D01*
X154406520Y-104765926D01*
X154408907Y-104772879D01*
X154408908Y-104772881D01*
X154416608Y-104787109D01*
X154432691Y-104816830D01*
X154433864Y-104819108D01*
X154455802Y-104863984D01*
X154455804Y-104863986D01*
X154460071Y-104869964D01*
X154464582Y-104875759D01*
X154501341Y-104909598D01*
X154503190Y-104911372D01*
X155182156Y-105590338D01*
X155856809Y-106264990D01*
X155890294Y-106326313D01*
X155892224Y-106367616D01*
X155882222Y-106449999D01*
X155882222Y-106450000D01*
X155901262Y-106606818D01*
X155931624Y-106686874D01*
X155957280Y-106754523D01*
X156047017Y-106884530D01*
X156165260Y-106989283D01*
X156165262Y-106989284D01*
X156305134Y-107062696D01*
X156458514Y-107100500D01*
X156458515Y-107100500D01*
X156616485Y-107100500D01*
X156769865Y-107062696D01*
X156872624Y-107008763D01*
X156909740Y-106989283D01*
X157027983Y-106884530D01*
X157114793Y-106758763D01*
X166406964Y-106758763D01*
X166425781Y-106961845D01*
X166481596Y-107158010D01*
X166481601Y-107158023D01*
X166572506Y-107340584D01*
X166695416Y-107503344D01*
X166846137Y-107640743D01*
X166846139Y-107640745D01*
X166945320Y-107702155D01*
X167019542Y-107748111D01*
X167209723Y-107821787D01*
X167410203Y-107859263D01*
X167410205Y-107859263D01*
X167614153Y-107859263D01*
X167614155Y-107859263D01*
X167814635Y-107821787D01*
X168004816Y-107748111D01*
X168178220Y-107640744D01*
X168328943Y-107503342D01*
X168451852Y-107340584D01*
X168542761Y-107158013D01*
X168598576Y-106961846D01*
X168617394Y-106758763D01*
X168598576Y-106555680D01*
X168542761Y-106359513D01*
X168535771Y-106345476D01*
X168471037Y-106215471D01*
X168451852Y-106176942D01*
X168379538Y-106081183D01*
X168328941Y-106014181D01*
X168178220Y-105876782D01*
X168178218Y-105876780D01*
X168004821Y-105769418D01*
X168004814Y-105769414D01*
X167878946Y-105720653D01*
X167814635Y-105695739D01*
X167614155Y-105658263D01*
X167410203Y-105658263D01*
X167209723Y-105695739D01*
X167209720Y-105695739D01*
X167209720Y-105695740D01*
X167019543Y-105769414D01*
X167019536Y-105769418D01*
X166846139Y-105876780D01*
X166846137Y-105876782D01*
X166695416Y-106014181D01*
X166572506Y-106176941D01*
X166481601Y-106359502D01*
X166481596Y-106359515D01*
X166425781Y-106555680D01*
X166406964Y-106758762D01*
X166406964Y-106758763D01*
X157114793Y-106758763D01*
X157117720Y-106754523D01*
X157173737Y-106606818D01*
X157192778Y-106450000D01*
X157190103Y-106427965D01*
X157173737Y-106293181D01*
X157129653Y-106176942D01*
X157117720Y-106145477D01*
X157027983Y-106015470D01*
X156909740Y-105910717D01*
X156909738Y-105910716D01*
X156909737Y-105910715D01*
X156769865Y-105837303D01*
X156616486Y-105799500D01*
X156616485Y-105799500D01*
X156458515Y-105799500D01*
X156458513Y-105799500D01*
X156451072Y-105800404D01*
X156450684Y-105797209D01*
X156395162Y-105794476D01*
X156348224Y-105765042D01*
X155131819Y-104548637D01*
X155098334Y-104487314D01*
X155095500Y-104460956D01*
X155095500Y-104218763D01*
X166406964Y-104218763D01*
X166425781Y-104421845D01*
X166481596Y-104618010D01*
X166481601Y-104618023D01*
X166572506Y-104800584D01*
X166695416Y-104963344D01*
X166846137Y-105100743D01*
X166846139Y-105100745D01*
X166945320Y-105162155D01*
X167019542Y-105208111D01*
X167209723Y-105281787D01*
X167410203Y-105319263D01*
X167410205Y-105319263D01*
X167614153Y-105319263D01*
X167614155Y-105319263D01*
X167814635Y-105281787D01*
X168004816Y-105208111D01*
X168178220Y-105100744D01*
X168328943Y-104963342D01*
X168451852Y-104800584D01*
X168542761Y-104618013D01*
X168598576Y-104421846D01*
X168617394Y-104218763D01*
X168614662Y-104189284D01*
X168598576Y-104015680D01*
X168585227Y-103968763D01*
X168542761Y-103819513D01*
X168535297Y-103804524D01*
X168458354Y-103650000D01*
X168451852Y-103636942D01*
X168379538Y-103541183D01*
X168328941Y-103474181D01*
X168178220Y-103336782D01*
X168178218Y-103336780D01*
X168004821Y-103229418D01*
X168004814Y-103229414D01*
X167878948Y-103180654D01*
X167814635Y-103155739D01*
X167614155Y-103118263D01*
X167410203Y-103118263D01*
X167209723Y-103155739D01*
X167209720Y-103155739D01*
X167209720Y-103155740D01*
X167019543Y-103229414D01*
X167019536Y-103229418D01*
X166846139Y-103336780D01*
X166846137Y-103336782D01*
X166695416Y-103474181D01*
X166572506Y-103636941D01*
X166481601Y-103819502D01*
X166481596Y-103819515D01*
X166425781Y-104015680D01*
X166406964Y-104218762D01*
X166406964Y-104218763D01*
X155095500Y-104218763D01*
X155095500Y-104114350D01*
X155115185Y-104047311D01*
X155137271Y-104021536D01*
X155235483Y-103934530D01*
X155325220Y-103804523D01*
X155381237Y-103656818D01*
X155400278Y-103500000D01*
X155397144Y-103474184D01*
X155381237Y-103343181D01*
X155345708Y-103249500D01*
X155325220Y-103195477D01*
X155235483Y-103065470D01*
X155137272Y-102978463D01*
X155100147Y-102919276D01*
X155095500Y-102885649D01*
X155095500Y-101678763D01*
X166406964Y-101678763D01*
X166425781Y-101881845D01*
X166481596Y-102078010D01*
X166481601Y-102078023D01*
X166572506Y-102260584D01*
X166695416Y-102423344D01*
X166846137Y-102560743D01*
X166846139Y-102560745D01*
X166945320Y-102622155D01*
X167019542Y-102668111D01*
X167209723Y-102741787D01*
X167410203Y-102779263D01*
X167410205Y-102779263D01*
X167614153Y-102779263D01*
X167614155Y-102779263D01*
X167814635Y-102741787D01*
X168004816Y-102668111D01*
X168178220Y-102560744D01*
X168328943Y-102423342D01*
X168451852Y-102260584D01*
X168542761Y-102078013D01*
X168598576Y-101881846D01*
X168617394Y-101678763D01*
X168598576Y-101475680D01*
X168542761Y-101279513D01*
X168522729Y-101239284D01*
X168470567Y-101134528D01*
X168451852Y-101096942D01*
X168382061Y-101004524D01*
X168328941Y-100934181D01*
X168178220Y-100796782D01*
X168178218Y-100796780D01*
X168004821Y-100689418D01*
X168004814Y-100689414D01*
X167890637Y-100645182D01*
X167814635Y-100615739D01*
X167614155Y-100578263D01*
X167410203Y-100578263D01*
X167209723Y-100615739D01*
X167209720Y-100615739D01*
X167209720Y-100615740D01*
X167019543Y-100689414D01*
X167019536Y-100689418D01*
X166846139Y-100796780D01*
X166846137Y-100796782D01*
X166695416Y-100934181D01*
X166572506Y-101096941D01*
X166481601Y-101279502D01*
X166481596Y-101279515D01*
X166425781Y-101475680D01*
X166406964Y-101678762D01*
X166406964Y-101678763D01*
X155095500Y-101678763D01*
X155095500Y-100696543D01*
X155115185Y-100629504D01*
X155131815Y-100608866D01*
X155727239Y-100013441D01*
X166411679Y-100013441D01*
X166426211Y-100086498D01*
X166426212Y-100086502D01*
X166426748Y-100087304D01*
X166481578Y-100169364D01*
X166553412Y-100217361D01*
X166564439Y-100224729D01*
X166564443Y-100224730D01*
X166637500Y-100239262D01*
X166637503Y-100239263D01*
X166637505Y-100239263D01*
X168386855Y-100239263D01*
X168386856Y-100239262D01*
X168459919Y-100224729D01*
X168542780Y-100169364D01*
X168598145Y-100086503D01*
X168612679Y-100013437D01*
X168612679Y-98264089D01*
X168612679Y-98264088D01*
X168612679Y-98264086D01*
X168612678Y-98264084D01*
X168598146Y-98191027D01*
X168598145Y-98191023D01*
X168575290Y-98156818D01*
X168542780Y-98108162D01*
X168487413Y-98071168D01*
X168459918Y-98052796D01*
X168459914Y-98052795D01*
X168386856Y-98038263D01*
X168386853Y-98038263D01*
X166637505Y-98038263D01*
X166637502Y-98038263D01*
X166564443Y-98052795D01*
X166564439Y-98052796D01*
X166481578Y-98108162D01*
X166426212Y-98191023D01*
X166426211Y-98191027D01*
X166411679Y-98264084D01*
X166411679Y-100013441D01*
X155727239Y-100013441D01*
X155755725Y-99984955D01*
X155817046Y-99951472D01*
X155858271Y-99952039D01*
X155858568Y-99949596D01*
X155866014Y-99950500D01*
X155866015Y-99950500D01*
X156023985Y-99950500D01*
X156177365Y-99912696D01*
X156317240Y-99839283D01*
X156435483Y-99734530D01*
X156525220Y-99604523D01*
X156581237Y-99456818D01*
X156600278Y-99300000D01*
X156583313Y-99160275D01*
X156581237Y-99143181D01*
X156541829Y-99039271D01*
X156525220Y-98995477D01*
X156435483Y-98865470D01*
X156353471Y-98792814D01*
X156316346Y-98733627D01*
X156317113Y-98663761D01*
X156353471Y-98607185D01*
X156435483Y-98534530D01*
X156525220Y-98404523D01*
X156581237Y-98256818D01*
X156600278Y-98100000D01*
X156596065Y-98065298D01*
X156581237Y-97943181D01*
X156543312Y-97843182D01*
X156525220Y-97795477D01*
X156435483Y-97665470D01*
X156317240Y-97560717D01*
X156317238Y-97560716D01*
X156317237Y-97560715D01*
X156177365Y-97487303D01*
X156023986Y-97449500D01*
X156023985Y-97449500D01*
X155866015Y-97449500D01*
X155866014Y-97449500D01*
X155712634Y-97487303D01*
X155572762Y-97560715D01*
X155454515Y-97665471D01*
X155439488Y-97687244D01*
X155433807Y-97695475D01*
X155433487Y-97695938D01*
X155379205Y-97739930D01*
X155331436Y-97749500D01*
X153594206Y-97749500D01*
X153568761Y-97746861D01*
X153559685Y-97744958D01*
X153559682Y-97744958D01*
X153527068Y-97749023D01*
X153519392Y-97749500D01*
X153515960Y-97749500D01*
X153495716Y-97752877D01*
X153493193Y-97753245D01*
X153443606Y-97759426D01*
X153436575Y-97761519D01*
X153429618Y-97763907D01*
X153385687Y-97787682D01*
X153383411Y-97788853D01*
X153338513Y-97810803D01*
X153332566Y-97815048D01*
X153326739Y-97819584D01*
X153292913Y-97856329D01*
X153291139Y-97858177D01*
X151134274Y-100015042D01*
X151072951Y-100048527D01*
X151031721Y-100048004D01*
X151031430Y-100050404D01*
X151023985Y-100049500D01*
X150866015Y-100049500D01*
X150866014Y-100049500D01*
X150712634Y-100087303D01*
X150572762Y-100160715D01*
X150454516Y-100265471D01*
X150364781Y-100395475D01*
X150364780Y-100395476D01*
X150308762Y-100543181D01*
X150289722Y-100699999D01*
X150289722Y-100700000D01*
X146275898Y-100700000D01*
X146311237Y-100606818D01*
X146330278Y-100450000D01*
X146323363Y-100393045D01*
X146311237Y-100293181D01*
X146264279Y-100169364D01*
X146255220Y-100145477D01*
X146165483Y-100015470D01*
X146165479Y-100015466D01*
X146160509Y-100009856D01*
X146161953Y-100008576D01*
X146130145Y-99957860D01*
X146125500Y-99924240D01*
X146125500Y-99537965D01*
X146145185Y-99470926D01*
X146161819Y-99450284D01*
X147475284Y-98136819D01*
X147536607Y-98103334D01*
X147562965Y-98100500D01*
X147603985Y-98100500D01*
X147757365Y-98062696D01*
X147776226Y-98052797D01*
X147897240Y-97989283D01*
X148015483Y-97884530D01*
X148105220Y-97754523D01*
X148161237Y-97606818D01*
X148177632Y-97471789D01*
X148205254Y-97407612D01*
X148213036Y-97399066D01*
X148425284Y-97186819D01*
X148486607Y-97153334D01*
X148512965Y-97150500D01*
X150425517Y-97150500D01*
X150492556Y-97170185D01*
X150507741Y-97181682D01*
X150572760Y-97239283D01*
X150597757Y-97252402D01*
X150605192Y-97256305D01*
X150655404Y-97304890D01*
X150671378Y-97372909D01*
X150648042Y-97438767D01*
X150629792Y-97458917D01*
X150509516Y-97565470D01*
X150419781Y-97695475D01*
X150419780Y-97695476D01*
X150363762Y-97843181D01*
X150344722Y-97999999D01*
X150344722Y-98000000D01*
X150363762Y-98156818D01*
X150404444Y-98264086D01*
X150419780Y-98304523D01*
X150509517Y-98434530D01*
X150627760Y-98539283D01*
X150627762Y-98539284D01*
X150767634Y-98612696D01*
X150921014Y-98650500D01*
X150921015Y-98650500D01*
X151078985Y-98650500D01*
X151232365Y-98612696D01*
X151242867Y-98607184D01*
X151372240Y-98539283D01*
X151490483Y-98434530D01*
X151580220Y-98304523D01*
X151636237Y-98156818D01*
X151655278Y-98000000D01*
X151645274Y-97917617D01*
X151656734Y-97848696D01*
X151680686Y-97814994D01*
X152463046Y-97032634D01*
X152482902Y-97016511D01*
X152490669Y-97011437D01*
X152510873Y-96985477D01*
X152515941Y-96979739D01*
X152518375Y-96977307D01*
X152530325Y-96960567D01*
X152531832Y-96958548D01*
X152562517Y-96919126D01*
X152562519Y-96919118D01*
X152566017Y-96912655D01*
X152569241Y-96906063D01*
X152573720Y-96891018D01*
X152583506Y-96858144D01*
X152584264Y-96855777D01*
X152600500Y-96808488D01*
X152600500Y-96808481D01*
X152601706Y-96801256D01*
X152602617Y-96793952D01*
X152600553Y-96744050D01*
X152600500Y-96741488D01*
X152600500Y-95299211D01*
X152603139Y-95273764D01*
X152605043Y-95264685D01*
X152603270Y-95250463D01*
X152600977Y-95232061D01*
X152600500Y-95224385D01*
X152600500Y-95220962D01*
X152600500Y-95220960D01*
X152597120Y-95200714D01*
X152596753Y-95198188D01*
X152593829Y-95174733D01*
X152590573Y-95148608D01*
X152590570Y-95148603D01*
X152588477Y-95141572D01*
X152586093Y-95134628D01*
X152586092Y-95134619D01*
X152562312Y-95090678D01*
X152561139Y-95088398D01*
X152539199Y-95043518D01*
X152534928Y-95037538D01*
X152530420Y-95031747D01*
X152530418Y-95031742D01*
X152512564Y-95015306D01*
X152493645Y-94997889D01*
X152491796Y-94996115D01*
X151307637Y-93811955D01*
X151291511Y-93792098D01*
X151286437Y-93784331D01*
X151260487Y-93764133D01*
X151254741Y-93759059D01*
X151252307Y-93756625D01*
X151235609Y-93744703D01*
X151233555Y-93743171D01*
X151208275Y-93723496D01*
X151194126Y-93712483D01*
X151194124Y-93712482D01*
X151187648Y-93708977D01*
X151181066Y-93705759D01*
X151133182Y-93691503D01*
X151130743Y-93690722D01*
X151083488Y-93674500D01*
X151076249Y-93673292D01*
X151072748Y-93672856D01*
X151072194Y-93672615D01*
X151070386Y-93672314D01*
X151062862Y-93670571D01*
X151059048Y-93669434D01*
X151059715Y-93667197D01*
X151008658Y-93645029D01*
X150986036Y-93620247D01*
X150965483Y-93590470D01*
X150847240Y-93485717D01*
X150847238Y-93485716D01*
X150847237Y-93485715D01*
X150707365Y-93412303D01*
X150553986Y-93374500D01*
X150553985Y-93374500D01*
X150396015Y-93374500D01*
X150396014Y-93374500D01*
X150242634Y-93412303D01*
X150102762Y-93485715D01*
X149984516Y-93590471D01*
X149894781Y-93720475D01*
X149894780Y-93720476D01*
X149838762Y-93868181D01*
X149819722Y-94024999D01*
X149819722Y-94025000D01*
X149838762Y-94181818D01*
X149883706Y-94300323D01*
X149894780Y-94329523D01*
X149984517Y-94459530D01*
X150102760Y-94564283D01*
X150102762Y-94564284D01*
X150242634Y-94637696D01*
X150396014Y-94675500D01*
X150396015Y-94675500D01*
X150553985Y-94675500D01*
X150707365Y-94637696D01*
X150766197Y-94606818D01*
X150847240Y-94564283D01*
X150877246Y-94537699D01*
X150940477Y-94507979D01*
X151009741Y-94517162D01*
X151047153Y-94542835D01*
X151863181Y-95358863D01*
X151896666Y-95420186D01*
X151899500Y-95446544D01*
X151899500Y-96553455D01*
X151879815Y-96620494D01*
X151863181Y-96641136D01*
X151802450Y-96701867D01*
X151741127Y-96735352D01*
X151671435Y-96730368D01*
X151615502Y-96688496D01*
X151591673Y-96629132D01*
X151582484Y-96553455D01*
X151581237Y-96543182D01*
X151525220Y-96395477D01*
X151435483Y-96265470D01*
X151317240Y-96160717D01*
X151317238Y-96160716D01*
X151317237Y-96160715D01*
X151177365Y-96087303D01*
X151023986Y-96049500D01*
X151023985Y-96049500D01*
X150866015Y-96049500D01*
X150866014Y-96049500D01*
X150712634Y-96087303D01*
X150572762Y-96160715D01*
X150507744Y-96218316D01*
X150444510Y-96248037D01*
X150425517Y-96249500D01*
X148303783Y-96249500D01*
X148296844Y-96249110D01*
X148281322Y-96247361D01*
X148257963Y-96244729D01*
X148200672Y-96255570D01*
X148198387Y-96255958D01*
X148140715Y-96264651D01*
X148132532Y-96267175D01*
X148124529Y-96269976D01*
X148072961Y-96297230D01*
X148070892Y-96298275D01*
X148018357Y-96323574D01*
X148011338Y-96328359D01*
X148004460Y-96333435D01*
X147963239Y-96374656D01*
X147961571Y-96376263D01*
X147918804Y-96415946D01*
X147913013Y-96423208D01*
X147912360Y-96422687D01*
X147902966Y-96434929D01*
X147733079Y-96604818D01*
X147574716Y-96763181D01*
X147513393Y-96796666D01*
X147487035Y-96799500D01*
X147446014Y-96799500D01*
X147292634Y-96837303D01*
X147152762Y-96910715D01*
X147112001Y-96946826D01*
X147039071Y-97011436D01*
X147034516Y-97015471D01*
X146944781Y-97145475D01*
X146944780Y-97145476D01*
X146888763Y-97293180D01*
X146872367Y-97428208D01*
X146844745Y-97492386D01*
X146836952Y-97500942D01*
X145376804Y-98961092D01*
X145371617Y-98965727D01*
X145341033Y-98990117D01*
X145341030Y-98990121D01*
X145308171Y-99038313D01*
X145306832Y-99040200D01*
X145272206Y-99087118D01*
X145268216Y-99094667D01*
X145264528Y-99102325D01*
X145247331Y-99158074D01*
X145246607Y-99160275D01*
X145227353Y-99215304D01*
X145225771Y-99223659D01*
X145224500Y-99232100D01*
X145224500Y-99290420D01*
X145224457Y-99292705D01*
X145224185Y-99299999D01*
X145222275Y-99351010D01*
X145223316Y-99360243D01*
X145222485Y-99360336D01*
X145224500Y-99375635D01*
X145224500Y-99924240D01*
X145204815Y-99991279D01*
X145189153Y-100009556D01*
X145189491Y-100009856D01*
X145184515Y-100015472D01*
X145094781Y-100145475D01*
X145094780Y-100145476D01*
X145038762Y-100293181D01*
X145019722Y-100449999D01*
X145019722Y-100450000D01*
X141362103Y-100450000D01*
X138599347Y-97687244D01*
X138565862Y-97625921D01*
X138563932Y-97584620D01*
X138580278Y-97450000D01*
X138561237Y-97293182D01*
X138561236Y-97293180D01*
X138514590Y-97170185D01*
X138505220Y-97145477D01*
X138415483Y-97015470D01*
X138415479Y-97015466D01*
X138410509Y-97009856D01*
X138411953Y-97008576D01*
X138380145Y-96957860D01*
X138375500Y-96924240D01*
X138375500Y-94975759D01*
X138395185Y-94908720D01*
X138410846Y-94890444D01*
X138410509Y-94890145D01*
X138415481Y-94884532D01*
X138415481Y-94884531D01*
X138415483Y-94884530D01*
X138505220Y-94754523D01*
X138561237Y-94606818D01*
X138580278Y-94450000D01*
X138572381Y-94384957D01*
X138561237Y-94293181D01*
X138519002Y-94181818D01*
X138505220Y-94145477D01*
X138415483Y-94015470D01*
X138415479Y-94015466D01*
X138410509Y-94009856D01*
X138411953Y-94008576D01*
X138380145Y-93957860D01*
X138375500Y-93924240D01*
X138375500Y-93478782D01*
X138375889Y-93471843D01*
X138380270Y-93432965D01*
X138369416Y-93375607D01*
X138369037Y-93373367D01*
X138360348Y-93315715D01*
X138360348Y-93315713D01*
X138360346Y-93315709D01*
X138357836Y-93307571D01*
X138355023Y-93299532D01*
X138355023Y-93299528D01*
X138327760Y-93247948D01*
X138326727Y-93245900D01*
X138301425Y-93193358D01*
X138301423Y-93193356D01*
X138301423Y-93193355D01*
X138296642Y-93186342D01*
X138291566Y-93179465D01*
X138291565Y-93179462D01*
X138250345Y-93138242D01*
X138248752Y-93136590D01*
X138234597Y-93121334D01*
X138209059Y-93093809D01*
X138201792Y-93088014D01*
X138202312Y-93087361D01*
X138190067Y-93077964D01*
X136613047Y-91500944D01*
X136585229Y-91450000D01*
X137469722Y-91450000D01*
X137488762Y-91606818D01*
X137532759Y-91722827D01*
X137544780Y-91754523D01*
X137634517Y-91884530D01*
X137752760Y-91989283D01*
X137752762Y-91989284D01*
X137892634Y-92062696D01*
X138046014Y-92100500D01*
X138046015Y-92100500D01*
X138203985Y-92100500D01*
X138357365Y-92062696D01*
X138415496Y-92032186D01*
X138497240Y-91989283D01*
X138615483Y-91884530D01*
X138705220Y-91754523D01*
X138761237Y-91606818D01*
X138777632Y-91471789D01*
X138787010Y-91450000D01*
X140069722Y-91450000D01*
X140088762Y-91606818D01*
X140132759Y-91722827D01*
X140144780Y-91754523D01*
X140234517Y-91884530D01*
X140352760Y-91989283D01*
X140352762Y-91989284D01*
X140492634Y-92062696D01*
X140646014Y-92100500D01*
X140646015Y-92100500D01*
X140687034Y-92100500D01*
X140754073Y-92120185D01*
X140774715Y-92136819D01*
X142238181Y-93600284D01*
X142271666Y-93661607D01*
X142274500Y-93687965D01*
X142274500Y-93924240D01*
X142254815Y-93991279D01*
X142239153Y-94009556D01*
X142239491Y-94009856D01*
X142234515Y-94015472D01*
X142144781Y-94145475D01*
X142144780Y-94145476D01*
X142088762Y-94293181D01*
X142069722Y-94449999D01*
X142069722Y-94450000D01*
X142088762Y-94606818D01*
X142144780Y-94754523D01*
X142144781Y-94754524D01*
X142234518Y-94884532D01*
X142239491Y-94890145D01*
X142238044Y-94891426D01*
X142269850Y-94942120D01*
X142274500Y-94975759D01*
X142274500Y-96973233D01*
X142254815Y-97040272D01*
X142252550Y-97043673D01*
X142182281Y-97145475D01*
X142182280Y-97145476D01*
X142126262Y-97293181D01*
X142107222Y-97449999D01*
X142107222Y-97450000D01*
X142126262Y-97606818D01*
X142176746Y-97739930D01*
X142182280Y-97754523D01*
X142272017Y-97884530D01*
X142390260Y-97989283D01*
X142390262Y-97989284D01*
X142530134Y-98062696D01*
X142683514Y-98100500D01*
X142683515Y-98100500D01*
X142841485Y-98100500D01*
X142994865Y-98062696D01*
X143013726Y-98052797D01*
X143134740Y-97989283D01*
X143252983Y-97884530D01*
X143342720Y-97754523D01*
X143398737Y-97606818D01*
X143417778Y-97450000D01*
X143410166Y-97387304D01*
X143398737Y-97293181D01*
X143352090Y-97170185D01*
X143342720Y-97145477D01*
X143252983Y-97015470D01*
X143246307Y-97009556D01*
X143225677Y-96991279D01*
X143217271Y-96983832D01*
X143180146Y-96924643D01*
X143175500Y-96891018D01*
X143175500Y-94975759D01*
X143195185Y-94908720D01*
X143210846Y-94890444D01*
X143210509Y-94890145D01*
X143215481Y-94884532D01*
X143215481Y-94884531D01*
X143215483Y-94884530D01*
X143305220Y-94754523D01*
X143361237Y-94606818D01*
X143380278Y-94450000D01*
X143372381Y-94384957D01*
X143361237Y-94293181D01*
X143319002Y-94181818D01*
X143305220Y-94145477D01*
X143215483Y-94015470D01*
X143215479Y-94015466D01*
X143210509Y-94009856D01*
X143211953Y-94008576D01*
X143180145Y-93957860D01*
X143175500Y-93924240D01*
X143175500Y-93478782D01*
X143175889Y-93471843D01*
X143180270Y-93432965D01*
X143169416Y-93375607D01*
X143169037Y-93373367D01*
X143160348Y-93315715D01*
X143160348Y-93315713D01*
X143160346Y-93315709D01*
X143157836Y-93307571D01*
X143155023Y-93299532D01*
X143155023Y-93299528D01*
X143127760Y-93247948D01*
X143126727Y-93245900D01*
X143101425Y-93193358D01*
X143101423Y-93193356D01*
X143101423Y-93193355D01*
X143096642Y-93186342D01*
X143091566Y-93179465D01*
X143091565Y-93179462D01*
X143050345Y-93138242D01*
X143048752Y-93136590D01*
X143034597Y-93121334D01*
X143009059Y-93093809D01*
X143001792Y-93088014D01*
X143002312Y-93087361D01*
X142990067Y-93077964D01*
X141413047Y-91500944D01*
X141385229Y-91450000D01*
X142269722Y-91450000D01*
X142288762Y-91606818D01*
X142332759Y-91722827D01*
X142344780Y-91754523D01*
X142434517Y-91884530D01*
X142552760Y-91989283D01*
X142552762Y-91989284D01*
X142692634Y-92062696D01*
X142846014Y-92100500D01*
X142846015Y-92100500D01*
X142887034Y-92100500D01*
X142954073Y-92120185D01*
X142974715Y-92136819D01*
X144017358Y-93179462D01*
X145050652Y-94212755D01*
X145084137Y-94274078D01*
X145086067Y-94315382D01*
X145069721Y-94449999D01*
X145069722Y-94450000D01*
X145088762Y-94606818D01*
X145144780Y-94754522D01*
X145144780Y-94754523D01*
X145234517Y-94884530D01*
X145352760Y-94989283D01*
X145352762Y-94989284D01*
X145492634Y-95062696D01*
X145646014Y-95100500D01*
X145646015Y-95100500D01*
X145803985Y-95100500D01*
X145957365Y-95062696D01*
X146025356Y-95027011D01*
X146097240Y-94989283D01*
X146215483Y-94884530D01*
X146305220Y-94754523D01*
X146361237Y-94606818D01*
X146380278Y-94450000D01*
X146372381Y-94384957D01*
X146361237Y-94293181D01*
X146319002Y-94181818D01*
X146305220Y-94145477D01*
X146215483Y-94015470D01*
X146127388Y-93937425D01*
X146097237Y-93910714D01*
X145957328Y-93837284D01*
X145927273Y-93815169D01*
X143613047Y-91500944D01*
X143579562Y-91439621D01*
X143577632Y-91428209D01*
X143574092Y-91399055D01*
X143561237Y-91293182D01*
X143505220Y-91145477D01*
X143415483Y-91015470D01*
X143297240Y-90910717D01*
X143297238Y-90910716D01*
X143297237Y-90910715D01*
X143157365Y-90837303D01*
X143003986Y-90799500D01*
X143003985Y-90799500D01*
X142846015Y-90799500D01*
X142846014Y-90799500D01*
X142692634Y-90837303D01*
X142552762Y-90910715D01*
X142434516Y-91015471D01*
X142344781Y-91145475D01*
X142344780Y-91145476D01*
X142288762Y-91293181D01*
X142269722Y-91449999D01*
X142269722Y-91450000D01*
X141385229Y-91450000D01*
X141379562Y-91439621D01*
X141377632Y-91428209D01*
X141374092Y-91399055D01*
X141361237Y-91293182D01*
X141305220Y-91145477D01*
X141215483Y-91015470D01*
X141097240Y-90910717D01*
X141097238Y-90910716D01*
X141097237Y-90910715D01*
X140957365Y-90837303D01*
X140803986Y-90799500D01*
X140803985Y-90799500D01*
X140646015Y-90799500D01*
X140646014Y-90799500D01*
X140492634Y-90837303D01*
X140352762Y-90910715D01*
X140234516Y-91015471D01*
X140144781Y-91145475D01*
X140144780Y-91145476D01*
X140088762Y-91293181D01*
X140069722Y-91449999D01*
X140069722Y-91450000D01*
X138787010Y-91450000D01*
X138805254Y-91407612D01*
X138813036Y-91399066D01*
X139675284Y-90536819D01*
X139736607Y-90503334D01*
X139762965Y-90500500D01*
X143287034Y-90500500D01*
X143354073Y-90520185D01*
X143374715Y-90536819D01*
X145036952Y-92199056D01*
X145070437Y-92260379D01*
X145072367Y-92271790D01*
X145088763Y-92406819D01*
X145123979Y-92499676D01*
X145144780Y-92554523D01*
X145234517Y-92684530D01*
X145352760Y-92789283D01*
X145352762Y-92789284D01*
X145492634Y-92862696D01*
X145646014Y-92900500D01*
X145646015Y-92900500D01*
X145803985Y-92900500D01*
X145957365Y-92862696D01*
X146007562Y-92836350D01*
X146097240Y-92789283D01*
X146215483Y-92684530D01*
X146305220Y-92554523D01*
X146361237Y-92406818D01*
X146380278Y-92250000D01*
X146366536Y-92136819D01*
X146361237Y-92093181D01*
X146338104Y-92032186D01*
X146305220Y-91945477D01*
X146215483Y-91815470D01*
X146097240Y-91710717D01*
X146097238Y-91710716D01*
X146097237Y-91710715D01*
X145957365Y-91637303D01*
X145803986Y-91599500D01*
X145803985Y-91599500D01*
X145762966Y-91599500D01*
X145695927Y-91579815D01*
X145675285Y-91563181D01*
X143863908Y-89751805D01*
X143859271Y-89746617D01*
X143842427Y-89725495D01*
X143834879Y-89716030D01*
X143834878Y-89716029D01*
X143834877Y-89716028D01*
X143811973Y-89700412D01*
X143786669Y-89683161D01*
X143784803Y-89681836D01*
X143737886Y-89647210D01*
X143737882Y-89647207D01*
X143737877Y-89647205D01*
X143730297Y-89643198D01*
X143722675Y-89639528D01*
X143666941Y-89622337D01*
X143664752Y-89621617D01*
X143644842Y-89614651D01*
X143609695Y-89602352D01*
X143601326Y-89600768D01*
X143592904Y-89599500D01*
X143592902Y-89599500D01*
X143534578Y-89599500D01*
X143532294Y-89599457D01*
X143508402Y-89598563D01*
X143473989Y-89597275D01*
X143464756Y-89598316D01*
X143464662Y-89597486D01*
X143449364Y-89599500D01*
X139553783Y-89599500D01*
X139546844Y-89599110D01*
X139530553Y-89597275D01*
X139507963Y-89594729D01*
X139450672Y-89605570D01*
X139448387Y-89605958D01*
X139390715Y-89614651D01*
X139382558Y-89617167D01*
X139374529Y-89619976D01*
X139374528Y-89619977D01*
X139374526Y-89619977D01*
X139374523Y-89619979D01*
X139322940Y-89647240D01*
X139320873Y-89648284D01*
X139268358Y-89673574D01*
X139261310Y-89678379D01*
X139254458Y-89683436D01*
X139213227Y-89724667D01*
X139211558Y-89726275D01*
X139168808Y-89765942D01*
X139163015Y-89773207D01*
X139162363Y-89772687D01*
X139152969Y-89784925D01*
X138174716Y-90763181D01*
X138113393Y-90796666D01*
X138087035Y-90799500D01*
X138046014Y-90799500D01*
X137892634Y-90837303D01*
X137752762Y-90910715D01*
X137634516Y-91015471D01*
X137544781Y-91145475D01*
X137544780Y-91145476D01*
X137488762Y-91293181D01*
X137469722Y-91449999D01*
X137469722Y-91450000D01*
X136585229Y-91450000D01*
X136579562Y-91439621D01*
X136577632Y-91428209D01*
X136574092Y-91399055D01*
X136561237Y-91293182D01*
X136505220Y-91145477D01*
X136415483Y-91015470D01*
X136415479Y-91015466D01*
X136410509Y-91009856D01*
X136411953Y-91008576D01*
X136380145Y-90957860D01*
X136375500Y-90924240D01*
X136375500Y-80012965D01*
X136395185Y-79945926D01*
X136411819Y-79925284D01*
X139000285Y-77336819D01*
X139061608Y-77303334D01*
X139087966Y-77300500D01*
X140374676Y-77300500D01*
X140374677Y-77300499D01*
X140447740Y-77285966D01*
X140530601Y-77230601D01*
X140585966Y-77147740D01*
X140600499Y-77074678D01*
X142274500Y-77074678D01*
X142289032Y-77147735D01*
X142289033Y-77147739D01*
X142289034Y-77147740D01*
X142344399Y-77230601D01*
X142427260Y-77285966D01*
X142427264Y-77285967D01*
X142500321Y-77300499D01*
X142500324Y-77300500D01*
X142500326Y-77300500D01*
X144249676Y-77300500D01*
X144249677Y-77300499D01*
X144322740Y-77285966D01*
X144405601Y-77230601D01*
X144460966Y-77147740D01*
X144475500Y-77074674D01*
X144475500Y-76200000D01*
X154334785Y-76200000D01*
X154353602Y-76403082D01*
X154409417Y-76599247D01*
X154409422Y-76599260D01*
X154500327Y-76781821D01*
X154623237Y-76944581D01*
X154773958Y-77081980D01*
X154773960Y-77081982D01*
X154773962Y-77081983D01*
X154947363Y-77189348D01*
X155137544Y-77263024D01*
X155338024Y-77300500D01*
X155338026Y-77300500D01*
X155541974Y-77300500D01*
X155541976Y-77300500D01*
X155742456Y-77263024D01*
X155932637Y-77189348D01*
X156106041Y-77081981D01*
X156256764Y-76944579D01*
X156379673Y-76781821D01*
X156470582Y-76599250D01*
X156526397Y-76403083D01*
X156545215Y-76200000D01*
X156874785Y-76200000D01*
X156893602Y-76403082D01*
X156949417Y-76599247D01*
X156949422Y-76599260D01*
X157040327Y-76781821D01*
X157163237Y-76944581D01*
X157313958Y-77081980D01*
X157313960Y-77081982D01*
X157313962Y-77081983D01*
X157487363Y-77189348D01*
X157677544Y-77263024D01*
X157878024Y-77300500D01*
X157878026Y-77300500D01*
X158081974Y-77300500D01*
X158081976Y-77300500D01*
X158282456Y-77263024D01*
X158472637Y-77189348D01*
X158646041Y-77081981D01*
X158796764Y-76944579D01*
X158919673Y-76781821D01*
X159010582Y-76599250D01*
X159066397Y-76403083D01*
X159085215Y-76200000D01*
X159414785Y-76200000D01*
X159433602Y-76403082D01*
X159489417Y-76599247D01*
X159489422Y-76599260D01*
X159580327Y-76781821D01*
X159703237Y-76944581D01*
X159853958Y-77081980D01*
X159853960Y-77081982D01*
X159853962Y-77081983D01*
X160027363Y-77189348D01*
X160217544Y-77263024D01*
X160418024Y-77300500D01*
X160418026Y-77300500D01*
X160621974Y-77300500D01*
X160621976Y-77300500D01*
X160822456Y-77263024D01*
X161012637Y-77189348D01*
X161186041Y-77081981D01*
X161336764Y-76944579D01*
X161459673Y-76781821D01*
X161550582Y-76599250D01*
X161606397Y-76403083D01*
X161625215Y-76200000D01*
X161954785Y-76200000D01*
X161973602Y-76403082D01*
X162029417Y-76599247D01*
X162029422Y-76599260D01*
X162120327Y-76781821D01*
X162243237Y-76944581D01*
X162393958Y-77081980D01*
X162393960Y-77081982D01*
X162393962Y-77081983D01*
X162567363Y-77189348D01*
X162757544Y-77263024D01*
X162958024Y-77300500D01*
X162958026Y-77300500D01*
X163161974Y-77300500D01*
X163161976Y-77300500D01*
X163362456Y-77263024D01*
X163552637Y-77189348D01*
X163726041Y-77081981D01*
X163734054Y-77074676D01*
X164499499Y-77074676D01*
X164499500Y-77074678D01*
X164514032Y-77147735D01*
X164514033Y-77147739D01*
X164514034Y-77147740D01*
X164569399Y-77230601D01*
X164652260Y-77285965D01*
X164652260Y-77285966D01*
X164652264Y-77285967D01*
X164725321Y-77300499D01*
X164725324Y-77300500D01*
X164725326Y-77300500D01*
X166474676Y-77300500D01*
X166474677Y-77300499D01*
X166547740Y-77285966D01*
X166630601Y-77230601D01*
X166685966Y-77147740D01*
X166700500Y-77074674D01*
X166700500Y-75325326D01*
X166700500Y-75325323D01*
X166700499Y-75325321D01*
X166685967Y-75252264D01*
X166685966Y-75252260D01*
X166685966Y-75252259D01*
X166630601Y-75169399D01*
X166547740Y-75114034D01*
X166547739Y-75114033D01*
X166547735Y-75114032D01*
X166474677Y-75099500D01*
X166474674Y-75099500D01*
X164725326Y-75099500D01*
X164725323Y-75099500D01*
X164652264Y-75114032D01*
X164652260Y-75114033D01*
X164569399Y-75169399D01*
X164514033Y-75252260D01*
X164514032Y-75252264D01*
X164499500Y-75325321D01*
X164499499Y-75325323D01*
X164499499Y-77074676D01*
X163734054Y-77074676D01*
X163876764Y-76944579D01*
X163999673Y-76781821D01*
X164090582Y-76599250D01*
X164146397Y-76403083D01*
X164165215Y-76200000D01*
X164146397Y-75996917D01*
X164090582Y-75800750D01*
X163999673Y-75618179D01*
X163876764Y-75455421D01*
X163876762Y-75455418D01*
X163726041Y-75318019D01*
X163726039Y-75318017D01*
X163552642Y-75210655D01*
X163552635Y-75210651D01*
X163446150Y-75169399D01*
X163362456Y-75136976D01*
X163161976Y-75099500D01*
X162958024Y-75099500D01*
X162757544Y-75136976D01*
X162757541Y-75136976D01*
X162757541Y-75136977D01*
X162567364Y-75210651D01*
X162567357Y-75210655D01*
X162393960Y-75318017D01*
X162393958Y-75318019D01*
X162243237Y-75455418D01*
X162120327Y-75618178D01*
X162029422Y-75800739D01*
X162029417Y-75800752D01*
X161973602Y-75996917D01*
X161954785Y-76199999D01*
X161954785Y-76200000D01*
X161625215Y-76200000D01*
X161606397Y-75996917D01*
X161550582Y-75800750D01*
X161459673Y-75618179D01*
X161336764Y-75455421D01*
X161336762Y-75455418D01*
X161186041Y-75318019D01*
X161186039Y-75318017D01*
X161012642Y-75210655D01*
X161012635Y-75210651D01*
X160906150Y-75169399D01*
X160822456Y-75136976D01*
X160621976Y-75099500D01*
X160418024Y-75099500D01*
X160217544Y-75136976D01*
X160217541Y-75136976D01*
X160217541Y-75136977D01*
X160027364Y-75210651D01*
X160027357Y-75210655D01*
X159853960Y-75318017D01*
X159853958Y-75318019D01*
X159703237Y-75455418D01*
X159580327Y-75618178D01*
X159489422Y-75800739D01*
X159489417Y-75800752D01*
X159433602Y-75996917D01*
X159414785Y-76199999D01*
X159414785Y-76200000D01*
X159085215Y-76200000D01*
X159066397Y-75996917D01*
X159010582Y-75800750D01*
X158919673Y-75618179D01*
X158796764Y-75455421D01*
X158796762Y-75455418D01*
X158646041Y-75318019D01*
X158646039Y-75318017D01*
X158472642Y-75210655D01*
X158472635Y-75210651D01*
X158366150Y-75169399D01*
X158282456Y-75136976D01*
X158081976Y-75099500D01*
X157878024Y-75099500D01*
X157677544Y-75136976D01*
X157677541Y-75136976D01*
X157677541Y-75136977D01*
X157487364Y-75210651D01*
X157487357Y-75210655D01*
X157313960Y-75318017D01*
X157313958Y-75318019D01*
X157163237Y-75455418D01*
X157040327Y-75618178D01*
X156949422Y-75800739D01*
X156949417Y-75800752D01*
X156893602Y-75996917D01*
X156874785Y-76199999D01*
X156874785Y-76200000D01*
X156545215Y-76200000D01*
X156526397Y-75996917D01*
X156470582Y-75800750D01*
X156379673Y-75618179D01*
X156256764Y-75455421D01*
X156256762Y-75455418D01*
X156106041Y-75318019D01*
X156106039Y-75318017D01*
X155932642Y-75210655D01*
X155932635Y-75210651D01*
X155826150Y-75169399D01*
X155742456Y-75136976D01*
X155541976Y-75099500D01*
X155338024Y-75099500D01*
X155137544Y-75136976D01*
X155137541Y-75136976D01*
X155137541Y-75136977D01*
X154947364Y-75210651D01*
X154947357Y-75210655D01*
X154773960Y-75318017D01*
X154773958Y-75318019D01*
X154623237Y-75455418D01*
X154500327Y-75618178D01*
X154409422Y-75800739D01*
X154409417Y-75800752D01*
X154353602Y-75996917D01*
X154334785Y-76199999D01*
X154334785Y-76200000D01*
X144475500Y-76200000D01*
X144475500Y-75325326D01*
X144460966Y-75252260D01*
X144405601Y-75169399D01*
X144322740Y-75114034D01*
X144322739Y-75114033D01*
X144322735Y-75114032D01*
X144249677Y-75099500D01*
X144249674Y-75099500D01*
X142500326Y-75099500D01*
X142500323Y-75099500D01*
X142427264Y-75114032D01*
X142427260Y-75114033D01*
X142344399Y-75169399D01*
X142289033Y-75252260D01*
X142289032Y-75252264D01*
X142274500Y-75325321D01*
X142274500Y-77074678D01*
X140600499Y-77074678D01*
X140600500Y-77074674D01*
X140600500Y-75325326D01*
X140600500Y-75325323D01*
X140600499Y-75325321D01*
X140585967Y-75252264D01*
X140585966Y-75252260D01*
X140585965Y-75252260D01*
X140530601Y-75169399D01*
X140447740Y-75114034D01*
X140447739Y-75114033D01*
X140447735Y-75114032D01*
X140374677Y-75099500D01*
X140374674Y-75099500D01*
X138625326Y-75099500D01*
X138625323Y-75099500D01*
X138552264Y-75114032D01*
X138552260Y-75114033D01*
X138469399Y-75169399D01*
X138414033Y-75252260D01*
X138414032Y-75252264D01*
X138399500Y-75325321D01*
X138399500Y-76612034D01*
X138379815Y-76679073D01*
X138363181Y-76699715D01*
X137986497Y-77076398D01*
X137925174Y-77109883D01*
X137876396Y-77106394D01*
X137882615Y-77125753D01*
X137864627Y-77193267D01*
X137846335Y-77216560D01*
X135626804Y-79436092D01*
X135621617Y-79440727D01*
X135591033Y-79465117D01*
X135591030Y-79465121D01*
X135558171Y-79513313D01*
X135556832Y-79515200D01*
X135522206Y-79562118D01*
X135518216Y-79569667D01*
X135514528Y-79577325D01*
X135497331Y-79633074D01*
X135496607Y-79635275D01*
X135477353Y-79690304D01*
X135475771Y-79698659D01*
X135474500Y-79707100D01*
X135474500Y-79765420D01*
X135474457Y-79767705D01*
X135473614Y-79790241D01*
X135472275Y-79826010D01*
X135473316Y-79835243D01*
X135472485Y-79835336D01*
X135474500Y-79850635D01*
X135474500Y-90924240D01*
X135454815Y-90991279D01*
X135439153Y-91009556D01*
X135439491Y-91009856D01*
X135434515Y-91015472D01*
X135344781Y-91145475D01*
X135344780Y-91145476D01*
X135288762Y-91293181D01*
X135269722Y-91449999D01*
X135269722Y-91450000D01*
X130100500Y-91450000D01*
X130100500Y-76200000D01*
X135854785Y-76200000D01*
X135873602Y-76403082D01*
X135929417Y-76599247D01*
X135929422Y-76599260D01*
X136020327Y-76781821D01*
X136143237Y-76944581D01*
X136293958Y-77081980D01*
X136293960Y-77081982D01*
X136293962Y-77081983D01*
X136467363Y-77189348D01*
X136657544Y-77263024D01*
X136858024Y-77300500D01*
X136858026Y-77300500D01*
X137061974Y-77300500D01*
X137061976Y-77300500D01*
X137262456Y-77263024D01*
X137452637Y-77189348D01*
X137626041Y-77081981D01*
X137675118Y-77037240D01*
X137737918Y-77006625D01*
X137780383Y-77011641D01*
X137775132Y-76997563D01*
X137789984Y-76929290D01*
X137799851Y-76914005D01*
X137899673Y-76781821D01*
X137990582Y-76599250D01*
X138046397Y-76403083D01*
X138065215Y-76200000D01*
X138046397Y-75996917D01*
X137990582Y-75800750D01*
X137899673Y-75618179D01*
X137776764Y-75455421D01*
X137776762Y-75455418D01*
X137626041Y-75318019D01*
X137626039Y-75318017D01*
X137452642Y-75210655D01*
X137452635Y-75210651D01*
X137346150Y-75169399D01*
X137262456Y-75136976D01*
X137061976Y-75099500D01*
X136858024Y-75099500D01*
X136657544Y-75136976D01*
X136657541Y-75136976D01*
X136657541Y-75136977D01*
X136467364Y-75210651D01*
X136467357Y-75210655D01*
X136293960Y-75318017D01*
X136293958Y-75318019D01*
X136143237Y-75455418D01*
X136020327Y-75618178D01*
X135929422Y-75800739D01*
X135929417Y-75800752D01*
X135873602Y-75996917D01*
X135854785Y-76199999D01*
X135854785Y-76200000D01*
X130100500Y-76200000D01*
X130100500Y-70131489D01*
X148245500Y-70131489D01*
X148284690Y-70391503D01*
X148284692Y-70391509D01*
X148362202Y-70642788D01*
X148476295Y-70879705D01*
X148476297Y-70879707D01*
X148476298Y-70879710D01*
X148624430Y-71096980D01*
X148803290Y-71289746D01*
X149008883Y-71453701D01*
X149236616Y-71585183D01*
X149481402Y-71681254D01*
X149737772Y-71739769D01*
X149737778Y-71739769D01*
X149737781Y-71739770D01*
X149934324Y-71754499D01*
X149934343Y-71754499D01*
X149934346Y-71754500D01*
X149934348Y-71754500D01*
X150065652Y-71754500D01*
X150065654Y-71754500D01*
X150065656Y-71754499D01*
X150065675Y-71754499D01*
X150262218Y-71739770D01*
X150262220Y-71739769D01*
X150262228Y-71739769D01*
X150518598Y-71681254D01*
X150763384Y-71585183D01*
X150991117Y-71453701D01*
X151196710Y-71289746D01*
X151375570Y-71096980D01*
X151523702Y-70879710D01*
X151637798Y-70642788D01*
X151715308Y-70391508D01*
X151754500Y-70131482D01*
X151754500Y-69868518D01*
X151745744Y-69810422D01*
X151715309Y-69608496D01*
X151715307Y-69608490D01*
X151661140Y-69432885D01*
X151637798Y-69357212D01*
X151523702Y-69120290D01*
X151375570Y-68903020D01*
X151196710Y-68710254D01*
X150991117Y-68546299D01*
X150763384Y-68414817D01*
X150518598Y-68318746D01*
X150518593Y-68318744D01*
X150518584Y-68318742D01*
X150280796Y-68264469D01*
X150262228Y-68260231D01*
X150262227Y-68260230D01*
X150262223Y-68260230D01*
X150262218Y-68260229D01*
X150065675Y-68245500D01*
X150065654Y-68245500D01*
X149934346Y-68245500D01*
X149934324Y-68245500D01*
X149737781Y-68260229D01*
X149737776Y-68260230D01*
X149481415Y-68318742D01*
X149481396Y-68318748D01*
X149236615Y-68414817D01*
X149008883Y-68546299D01*
X148803290Y-68710254D01*
X148803288Y-68710256D01*
X148624430Y-68903019D01*
X148476295Y-69120294D01*
X148362202Y-69357211D01*
X148284692Y-69608490D01*
X148284690Y-69608496D01*
X148245500Y-69868510D01*
X148245500Y-70131489D01*
X130100500Y-70131489D01*
X130100500Y-70001439D01*
X130100566Y-69998575D01*
X130117003Y-69643061D01*
X130117529Y-69637371D01*
X130166501Y-69286296D01*
X130167550Y-69280685D01*
X130248707Y-68935627D01*
X130250267Y-68930146D01*
X130362920Y-68594037D01*
X130364971Y-68588742D01*
X130508163Y-68264442D01*
X130510694Y-68259359D01*
X130683184Y-67949678D01*
X130686196Y-67944816D01*
X130886521Y-67652377D01*
X130889948Y-67647838D01*
X131116414Y-67375115D01*
X131120251Y-67370907D01*
X131370907Y-67120251D01*
X131375115Y-67116414D01*
X131647838Y-66889948D01*
X131652377Y-66886521D01*
X131944816Y-66686195D01*
X131949678Y-66683184D01*
X132259359Y-66510694D01*
X132264442Y-66508163D01*
X132588742Y-66364971D01*
X132594037Y-66362920D01*
X132930146Y-66250267D01*
X132935627Y-66248707D01*
X133280685Y-66167550D01*
X133286296Y-66166501D01*
X133637371Y-66117529D01*
X133643061Y-66117003D01*
X133998576Y-66100566D01*
X134001440Y-66100500D01*
X134026929Y-66100500D01*
X165973071Y-66100500D01*
X165998560Y-66100500D01*
X166001424Y-66100566D01*
G37*
%TD.AperFunction*%
%TD*%
M02*
